<?xml version="1.0" encoding="utf-8"?>
<!-- Generator: Adobe Illustrator 26.0.0, SVG Export Plug-In . SVG Version: 6.00 Build 0)  -->
<svg version="1.1" xmlns="http://www.w3.org/2000/svg" xmlns:xlink="http://www.w3.org/1999/xlink" x="0px" y="0px"
	 viewBox="0 0 1920 1080" style="enable-background:new 0 0 1920 1080;" xml:space="preserve">
<style type="text/css">
	.st0{fill-rule:evenodd;clip-rule:evenodd;fill:none;}
	.st1{fill-rule:evenodd;clip-rule:evenodd;fill:#505050;}
	.st2{fill-rule:evenodd;clip-rule:evenodd;fill:url(#Nueva_muestra_de_motivo_2);}
</style>
<pattern  width="100.36" height="100.36" patternUnits="userSpaceOnUse" id="Nueva_muestra_de_motivo_2" viewBox="0 -200.73 100.36 100.36" style="overflow:visible;">
	<g>
		<g>
			<rect y="-200.73" class="st0" width="100.36" height="100.36"/>
			<rect x="100.36" y="-200.73" class="st0" width="100.36" height="100.36"/>
			<rect y="-100.36" class="st0" width="100.36" height="100.36"/>
			<rect x="100.36" y="-100.36" class="st0" width="100.36" height="100.36"/>
		</g>
		<g>
			<g id="Artboard-5_00000170963225573635005400000002246675755104788396_">
				<path d="M19.56-181.17h26.25v26.25H19.56V-181.17z M15.18-150.54h35v-35h-35V-150.54z"/>
			</g>
		</g>
	</g>
</pattern>
<g id="Capa_1">
	<g>
		<rect x="2291.78" y="269.42" class="st0" width="100.36" height="100.36"/>
		<rect x="2392.15" y="269.42" class="st0" width="100.36" height="100.36"/>
		<rect x="2291.78" y="369.78" class="st0" width="100.36" height="100.36"/>
		<rect x="2392.15" y="369.78" class="st0" width="100.36" height="100.36"/>
	</g>
</g>
<g id="Patron">
	<rect class="st1" width="1920" height="1080"/>
	<rect class="st2" width="1920" height="1080"/>
	<g>
		<g id="Artboard-5">
			<path d="M2311.34,315.22h26.25v-26.25h-26.25V315.22z M2306.96,284.6h35v35h-35V284.6z"/>
		</g>
	</g>
</g>
</svg>
