<?xml version="1.0" encoding="utf-8"?>
<!-- Generator: Adobe Illustrator 26.0.0, SVG Export Plug-In . SVG Version: 6.00 Build 0)  -->
<svg version="1.1" id="Capa_1" xmlns="http://www.w3.org/2000/svg" xmlns:xlink="http://www.w3.org/1999/xlink" x="0px" y="0px"
	 viewBox="0 0 250 250" style="enable-background:new 0 0 250 250;" xml:space="preserve">
<style type="text/css">
	.st0{fill:none;}
	.st1{fill-rule:evenodd;clip-rule:evenodd;fill:#A430F9;}
	.st2{fill-rule:evenodd;clip-rule:evenodd;fill:#56207E;}
	.st3{fill-rule:evenodd;clip-rule:evenodd;fill:url(#SVGID_1_);}
	.st4{opacity:0.33;fill-rule:evenodd;clip-rule:evenodd;}
</style>
<pattern  width="150" height="150" patternUnits="userSpaceOnUse" id="Nueva_muestra_de_motivo_60" viewBox="0 -150 150 150" style="overflow:visible;">
	<g>
		<rect y="-150" class="st0" width="150" height="150"/>
		<g>
			<rect y="-150" class="st0" width="150" height="150"/>
			<g id="Page-1_00000103966355647857362760000002351731893024009358_">
				<g id="glamorous_00000054974801806606914160000014823105753495660981_">
					<path id="Combined-Shape_00000114777000105546405340000010205966701821504650_" class="st1" d="M67.73-73.33l5.36-16.08
						L57.01-73.33H67.73L67.73-73.33z M69.49-73.33L75-89.86l5.51,16.53H69.49L69.49-73.33z M82.27-73.33l-5.36-16.08l16.08,16.08
						H82.27L82.27-73.33z M54.83-71.49l-1.01-1.01l0,0L75-93.68l0.59,0.59L96.18-72.5l-1.01,1.01l-6.08,6.08L88.68-65h-0.52H62.67
						h-1.35L54.83-71.49L54.83-71.49z M57.01-71.67h9.31l-4.65,4.65L57.01-71.67L57.01-71.67z M70.35-71.67h9.31L75-67.01
						L70.35-71.67L70.35-71.67z M83.68-71.67h9.31l-4.65,4.65L83.68-71.67L83.68-71.67z M77.01-66.67l4.65-4.65l4.65,4.65H77.01
						L77.01-66.67z M68.33-71.32l-4.65,4.65h9.31L68.33-71.32L68.33-71.32z M14.51,0H0v-14.51l0.59,0.59L14.51,0L14.51,0z M3.57,0H0
						v-10.7L3.57,0L3.57,0z M12.15,0H5.32L1.9-10.25L12.15,0L12.15,0z M150-14.51V0h-14.51L150-14.51L150-14.51z M144.68,0
						l3.42-10.25L137.85,0H144.68z M150-10.7V0h-3.57L150-10.7L150-10.7z M0-135.83V-150h14.51l6.67,6.67l-1.01,1.01l-6.08,6.08
						l-0.42,0.42h-0.52L0-135.83L0-135.83z M0-150h3.57l1.94,5.83H0V-150z M5.32-150l1.94,5.83h10.72L12.15-150H5.32z M0-137.85
						v-4.65h4.65L0-137.85L0-137.85z M17.99-142.5l-4.65,4.65l-4.66-4.65H17.99z M6.67-142.15l4.65,4.65H2.01L6.67-142.15z M150-150
						h-14.51l-6.67,6.67l1.01,1.01l0,0l6.49,6.49h1.35H150V-150z M144.68-150l-1.94,5.83h-10.72l5.83-5.83H144.68z M150-150h-3.57
						l-1.94,5.83H150V-150z M141.32-142.5l-4.65,4.65l-4.65-4.65C132.02-142.5,141.32-142.5,141.32-142.5z M150-142.5h-4.65
						l4.65,4.65V-142.5z M138.68-137.5h9.31l-4.65-4.65L138.68-137.5z M99.16-49.66l1.18-1.18l28.28,28.28l-1.18,1.18L99.16-49.66z
						 M100.34-99.16l-1.18-1.18l28.28-28.28l1.18,1.18L100.34-99.16z M50.84-100.34l-1.18,1.18l-28.28-28.28l1.18-1.18L50.84-100.34
						z M49.66-50.84l1.18,1.18L22.56-21.38l-1.18-1.18L49.66-50.84z M0-77.5c1.84,0,3.33,1.49,3.33,3.33c0,1.84-1.49,3.33-3.33,3.33
						V-77.5z M150-77.5c-1.84,0-3.33,1.49-3.33,3.33c0,1.84,1.49,3.33,3.33,3.33V-77.5z M71.67,0c0-1.84,1.49-3.33,3.33-3.33
						S78.33-1.84,78.33,0H71.67z M71.67-150c0,1.84,1.49,3.33,3.33,3.33s3.33-1.49,3.33-3.33H71.67z"/>
				</g>
			</g>
		</g>
	</g>
</pattern>
<g id="Patron">
	<rect class="st2" width="250" height="250"/>
	<pattern  id="SVGID_1_" xlink:href="#Nueva_muestra_de_motivo_60" patternTransform="matrix(1 0 0 -1 -169 -16013)">
	</pattern>
	<rect class="st3" width="250" height="250"/>
</g>
<rect class="st4" width="250" height="250"/>
</svg>
