<?xml version="1.0" encoding="utf-8"?>
<!-- Generator: Adobe Illustrator 26.0.0, SVG Export Plug-In . SVG Version: 6.00 Build 0)  -->
<svg version="1.1" xmlns="http://www.w3.org/2000/svg" xmlns:xlink="http://www.w3.org/1999/xlink" x="0px" y="0px"
	 viewBox="0 0 1920 1080" style="enable-background:new 0 0 1920 1080;" xml:space="preserve">
<style type="text/css">
	.st0{fill:none;}
	.st1{fill-rule:evenodd;clip-rule:evenodd;fill:#F93030;}
	.st2{fill-rule:evenodd;clip-rule:evenodd;fill:#7E2020;}
	.st3{fill-rule:evenodd;clip-rule:evenodd;fill:url(#Nueva_muestra_de_motivo_54);}
</style>
<pattern  width="150" height="150" patternUnits="userSpaceOnUse" id="Nueva_muestra_de_motivo_54" viewBox="0 -150 150 150" style="overflow:visible;">
	<g>
		<rect y="-150" class="st0" width="150" height="150"/>
		<g id="Page-1_00000140003846921229902020000006873940377560908208_">
			<g id="glamorous_00000100352290318753041780000005412700930926143648_">
				<path id="Combined-Shape_00000027574412540852170180000002132666570534121860_" class="st1" d="M67.73-76.67l5.36,16.08
					L57.01-76.67H67.73L67.73-76.67z M69.49-76.67L75-60.14l5.51-16.53H69.49L69.49-76.67z M82.27-76.67l-5.36,16.08l16.08-16.08
					H82.27L82.27-76.67z M54.83-78.51l-1.01,1.01l0,0L75-56.32l0.59-0.59L96.18-77.5l-1.01-1.01l-6.08-6.08L88.68-85h-0.52H62.67
					h-1.35L54.83-78.51L54.83-78.51z M57.01-78.33h9.31l-4.65-4.65L57.01-78.33L57.01-78.33z M70.35-78.33h9.31L75-82.99
					L70.35-78.33L70.35-78.33z M83.68-78.33h9.31l-4.65-4.65L83.68-78.33L83.68-78.33z M77.01-83.33l4.65,4.65l4.65-4.65H77.01
					L77.01-83.33z M68.33-78.68l-4.65-4.65h9.31L68.33-78.68L68.33-78.68z M14.51-150H0v14.51l0.59-0.59L14.51-150L14.51-150z
					 M3.57-150H0v10.7L3.57-150L3.57-150z M12.15-150H5.32l-3.42,10.25L12.15-150L12.15-150z M150-135.49V-150h-14.51L150-135.49
					L150-135.49z M144.68-150l3.42,10.25L137.85-150H144.68z M150-139.3V-150h-3.57L150-139.3L150-139.3z M0-14.17V0h14.51
					l6.67-6.67l-1.01-1.01l-6.08-6.08l-0.42-0.42h-0.52H0L0-14.17z M0,0h3.57l1.94-5.83H0V0z M5.32,0l1.94-5.83h10.72L12.15,0H5.32z
					 M0-12.15v4.65h4.65L0-12.15L0-12.15z M17.99-7.5l-4.65-4.65L8.68-7.5H17.99z M6.67-7.85l4.65-4.65H2.01L6.67-7.85z M150,0
					h-14.51l-6.67-6.67l1.01-1.01l0,0l6.49-6.49h1.35H150V0z M144.68,0l-1.94-5.83h-10.72L137.85,0H144.68z M150,0h-3.57l-1.94-5.83
					H150V0z M141.32-7.5l-4.65-4.65l-4.65,4.65H141.32z M150-7.5h-4.65l4.65-4.65V-7.5z M138.68-12.5h9.31l-4.65,4.65L138.68-12.5z
					 M99.16-100.34l1.18,1.18l28.28-28.28l-1.18-1.18L99.16-100.34z M100.34-50.84l-1.18,1.18l28.28,28.28l1.18-1.18L100.34-50.84z
					 M50.84-49.66l-1.18-1.18L21.38-22.56l1.18,1.18L50.84-49.66z M49.66-99.16l1.18-1.18l-28.28-28.28l-1.18,1.18L49.66-99.16z
					 M0-72.5c1.84,0,3.33-1.49,3.33-3.33c0-1.84-1.49-3.33-3.33-3.33V-72.5z M150-72.5c-1.84,0-3.33-1.49-3.33-3.33
					c0-1.84,1.49-3.33,3.33-3.33V-72.5z M71.67-150c0,1.84,1.49,3.33,3.33,3.33s3.33-1.49,3.33-3.33H71.67z M71.67,0
					c0-1.84,1.49-3.33,3.33-3.33S78.33-1.84,78.33,0H71.67z"/>
			</g>
		</g>
	</g>
</pattern>
<g id="Capa_1">
</g>
<g id="Patron">
	<rect class="st2" width="1920" height="1080"/>
	<rect class="st3" width="1920" height="1080"/>
</g>
</svg>
