<?xml version="1.0" encoding="utf-8"?>
<!-- Generator: Adobe Illustrator 26.0.0, SVG Export Plug-In . SVG Version: 6.00 Build 0)  -->
<svg version="1.1" xmlns="http://www.w3.org/2000/svg" xmlns:xlink="http://www.w3.org/1999/xlink" x="0px" y="0px"
	 viewBox="0 0 1920 1080" style="enable-background:new 0 0 1920 1080;" xml:space="preserve">
<style type="text/css">
	.st0{fill-rule:evenodd;clip-rule:evenodd;fill:none;}
	.st1{fill-rule:evenodd;clip-rule:evenodd;fill:#30A2F9;}
	.st2{fill-rule:evenodd;clip-rule:evenodd;fill:#20557A;}
	.st3{fill-rule:evenodd;clip-rule:evenodd;fill:url(#Nueva_muestra_de_motivo_69);}
</style>
<pattern  width="79.04" height="79.04" patternUnits="userSpaceOnUse" id="Nueva_muestra_de_motivo_69" viewBox="0 -79.04 79.04 79.04" style="overflow:visible;">
	<g>
		<rect y="-79.04" class="st0" width="79.04" height="79.04"/>
		<g id="Page-1_00000065039396283471371230000010230617980152552357_">
			<g id="tic-tac-toe_00000004524446711892702570000008508010839197815224_">
				<path id="Combined-Shape_00000054960902324785754140000002701586735250976143_" class="st1" d="M0.13-68.91
					c0-5.52,4.48-10,10-10s10,4.48,10,10c0,5.52-4.48,10-10,10S0.13-63.39,0.13-68.91z M2.63-68.91c0-4.14,3.36-7.5,7.5-7.5
					s7.5,3.36,7.5,7.5s-3.36,7.5-7.5,7.5S2.63-64.77,2.63-68.91z M59.34-61.48l-1.77,1.77l-7.44-7.44l-7.44,7.44l-1.77-1.77
					l7.44-7.44l-7.44-7.44l1.77-1.77l7.44,7.44l7.44-7.44l1.77,1.77l-7.44,7.44L59.34-61.48z M40.13-28.91c0-5.52,4.48-10,10-10
					s10,4.48,10,10s-4.48,10-10,10S40.13-23.39,40.13-28.91z M42.63-28.91c0-4.14,3.36-7.5,7.5-7.5s7.5,3.36,7.5,7.5
					s-3.36,7.5-7.5,7.5S42.63-24.77,42.63-28.91z M19.34-21.48l-1.77,1.77l-7.44-7.44l-7.44,7.44l-1.77-1.77l7.44-7.44l-7.44-7.44
					l1.77-1.77l7.44,7.44l7.44-7.44l1.77,1.77l-7.44,7.44L19.34-21.48z"/>
			</g>
		</g>
	</g>
</pattern>
<g id="Capa_1">
</g>
<g id="Patron">
	<rect class="st2" width="1920" height="1080"/>
	<rect class="st3" width="1920" height="1080"/>
</g>
</svg>
