<?xml version="1.0" encoding="utf-8"?>
<!-- Generator: Adobe Illustrator 26.0.0, SVG Export Plug-In . SVG Version: 6.00 Build 0)  -->
<svg version="1.1" id="Capa_1" xmlns="http://www.w3.org/2000/svg" xmlns:xlink="http://www.w3.org/1999/xlink" x="0px" y="0px"
	 viewBox="0 0 16 16" style="enable-background:new 0 0 16 16;" xml:space="preserve">
<style type="text/css">
	.st0{fill:none;}
	.st1{fill:#006100;}
	.st2{fill-rule:evenodd;clip-rule:evenodd;fill:#D9EFDB;}
	.st3{fill-rule:evenodd;clip-rule:evenodd;fill:url(#Nueva_muestra_de_motivo_36);}
</style>
<pattern  width="4" height="2" patternUnits="userSpaceOnUse" id="Nueva_muestra_de_motivo_36" viewBox="0 -2 4 2" style="overflow:visible;">
	<g>
		<rect y="-2" class="st0" width="4" height="2"/>
		<path class="st1" d="M3.45,0H4v-0.14C3.8-0.14,3.61-0.09,3.45,0z M2.43,0C2.76-0.52,3.34-0.86,4-0.86V-1c-0.05,0-0.1,0-0.14,0
			c0,0,0,0,0-0.01c0-0.08,0.06-0.14,0.14-0.14v-0.14c-0.15,0-0.27,0.11-0.28,0.26c-0.06-0.1-0.13-0.19-0.2-0.28
			C3.62-1.47,3.8-1.57,4-1.57v-0.14c-0.23,0-0.45,0.11-0.58,0.3C3.35-1.48,3.28-1.54,3.2-1.6C3.38-1.84,3.67-2,4-2H3.45
			C3.3-1.92,3.18-1.81,3.08-1.68C3-1.73,2.92-1.78,2.83-1.82C2.88-1.88,2.93-1.94,2.98-2H2.79C2.76-1.96,2.72-1.92,2.7-1.88
			C2.6-1.91,2.51-1.94,2.41-1.96L2.43-2H2.14v0C2.05-2,1.95-2,1.86-1.99v0H1.56c0.01,0.01,0.02,0.03,0.03,0.04
			C1.49-1.94,1.4-1.91,1.31-1.88C1.28-1.92,1.25-1.96,1.21-2H1.02c0.05,0.06,0.1,0.12,0.15,0.18C1.08-1.78,1-1.73,0.92-1.68
			C0.82-1.81,0.7-1.92,0.55-2H0c0.31,0,0.61,0.15,0.8,0.4C0.72-1.54,0.65-1.48,0.58-1.41C0.45-1.6,0.23-1.71,0-1.71v0.14
			c0.2,0,0.38,0.1,0.48,0.27c-0.07,0.09-0.14,0.18-0.2,0.28C0.27-1.17,0.15-1.29,0-1.29v0.14c0.08,0,0.14,0.06,0.14,0.14v0
			C0.1-1,0.05-1,0-1v0.14c0.63,0,1.22,0.32,1.56,0.86h0.29c0-0.08,0.06-0.14,0.14-0.14c0.08,0,0.14,0.06,0.14,0.14H2.43z M0-0.14V0
			h0.55C0.39-0.09,0.2-0.14,0-0.14z M2.79,0h0.19C3.24-0.26,3.6-0.43,4-0.43v-0.14C3.51-0.57,3.08-0.35,2.79,0z M0-0.57v0.14
			c0.4,0,0.76,0.16,1.02,0.43h0.19C0.92-0.35,0.49-0.57,0-0.57z M2.03-0.28c-0.16-0.02-0.3,0.1-0.31,0.26
			c-0.06-0.1-0.13-0.19-0.2-0.28C1.56-0.38,1.62-0.44,1.7-0.48C1.96-0.65,2.32-0.57,2.48-0.3c-0.07,0.09-0.14,0.18-0.2,0.28
			C2.27-0.16,2.16-0.27,2.03-0.28z M2.87-1.31C2.15-1.79,1.18-1.6,0.7-0.88C0.6-0.91,0.51-0.94,0.41-0.96
			c0.16-0.26,0.37-0.48,0.63-0.63c0.88-0.53,2.02-0.24,2.55,0.63C3.49-0.94,3.4-0.91,3.31-0.88C3.19-1.05,3.04-1.19,2.87-1.31z
			 M2.68-0.92C2.17-1.3,1.46-1.19,1.08-0.68C1-0.73,0.92-0.78,0.83-0.82c0.1-0.14,0.22-0.26,0.35-0.35
			c0.65-0.45,1.54-0.29,1.99,0.35C3.08-0.78,3-0.73,2.92-0.68C2.85-0.77,2.77-0.85,2.68-0.92z M2.41-0.59
			C2.09-0.81,1.64-0.73,1.42-0.41C1.35-0.48,1.28-0.54,1.2-0.6c0.06-0.08,0.13-0.14,0.2-0.2c0.44-0.33,1.07-0.24,1.4,0.2
			C2.72-0.54,2.65-0.48,2.58-0.41C2.54-0.48,2.48-0.54,2.41-0.59z"/>
	</g>
</pattern>
<rect class="st2" width="16" height="16"/>
<rect class="st3" width="16" height="16"/>
</svg>
