<?xml version="1.0" encoding="utf-8"?>
<!-- Generator: Adobe Illustrator 26.0.0, SVG Export Plug-In . SVG Version: 6.00 Build 0)  -->
<svg version="1.1" id="Capa_1" xmlns="http://www.w3.org/2000/svg" xmlns:xlink="http://www.w3.org/1999/xlink" x="0px" y="0px"
	 viewBox="0 0 250 250" style="enable-background:new 0 0 250 250;" xml:space="preserve">
<style type="text/css">
	.st0{fill:none;}
	.st1{fill-rule:evenodd;clip-rule:evenodd;fill:#A430F9;}
	.st2{fill-rule:evenodd;clip-rule:evenodd;fill:#56207E;}
	.st3{fill-rule:evenodd;clip-rule:evenodd;fill:url(#SVGID_1_);}
	.st4{opacity:0.33;fill-rule:evenodd;clip-rule:evenodd;}
</style>
<pattern  width="180" height="120" patternUnits="userSpaceOnUse" id="Nueva_muestra_de_motivo_31" viewBox="0 -120 180 120" style="overflow:visible;">
	<g>
		<rect y="-120" class="st0" width="180" height="120"/>
		<g>
			<rect y="-120" class="st0" width="180" height="120"/>
			<g>
				<g>
					<path class="st1" d="M180,0h-2.86v-57.14H120V0h-2.86v-57.14H60V0h-2.86v-57.14H0V-60h57.14v-57.14H0V-120h180v1.43V0z
						 M120-117.14V-60h57.14v-57.14C177.14-117.14,120-117.14,120-117.14z M117.14-117.14H60V-60h57.14V-117.14z M51.43-45.71
						c0,3.16-2.56,5.71-5.71,5.71S40-42.56,40-45.71s2.56-5.71,5.71-5.71S51.43-48.87,51.43-45.71z M17.14-11.43
						c0,3.16-2.56,5.71-5.71,5.71s-5.71-2.56-5.71-5.71s2.56-5.71,5.71-5.71S17.14-14.58,17.14-11.43z M154.29-28.57
						c0,3.16-2.56,5.71-5.71,5.71s-5.71-2.56-5.71-5.71s2.56-5.71,5.71-5.71S154.29-31.73,154.29-28.57z M94.29-28.57
						c0,3.16-2.56,5.71-5.71,5.71s-5.71-2.56-5.71-5.71s2.56-5.71,5.71-5.71S94.29-31.73,94.29-28.57z M137.14-11.43
						c0,3.16-2.56,5.71-5.71,5.71s-5.71-2.56-5.71-5.71s2.56-5.71,5.71-5.71S137.14-14.58,137.14-11.43z M34.29-71.43
						c0,3.16-2.56,5.71-5.71,5.71s-5.71-2.56-5.71-5.71c0-3.16,2.56-5.71,5.71-5.71S34.29-74.58,34.29-71.43z M51.43-105.71
						c0,3.16-2.56,5.71-5.71,5.71S40-102.56,40-105.71s2.56-5.71,5.71-5.71S51.43-108.87,51.43-105.71z M17.14-71.43
						c0,3.16-2.56,5.71-5.71,5.71s-5.71-2.56-5.71-5.71c0-3.16,2.56-5.71,5.71-5.71S17.14-74.58,17.14-71.43z M51.43-71.43
						c0,3.16-2.56,5.71-5.71,5.71S40-68.27,40-71.43s2.56-5.71,5.71-5.71S51.43-74.58,51.43-71.43z M17.14-105.71
						c0,3.16-2.56,5.71-5.71,5.71s-5.71-2.56-5.71-5.71s2.56-5.71,5.71-5.71S17.14-108.87,17.14-105.71z M34.29-105.71
						c0,3.16-2.56,5.71-5.71,5.71s-5.71-2.56-5.71-5.71s2.56-5.71,5.71-5.71S34.29-108.87,34.29-105.71z M111.43-105.71
						c0,3.16-2.56,5.71-5.71,5.71c-3.16,0-5.71-2.56-5.71-5.71s2.56-5.71,5.71-5.71C108.87-111.43,111.43-108.87,111.43-105.71z
						 M77.14-71.43c0,3.16-2.56,5.71-5.71,5.71s-5.71-2.56-5.71-5.71c0-3.16,2.56-5.71,5.71-5.71S77.14-74.58,77.14-71.43z
						 M111.43-71.43c0,3.16-2.56,5.71-5.71,5.71c-3.16,0-5.71-2.56-5.71-5.71c0-3.16,2.56-5.71,5.71-5.71S111.43-74.58,111.43-71.43
						z M77.14-105.71c0,3.16-2.56,5.71-5.71,5.71s-5.71-2.56-5.71-5.71s2.56-5.71,5.71-5.71S77.14-108.87,77.14-105.71z
						 M154.29-88.57c0,3.16-2.56,5.71-5.71,5.71s-5.71-2.56-5.71-5.71c0-3.16,2.56-5.71,5.71-5.71S154.29-91.73,154.29-88.57z
						 M171.43-105.71c0,3.16-2.56,5.71-5.71,5.71c-3.16,0-5.71-2.56-5.71-5.71s2.56-5.71,5.71-5.71
						C168.87-111.43,171.43-108.87,171.43-105.71z M137.14-71.43c0,3.16-2.56,5.71-5.71,5.71s-5.71-2.56-5.71-5.71
						c0-3.16,2.56-5.71,5.71-5.71S137.14-74.58,137.14-71.43z M171.43-71.43c0,3.16-2.56,5.71-5.71,5.71
						c-3.16,0-5.71-2.56-5.71-5.71c0-3.16,2.56-5.71,5.71-5.71S171.43-74.58,171.43-71.43z M137.14-105.71
						c0,3.16-2.56,5.71-5.71,5.71s-5.71-2.56-5.71-5.71s2.56-5.71,5.71-5.71S137.14-108.87,137.14-105.71z M171.43-45.71
						c0,3.16-2.56,5.71-5.71,5.71c-3.16,0-5.71-2.56-5.71-5.71s2.56-5.71,5.71-5.71C168.87-51.43,171.43-48.87,171.43-45.71z"/>
				</g>
			</g>
		</g>
	</g>
</pattern>
<g id="Patron">
	<rect class="st2" width="250" height="250"/>
	<pattern  id="SVGID_1_" xlink:href="#Nueva_muestra_de_motivo_31" patternTransform="matrix(1 0 0 -1 -229 -15863)">
	</pattern>
	<rect class="st3" width="250" height="250"/>
</g>
<rect y="0" class="st4" width="250" height="250"/>
</svg>
