<?xml version="1.0" encoding="utf-8"?>
<!-- Generator: Adobe Illustrator 26.0.0, SVG Export Plug-In . SVG Version: 6.00 Build 0)  -->
<svg version="1.1" xmlns="http://www.w3.org/2000/svg" xmlns:xlink="http://www.w3.org/1999/xlink" x="0px" y="0px"
	 viewBox="0 0 1920 1080" style="enable-background:new 0 0 1920 1080;" xml:space="preserve">
<style type="text/css">
	.st0{fill:none;}
	.st1{fill-rule:evenodd;clip-rule:evenodd;fill:#F4FF35;}
	.st2{fill-rule:evenodd;clip-rule:evenodd;fill:#797E20;}
	.st3{fill-rule:evenodd;clip-rule:evenodd;fill:url(#Nueva_muestra_de_motivo_24);}
</style>
<pattern  width="180" height="120" patternUnits="userSpaceOnUse" id="Nueva_muestra_de_motivo_24" viewBox="0 -120 180 120" style="overflow:visible;">
	<g>
		<rect y="-120" class="st0" width="180" height="120"/>
		<g>
			<g>
				<path class="st1" d="M180-120h-2.86v57.14H120V-120h-2.86v57.14H60V-120h-2.86v57.14H0V-60h57.14v57.14H0V0h180v-1.43V-120z
					 M120-2.86V-60h57.14v57.14H120z M117.14-2.86H60V-60h57.14V-2.86z M51.43-74.29c0-3.16-2.56-5.71-5.71-5.71S40-77.44,40-74.29
					s2.56,5.71,5.71,5.71S51.43-71.13,51.43-74.29z M17.14-108.57c0-3.16-2.56-5.71-5.71-5.71s-5.71,2.56-5.71,5.71
					s2.56,5.71,5.71,5.71S17.14-105.42,17.14-108.57z M154.29-91.43c0-3.16-2.56-5.71-5.71-5.71s-5.71,2.56-5.71,5.71
					s2.56,5.71,5.71,5.71S154.29-88.27,154.29-91.43z M94.29-91.43c0-3.16-2.56-5.71-5.71-5.71s-5.71,2.56-5.71,5.71
					s2.56,5.71,5.71,5.71S94.29-88.27,94.29-91.43z M137.14-108.57c0-3.16-2.56-5.71-5.71-5.71s-5.71,2.56-5.71,5.71
					s2.56,5.71,5.71,5.71S137.14-105.42,137.14-108.57z M34.29-48.57c0-3.16-2.56-5.71-5.71-5.71s-5.71,2.56-5.71,5.71
					c0,3.16,2.56,5.71,5.71,5.71S34.29-45.42,34.29-48.57z M51.43-14.29c0-3.16-2.56-5.71-5.71-5.71S40-17.44,40-14.29
					s2.56,5.71,5.71,5.71S51.43-11.13,51.43-14.29z M17.14-48.57c0-3.16-2.56-5.71-5.71-5.71s-5.71,2.56-5.71,5.71
					c0,3.16,2.56,5.71,5.71,5.71S17.14-45.42,17.14-48.57z M51.43-48.57c0-3.16-2.56-5.71-5.71-5.71S40-51.73,40-48.57
					c0,3.16,2.56,5.71,5.71,5.71S51.43-45.42,51.43-48.57z M17.14-14.29c0-3.16-2.56-5.71-5.71-5.71s-5.71,2.56-5.71,5.71
					s2.56,5.71,5.71,5.71S17.14-11.13,17.14-14.29z M34.29-14.29c0-3.16-2.56-5.71-5.71-5.71s-5.71,2.56-5.71,5.71
					s2.56,5.71,5.71,5.71S34.29-11.13,34.29-14.29z M111.43-14.29c0-3.16-2.56-5.71-5.71-5.71c-3.16,0-5.71,2.56-5.71,5.71
					s2.56,5.71,5.71,5.71C108.87-8.57,111.43-11.13,111.43-14.29z M77.14-48.57c0-3.16-2.56-5.71-5.71-5.71s-5.71,2.56-5.71,5.71
					c0,3.16,2.56,5.71,5.71,5.71S77.14-45.42,77.14-48.57z M111.43-48.57c0-3.16-2.56-5.71-5.71-5.71c-3.16,0-5.71,2.56-5.71,5.71
					c0,3.16,2.56,5.71,5.71,5.71C108.87-42.86,111.43-45.42,111.43-48.57z M77.14-14.29c0-3.16-2.56-5.71-5.71-5.71
					s-5.71,2.56-5.71,5.71s2.56,5.71,5.71,5.71S77.14-11.13,77.14-14.29z M154.29-31.43c0-3.16-2.56-5.71-5.71-5.71
					s-5.71,2.56-5.71,5.71c0,3.16,2.56,5.71,5.71,5.71S154.29-28.27,154.29-31.43z M171.43-14.29c0-3.16-2.56-5.71-5.71-5.71
					c-3.16,0-5.71,2.56-5.71,5.71s2.56,5.71,5.71,5.71C168.87-8.57,171.43-11.13,171.43-14.29z M137.14-48.57
					c0-3.16-2.56-5.71-5.71-5.71s-5.71,2.56-5.71,5.71c0,3.16,2.56,5.71,5.71,5.71S137.14-45.42,137.14-48.57z M171.43-48.57
					c0-3.16-2.56-5.71-5.71-5.71c-3.16,0-5.71,2.56-5.71,5.71c0,3.16,2.56,5.71,5.71,5.71C168.87-42.86,171.43-45.42,171.43-48.57z
					 M137.14-14.29c0-3.16-2.56-5.71-5.71-5.71s-5.71,2.56-5.71,5.71s2.56,5.71,5.71,5.71S137.14-11.13,137.14-14.29z M171.43-74.29
					c0-3.16-2.56-5.71-5.71-5.71c-3.16,0-5.71,2.56-5.71,5.71s2.56,5.71,5.71,5.71C168.87-68.57,171.43-71.13,171.43-74.29z"/>
			</g>
		</g>
	</g>
</pattern>
<g id="Capa_1">
</g>
<g id="Patron">
	<rect class="st2" width="1920" height="1080"/>
	<rect class="st3" width="1920" height="1080"/>
</g>
</svg>
