<?xml version="1.0" encoding="utf-8"?>
<svg version="1.1" id="Capa_1" xmlns="http://www.w3.org/2000/svg" xmlns:xlink="http://www.w3.org/1999/xlink" x="0px" y="0px"
	 viewBox="0 0 32 32" style="enable-background:new 0 0 32 32;" xml:space="preserve">
<style type="text/css">
	.st0{fill-rule:evenodd;clip-rule:evenodd;}
</style>
<g id="Page-1">
	<g id="bubbles">
		<path id="Combined-Shape" class="st0" d="M2.49,6.26c1.37,0,2.49-1.09,2.49-2.43S3.86,1.39,2.49,1.39S0,2.48,0,3.83
			S1.11,6.26,2.49,6.26z M19.56,14.96c1.37,0,2.49-1.09,2.49-2.43s-1.11-2.43-2.49-2.43c-1.37,0-2.49,1.09-2.49,2.43
			S18.18,14.96,19.56,14.96z M4.27,12.52c0.59,0,1.07-0.47,1.07-1.04c0-0.58-0.48-1.04-1.07-1.04S3.2,10.9,3.2,11.48
			C3.2,12.05,3.68,12.52,4.27,12.52z M26.67,23.3c0.59,0,1.07-0.47,1.07-1.04c0-0.58-0.48-1.04-1.07-1.04
			c-0.59,0-1.07,0.47-1.07,1.04C25.6,22.84,26.08,23.3,26.67,23.3z M10.67,31.3c0.59,0,1.07-0.47,1.07-1.04
			c0-0.58-0.48-1.04-1.07-1.04c-0.59,0-1.07,0.47-1.07,1.04C9.6,30.84,10.08,31.3,10.67,31.3z M30.58,4.87
			c0.59,0,1.07-0.47,1.07-1.04s-0.48-1.04-1.07-1.04s-1.07,0.47-1.07,1.04S29.99,4.87,30.58,4.87z M2.84,29.91
			c0.79,0,1.42-0.62,1.42-1.39c0-0.77-0.64-1.39-1.42-1.39s-1.42,0.62-1.42,1.39C1.42,29.29,2.06,29.91,2.84,29.91z M12.8,7.3
			c0.79,0,1.42-0.62,1.42-1.39s-0.64-1.39-1.42-1.39c-0.79,0-1.42,0.62-1.42,1.39S12.01,7.3,12.8,7.3z M20.98,3.48
			c0.98,0,1.78-0.78,1.78-1.74S21.96,0,20.98,0C20,0,19.2,0.78,19.2,1.74S20,3.48,20.98,3.48z M18.84,24.35
			c0.79,0,1.42-0.62,1.42-1.39c0-0.77-0.64-1.39-1.42-1.39s-1.42,0.62-1.42,1.39C17.42,23.72,18.06,24.35,18.84,24.35z M29.16,32
			c0.98,0,1.78-0.78,1.78-1.74c0-0.96-0.8-1.74-1.78-1.74s-1.78,0.78-1.78,1.74C27.38,31.22,28.17,32,29.16,32z M9.96,21.91
			c0.98,0,1.78-0.78,1.78-1.74c0-0.96-0.8-1.74-1.78-1.74s-1.78,0.78-1.78,1.74C8.18,21.13,8.97,21.91,9.96,21.91z M30.22,17.39
			c0.98,0,1.78-0.78,1.78-1.74s-0.8-1.74-1.78-1.74c-0.98,0-1.78,0.78-1.78,1.74S29.24,17.39,30.22,17.39z M27.02,10.09
			c0.39,0,0.71-0.31,0.71-0.7c0-0.38-0.32-0.7-0.71-0.7c-0.39,0-0.71,0.31-0.71,0.7C26.31,9.78,26.63,10.09,27.02,10.09z
			 M19.91,31.65c0.39,0,0.71-0.31,0.71-0.7s-0.32-0.7-0.71-0.7c-0.39,0-0.71,0.31-0.71,0.7S19.52,31.65,19.91,31.65z M11.02,14.26
			c0.39,0,0.71-0.31,0.71-0.7c0-0.38-0.32-0.7-0.71-0.7s-0.71,0.31-0.71,0.7C10.31,13.95,10.63,14.26,11.02,14.26z M2.84,20.87
			c0.39,0,0.71-0.31,0.71-0.7c0-0.38-0.32-0.7-0.71-0.7s-0.71,0.31-0.71,0.7C2.13,20.56,2.45,20.87,2.84,20.87z"/>
	</g>
</g>
</svg>
