<?xml version="1.0" encoding="utf-8"?>
<svg version="1.1" id="Capa_1" xmlns="http://www.w3.org/2000/svg" xmlns:xlink="http://www.w3.org/1999/xlink" x="0px" y="0px"
	 viewBox="0 0 32 32" style="enable-background:new 0 0 32 32;" xml:space="preserve">
<style type="text/css">
	.st0{fill-rule:evenodd;clip-rule:evenodd;}
</style>
<g>
	<g>
		<path class="st0" d="M21.64,21.64c0-2.08,1.68-3.76,3.76-3.76s3.76,1.68,3.76,3.76s-1.68,3.76-3.76,3.76
			c0,2.08-1.68,3.76-3.76,3.76s-3.76-1.68-3.76-3.76S19.56,21.64,21.64,21.64z M6.6,6.6c0-2.08,1.68-3.76,3.76-3.76
			s3.76,1.68,3.76,3.76s-1.68,3.76-3.76,3.76c0,2.08-1.68,3.76-3.76,3.76s-3.76-1.68-3.76-3.76S4.52,6.6,6.6,6.6z M10.36,9.61
			c1.66,0,3.01-1.35,3.01-3.01s-1.35-3.01-3.01-3.01S7.35,4.94,7.35,6.6S8.7,9.61,10.36,9.61z M25.4,24.65
			c1.66,0,3.01-1.35,3.01-3.01s-1.35-3.01-3.01-3.01s-3.01,1.35-3.01,3.01S23.74,24.65,25.4,24.65z"/>
	</g>
</g>
</svg>
