<?xml version="1.0" encoding="utf-8"?>
<svg version="1.1" id="Capa_1" xmlns="http://www.w3.org/2000/svg" xmlns:xlink="http://www.w3.org/1999/xlink" x="0px" y="0px"
	 viewBox="0 0 32 32" style="enable-background:new 0 0 32 32;" xml:space="preserve">
<style type="text/css">
	.st0{fill-rule:evenodd;clip-rule:evenodd;}
</style>
<g id="Page-1">
	<g id="Artboard-5">
		<path id="Combined-Shape" class="st0" d="M0,30.87l2.26-2.26l1.13,1.13L1.13,32H0V30.87z M0,1.12l2.26,2.26l1.13-1.13L1.13,0H0
			V1.12L0,1.12z M30.87,32l-2.26-2.26l1.13-1.13L32,30.87V32H30.87z M32,1.13l-2.26,2.26l-1.13-1.13L30.87,0H32V1.13z M16,14.88
			l2.26-2.26l1.13,1.13L17.13,16l2.26,2.26l-1.13,1.13L16,17.13l-2.26,2.26l-1.13-1.13L14.87,16l-2.26-2.26l1.13-1.13L16,14.88
			L16,14.88z"/>
	</g>
</g>
</svg>
