<?xml version="1.0" encoding="utf-8"?>
<svg version="1.1" id="Capa_1" xmlns="http://www.w3.org/2000/svg" xmlns:xlink="http://www.w3.org/1999/xlink" x="0px" y="0px"
	 viewBox="0 0 32 32" style="enable-background:new 0 0 32 32;" xml:space="preserve">
<style type="text/css">
	.st0{fill-rule:evenodd;clip-rule:evenodd;}
</style>
<g id="Page-1">
	<g id="glamorous">
		<path id="Combined-Shape" class="st0" d="M14.45,15.64h-2.29l3.43,3.43L14.45,15.64L14.45,15.64z M14.82,15.64h2.35L16,19.17
			L14.82,15.64L14.82,15.64z M17.55,15.64h2.29l-3.43,3.43L17.55,15.64L17.55,15.64z M11.7,15.25l1.39-1.39h0.29h5.44h0.11
			l0.09,0.09l1.3,1.3l0.21,0.21l-4.39,4.39L16,19.98l-4.52-4.52l0,0L11.7,15.25L11.7,15.25z M12.16,15.29l0.99-0.99l0.99,0.99H12.16
			L12.16,15.29z M15.01,15.29L16,14.3l0.99,0.99H15.01L15.01,15.29z M17.85,15.29l0.99-0.99l0.99,0.99H17.85L17.85,15.29z
			 M16.43,14.22h1.99l-0.99,0.99L16.43,14.22L16.43,14.22z M14.58,15.22l0.99-0.99h-1.99L14.58,15.22L14.58,15.22z M3.1,0L0.13,2.97
			L0,3.1V0H3.1L3.1,0z M0.76,0L0,2.28V0H0.76L0.76,0z M2.59,0L0.41,2.19L1.14,0H2.59L2.59,0z M32,3.1L28.9,0H32V3.1L32,3.1z
			 M29.41,0l2.19,2.19L30.86,0H29.41z M32,2.28L31.24,0H32V2.28L32,2.28z M0,28.98h2.81h0.11l0.09,0.09l1.3,1.3l0.21,0.21L3.1,32H0
			V28.98L0,28.98z M0,30.76h1.18L0.76,32H0V30.76z M2.59,32l1.24-1.24H1.55L1.14,32H2.59z M0,29.41l0.99,0.99H0V29.41L0,29.41z
			 M1.85,30.4l0.99-0.99l0.99,0.99H1.85z M0.43,29.33h1.99l-0.99,0.99L0.43,29.33z M32,28.98h-2.63h-0.29l-1.39,1.39l0,0l-0.21,0.21
			L28.9,32H32V28.98z M29.41,32l-1.24-1.24h2.29L30.86,32H29.41z M32,30.76h-1.18L31.24,32H32V30.76z M28.16,30.4l0.99-0.99
			l0.99,0.99H28.16z M32,29.41l-0.99,0.99H32V29.41z M30.58,30.33l0.99-0.99h-1.99L30.58,30.33z M27.19,4.56l0.25,0.25l-6.03,6.03
			l-0.25-0.25L27.19,4.56z M27.44,27.19l-0.25,0.25l-6.03-6.03l0.25-0.25L27.44,27.19z M4.81,27.44l-0.25-0.25l6.03-6.03l0.25,0.25
			L4.81,27.44z M4.56,4.81l0.25-0.25l6.03,6.03l-0.25,0.25L4.56,4.81z M0,15.11c0.39,0,0.71,0.32,0.71,0.71
			c0,0.39-0.32,0.71-0.71,0.71V15.11z M32,15.11c-0.39,0-0.71,0.32-0.71,0.71c0,0.39,0.32,0.71,0.71,0.71V15.11z M16.71,0
			c0,0.39-0.32,0.71-0.71,0.71c-0.39,0-0.71-0.32-0.71-0.71H16.71z M16.71,32c0-0.39-0.32-0.71-0.71-0.71
			c-0.39,0-0.71,0.32-0.71,0.71H16.71z"/>
	</g>
</g>
</svg>
