<?xml version="1.0" encoding="utf-8"?>
<svg version="1.1" id="Capa_1" xmlns="http://www.w3.org/2000/svg" xmlns:xlink="http://www.w3.org/1999/xlink" x="0px" y="0px"
	 viewBox="0 0 32 32" style="enable-background:new 0 0 32 32;" xml:space="preserve">
<style type="text/css">
	.st0{fill-rule:evenodd;clip-rule:evenodd;}
</style>
<g>
	<g>
		<path class="st0" d="M32,31.62V32H0v-0.76h10.16V16H0v-0.76h10.16V0h0.51v15.24h10.16V0h0.51v15.24h10.16V0H32V31.62z
			 M31.49,31.24V16H21.33v15.24H31.49z M20.83,16H10.67v15.24h10.16V16z M8.13,13.71c-0.56,0-1.02-0.68-1.02-1.52
			c0-0.84,0.45-1.52,1.02-1.52s1.02,0.68,1.02,1.52C9.14,13.03,8.69,13.71,8.13,13.71z M2.03,4.57c-0.56,0-1.02-0.68-1.02-1.52
			s0.45-1.52,1.02-1.52s1.02,0.68,1.02,1.52S2.59,4.57,2.03,4.57z M26.41,9.14c-0.56,0-1.02-0.68-1.02-1.52s0.45-1.52,1.02-1.52
			s1.02,0.68,1.02,1.52S26.97,9.14,26.41,9.14z M15.75,9.14c-0.56,0-1.02-0.68-1.02-1.52s0.45-1.52,1.02-1.52s1.02,0.68,1.02,1.52
			S16.31,9.14,15.75,9.14z M23.37,4.57c-0.56,0-1.02-0.68-1.02-1.52s0.45-1.52,1.02-1.52s1.02,0.68,1.02,1.52S23.93,4.57,23.37,4.57
			z M5.08,20.57c-0.56,0-1.02-0.68-1.02-1.52s0.45-1.52,1.02-1.52s1.02,0.68,1.02,1.52S5.64,20.57,5.08,20.57z M8.13,29.71
			c-0.56,0-1.02-0.68-1.02-1.52c0-0.84,0.45-1.52,1.02-1.52s1.02,0.68,1.02,1.52C9.14,29.03,8.69,29.71,8.13,29.71z M2.03,20.57
			c-0.56,0-1.02-0.68-1.02-1.52s0.45-1.52,1.02-1.52s1.02,0.68,1.02,1.52S2.59,20.57,2.03,20.57z M8.13,20.57
			c-0.56,0-1.02-0.68-1.02-1.52s0.45-1.52,1.02-1.52s1.02,0.68,1.02,1.52S8.69,20.57,8.13,20.57z M2.03,29.71
			c-0.56,0-1.02-0.68-1.02-1.52c0-0.84,0.45-1.52,1.02-1.52s1.02,0.68,1.02,1.52C3.05,29.03,2.59,29.71,2.03,29.71z M5.08,29.71
			c-0.56,0-1.02-0.68-1.02-1.52c0-0.84,0.45-1.52,1.02-1.52s1.02,0.68,1.02,1.52C6.1,29.03,5.64,29.71,5.08,29.71z M18.79,29.71
			c-0.56,0-1.02-0.68-1.02-1.52c0-0.84,0.45-1.52,1.02-1.52c0.56,0,1.02,0.68,1.02,1.52C19.81,29.03,19.35,29.71,18.79,29.71z
			 M12.7,20.57c-0.56,0-1.02-0.68-1.02-1.52s0.45-1.52,1.02-1.52s1.02,0.68,1.02,1.52S13.26,20.57,12.7,20.57z M18.79,20.57
			c-0.56,0-1.02-0.68-1.02-1.52s0.45-1.52,1.02-1.52c0.56,0,1.02,0.68,1.02,1.52S19.35,20.57,18.79,20.57z M12.7,29.71
			c-0.56,0-1.02-0.68-1.02-1.52c0-0.84,0.45-1.52,1.02-1.52s1.02,0.68,1.02,1.52C13.71,29.03,13.26,29.71,12.7,29.71z M26.41,25.14
			c-0.56,0-1.02-0.68-1.02-1.52c0-0.84,0.45-1.52,1.02-1.52s1.02,0.68,1.02,1.52C27.43,24.46,26.97,25.14,26.41,25.14z M29.46,29.71
			c-0.56,0-1.02-0.68-1.02-1.52c0-0.84,0.45-1.52,1.02-1.52s1.02,0.68,1.02,1.52C30.48,29.03,30.02,29.71,29.46,29.71z M23.37,20.57
			c-0.56,0-1.02-0.68-1.02-1.52s0.45-1.52,1.02-1.52s1.02,0.68,1.02,1.52S23.93,20.57,23.37,20.57z M29.46,20.57
			c-0.56,0-1.02-0.68-1.02-1.52s0.45-1.52,1.02-1.52s1.02,0.68,1.02,1.52S30.02,20.57,29.46,20.57z M23.37,29.71
			c-0.56,0-1.02-0.68-1.02-1.52c0-0.84,0.45-1.52,1.02-1.52s1.02,0.68,1.02,1.52C24.38,29.03,23.93,29.71,23.37,29.71z M29.46,13.71
			c-0.56,0-1.02-0.68-1.02-1.52c0-0.84,0.45-1.52,1.02-1.52s1.02,0.68,1.02,1.52C30.48,13.03,30.02,13.71,29.46,13.71z"/>
	</g>
</g>
</svg>
