<?xml version="1.0" encoding="utf-8"?>
<svg version="1.1" id="Capa_1" xmlns="http://www.w3.org/2000/svg" xmlns:xlink="http://www.w3.org/1999/xlink" x="0px" y="0px"
	 viewBox="0 0 32 32" style="enable-background:new 0 0 32 32;" xml:space="preserve">
<path d="M32,2.5v0.33c-1.01,0-1.83,0.82-1.83,1.83c0,0.32,0.19,0.79,0.42,1.02l0.39,0.39c0.31,0.34,0.39,0.84,0.2,1.26l-0.07,0.14
	C30.89,7.88,30.47,8.14,30,8.17h-5.84V14c0.02,0.34,0.21,0.64,0.51,0.81l0.14,0.07c0.26,0.13,0.67,0.07,0.87-0.14l0.39-0.39
	c0.34-0.31,0.79-0.5,1.25-0.52c1.2,0,2.17,0.97,2.17,2.16c0,1.2-0.97,2.17-2.16,2.17c-0.47-0.02-0.91-0.2-1.26-0.52l-0.39-0.39
	c-0.24-0.21-0.58-0.27-0.87-0.14l-0.14,0.07c-0.29,0.17-0.48,0.47-0.51,0.81v5.84H30c0.46,0.02,0.88,0.28,1.11,0.69l0.07,0.14
	c0.19,0.42,0.11,0.92-0.2,1.26l-0.39,0.39c-0.25,0.28-0.4,0.64-0.42,1.02c0,1.01,0.82,1.83,1.83,1.83v0.33
	c-1.2,0-2.17-0.97-2.17-2.17l0,0c0.02-0.47,0.2-0.91,0.52-1.26l0.39-0.39c0.21-0.24,0.27-0.58,0.14-0.87l-0.07-0.14
	c-0.17-0.29-0.47-0.48-0.81-0.51h-5.84V30c-0.02,0.46-0.28,0.88-0.69,1.11l-0.14,0.07c-0.42,0.19-0.92,0.11-1.26-0.2l-0.39-0.39
	c-0.28-0.25-0.64-0.4-1.02-0.42c-1.01,0-1.83,0.82-1.83,1.83H18.5c0-1.2,0.97-2.17,2.17-2.17l0,0c0.41,0,0.97,0.23,1.26,0.52
	l0.39,0.39c0.24,0.21,0.58,0.27,0.87,0.14l0.14-0.07c0.29-0.17,0.48-0.47,0.51-0.81v-5.84H18c-0.46-0.02-0.88-0.28-1.11-0.69
	l-0.07-0.14c-0.19-0.42-0.11-0.92,0.2-1.26l0.39-0.39c0.25-0.28,0.4-0.64,0.42-1.02c0-1.01-0.82-1.83-1.83-1.83
	s-1.83,0.82-1.83,1.83l0,0c0,0.32,0.19,0.79,0.42,1.02l0.39,0.39c0.31,0.34,0.39,0.84,0.2,1.26l-0.07,0.14
	c-0.23,0.41-0.65,0.67-1.11,0.69H8.17V30c0.02,0.34,0.21,0.64,0.5,0.81l0.14,0.07c0.26,0.13,0.67,0.07,0.87-0.14l0.39-0.39
	c0.34-0.31,0.79-0.5,1.25-0.52c1.2,0,2.17,0.97,2.17,2.16c0,0,0,0,0,0h-0.33c0-1.01-0.82-1.83-1.83-1.83
	c-0.32,0-0.79,0.19-1.02,0.42l-0.39,0.39c-0.34,0.31-0.84,0.39-1.26,0.2l-0.14-0.07C8.12,30.89,7.86,30.47,7.83,30v-5.84H2
	c-0.34,0.02-0.64,0.21-0.81,0.51l-0.07,0.14c-0.13,0.26-0.07,0.67,0.14,0.87l0.39,0.39c0.31,0.34,0.5,0.79,0.52,1.25
	c0,1.2-0.97,2.17-2.16,2.17c0,0,0,0,0,0v-0.33c1.01,0,1.83-0.82,1.83-1.83c0-0.32-0.19-0.79-0.42-1.02l-0.39-0.39
	c-0.31-0.34-0.39-0.84-0.2-1.26l0.07-0.14c0.23-0.41,0.65-0.67,1.11-0.69h5.84V18c-0.02-0.34-0.21-0.64-0.51-0.81l-0.14-0.07
	c-0.26-0.13-0.67-0.07-0.87,0.14l-0.39,0.39c-0.35,0.31-0.79,0.5-1.26,0.52c-1.2,0-2.17-0.97-2.17-2.17s0.97-2.17,2.17-2.17
	c0.41,0,0.97,0.23,1.26,0.52l0.39,0.39c0.24,0.21,0.58,0.27,0.87,0.14l0.14-0.07c0.29-0.17,0.48-0.47,0.51-0.81V8.17H2
	C1.53,8.14,1.11,7.88,0.89,7.48L0.81,7.34C0.62,6.92,0.7,6.42,1.02,6.08l0.39-0.39c0.25-0.28,0.4-0.64,0.42-1.02
	c0-1.01-0.82-1.83-1.83-1.83V2.5c1.2,0,2.17,0.97,2.17,2.17c0,0.41-0.23,0.97-0.52,1.26L1.26,6.32C1.04,6.55,0.99,6.89,1.11,7.19
	l0.07,0.14C1.35,7.62,1.66,7.81,2,7.83h5.84V2c0.02-0.46,0.28-0.88,0.69-1.11l0.14-0.07c0.42-0.19,0.92-0.11,1.26,0.2l0.39,0.39
	c0.28,0.25,0.64,0.4,1.02,0.42c1.01,0,1.83-0.82,1.83-1.83h0.33c0,1.2-0.97,2.17-2.17,2.17c-0.47-0.02-0.91-0.2-1.25-0.52L9.69,1.26
	C9.45,1.04,9.11,0.99,8.81,1.11L8.67,1.19C8.38,1.35,8.19,1.66,8.17,2v5.84H14c0.46,0.02,0.88,0.28,1.11,0.69l0.07,0.14
	c0.19,0.42,0.11,0.92-0.2,1.26l-0.39,0.39c-0.25,0.28-0.4,0.64-0.42,1.02c0,1.01,0.82,1.83,1.83,1.83s1.83-0.82,1.83-1.83
	c0-0.32-0.19-0.79-0.42-1.02l-0.39-0.39c-0.31-0.34-0.39-0.84-0.2-1.26l0.07-0.14c0.23-0.41,0.65-0.67,1.11-0.69h5.84V2
	c-0.02-0.34-0.21-0.64-0.51-0.81l-0.14-0.07c-0.26-0.13-0.67-0.07-0.87,0.14l-0.39,0.39c-0.35,0.31-0.79,0.5-1.26,0.52
	c-1.2,0-2.17-0.97-2.17-2.17h0.33c0,1.01,0.82,1.83,1.83,1.83c0.32,0,0.79-0.19,1.02-0.42l0.39-0.39c0.34-0.31,0.84-0.39,1.26-0.2
	l0.14,0.07c0.41,0.23,0.67,0.65,0.69,1.11v5.84H30c0.34-0.02,0.64-0.21,0.81-0.51l0.07-0.14c0.13-0.26,0.07-0.67-0.14-0.87
	l-0.39-0.39c-0.31-0.35-0.5-0.79-0.52-1.26C29.83,3.47,30.8,2.5,32,2.5z M14,23.83c0.34-0.02,0.64-0.21,0.81-0.51l0.07-0.14
	c0.13-0.26,0.07-0.67-0.14-0.87l-0.39-0.39c-0.31-0.35-0.5-0.79-0.52-1.26c0-1.2,0.97-2.17,2.17-2.17s2.17,0.97,2.17,2.17
	c0,0.41-0.23,0.97-0.52,1.26l-0.39,0.39c-0.21,0.24-0.27,0.58-0.14,0.87l0.07,0.14c0.17,0.29,0.47,0.48,0.81,0.51h5.84V18
	c0.02-0.46,0.28-0.88,0.69-1.11l0.14-0.07c0.42-0.19,0.92-0.11,1.26,0.2l0.39,0.39c0.28,0.25,0.64,0.4,1.02,0.42
	c1.01,0,1.83-0.82,1.83-1.83s-0.82-1.83-1.83-1.83c-0.32,0-0.79,0.19-1.02,0.42l-0.39,0.39c-0.34,0.31-0.84,0.39-1.26,0.2
	l-0.14-0.07c-0.41-0.23-0.67-0.65-0.69-1.11V8.17H18c-0.34,0.02-0.64,0.21-0.81,0.5l-0.07,0.14c-0.13,0.26-0.07,0.67,0.14,0.87
	l0.39,0.39c0.31,0.34,0.5,0.79,0.52,1.25c0,1.2-0.97,2.17-2.17,2.17s-2.17-0.97-2.17-2.16c0.02-0.47,0.2-0.91,0.52-1.25l0.39-0.39
	c0.21-0.24,0.27-0.58,0.14-0.87l-0.07-0.14C14.65,8.38,14.34,8.19,14,8.17H8.17V14c-0.02,0.46-0.28,0.88-0.69,1.11l-0.14,0.07
	c-0.42,0.19-0.92,0.11-1.26-0.2l-0.39-0.39c-0.28-0.25-0.64-0.4-1.02-0.42c-1.01,0-1.83,0.82-1.83,1.83s0.82,1.83,1.83,1.83
	c0.32,0,0.79-0.19,1.02-0.42l0.39-0.39c0.34-0.31,0.84-0.39,1.26-0.2l0.14,0.07c0.41,0.23,0.67,0.65,0.69,1.11v5.84
	C8.17,23.83,14,23.83,14,23.83z"/>
</svg>
