<?xml version="1.0" encoding="utf-8"?>
<svg version="1.1" id="Capa_1" xmlns="http://www.w3.org/2000/svg" xmlns:xlink="http://www.w3.org/1999/xlink" x="0px" y="0px"
	 viewBox="0 0 32 32" style="enable-background:new 0 0 32 32;" xml:space="preserve">
<path d="M0,10.98V0.01h10.97c0.34,0.96-0.16,2.02-1.13,2.36S7.83,2.2,7.49,1.24H3.63c-0.25,1.21-1.19,2.15-2.4,2.4v3.86
	C2.19,7.83,2.7,8.89,2.36,9.85S0.96,11.32,0,10.98z M0,22.26c0.96-0.34,2.02,0.16,2.36,1.13s-0.16,2.02-1.13,2.36v3.86
	c1.21,0.25,2.15,1.19,2.4,2.4h3.86c0.34-0.96,1.39-1.47,2.35-1.13c0.53,0.19,0.94,0.6,1.13,1.13H0V22.26z M22.26,32
	c0.34-0.96,1.39-1.47,2.35-1.13c0.53,0.19,0.94,0.6,1.13,1.13h3.86c0.25-1.21,1.19-2.15,2.4-2.4v-3.86
	c-0.96-0.34-1.47-1.39-1.13-2.35c0.19-0.53,0.6-0.94,1.13-1.13V32H22.26z M0,19.65v-6.02c0.81-0.17,1.65-0.01,2.34,0.44l2.73-2.73
	c-0.44-0.92-0.06-2.02,0.86-2.46s2.02-0.06,2.46,0.86c0.44,0.92,0.06,2.02-0.86,2.46c-0.5,0.24-1.09,0.24-1.59,0.01L3.2,14.94
	c0.68,1.03,0.68,2.37,0,3.4l2.73,2.73c0.92-0.44,2.02-0.05,2.46,0.87c0.44,0.92,0.05,2.02-0.87,2.46c-0.92,0.44-2.02,0.05-2.46-0.87
	c-0.24-0.5-0.24-1.08,0-1.59L2.34,19.2C1.65,19.66,0.81,19.82,0,19.65L0,19.65z M32,10.98c-0.96-0.34-1.47-1.39-1.13-2.35
	c0.19-0.53,0.6-0.94,1.13-1.13V3.64c-1.21-0.25-2.15-1.19-2.4-2.4h-3.86c-0.34,0.96-1.4,1.47-2.36,1.13
	c-0.96-0.34-1.47-1.39-1.13-2.36H32V10.98z M32,19.65c-0.38-0.08-0.74-0.23-1.06-0.44l-2.73,2.73c0.44,0.92,0.04,2.02-0.88,2.46
	c-0.92,0.44-2.02,0.04-2.46-0.88c-0.44-0.92-0.04-2.02,0.88-2.46c0.5-0.24,1.09-0.24,1.59,0.01l2.73-2.73
	c-0.68-1.03-0.68-2.37,0-3.4l-2.73-2.73c-0.92,0.44-2.02,0.05-2.46-0.87c-0.44-0.92-0.05-2.02,0.87-2.46
	c0.92-0.44,2.02-0.05,2.46,0.87c0.24,0.5,0.24,1.09,0,1.59l2.73,2.73c0.33-0.22,0.69-0.37,1.06-0.44C32,13.63,32,19.65,32,19.65z
	 M13.63,0.01h6.02c0.17,0.81,0.01,1.65-0.44,2.34l2.73,2.73c0.92-0.44,2.02-0.05,2.46,0.87c0.44,0.92,0.05,2.02-0.87,2.46
	c-0.92,0.44-2.02,0.05-2.46-0.87c-0.24-0.5-0.24-1.08,0-1.59l-2.73-2.74c-1.03,0.68-2.37,0.68-3.4,0l-2.73,2.73
	c0.44,0.92,0.04,2.02-0.88,2.46c-0.92,0.44-2.02,0.04-2.46-0.88C8.44,6.59,8.84,5.49,9.76,5.06c0.5-0.24,1.09-0.24,1.59,0.01
	l2.73-2.73C13.62,1.65,13.46,0.81,13.63,0.01L13.63,0.01z M13.63,32c0.08-0.37,0.23-0.73,0.44-1.06l-2.73-2.73
	c-0.92,0.44-2.02,0.05-2.46-0.87c-0.44-0.92-0.05-2.02,0.87-2.46c0.92-0.44,2.02-0.05,2.46,0.87c0.24,0.5,0.24,1.09,0,1.59
	l2.73,2.73c1.03-0.68,2.37-0.68,3.4,0l2.73-2.73c-0.44-0.92-0.06-2.02,0.86-2.46c0.92-0.44,2.02-0.06,2.46,0.86
	c0.44,0.92,0.06,2.02-0.86,2.46c-0.5,0.24-1.09,0.24-1.59,0.01l-2.73,2.73c0.22,0.33,0.37,0.69,0.44,1.06
	C19.65,32,13.63,32,13.63,32z M19.63,17.23c-0.25,1.21-1.19,2.15-2.4,2.4v3.86c0.96,0.34,1.47,1.39,1.13,2.36
	c-0.34,0.96-1.39,1.46-2.36,1.12c-0.96-0.34-1.47-1.39-1.13-2.36c0.19-0.53,0.6-0.94,1.13-1.12v-3.86c-1.21-0.25-2.15-1.19-2.4-2.4
	H9.74c-0.34,0.96-1.39,1.46-2.36,1.12C6.42,18.02,5.92,16.96,6.26,16c0.34-0.96,1.39-1.46,2.36-1.12c0.53,0.19,0.94,0.6,1.13,1.12
	h3.86c0.25-1.21,1.19-2.15,2.4-2.4V9.75c-0.96-0.34-1.47-1.39-1.13-2.36c0.34-0.96,1.39-1.46,2.36-1.12
	c0.96,0.34,1.47,1.39,1.13,2.36c-0.19,0.53-0.6,0.94-1.13,1.12v3.86c1.21,0.25,2.15,1.19,2.4,2.4h3.86
	c0.34-0.96,1.39-1.46,2.36-1.12c0.96,0.34,1.47,1.39,1.13,2.36c-0.34,0.96-1.39,1.46-2.36,1.12c-0.53-0.19-0.94-0.6-1.13-1.12H19.63
	z"/>
</svg>
