<?xml version="1.0" encoding="utf-8"?>
<svg version="1.1" id="Capa_1" xmlns="http://www.w3.org/2000/svg" xmlns:xlink="http://www.w3.org/1999/xlink" x="0px" y="0px"
	 viewBox="0 0 32 32" style="enable-background:new 0 0 32 32;" xml:space="preserve">
<path d="M0,32c0.01-4.24,1.04-8.3,2.86-11.29c2.47-4.06,6.06-5.64,9.42-4.16c0.9,5.51-0.05,11.4-2.49,15.45H0z M31.67,0.6
	c1.38,8.55-1.69,17.32-6.87,19.61c-1.64,0.73-3.37,0.72-5.02,0c-1.38-8.55,1.7-17.32,6.88-19.6C28.3-0.12,30.03-0.12,31.67,0.6
	L31.67,0.6z M0.03,0h9.74L9.74,0.06C7.29,4.1,3.71,5.68,0.36,4.2C0.14,2.83,0.03,1.42,0.03,0z M0.97,32H2.2l2.07-3.39v-7.82
	C2.19,23.5,0.98,27.63,0.97,32L0.97,32z M3.58,32h4.75c2.4-3.14,3.63-8.12,3.23-13.14L3.58,32L3.58,32z M5.25,19.66V27l5.63-9.27
	C8.95,17.33,6.96,17.97,5.25,19.66z M21.18,19.04c4.78,1.03,9.16-4.54,9.78-12.42c0.1-1.23,0.1-2.48,0-3.71L21.18,19.04z M24.67,3.7
	v7.32l5.6-9.25C28.35,1.38,26.36,2.02,24.67,3.7L24.67,3.7z M22.98,5.88c-1.99,3.28-2.82,7.75-2.49,12.02l3.2-5.28v-7.8
	C23.45,5.14,23.21,5.5,22.98,5.88z M8.33,0H3.6L1.76,3.02C4.11,3.53,6.48,2.43,8.33,0z M1.01,0c0,0.64,0.02,1.26,0.07,1.9L2.23,0
	H1.01L1.01,0z"/>
</svg>
