<?xml version="1.0" encoding="utf-8"?>
<svg version="1.1" id="Capa_1" xmlns="http://www.w3.org/2000/svg" xmlns:xlink="http://www.w3.org/1999/xlink" x="0px" y="0px"
	 viewBox="0 0 32 32" style="enable-background:new 0 0 32 32;" xml:space="preserve">
<style type="text/css">
	.st0{fill-rule:evenodd;clip-rule:evenodd;}
</style>
<g id="Page-1">
	<g id="melt">
		<path id="Combined-Shape" class="st0" d="M26.67,28.8c0-1.77,1.18-3.2,2.66-3.2c1.47,0,2.67-1.43,2.67-3.19l0-0.01V32h-5.33V28.8z
			 M0,22.4c0-1.77,1.18-3.2,2.67-3.2c1.47,0,2.67,1.42,2.67,3.2c0,1.77,1.18,3.2,2.67,3.2c1.47,0,2.67,1.42,2.67,3.2V32H0V22.4z
			 M21.33,28.8c0,1.77-1.18,3.2-2.67,3.2C17.19,32,16,30.58,16,28.8V22.4c0-1.77-1.18-3.2-2.67-3.2c-1.47,0-2.67-1.42-2.67-3.2
			c0-1.77-1.18-3.2-2.67-3.2c-1.47,0-2.67-1.42-2.67-3.2V3.2C5.33,1.43,4.15,0,2.67,0C1.19,0,0,1.43,0,3.2V0h10.67v3.2
			c0,1.77,1.18,3.2,2.67,3.2C14.81,6.4,16,7.82,16,9.6c0,1.77,1.18,3.2,2.67,3.2c1.47,0,2.67-1.42,2.67-3.2
			c0-1.77,1.18-3.2,2.67-3.2c1.47,0,2.67-1.42,2.67-3.2V0H32v9.6c0,1.77-1.18,3.2-2.67,3.2c-1.47,0-2.67,1.42-2.67,3.2
			c0,1.77-1.18,3.2-2.67,3.2c-1.47,0-2.67,1.42-2.67,3.2V28.8z"/>
	</g>
</g>
</svg>
