<?xml version="1.0" encoding="utf-8"?>
<svg version="1.1" id="Capa_1" xmlns="http://www.w3.org/2000/svg" xmlns:xlink="http://www.w3.org/1999/xlink" x="0px" y="0px"
	 viewBox="0 0 32 32" style="enable-background:new 0 0 32 32;" xml:space="preserve">
<style type="text/css">
	.st0{fill-rule:evenodd;clip-rule:evenodd;}
</style>
<g id="Page-1">
	<g id="tic-tac-toe">
		<path id="Combined-Shape" class="st0" d="M6.86,11.43c2.53,0,4.57-2.05,4.57-4.57S9.38,2.28,6.86,2.28S2.28,4.33,2.28,6.86
			S4.33,11.43,6.86,11.43z M6.86,10.28c1.89,0,3.43-1.54,3.43-3.43S8.75,3.43,6.86,3.43S3.43,4.96,3.43,6.86S4.96,10.28,6.86,10.28z
			 M25.95,6.86l3.4-3.4l-0.81-0.81l-3.4,3.4l-3.4-3.4l-0.81,0.81l3.4,3.4l-3.4,3.4l0.81,0.81l3.4-3.4l3.4,3.4l0.81-0.81L25.95,6.86z
			 M25.14,29.72c2.53,0,4.57-2.05,4.57-4.57s-2.05-4.57-4.57-4.57s-4.57,2.05-4.57,4.57S22.62,29.72,25.14,29.72z M25.14,28.57
			c1.89,0,3.43-1.54,3.43-3.43s-1.54-3.43-3.43-3.43s-3.43,1.54-3.43,3.43S23.25,28.57,25.14,28.57z M7.66,25.14l3.4-3.4l-0.81-0.81
			l-3.4,3.4l-3.4-3.4l-0.81,0.81l3.4,3.4l-3.4,3.4l0.81,0.81l3.4-3.4l3.4,3.4l0.81-0.81L7.66,25.14z"/>
	</g>
</g>
</svg>
