<?xml version="1.0" encoding="utf-8"?>
<svg version="1.1" id="Capa_1" xmlns="http://www.w3.org/2000/svg" xmlns:xlink="http://www.w3.org/1999/xlink" x="0px" y="0px"
	 viewBox="0 0 32 32" style="enable-background:new 0 0 32 32;" xml:space="preserve">
<style type="text/css">
	.st0{fill-rule:evenodd;clip-rule:evenodd;}
</style>
<g>
	<g>
		<path class="st0" d="M19.2,2.29C19.2,1.02,20.63,0,22.4,0s3.2,1.02,3.2,2.29v4.57c0,1.26-1.43,2.29-3.2,2.29s-3.2,1.02-3.2,2.29
			s-1.43,2.29-3.2,2.29s-3.2-1.02-3.2-2.29s-1.43-2.29-3.2-2.29S6.4,8.12,6.4,6.86V2.29C6.4,1.02,7.83,0,9.6,0s3.2,1.02,3.2,2.29
			s1.43,2.29,3.2,2.29S19.2,3.55,19.2,2.29z M32,32c-1.77,0-3.2-1.02-3.2-2.29c0-1.26-1.43-2.29-3.2-2.29s-3.2-1.02-3.2-2.29v-4.57
			c0-1.26,1.43-2.29,3.2-2.29s3.2,1.02,3.2,2.29s1.43,2.29,3.2,2.29l0,0V32z M0,32v-9.14c1.77,0,3.2-1.02,3.2-2.29l0,0
			c0-1.26,1.43-2.29,3.2-2.29s3.2,1.02,3.2,2.29v4.57c0,1.26-1.43,2.29-3.2,2.29s-3.2,1.02-3.2,2.29C3.2,30.98,1.77,32,0,32z"/>
	</g>
</g>
</svg>
