<?xml version="1.0" encoding="utf-8"?>
<!-- Generator: Adobe Illustrator 26.0.0, SVG Export Plug-In . SVG Version: 6.00 Build 0)  -->
<svg version="1.1" xmlns="http://www.w3.org/2000/svg" xmlns:xlink="http://www.w3.org/1999/xlink" x="0px" y="0px"
	 viewBox="0 0 1920 1080" style="enable-background:new 0 0 1920 1080;" xml:space="preserve">
<style type="text/css">
	.st0{fill:none;}
	.st1{fill-rule:evenodd;clip-rule:evenodd;fill:#F4FF35;}
	.st2{fill-rule:evenodd;clip-rule:evenodd;fill:#797E20;}
	.st3{fill-rule:evenodd;clip-rule:evenodd;fill:url(#Nueva_muestra_de_motivo_13);}
</style>
<pattern  width="100" height="100" patternUnits="userSpaceOnUse" id="Nueva_muestra_de_motivo_13" viewBox="0 -100 100 100" style="overflow:visible;">
	<g>
		<rect y="-100" class="st0" width="100" height="100"/>
		<g>
			<g>
				<path class="st1" d="M57.14-14.29C57.14-6.4,63.54,0,71.43,0s14.29-6.4,14.29-14.29c7.89,0,14.29-6.4,14.29-14.29
					s-6.4-14.29-14.29-14.29s-14.29,6.4-14.29,14.29C63.54-28.57,57.14-22.18,57.14-14.29z M0-71.43c0,7.89,6.4,14.29,14.29,14.29
					s14.29-6.4,14.29-14.29c7.89,0,14.29-6.4,14.29-14.29S36.46-100,28.57-100s-14.29,6.4-14.29,14.29C6.4-85.71,0-79.32,0-71.43z
					 M17.14-85.71c0-6.31,5.12-11.43,11.43-11.43S40-92.03,40-85.71c0,6.31-5.12,11.43-11.43,11.43S17.14-79.4,17.14-85.71z
					 M74.29-28.57C74.29-34.88,79.4-40,85.71-40c6.31,0,11.43,5.12,11.43,11.43s-5.12,11.43-11.43,11.43
					C79.4-17.14,74.29-22.26,74.29-28.57z"/>
			</g>
		</g>
	</g>
</pattern>
<g id="Capa_1">
</g>
<g id="Patron">
	<rect class="st2" width="1920" height="1080"/>
	<rect class="st3" width="1920" height="1080"/>
</g>
</svg>
