<?xml version="1.0" encoding="utf-8"?>
<svg version="1.1" id="Capa_1" xmlns="http://www.w3.org/2000/svg" xmlns:xlink="http://www.w3.org/1999/xlink" x="0px" y="0px"
	 viewBox="0 0 250 250" style="enable-background:new 0 0 250 250;" xml:space="preserve">
<style type="text/css">
	.st0{fill:none;}
	.st1{fill-rule:evenodd;clip-rule:evenodd;fill:#30A2F9;}
	.st2{fill-rule:evenodd;clip-rule:evenodd;fill:#20557A;}
	.st3{fill-rule:evenodd;clip-rule:evenodd;fill:url(#SVGID_1_);}
	.st4{opacity:0.33;fill-rule:evenodd;clip-rule:evenodd;}
</style>
<pattern  width="100" height="100" patternUnits="userSpaceOnUse" id="Nueva_muestra_de_motivo_18" viewBox="0 -100 100 100" style="overflow:visible;">
	<g>
		<rect y="-100" class="st0" width="100" height="100"/>
		<g>
			<rect y="-100" class="st0" width="100" height="100"/>
			<g>
				<g>
					<path class="st1" d="M57.14-85.71c0-7.89,6.4-14.29,14.29-14.29s14.29,6.4,14.29,14.29c7.89,0,14.29,6.4,14.29,14.29
						s-6.4,14.29-14.29,14.29s-14.29-6.4-14.29-14.29C63.54-71.43,57.14-77.82,57.14-85.71z M0-28.57c0-7.89,6.4-14.29,14.29-14.29
						s14.29,6.4,14.29,14.29c7.89,0,14.29,6.4,14.29,14.29S36.46,0,28.57,0S14.28-6.4,14.28-14.29C6.4-14.29,0-20.68,0-28.57z
						 M17.14-14.29c0,6.31,5.12,11.43,11.43,11.43S40-7.97,40-14.29c0-6.31-5.12-11.43-11.43-11.43S17.14-20.6,17.14-14.29z
						 M74.29-71.43C74.29-65.12,79.4-60,85.71-60s11.43-5.12,11.43-11.43s-5.12-11.43-11.43-11.43S74.29-77.74,74.29-71.43z"/>
				</g>
			</g>
		</g>
	</g>
</pattern>
<g id="Patron">
	<rect class="st2" width="250" height="250"/>
	<pattern  id="SVGID_1_" xlink:href="#Nueva_muestra_de_motivo_18" patternTransform="matrix(1 0 0 -1 -69 -15763)">
	</pattern>
	<rect class="st3" width="250" height="250"/>
</g>
<rect class="st4" width="250" height="250"/>
</svg>
