<?xml version="1.0" encoding="utf-8"?>
<svg version="1.1" id="Capa_1" xmlns="http://www.w3.org/2000/svg" xmlns:xlink="http://www.w3.org/1999/xlink" x="0px" y="0px"
	 viewBox="0 0 250 250" style="enable-background:new 0 0 250 250;" xml:space="preserve">
<style type="text/css">
	.st0{fill:none;}
	.st1{fill-rule:evenodd;clip-rule:evenodd;fill:#F9B330;}
	.st2{fill-rule:evenodd;clip-rule:evenodd;fill:#7E5D20;}
	.st3{fill-rule:evenodd;clip-rule:evenodd;fill:url(#SVGID_1_);}
	.st4{opacity:0.33;fill-rule:evenodd;clip-rule:evenodd;}
</style>
<pattern  width="90" height="92" patternUnits="userSpaceOnUse" id="Nueva_muestra_de_motivo_25" viewBox="0 -92 90 92" style="overflow:visible;">
	<g>
		<rect y="-92" class="st0" width="90" height="92"/>
		<g>
			<rect y="-92" class="st0" width="90" height="92"/>
			<g id="Page-1_00000124881742711285537100000010262653468712129687_">
				<g id="bubbles_00000072276189774109222740000017555666877774523313_">
					<path id="Combined-Shape_00000036947999010613058110000000807735744785957802_" class="st1" d="M0-11c0,3.87,3.13,7,7,7
						s7-3.13,7-7s-3.13-7-7-7S0-14.87,0-11z M48-36c0,3.87,3.13,7,7,7s7-3.13,7-7s-3.13-7-7-7S48-39.87,48-36z M9-33
						c0,1.66,1.34,3,3,3s3-1.34,3-3s-1.34-3-3-3S9-34.66,9-33z M72-64c0,1.66,1.34,3,3,3s3-1.34,3-3c0-1.66-1.34-3-3-3
						S72-65.66,72-64z M27-87c0,1.66,1.34,3,3,3s3-1.34,3-3s-1.34-3-3-3S27-88.66,27-87z M83-11c0,1.66,1.34,3,3,3s3-1.34,3-3
						s-1.34-3-3-3S83-12.66,83-11z M4-82c0,2.21,1.79,4,4,4s4-1.79,4-4s-1.79-4-4-4S4-84.21,4-82z M32-17c0,2.21,1.79,4,4,4
						s4-1.79,4-4s-1.79-4-4-4S32-19.21,32-17z M54-5c0,2.76,2.24,5,5,5s5-2.24,5-5s-2.24-5-5-5S54-7.76,54-5z M49-66
						c0,2.21,1.79,4,4,4s4-1.79,4-4s-1.79-4-4-4S49-68.21,49-66z M77-87c0,2.76,2.24,5,5,5s5-2.24,5-5s-2.24-5-5-5S77-89.76,77-87z
						 M23-58c0,2.76,2.24,5,5,5s5-2.24,5-5s-2.24-5-5-5S23-60.76,23-58z M80-45c0,2.76,2.24,5,5,5s5-2.24,5-5s-2.24-5-5-5
						S80-47.76,80-45z M74-27c0,1.1,0.9,2,2,2s2-0.9,2-2s-0.9-2-2-2S74-28.1,74-27z M54-89c0,1.1,0.9,2,2,2s2-0.9,2-2s-0.9-2-2-2
						S54-90.1,54-89z M29-39c0,1.1,0.9,2,2,2c1.1,0,2-0.9,2-2s-0.9-2-2-2S29-40.1,29-39z M6-58c0,1.1,0.9,2,2,2s2-0.9,2-2
						s-0.9-2-2-2S6-59.1,6-58z"/>
				</g>
			</g>
		</g>
	</g>
</pattern>
<g id="Patron">
	<rect class="st2" width="250" height="250"/>
	<pattern  id="SVGID_1_" xlink:href="#Nueva_muestra_de_motivo_25" patternTransform="matrix(1 0 0 -1 -49 -15727)">
	</pattern>
	<rect class="st3" width="250" height="250"/>
</g>
<rect class="st4" width="250" height="250"/>
</svg>
