<?xml version="1.0" encoding="utf-8"?>
<!-- Generator: Adobe Illustrator 26.0.0, SVG Export Plug-In . SVG Version: 6.00 Build 0)  -->
<svg version="1.1" xmlns="http://www.w3.org/2000/svg" xmlns:xlink="http://www.w3.org/1999/xlink" x="0px" y="0px"
	 viewBox="0 0 1920 1080" style="enable-background:new 0 0 1920 1080;" xml:space="preserve">
<style type="text/css">
	.st0{fill:none;}
	.st1{fill-rule:evenodd;clip-rule:evenodd;fill:#F93030;}
	.st2{fill-rule:evenodd;clip-rule:evenodd;fill:#7E2020;}
	.st3{fill-rule:evenodd;clip-rule:evenodd;fill:url(#Nueva_muestra_de_motivo_24);}
</style>
<pattern  width="90" height="92" patternUnits="userSpaceOnUse" id="Nueva_muestra_de_motivo_24" viewBox="0 -92 90 92" style="overflow:visible;">
	<g>
		<rect y="-92" class="st0" width="90" height="92"/>
		<g id="Page-1_00000012461218797741447340000002651086713511253432_">
			<g id="bubbles_00000160891985152353087440000005075036178831635128_">
				<path id="Combined-Shape_00000057143739249272454120000001085430801292193418_" class="st1" d="M0-81c0-3.87,3.13-7,7-7
					s7,3.13,7,7c0,3.87-3.13,7-7,7S0-77.13,0-81z M48-56c0-3.87,3.13-7,7-7s7,3.13,7,7s-3.13,7-7,7S48-52.13,48-56z M9-59
					c0-1.66,1.34-3,3-3s3,1.34,3,3s-1.34,3-3,3S9-57.34,9-59z M72-28c0-1.66,1.34-3,3-3s3,1.34,3,3s-1.34,3-3,3S72-26.34,72-28z
					 M27-5c0-1.66,1.34-3,3-3s3,1.34,3,3s-1.34,3-3,3S27-3.34,27-5z M83-81c0-1.66,1.34-3,3-3s3,1.34,3,3s-1.34,3-3,3
					S83-79.34,83-81z M4-10c0-2.21,1.79-4,4-4s4,1.79,4,4s-1.79,4-4,4S4-7.79,4-10z M32-75c0-2.21,1.79-4,4-4s4,1.79,4,4
					s-1.79,4-4,4S32-72.79,32-75z M54-87c0-2.76,2.24-5,5-5c2.76,0,5,2.24,5,5s-2.24,5-5,5C56.24-82,54-84.24,54-87z M49-26
					c0-2.21,1.79-4,4-4s4,1.79,4,4c0,2.21-1.79,4-4,4S49-23.79,49-26z M77-5c0-2.76,2.24-5,5-5s5,2.24,5,5s-2.24,5-5,5S77-2.24,77-5
					z M23-34c0-2.76,2.24-5,5-5s5,2.24,5,5s-2.24,5-5,5S23-31.24,23-34z M80-47c0-2.76,2.24-5,5-5s5,2.24,5,5s-2.24,5-5,5
					S80-44.24,80-47z M74-65c0-1.1,0.9-2,2-2s2,0.9,2,2s-0.9,2-2,2S74-63.9,74-65z M54-3c0-1.1,0.9-2,2-2s2,0.9,2,2s-0.9,2-2,2
					S54-1.9,54-3z M29-53c0-1.1,0.9-2,2-2s2,0.9,2,2s-0.9,2-2,2S29-51.9,29-53z M6-34c0-1.1,0.9-2,2-2s2,0.9,2,2s-0.9,2-2,2
					S6-32.9,6-34z"/>
			</g>
		</g>
	</g>
</pattern>
<g id="Capa_1">
</g>
<g id="Patron">
	<rect class="st2" width="1920" height="1080"/>
	<rect class="st3" width="1920" height="1080"/>
</g>
</svg>
