<?xml version="1.0" encoding="utf-8"?>
<svg version="1.1" id="Capa_1" xmlns="http://www.w3.org/2000/svg" xmlns:xlink="http://www.w3.org/1999/xlink" x="0px" y="0px"
	 viewBox="0 0 250 250" style="enable-background:new 0 0 250 250;" xml:space="preserve">
<style type="text/css">
	.st0{fill:none;}
	.st1{fill:#3130F9;}
	.st2{fill-rule:evenodd;clip-rule:evenodd;fill:#20207E;}
	.st3{fill-rule:evenodd;clip-rule:evenodd;fill:url(#SVGID_1_);}
	.st4{opacity:0.33;fill-rule:evenodd;clip-rule:evenodd;}
</style>
<pattern  width="150" height="150" patternUnits="userSpaceOnUse" id="Nueva_muestra_de_motivo_17" viewBox="0.01 -150 150 150" style="overflow:visible;">
	<g>
		<rect x="0.01" y="-150" class="st0" width="150" height="150"/>
		<g>
			<rect x="0.01" y="-150" class="st0" width="150" height="150"/>
			<path class="st1" d="M139.85-21.88c0.1-2.18,0.96-4.27,2.43-5.88l1.84-1.84c0.98-0.97,1.29-2.85,0.66-4.09l-0.34-0.66
				c-0.8-1.37-2.22-2.26-3.8-2.37h-27.36v27.36c-0.11,2.17-1.33,4.14-3.23,5.2l-0.66,0.34c-1.98,0.9-4.31,0.52-5.91-0.95l-1.84-1.84
				c-1.06-1.07-3.26-1.98-4.77-1.98c-4.75,0-8.59,3.85-8.59,8.59h-1.56c0-5.61,4.55-10.16,10.16-10.16c2.18,0.1,4.27,0.96,5.88,2.43
				l1.84,1.84c0.97,0.98,2.85,1.29,4.09,0.66l0.66-0.34c1.37-0.8,2.26-2.22,2.37-3.8v-27.36H84.37c-2.17-0.11-4.14-1.33-5.2-3.23
				l-0.34-0.66c-0.9-1.98-0.52-4.31,0.95-5.91l1.84-1.84c1.07-1.06,1.98-3.26,1.98-4.77c0-4.75-3.85-8.59-8.59-8.59
				s-8.59,3.85-8.59,8.59c0.1,1.77,0.8,3.45,1.98,4.77l1.84,1.84c1.48,1.6,1.86,3.93,0.95,5.91l-0.34,0.66
				c-1.06,1.9-3.03,3.12-5.2,3.23H38.29v27.36c0.11,1.58,0.99,3.01,2.37,3.8l0.66,0.34c1.38,0.59,2.97,0.34,4.09-0.66l1.84-1.84
				c1.62-1.47,3.7-2.33,5.88-2.43c5.61,0,10.16,4.55,10.16,10.16h-1.56c0-4.75-3.85-8.59-8.59-8.59c-1.77,0.1-3.45,0.8-4.77,1.98
				l-1.84,1.84c-1.6,1.48-3.93,1.86-5.91,0.95l-0.66-0.34c-1.9-1.06-3.12-3.03-3.23-5.2v-27.36H9.37c-1.58,0.11-3.01,0.99-3.8,2.37
				l-0.34,0.66c-0.59,1.38-0.33,2.97,0.66,4.09l1.84,1.84c1.36,1.36,2.43,3.95,2.43,5.88c0,5.61-4.55,10.16-10.16,10.16v-1.56
				c4.75,0,8.59-3.85,8.59-8.59c-0.1-1.77-0.8-3.45-1.98-4.77l-1.84-1.84c-1.48-1.6-1.86-3.93-0.95-5.91l0.34-0.66
				c1.06-1.9,3.03-3.12,5.2-3.23h27.36v-27.36c-0.11-1.58-0.99-3.01-2.37-3.8l-0.66-0.34c-1.38-0.59-2.97-0.33-4.09,0.66l-1.84,1.84
				c-1.36,1.36-3.95,2.43-5.88,2.43c-5.61,0-10.16-4.55-10.16-10.16s4.55-10.16,10.16-10.16c2.18,0.1,4.27,0.96,5.88,2.43l1.84,1.84
				c0.97,0.98,2.85,1.29,4.09,0.66l0.66-0.34c1.37-0.8,2.26-2.22,2.37-3.8v-27.36H9.37c-2.17-0.11-4.14-1.33-5.2-3.23l-0.34-0.63
				c-0.9-1.98-0.52-4.31,0.95-5.91l1.84-1.84c1.07-1.06,1.98-3.26,1.98-4.77c0-4.75-3.85-8.59-8.59-8.59v-1.56c0.01,0,0.01,0,0.02,0
				c5.61,0.01,10.15,4.56,10.14,10.17c-0.11,2.18-0.96,4.25-2.43,5.87l-1.85,1.83c-0.98,0.97-1.28,2.86-0.66,4.09l0.34,0.66
				c0.8,1.37,2.22,2.26,3.8,2.37h27.36v-27.36c0.11-2.17,1.33-4.14,3.23-5.2l0.66-0.34c1.98-0.9,4.31-0.52,5.91,0.95l1.84,1.84
				c1.06,1.07,3.26,1.98,4.77,1.98c4.75,0,8.59-3.85,8.59-8.59h1.56c0,0.01,0,0.01,0,0.02c-0.01,5.61-4.56,10.15-10.17,10.14
				c-2.18-0.11-4.25-0.96-5.87-2.43l-1.84-1.85c-0.97-0.98-2.86-1.28-4.09-0.66l-0.66,0.34c-1.37,0.8-2.26,2.22-2.37,3.8v27.36
				h27.36c2.17,0.11,4.14,1.33,5.2,3.23l0.34,0.66c0.9,1.98,0.52,4.31-0.95,5.91l-1.84,1.84c-1.07,1.06-1.98,3.26-1.98,4.77l0,0
				c0,4.75,3.85,8.59,8.59,8.59s8.59-3.85,8.59-8.59c-0.1-1.77-0.8-3.45-1.98-4.77l-1.84-1.84c-1.48-1.6-1.86-3.93-0.95-5.91
				l0.34-0.66c1.06-1.9,3.03-3.12,5.2-3.23h27.36v-27.36c-0.11-1.58-0.99-3.01-2.37-3.8l-0.66-0.34c-1.38-0.59-2.97-0.33-4.09,0.66
				l-1.84,1.84c-1.36,1.36-3.95,2.43-5.88,2.43l0,0c-5.61,0-10.16-4.55-10.16-10.16h1.56c0,4.75,3.85,8.59,8.59,8.59
				c1.77-0.1,3.45-0.8,4.77-1.98l1.84-1.84c1.6-1.48,3.93-1.86,5.91-0.95l0.66,0.34c1.9,1.06,3.12,3.03,3.23,5.2v27.36h27.36
				c1.58-0.11,3.01-0.99,3.8-2.37l0.34-0.66c0.59-1.38,0.34-2.98-0.66-4.09l-1.84-1.84c-1.47-1.62-2.33-3.7-2.43-5.88l0,0
				c0-5.61,4.55-10.16,10.16-10.16v1.56c-4.75,0-8.59,3.85-8.59,8.59c0.1,1.77,0.8,3.45,1.98,4.77l1.84,1.84
				c1.48,1.6,1.86,3.93,0.95,5.91l-0.34,0.66c-1.06,1.9-3.03,3.12-5.2,3.23H113.3v27.36c0.11,1.58,0.99,3.01,2.37,3.8l0.66,0.34
				c1.38,0.59,2.98,0.34,4.09-0.66l1.84-1.84c1.62-1.47,3.7-2.33,5.88-2.43c5.61,0,10.15,4.55,10.15,10.16s-4.55,10.15-10.16,10.15
				c-2.18-0.11-4.25-0.96-5.87-2.43l-1.84-1.84c-0.97-0.98-2.86-1.28-4.09-0.66l-0.66,0.34c-1.37,0.8-2.26,2.22-2.37,3.8v27.36
				h27.36c2.17,0.11,4.14,1.33,5.2,3.23l0.34,0.66c0.9,1.98,0.52,4.31-0.95,5.91l-1.84,1.84c-1.07,1.06-1.98,3.26-1.98,4.77
				c0,4.75,3.85,8.59,8.59,8.59v1.56C144.4-11.72,139.85-16.27,139.85-21.88z M38.29-111.72v27.36c-0.11,2.17-1.33,4.14-3.23,5.2
				l-0.66,0.34c-1.98,0.9-4.31,0.52-5.91-0.95l-1.84-1.84c-1.06-1.07-3.26-1.98-4.77-1.98c-4.75,0-8.59,3.85-8.59,8.59
				s3.85,8.59,8.59,8.59c1.77-0.1,3.45-0.8,4.77-1.98l1.84-1.84c1.6-1.48,3.93-1.86,5.91-0.95l0.66,0.34
				c1.9,1.06,3.12,3.03,3.23,5.2v27.36h27.36c1.58-0.11,3.01-0.99,3.8-2.37l0.34-0.66c0.59-1.38,0.34-2.97-0.66-4.09l-1.84-1.84
				c-1.47-1.62-2.33-3.7-2.43-5.88c0-5.61,4.55-10.15,10.16-10.15c5.61,0,10.15,4.55,10.15,10.16c-0.11,2.18-0.96,4.25-2.43,5.87
				L80.9-45.4c-0.98,0.97-1.28,2.86-0.66,4.09l0.34,0.66c0.8,1.37,2.22,2.26,3.8,2.37h27.36v-27.36c0.11-2.17,1.33-4.14,3.23-5.2
				l0.66-0.34c1.98-0.9,4.31-0.52,5.91,0.95l1.84,1.84c1.06,1.07,3.26,1.98,4.77,1.98c4.75,0,8.59-3.85,8.59-8.59
				s-3.85-8.59-8.59-8.59c-1.77,0.1-3.45,0.8-4.77,1.98l-1.84,1.84c-1.6,1.48-3.93,1.86-5.91,0.95l-0.66-0.34
				c-1.9-1.06-3.12-3.03-3.23-5.2v-27.36H84.37c-1.58,0.11-3.01,0.99-3.8,2.37l-0.34,0.66c-0.59,1.38-0.33,2.97,0.66,4.09l1.84,1.84
				c1.36,1.36,2.43,3.95,2.43,5.88c0,5.61-4.55,10.16-10.16,10.16s-10.16-4.55-10.16-10.16c0.1-2.18,0.96-4.27,2.43-5.88l1.84-1.84
				c0.98-0.97,1.29-2.85,0.66-4.09l-0.34-0.66c-0.8-1.37-2.22-2.26-3.8-2.37C65.65-111.72,38.29-111.72,38.29-111.72z"/>
		</g>
	</g>
</pattern>
<g id="Patron">
	<rect class="st2" width="250" height="250"/>
	<pattern  id="SVGID_1_" xlink:href="#Nueva_muestra_de_motivo_17" patternTransform="matrix(1 0 0 -1 -169 -16013)">
	</pattern>
	<rect class="st3" width="250" height="250"/>
</g>
<rect class="st4" width="250" height="250"/>
</svg>
