<?xml version="1.0" encoding="utf-8"?>
<svg version="1.1" id="Capa_1" xmlns="http://www.w3.org/2000/svg" xmlns:xlink="http://www.w3.org/1999/xlink" x="0px" y="0px"
	 viewBox="0 0 800 800" style="enable-background:new 0 0 800 800;" xml:space="preserve">
<style type="text/css">
	.st0{fill-rule:evenodd;clip-rule:evenodd;fill:#000000;}
</style>
<path class="st0" d="M640.2,206.9c12.8-13.2,12.4-34.3-0.8-47.1c-12.9-12.5-33.4-12.5-46.3,0L400,352.9L206.9,159.8
	c-13.2-12.8-34.3-12.4-47.1,0.8c-12.5,12.9-12.5,33.4,0,46.3L352.9,400L159.8,593.1c-13.2,12.8-13.6,33.9-0.8,47.1
	c12.8,13.2,33.9,13.6,47.1,0.8c0.3-0.3,0.6-0.5,0.8-0.8L400,447.1l193.1,193.1c13.2,12.8,34.3,12.4,47.1-0.8
	c12.5-12.9,12.5-33.4,0-46.3L447.1,400L640.2,206.9z"/>
</svg>