<?xml version="1.0" encoding="utf-8"?>
<!-- Generator: Adobe Illustrator 26.0.0, SVG Export Plug-In . SVG Version: 6.00 Build 0)  -->
<svg version="1.1" id="Capa_1" xmlns="http://www.w3.org/2000/svg" xmlns:xlink="http://www.w3.org/1999/xlink" x="0px" y="0px"
	 viewBox="0 0 500 500" style="enable-background:new 0 0 500 500;" xml:space="preserve">
<style type="text/css">
	.st0{fill:url(#SVGID_1_);}
	.st1{fill:url(#SVGID_00000078010556393665403420000000347479897642219675_);}
	.st2{fill:url(#SVGID_00000173875882666993556840000003066624969066853249_);}
	.st3{fill:#191919;}
</style>
<g id="Shopicon">
	
		<radialGradient id="SVGID_1_" cx="249.9997" cy="189.6074" r="235.4567" gradientTransform="matrix(0.6534 -0.757 0.7596 0.6557 -57.3895 254.5289)" gradientUnits="userSpaceOnUse">
		<stop  offset="0" style="stop-color:#F9ED32"/>
		<stop  offset="0.5" style="stop-color:#EE2A7B"/>
		<stop  offset="1" style="stop-color:#002AFF"/>
	</radialGradient>
	<path class="st0" d="M130.64,211.53L250,343.07l119.36-131.54c20.72-17.83,34.1-46.09,34.1-77.95c0-53.78-38.2-97.43-85.25-97.43
		c-27.88,0-52.69,15.4-68.2,39.07c-15.51-23.68-40.33-39.07-68.2-39.07c-47.06,0-85.25,43.65-85.25,97.43
		C96.54,165.44,109.92,193.7,130.64,211.53z M181.8,71.23c17.31,0,33.22,9.12,43.64,25.02L250,133.73l24.57-37.49
		c10.42-15.9,26.33-25.02,43.64-25.02c30.09,0,54.56,27.97,54.56,62.36c0,19.77-7.97,37.96-21.88,49.93l-1.5,1.29l-1.35,1.48
		L250,294.34l-98.05-108.05l-1.35-1.48l-1.5-1.29c-13.9-11.97-21.87-30.17-21.87-49.93C127.23,99.2,151.71,71.23,181.8,71.23z"/>
</g>
<radialGradient id="SVGID_00000143612348372782162340000002411848064784955017_" cx="249.9997" cy="198.201" r="97.7809" gradientTransform="matrix(0.6534 -0.757 0.6147 0.5306 -35.1854 282.2885)" gradientUnits="userSpaceOnUse">
	<stop  offset="0" style="stop-color:#F9ED32"/>
	<stop  offset="0.5" style="stop-color:#EE2A7B"/>
	<stop  offset="1" style="stop-color:#002AFF"/>
</radialGradient>
<circle style="fill:url(#SVGID_00000143612348372782162340000002411848064784955017_);" cx="250" cy="198.2" r="40.23"/>
<radialGradient id="SVGID_00000168833955188076548190000005802362922020559027_" cx="226.0417" cy="150.0353" r="141.9664" gradientTransform="matrix(0.6534 -0.757 0.8475 0.7316 -48.815 211.3893)" gradientUnits="userSpaceOnUse">
	<stop  offset="0" style="stop-color:#F9ED32"/>
	<stop  offset="0.5" style="stop-color:#EE2A7B"/>
	<stop  offset="1" style="stop-color:#002AFF"/>
</radialGradient>
<path style="fill:url(#SVGID_00000168833955188076548190000005802362922020559027_);" d="M198.73,124.33h-36.99
	c-6.5,0-11.77-5.27-11.77-11.77v0c0-6.5,5.27-11.77,11.77-11.77h36.99c6.5,0,11.77,5.27,11.77,11.77v0
	C210.5,119.06,205.23,124.33,198.73,124.33z"/>
<g>
	<path class="st3" d="M111.81,395.14c0.62-0.69,1.8-1.26,3.54-1.72c1.74-0.46,3.54-0.83,5.4-1.12c1.86-0.28,3.57-0.46,5.12-0.51
		c1.55-0.06,2.45-0.03,2.7,0.09c0.12,0.12-0.19,1.32-0.93,3.61c-0.74,2.29-1.68,4.98-2.79,8.07c-1.12,3.09-2.3,6.27-3.54,9.53
		c-1.24,3.26-2.17,5.93-2.79,7.99c-0.62,2.06-1.37,4.38-2.23,6.96c-0.87,2.58-1.65,5.1-2.33,7.56c-0.68,2.46-1.15,4.78-1.4,6.96
		c-0.25,2.18-0.06,3.84,0.56,4.98c0.62,1.37,1.3,2.32,2.05,2.83c0.74,0.52,1.55,0.77,2.42,0.77c2.48,0,5.61-1.26,9.4-3.78
		c3.78-2.52,7.63-5.52,11.54-9.02c3.91-3.49,7.54-7.04,10.89-10.65c3.35-3.61,5.83-6.5,7.45-8.67c0.99-1.14,2.02-1.89,3.07-2.23
		c1.05-0.34,1.92-0.28,2.61,0.17c0.68,0.46,1.05,1.2,1.12,2.23c0.06,1.03-0.34,2.23-1.21,3.61c-1.99,3.21-4.9,7.02-8.75,11.42
		c-3.85,4.41-7.94,8.65-12.29,12.71c-4.35,4.07-8.6,7.53-12.75,10.39c-4.16,2.86-7.54,4.35-10.15,4.47
		c-2.11,0.11-4.19-0.2-6.24-0.94c-2.05-0.75-3.91-1.77-5.59-3.09c-1.68-1.31-3.07-2.86-4.19-4.64c-1.12-1.77-1.74-3.63-1.86-5.58
		c-0.37-2.86-0.37-6.78,0-11.77c0.37-4.98,1.05-10.08,2.05-15.29c0.99-5.21,2.26-10.16,3.82-14.86
		C108.05,400.93,109.82,397.43,111.81,395.14z M137.5,358.56c-0.37,1.26-1.09,2.49-2.14,3.69c-1.06,1.2-2.23,2.18-3.54,2.92
		c-1.3,0.75-2.64,1.23-4,1.46c-1.37,0.23-2.48,0-3.35-0.69c-2.61-1.83-3.97-3.81-4.1-5.93c-0.13-2.12,0.43-4.12,1.68-6.01
		c1.24-1.89,2.79-3.49,4.65-4.81c1.86-1.32,3.47-2.09,4.84-2.32c1.36-0.23,2.51,0.03,3.44,0.77c0.93,0.75,1.64,1.72,2.14,2.92
		c0.49,1.2,0.77,2.55,0.84,4.04C138.03,356.09,137.87,357.41,137.5,358.56z"/>
	<path class="st3" d="M203.96,432.42c-1.24,4.35-2.92,8.42-5.03,12.2c-2.11,3.78-4.63,7.04-7.54,9.79c-2.92,2.75-6.21,4.9-9.87,6.44
		c-3.66,1.55-7.67,2.32-12.01,2.32c-5.09,0-9.09-1-12.01-3.01c-2.92-2-5.09-4.49-6.52-7.47c-1.43-2.98-2.3-6.24-2.61-9.79
		c-0.31-3.55-0.47-6.87-0.47-9.96c0-2.17,0.28-4.58,0.84-7.21c0.56-2.63,1.33-5.32,2.33-8.07c0.99-2.75,2.26-5.5,3.82-8.24
		c1.55-2.75,3.38-5.27,5.49-7.56c0.74-1.95,1.89-3.66,3.44-5.15c1.55-1.49,3.35-2.72,5.4-3.69c2.05-0.97,4.25-1.72,6.61-2.23
		c2.36-0.52,4.65-0.77,6.89-0.77c0.37,0,0.71,0.06,1.02,0.17c0.31,0.12,0.65,0.23,1.02,0.34c1.61,0.12,3.63,0.69,6.05,1.72
		c2.42,1.03,4.78,2.58,7.07,4.64c2.3,2.06,4.25,4.67,5.86,7.82c1.61,3.15,2.42,6.96,2.42,11.42c0,0.92-0.06,2.03-0.19,3.35
		c-0.13,1.32-0.25,2.43-0.37,3.35c2.85-1.03,5.83-2.29,8.94-3.78c3.1-1.49,6.11-3.06,9.03-4.72c2.91-1.66,5.61-3.35,8.1-5.07
		c2.48-1.72,4.47-3.26,5.96-4.64c1.24-1.03,2.29-1.6,3.16-1.72c0.87-0.11,1.49,0.12,1.86,0.69c0.37,0.57,0.43,1.37,0.19,2.4
		c-0.25,1.03-0.93,2.18-2.05,3.44c-0.62,0.69-2.21,2.06-4.75,4.12c-2.55,2.06-5.56,4.29-9.03,6.7c-3.48,2.4-7.26,4.75-11.36,7.04
		C211.6,429.56,207.69,431.27,203.96,432.42z M160.59,436.54c0,2.06,0.12,4.1,0.37,6.1c0.25,2.01,0.74,3.78,1.49,5.32
		c0.74,1.55,1.74,2.81,2.98,3.78c1.24,0.97,2.85,1.46,4.84,1.46c2.23,0,4.28-0.49,6.14-1.46c1.86-0.97,3.54-2.23,5.03-3.78
		c1.49-1.55,2.82-3.32,4-5.32c1.18-2,2.2-4.09,3.07-6.27c-0.87,0.12-1.71,0.2-2.51,0.26c-0.81,0.06-1.71,0.09-2.7,0.09
		c-4.72,0-8.78-1.29-12.19-3.86c-3.41-2.58-6.05-5.87-7.91-9.88c-0.74,2.4-1.37,4.75-1.86,7.04
		C160.83,432.3,160.59,434.48,160.59,436.54z M172.5,406.31c-0.37,1.03-0.56,2.12-0.56,3.26c0,1.83,0.12,3.75,0.37,5.75
		c0.25,2,0.87,3.81,1.86,5.41c0.99,1.6,2.57,2.95,4.75,4.04c2.17,1.09,5.18,1.63,9.03,1.63c0.62,0,1.24-0.03,1.86-0.09
		c0.62-0.06,1.24-0.14,1.86-0.26c0.37-1.49,0.71-2.83,1.02-4.04c0.31-1.2,0.47-2.26,0.47-3.18c0.25-2.17,0.25-4.41,0-6.7
		c-0.25-2.29-0.72-4.38-1.4-6.27c-0.68-1.89-1.55-3.44-2.61-4.64c-1.06-1.2-2.33-1.8-3.82-1.8c-2.36,0-4.63,0.6-6.8,1.8
		C176.38,402.44,174.36,404.13,172.5,406.31z"/>
	<path class="st3" d="M310.64,451.83c0-2.4,0.28-5.15,0.84-8.24c0.56-3.09,1.27-6.27,2.14-9.53c0.87-3.26,1.74-6.44,2.61-9.53
		c0.87-3.09,1.61-5.84,2.23-8.24c0.74-2.98,0.68-5.27-0.19-6.87c-0.87-1.6-2.36-2.4-4.47-2.4c-0.99,0-2.95,0.8-5.87,2.4
		c-2.92,1.6-6.08,4.38-9.49,8.33c-3.41,3.95-6.77,9.28-10.05,15.97c-3.29,6.7-5.86,15.2-7.73,25.51c-2.36,1.14-4.59,1.89-6.7,2.23
		c-1.12,0.23-2.11,0.4-2.98,0.52c-2.48,0.11-4.09-0.26-4.84-1.12c-0.74-0.86-0.62-2.95,0.37-6.27c0.49-1.6,1.4-4.18,2.7-7.73
		c1.3-3.55,2.57-7.41,3.82-11.59c1.24-4.18,2.33-8.36,3.26-12.54c0.93-4.18,1.4-7.82,1.4-10.91c0-2.17-0.4-3.66-1.21-4.47
		c-0.81-0.8-1.95-1.2-3.44-1.2c-1.12,0-2.98,0.57-5.59,1.72c-2.61,1.15-5.52,3.38-8.75,6.7c-3.23,3.32-6.42,7.93-9.59,13.83
		c-3.17,5.9-5.86,13.54-8.1,22.93v-0.34c-0.25,0.92-0.5,1.83-0.74,2.75c-0.25,0.8-0.44,1.66-0.56,2.58
		c-0.13,0.92-0.31,1.78-0.56,2.58l-9.31,3.78c-0.62,0.23-1.4,0.4-2.33,0.52c-0.93,0.11-1.8-0.03-2.61-0.43
		c-0.81-0.4-1.4-1.23-1.77-2.49c-0.37-1.26-0.25-3.15,0.37-5.67l11.73-44.83c0.37-1.49,0.68-2.92,0.93-4.29
		c0.25-1.26,0.4-2.49,0.47-3.69c0.06-1.2-0.03-2.2-0.28-3.01c2.11-0.91,3.97-1.6,5.59-2.06c1.61-0.46,2.91-0.8,3.91-1.03
		c1.24-0.34,2.3-0.51,3.17-0.51c3.97,0,5.27,3.15,3.91,9.45c-0.5,1.83-1.24,4.52-2.23,8.07c2.36-2.75,4.87-5.35,7.54-7.82
		c2.67-2.46,5.37-4.66,8.1-6.61c2.73-1.95,5.49-3.49,8.28-4.64c2.79-1.14,5.55-1.72,8.28-1.72c2.11,0,3.88,0.57,5.31,1.72
		c1.42,1.15,2.54,2.66,3.35,4.55c0.81,1.89,1.27,4.12,1.4,6.7c0.12,2.58,0,5.24-0.37,7.99c1.98-2.4,4.19-4.84,6.61-7.3
		c2.42-2.46,4.96-4.66,7.63-6.61c2.67-1.95,5.43-3.55,8.28-4.81c2.85-1.26,5.71-1.89,8.56-1.89c3.35,0,5.93,0.92,7.73,2.75
		c1.8,1.83,3.04,4.18,3.72,7.04c0.68,2.86,0.87,5.96,0.56,9.28c-0.31,3.32-0.84,6.53-1.58,9.62l-6.33,23.19
		c-1.37,5.73-0.06,8.59,3.91,8.59c3.1,0,6.52-1.37,10.24-4.12c3.72-2.75,7.35-6.01,10.89-9.79c3.54-3.78,6.86-7.67,9.96-11.68
		c3.1-4.01,5.71-7.21,7.82-9.62c0.74-0.8,1.52-1.26,2.33-1.37c0.81-0.11,1.49,0.03,2.05,0.43c0.56,0.4,0.87,1.06,0.93,1.97
		c0.06,0.92-0.28,2.06-1.02,3.44c-2.48,4.01-5.52,8.45-9.12,13.31c-3.6,4.87-7.54,9.42-11.82,13.66
		c-4.28,4.24-8.84,7.79-13.68,10.65c-4.84,2.86-9.87,4.29-15.08,4.29c-1.74,0-3.44-0.17-5.12-0.52c-1.67-0.34-3.23-0.97-4.65-1.89
		c-1.43-0.92-2.58-2.15-3.44-3.69C311.08,456.21,310.64,454.23,310.64,451.83z"/>
	<path class="st3" d="M357.93,456.98c5.46-21.18,9.84-38.19,13.13-51.02c3.29-12.82,5.8-22.61,7.54-29.37
		c1.98-8.01,3.35-13.57,4.1-16.66c0.37-2.17,0.68-4.29,0.93-6.35c0.25-1.83,0.37-3.72,0.37-5.67c0-1.95-0.19-3.72-0.56-5.32
		c0.99-0.57,2.08-1.03,3.26-1.37c1.18-0.34,2.33-0.63,3.44-0.86c1.36-0.34,2.73-0.63,4.1-0.86c1.36-0.23,2.61-0.34,3.72-0.34
		c0.99,0,1.92,0.09,2.79,0.26c0.87,0.17,1.43,0.54,1.68,1.12c0.74,0.57,1.08,1.72,1.02,3.44c-0.06,1.72-0.22,3.49-0.47,5.32
		c-0.5,2.18-1.06,4.52-1.68,7.04c-1.49,4.93-3.54,12.02-6.14,21.3c-2.23,7.9-5.24,18.67-9.03,32.29
		c-3.79,13.63-8.53,30.81-14.24,51.53c-0.62,0.57-1.37,0.97-2.23,1.2c-0.87,0.23-1.68,0.34-2.42,0.34c-0.87,0-1.8-0.06-2.79-0.17
		c-0.87-0.23-1.74-0.57-2.61-1.03c-0.74-0.46-1.49-1.06-2.23-1.8C358.86,459.24,358.3,458.24,357.93,456.98z"/>
</g>
</svg>
