<?xml version="1.0" encoding="utf-8"?>
<svg version="1.1" id="Capa_1" xmlns="http://www.w3.org/2000/svg" xmlns:xlink="http://www.w3.org/1999/xlink" x="0px" y="0px"
	 viewBox="0 0 1366 768" style="enable-background:new 0 0 1366 768;" xml:space="preserve">
<style type="text/css">
	.st0{fill:url(#SVGID_1_);}
	.st1{fill:url(#SVGID_00000086668448200438974180000007447901350921350017_);}
	.st2{fill:url(#SVGID_00000074410629191278122030000007095445978677774763_);}
	.st3{fill:#0F0F0F;}
	.st4{fill:#191919;}
</style>
<g id="Shopicon">
	
		<radialGradient id="SVGID_1_" cx="268.2776" cy="384" r="355.0291" gradientTransform="matrix(0.6534 -0.757 0.7596 0.6557 -198.7241 335.2931)" gradientUnits="userSpaceOnUse">
		<stop  offset="0" style="stop-color:#F9ED32"/>
		<stop  offset="0.5" style="stop-color:#EE2A7B"/>
		<stop  offset="1" style="stop-color:#002AFF"/>
	</radialGradient>
	<path class="st0" d="M88.3,417.06l179.97,198.33l179.97-198.33c31.24-26.88,51.41-69.5,51.41-117.53
		c0-81.09-57.59-146.91-128.55-146.91c-42.03,0-79.45,23.22-102.84,58.92c-23.39-35.7-60.81-58.92-102.84-58.92
		c-70.96,0-128.55,65.82-128.55,146.91C36.89,347.56,57.07,390.17,88.3,417.06z M165.44,205.5c26.1,0,50.08,13.75,65.8,37.72
		l37.05,56.52l37.05-56.52c15.71-23.97,39.69-37.72,65.8-37.72c45.36,0,82.27,42.18,82.27,94.02c0,29.8-12.02,57.24-32.98,75.29
		l-2.26,1.94l-2.04,2.23L268.28,541.91L120.43,378.99l-2.04-2.23l-2.26-1.94c-20.95-18.05-32.97-45.48-32.97-75.29
		C83.17,247.68,120.07,205.5,165.44,205.5z"/>
</g>
<radialGradient id="SVGID_00000098941470465754335910000014979443265502030732_" cx="268.2776" cy="396.9578" r="147.4371" gradientTransform="matrix(0.6534 -0.757 0.6147 0.5306 -151.0225 389.4257)" gradientUnits="userSpaceOnUse">
	<stop  offset="0" style="stop-color:#F9ED32"/>
	<stop  offset="0.5" style="stop-color:#EE2A7B"/>
	<stop  offset="1" style="stop-color:#002AFF"/>
</radialGradient>
<circle style="fill:url(#SVGID_00000098941470465754335910000014979443265502030732_);" cx="268.28" cy="396.96" r="60.66"/>
<radialGradient id="SVGID_00000101100058728829186760000001252140459422070463_" cx="232.153" cy="324.3319" r="214.0616" gradientTransform="matrix(0.6534 -0.757 0.8475 0.7316 -194.4151 262.8052)" gradientUnits="userSpaceOnUse">
	<stop  offset="0" style="stop-color:#F9ED32"/>
	<stop  offset="0.5" style="stop-color:#EE2A7B"/>
	<stop  offset="1" style="stop-color:#002AFF"/>
</radialGradient>
<path style="fill:url(#SVGID_00000101100058728829186760000001252140459422070463_);" d="M192.36,285.57h-58.55
	c-9.03,0-16.36-7.32-16.36-16.36v-2.77c0-9.03,7.32-16.36,16.36-16.36h58.55c9.03,0,16.36,7.32,16.36,16.36v2.77
	C208.72,278.25,201.4,285.57,192.36,285.57z"/>
<g>
	<g>
		<path d="M626.34,265.87c-2.23-2.35-4.03-5.26-5.38-8.73c-1.35-3.46-2.38-6.9-3.08-10.31c-0.82-3.88-1.41-7.99-1.76-12.34
			c-0.59-8.46,0.35-16.16,2.82-23.09c2.47-6.93,5.82-12.87,10.05-17.8c4.23-4.94,8.96-8.75,14.19-11.46
			c5.23-2.7,10.31-4.05,15.25-4.05c2.23,0,4.02,0.53,5.38,1.59c1.35,1.06,2.38,2.35,3.08,3.88c0.71,1.53,1.15,3.12,1.32,4.76
			c0.18,1.65,0.26,3,0.26,4.05c0,3.76-0.09,7.46-0.26,11.1c-0.18,3.64-0.47,7.52-0.88,11.63c-0.41,4.11-1.03,8.52-1.85,13.22
			c-0.82,4.7-1.88,9.93-3.17,15.69c-0.71,3.17-1.71,7.23-3,12.16c-1.29,4.94-2.82,10.4-4.58,16.39c5.29,0.12,9.55,0.33,12.78,0.62
			c3.23,0.29,5.32,0.5,6.26,0.62c0.82,0.12,1.44,0.53,1.85,1.23c0.41,0.71,0.15,1.82-0.79,3.35c-0.94,1.41-2.26,2.23-3.97,2.47
			c-1.71,0.24-3.38,0.35-5.02,0.35c-0.94,0-2.67,0-5.2,0c-2.53,0-5.49,0.12-8.9,0.35c-2.47,7.29-5.26,14.6-8.37,21.95
			c-3.12,7.34-6.55,13.98-10.31,19.92c-3.76,5.93-7.87,10.75-12.34,14.45c-4.47,3.7-9.23,5.55-14.28,5.55
			c-7.29,0-13.43-1.38-18.42-4.14c-5-2.76-9.05-5.99-12.16-9.69c-3.11-3.7-5.38-7.4-6.79-11.11c-1.41-3.7-2.12-6.55-2.12-8.55
			c0-3.53,0.94-7.11,2.82-10.75c1.88-3.64,4.85-7.08,8.9-10.31c4.05-3.23,9.31-6.08,15.78-8.55c6.46-2.47,14.22-4.35,23.27-5.64
			c3.76-0.47,7.34-0.85,10.75-1.15c3.41-0.29,6.64-0.56,9.69-0.79c2.35-8.81,4.73-17.8,7.14-26.97c2.41-9.17,4.49-17.63,6.26-25.38
			c0.71-3.17,1.41-6.61,2.12-10.31c0.71-3.7,1.26-7.2,1.67-10.49c0.41-3.29,0.64-6.05,0.71-8.28c0.06-2.23-0.21-3.46-0.79-3.7
			c-0.35-0.12-1.23,0.33-2.64,1.32c-1.41,1-3.06,2.44-4.94,4.32c-1.88,1.88-3.73,4.14-5.55,6.79c-1.82,2.64-3.32,5.5-4.49,8.55
			c-2.12,5.99-3.76,11.87-4.94,17.63c-0.94,4.94-1.53,10.17-1.76,15.69c-0.24,5.53,0.64,10.52,2.64,14.98
			c-0.24,1.65-0.59,3-1.06,4.05c-0.35,0.59-0.65,1.12-0.88,1.59c-0.35,0.35-0.77,0.77-1.23,1.23c-0.47,0.35-1.03,0.74-1.67,1.15
			C628.08,265.31,627.28,265.63,626.34,265.87z M624.23,315.05c1.29-2.71,2.88-6.87,4.76-12.52c1.88-5.64,3.88-12.16,5.99-19.57
			c-5.76,0.71-11.58,1.67-17.45,2.91c-5.88,1.23-11.19,2.88-15.95,4.94c-4.76,2.06-8.64,4.56-11.63,7.49
			c-3,2.94-4.49,6.41-4.49,10.4c0,4.23,0.85,7.93,2.56,11.11c1.7,3.17,3.76,5.82,6.17,7.93c2.41,2.12,4.88,3.73,7.4,4.85
			c2.53,1.12,4.67,1.67,6.43,1.67s3.44-0.68,5.02-2.03c1.59-1.35,3.05-3,4.41-4.94c1.35-1.94,2.58-4.03,3.7-6.26
			C622.26,318.81,623.29,316.81,624.23,315.05z"/>
		<path d="M759.61,302.36c0-2.47,0.26-5.29,0.79-8.46c0.53-3.17,1.2-6.43,2.03-9.78c0.82-3.35,1.65-6.61,2.47-9.78
			s1.53-5.99,2.12-8.46c0.7-3.05,0.64-5.4-0.18-7.05c-0.82-1.64-2.23-2.47-4.23-2.47c-0.94,0-2.79,0.82-5.55,2.47
			c-2.76,1.65-5.76,4.49-8.99,8.55c-3.23,4.05-6.41,9.52-9.52,16.39c-3.11,6.87-5.55,15.6-7.32,26.18
			c-2.23,1.17-4.35,1.94-6.35,2.29c-1.06,0.23-2,0.41-2.82,0.53c-2.35,0.12-3.88-0.26-4.58-1.15c-0.71-0.88-0.59-3.02,0.35-6.43
			c0.47-1.64,1.32-4.29,2.56-7.93c1.23-3.64,2.44-7.61,3.61-11.9c1.17-4.29,2.2-8.58,3.08-12.87c0.88-4.29,1.32-8.02,1.32-11.19
			c0-2.23-0.38-3.76-1.14-4.58c-0.77-0.82-1.85-1.23-3.26-1.23c-1.06,0-2.82,0.59-5.29,1.76c-2.47,1.18-5.23,3.47-8.28,6.87
			c-3.06,3.41-6.08,8.14-9.08,14.19c-3,6.05-5.55,13.9-7.67,23.53v-0.35c-0.24,0.94-0.47,1.88-0.71,2.82
			c-0.24,0.82-0.41,1.71-0.53,2.64c-0.12,0.94-0.29,1.82-0.53,2.64l-8.81,3.88c-0.59,0.23-1.32,0.41-2.2,0.53
			c-0.88,0.12-1.7-0.03-2.47-0.44c-0.77-0.41-1.32-1.26-1.67-2.56c-0.35-1.29-0.23-3.23,0.35-5.82l11.11-46.01
			c0.35-1.53,0.64-3,0.88-4.41c0.23-1.29,0.38-2.56,0.44-3.79c0.06-1.23-0.03-2.26-0.26-3.08c2-0.94,3.76-1.64,5.29-2.12
			c1.53-0.47,2.76-0.82,3.7-1.06c1.17-0.35,2.17-0.53,3-0.53c3.76,0,4.99,3.23,3.7,9.69c-0.47,1.88-1.18,4.64-2.11,8.29
			c2.23-2.82,4.61-5.49,7.14-8.02c2.53-2.53,5.08-4.79,7.67-6.79c2.58-2,5.2-3.58,7.85-4.76c2.64-1.17,5.26-1.76,7.84-1.76
			c2,0,3.67,0.59,5.02,1.76c1.35,1.18,2.41,2.73,3.17,4.67c0.76,1.94,1.2,4.23,1.32,6.87c0.11,2.64,0,5.38-0.35,8.2
			c1.88-2.47,3.97-4.96,6.26-7.49c2.29-2.53,4.7-4.79,7.23-6.79c2.53-2,5.14-3.64,7.84-4.94c2.7-1.29,5.4-1.94,8.11-1.94
			c3.17,0,5.61,0.94,7.32,2.82c1.7,1.88,2.88,4.29,3.53,7.23c0.64,2.94,0.82,6.11,0.53,9.52c-0.29,3.41-0.79,6.7-1.5,9.87
			l-5.99,23.8c-1.29,5.88-0.06,8.81,3.7,8.81c2.93,0,6.17-1.41,9.69-4.23c3.53-2.82,6.96-6.17,10.31-10.05
			c3.35-3.88,6.49-7.87,9.43-11.99c2.93-4.11,5.4-7.4,7.4-9.87c0.71-0.82,1.44-1.29,2.2-1.41c0.76-0.12,1.41,0.03,1.94,0.44
			c0.53,0.41,0.82,1.09,0.88,2.03c0.06,0.94-0.26,2.12-0.97,3.53c-2.35,4.12-5.23,8.67-8.64,13.66c-3.41,5-7.14,9.67-11.19,14.01
			c-4.06,4.35-8.37,7.99-12.96,10.93c-4.58,2.94-9.34,4.41-14.28,4.41c-1.65,0-3.26-0.18-4.85-0.53c-1.59-0.35-3.06-1-4.41-1.94
			c-1.35-0.94-2.44-2.2-3.26-3.79C760.02,306.85,759.61,304.82,759.61,302.36z"/>
		<path d="M897.46,275.39c-1.65,2.35-3.76,5.26-6.35,8.73c-2.59,3.47-5.26,6.94-8.02,10.4c-2.76,3.47-5.46,6.64-8.11,9.52
			c-2.64,2.88-4.85,4.91-6.61,6.08c-1.18,0.71-2.53,1.29-4.05,1.76c-1.53,0.47-3.08,0.76-4.67,0.88c-1.59,0.12-3.08,0.03-4.49-0.26
			c-1.41-0.29-2.64-0.79-3.7-1.5c-1.06-0.82-1.94-2-2.64-3.53c-0.59-1.29-1.15-3-1.67-5.11c-0.53-2.12-0.74-4.76-0.62-7.93
			c-2.82,4.7-5.93,8.32-9.34,10.84c-3.41,2.53-6.64,4.38-9.7,5.55c-3.53,1.29-7.05,2.05-10.58,2.29c-1.65,0-3.41-0.56-5.29-1.67
			c-1.88-1.12-3.47-2.88-4.76-5.29c-1.29-2.41-2.12-5.52-2.47-9.34c-0.35-3.82,0.12-8.37,1.41-13.66
			c1.64-7.17,4.26-13.69,7.84-19.57c3.58-5.87,7.49-10.9,11.72-15.07c4.23-4.17,8.4-7.32,12.52-9.43c4.11-2.12,7.52-3.05,10.22-2.82
			c3.17,0.59,5.76,1.53,7.76,2.82c1.65,1.18,2.73,2.91,3.26,5.2c0.53,2.29-0.44,5.32-2.91,9.08c1.64-0.35,3.02-0.59,4.14-0.71
			c1.12-0.12,1.97-0.18,2.56-0.18c0.71,0,1.17,0.06,1.41,0.18c0.12,0.24,0.18,0.74,0.18,1.5c0,0.77-0.18,2.15-0.53,4.14
			c-0.35,2-0.88,4.7-1.59,8.11c-0.71,3.41-1.65,7.82-2.82,13.22c-0.24,1.06-0.44,2.03-0.62,2.91c-0.18,0.88-0.35,1.76-0.53,2.64
			c-0.18,0.88-0.38,1.91-0.62,3.08c-0.24,1.18-0.53,2.64-0.88,4.41c-0.12,1.06-0.15,2.2-0.09,3.44c0.06,1.23,0.26,2.38,0.62,3.44
			c0.35,1.06,0.91,1.91,1.67,2.56c0.76,0.65,1.85,0.97,3.26,0.97c1.17,0,2.7-0.73,4.58-2.2c1.88-1.47,3.88-3.35,5.99-5.64
			c2.11-2.29,4.32-4.82,6.61-7.58c2.29-2.76,4.43-5.43,6.43-8.02c2-2.58,3.79-4.88,5.38-6.87c1.59-2,2.73-3.46,3.44-4.41
			c0.94-1.06,1.88-1.67,2.82-1.85c0.94-0.18,1.64,0.09,2.12,0.79c0.47,0.71,0.56,1.76,0.26,3.17
			C899.72,271.86,898.87,273.51,897.46,275.39z M845.81,283.14c0.59-2.35,1.29-5.11,2.12-8.29c0.82-3.17,1.53-6.23,2.11-9.17
			c0.59-2.94,1.03-5.38,1.32-7.32c0.29-1.94,0.2-2.85-0.26-2.73c-0.59,0.12-1.23,0.3-1.94,0.53c-0.59,0.24-1.35,0.41-2.29,0.53
			c-0.94,0.12-1.88,0.29-2.82,0.53c0.94-1.88,1.5-3.44,1.67-4.67c0.18-1.23,0.2-2.2,0.09-2.91c-0.12-0.82-0.35-1.47-0.71-1.94
			c-1.29-1.06-3.56-0.2-6.79,2.56c-3.23,2.76-6.96,7.84-11.19,15.25c-1.76,3.06-3.17,6.32-4.23,9.78c-1.06,3.47-1.79,6.73-2.2,9.78
			c-0.41,3.06-0.5,5.73-0.26,8.02c0.23,2.29,0.71,3.79,1.41,4.49c1.29,1.29,2.76,1.91,4.41,1.85c1.64-0.06,3.32-0.53,5.02-1.41
			c1.7-0.88,3.41-2.03,5.11-3.44c1.7-1.41,3.23-2.88,4.58-4.41c1.35-1.53,2.47-2.94,3.35-4.23
			C845.19,284.67,845.69,283.73,845.81,283.14z"/>
		<path d="M932.18,335.67c-0.59,2.82-1.32,6.35-2.2,10.58c-0.88,4.23-1.88,8.7-3,13.4c-1.12,4.7-2.41,9.37-3.88,14.01
			c-1.47,4.64-3.08,8.81-4.85,12.52c-1.76,3.7-3.7,6.73-5.82,9.08c-2.12,2.35-4.47,3.53-7.05,3.53c-3.88,0-7.2-1.15-9.96-3.44
			c-2.76-2.29-5.09-5.17-6.96-8.64c-1.88-3.47-3.26-7.2-4.14-11.19c-0.88-4-1.32-7.7-1.32-11.1c0-4.7,0.41-8.61,1.23-11.72
			c0.82-3.12,2.26-6.08,4.32-8.9c2.05-2.82,4.85-5.82,8.37-8.99s8.05-7.11,13.57-11.81c2.7-2.35,5.29-4.58,7.76-6.7
			c2.47-2.12,4.82-4.05,7.05-5.82c0.59-2.35,1.15-4.55,1.67-6.61c0.53-2.05,0.97-3.91,1.32-5.55c-3.06,4.12-6.73,7.58-11.02,10.4
			c-4.29,2.82-9.2,4.23-14.72,4.23c-5.05,0-9.14-2.26-12.25-6.79c-3.11-4.52-4.67-11.19-4.67-20.01c0-4.35,0.82-9.34,2.47-14.98
			c1.64-5.64,3.99-10.93,7.05-15.86c3.06-4.94,6.82-9.11,11.28-12.52c4.46-3.41,9.46-5.11,14.98-5.11c2.58,0,4.82,0.65,6.7,1.94
			c1.88,1.29,3.47,2.91,4.76,4.85c1.29,1.94,2.29,4,3,6.17c0.7,2.18,1.23,4.2,1.59,6.08c0.23-0.71,0.41-1.44,0.53-2.2
			c0.12-0.76,0.29-1.44,0.53-2.03c1.17-3.99,2.5-6.73,3.97-8.2c1.47-1.47,3.67-2.2,6.61-2.2c1.64,0,3.02,0.29,4.14,0.88
			c1.12,0.59,1.67,1.12,1.67,1.59c-0.59,1.29-1.06,2.29-1.41,3c-0.35,0.71-0.71,1.44-1.06,2.2c-0.35,0.77-0.71,1.74-1.06,2.91
			c-0.35,1.18-0.82,2.88-1.41,5.11c-0.24,0.82-0.68,2.73-1.32,5.73c-0.65,3-1.47,6.55-2.47,10.66c-1,4.12-2.06,8.64-3.17,13.57
			c-1.12,4.94-2.2,9.76-3.26,14.45c3.29-1.88,6.7-4.17,10.22-6.87c3.53-2.7,6.88-5.46,10.05-8.28c3.17-2.82,5.99-5.49,8.46-8.02
			c2.47-2.53,4.29-4.61,5.46-6.26c0.94-1.41,2-2.41,3.17-3c1.17-0.59,2.2-0.79,3.08-0.62s1.41,0.71,1.59,1.59
			c0.18,0.88-0.21,2.09-1.15,3.61c-2.7,4.35-5.99,8.55-9.87,12.6c-3.88,4.05-7.84,7.82-11.9,11.28c-4.05,3.47-7.99,6.52-11.81,9.17
			c-3.82,2.64-7.08,4.79-9.78,6.43c-1.18,5.29-2.18,9.58-3,12.87C933.47,329.97,932.77,332.97,932.18,335.67z M901.86,382.74
			c2.35,0,4.26-1.74,5.73-5.2c1.47-3.47,3.02-8.2,4.67-14.19c0.35-1.41,0.85-3.44,1.5-6.08c0.64-2.64,1.41-5.67,2.29-9.08
			c0.88-3.41,1.79-7.08,2.73-11.02c0.94-3.94,1.94-7.91,3-11.9c-0.94,0.82-1.91,1.67-2.91,2.56c-1,0.88-2.03,1.91-3.08,3.08
			c-2.59,2.47-5.09,4.85-7.49,7.14c-2.41,2.29-4.56,4.7-6.43,7.23c-1.88,2.53-3.38,5.26-4.49,8.2c-1.12,2.94-1.67,6.35-1.67,10.22
			c0,3.88,0.15,7.05,0.44,9.52c0.29,2.47,0.7,4.41,1.23,5.82c0.53,1.41,1.17,2.38,1.94,2.91
			C900.07,382.47,900.92,382.74,901.86,382.74z M909.97,300.95c2.47,0,4.79-0.64,6.96-1.94c2.17-1.29,4.14-2.79,5.91-4.49
			c1.76-1.7,3.23-3.44,4.41-5.2c1.17-1.76,2.06-3.17,2.64-4.23c0.47-1.06,1.03-2.47,1.67-4.23c0.64-1.76,1.15-3.46,1.5-5.11
			c0.35-1.64,0.5-3.11,0.44-4.41c-0.06-1.29-0.5-2-1.32-2.12c-0.7-0.12-1.26-0.59-1.67-1.41c-0.41-0.82-0.74-1.76-0.97-2.82
			c-0.24-1.06-0.38-2.12-0.44-3.17c-0.06-1.06-0.15-2-0.26-2.82c-0.59-4.11-1.59-7.11-3-8.99c-1.41-1.88-3-2.82-4.76-2.82
			c-2.94,0-5.73,1.18-8.37,3.53c-2.64,2.35-5,5.38-7.05,9.08c-2.06,3.7-3.67,7.76-4.85,12.16c-1.18,4.41-1.76,8.61-1.76,12.6
			c0,4.94,0.71,8.9,2.12,11.9C902.57,299.45,905.5,300.95,909.97,300.95z"/>
		<path d="M1048.52,273.8c-3.53,5.17-7.52,10.2-11.99,15.07c-4.47,4.88-9.2,9.23-14.19,13.04c-5,3.82-10.11,6.91-15.34,9.25
			c-5.23,2.35-10.31,3.53-15.25,3.53c-2.59,0-5.38-0.62-8.37-1.85c-3-1.23-5.73-3.14-8.2-5.73c-2.47-2.58-4.44-5.93-5.91-10.05
			c-1.47-4.11-1.91-9.11-1.32-14.98c0.47-4.82,1.97-9.9,4.49-15.25c2.53-5.35,5.64-10.25,9.34-14.72c3.7-4.46,7.87-8.17,12.52-11.11
			c4.64-2.94,9.31-4.41,14.01-4.41c4.46,0,7.7,1.12,9.7,3.35c2,2.23,2.88,5,2.64,8.28c-0.35,3.64-1.38,6.99-3.08,10.05
			c-1.71,3.06-3.73,5.82-6.08,8.28c-2.35,2.47-4.85,4.7-7.49,6.7c-2.64,2-5.14,3.82-7.49,5.46c-2.59,1.76-5.05,3.44-7.4,5.02
			c-2.35,1.59-4.41,3.03-6.17,4.32c0.12,2.94,0.64,5.41,1.59,7.4c0.94,2,2.11,3.61,3.52,4.85c1.41,1.23,3.02,2.12,4.85,2.64
			c1.82,0.53,3.67,0.79,5.55,0.79c3.99,0,8.17-1.26,12.52-3.79c4.35-2.53,8.61-5.58,12.78-9.17c4.17-3.58,8.05-7.32,11.63-11.19
			c3.58-3.88,6.55-7.23,8.9-10.05c0.82-0.94,1.67-1.5,2.56-1.67c0.88-0.18,1.59-0.06,2.12,0.35c0.53,0.41,0.79,1.12,0.79,2.12
			C1049.76,271.36,1049.35,272.51,1048.52,273.8z M1003.4,246.65c-1.41,0-3.08,0.71-5.02,2.12c-1.94,1.41-3.85,3.44-5.73,6.08
			c-1.88,2.64-3.64,5.88-5.29,9.69c-1.65,3.82-2.88,8.2-3.7,13.13c1.41-1.06,2.94-2.14,4.58-3.26c1.64-1.11,3.29-2.32,4.94-3.61
			c5.05-3.88,8.58-7.28,10.58-10.22c2-2.94,3.11-5.46,3.35-7.58c0.23-2.23,0-3.85-0.7-4.85
			C1005.69,247.15,1004.69,246.65,1003.4,246.65z"/>
		<path d="M1060.69,304.47c0.7,0.47,1.61,0.71,2.73,0.71c1.12,0,2.23-0.23,3.35-0.71c1.12-0.47,2.17-1.12,3.17-1.94
			c1-0.82,1.73-1.88,2.2-3.17c0.47-1.29,0.47-3.14,0-5.55c-0.47-2.41-1.21-4.99-2.2-7.76c-1-2.76-2.09-5.55-3.26-8.37
			c-1.18-2.82-2.18-5.4-3-7.76c-0.7-1.76-1.29-3.41-1.76-4.94c-0.47-1.29-0.91-2.56-1.32-3.79c-0.41-1.23-0.74-2.08-0.97-2.56
			c-0.59,0.94-1.62,2.47-3.08,4.58c-1.47,2.12-3.06,4.32-4.76,6.61c-1.71,2.29-3.32,4.41-4.85,6.35c-1.53,1.94-2.59,3.26-3.17,3.97
			c-0.94,1.06-1.85,1.67-2.73,1.85c-0.88,0.18-1.62,0-2.2-0.53c-0.59-0.53-0.91-1.29-0.97-2.29c-0.06-1,0.38-2.2,1.32-3.61
			c0.7-0.94,1.76-2.44,3.17-4.5c1.41-2.05,2.82-4.17,4.23-6.35c1.41-2.17,2.7-4.11,3.88-5.82c1.17-1.7,1.82-2.73,1.94-3.08
			c0.23-0.94-0.09-2.17-0.97-3.7c-0.88-1.53-1.03-3.29-0.44-5.29c0.47-1.64,1.53-3.55,3.17-5.73c1.64-2.17,3.58-4.14,5.82-5.9
			c2.23-1.76,4.52-3.08,6.88-3.97c2.35-0.88,4.46-0.85,6.35,0.09c1.53,0.94,2.76,1.97,3.7,3.08c0.94,1.12,1.29,2.26,1.06,3.44
			c-0.24,0.59-0.59,1.35-1.06,2.29c-0.47,0.94-1.18,2.09-2.12,3.44c-0.94,1.35-2.29,3.08-4.05,5.2c0.35,2.7,0.85,5.17,1.5,7.4
			c0.64,2.23,1.26,4.17,1.85,5.82c0.7,2,1.47,3.82,2.29,5.46c1.06,2.12,2.17,4.29,3.35,6.52c1.17,2.23,2.23,4.44,3.17,6.61
			c0.94,2.18,1.7,4.2,2.29,6.08c0.59,1.88,0.76,3.47,0.53,4.76c-0.35,2-1.38,4.41-3.08,7.23c-1.7,2.82-3.82,5.55-6.35,8.2
			c-2.53,2.64-5.41,4.91-8.64,6.79c-3.23,1.88-6.61,2.82-10.14,2.82c-2.47,0-4.85-0.77-7.14-2.29c-2.29-1.53-4.23-3.32-5.82-5.38
			c-1.59-2.05-2.76-4.08-3.53-6.08c-0.77-2-0.85-3.53-0.26-4.58c0.71-1.41,1.35-2.53,1.94-3.35c0.59-0.82,1.47-1.76,2.64-2.82
			c0.47-0.35,1.06-0.76,1.76-1.23c0.59-0.35,1.41-0.71,2.47-1.06c1.06-0.35,2.29-0.76,3.7-1.23c1.17,3.64,2.23,6.49,3.17,8.55
			c0.94,2.06,1.7,3.67,2.29,4.85C1059.45,303.12,1060.1,304,1060.69,304.47z"/>
		<path d="M1242.25,251.24c-0.59,7.4-1.76,14.84-3.53,22.3c-1.76,7.46-3.97,14.66-6.61,21.59c-2.64,6.94-5.73,13.43-9.25,19.48
			c-3.53,6.05-7.43,11.31-11.72,15.78c-4.29,4.46-8.87,7.99-13.75,10.58c-4.88,2.58-9.96,3.88-15.25,3.88
			c-1.06,0-2.67-0.21-4.85-0.62c-2.18-0.41-4.49-1.35-6.96-2.82c-2.47-1.47-4.97-3.61-7.49-6.43c-2.53-2.82-4.73-6.61-6.61-11.37
			c-1.88-4.76-3.23-10.66-4.05-17.72c-0.82-7.05-0.82-15.57,0-25.56c1.41-15.75,4.32-30.06,8.73-42.92
			c4.41-12.87,9.46-23.89,15.16-33.05c5.7-9.17,11.6-16.24,17.72-21.24c6.11-4.99,11.52-7.49,16.22-7.49c1.88,0,3.44,0.38,4.67,1.15
			c1.23,0.77,2.2,1.74,2.91,2.91c0.82-0.23,1.76-0.41,2.82-0.53c1.06-0.12,2.23-0.18,3.53-0.18c3.41,0,6.43,1.76,9.08,5.29
			c2.64,3.53,4.82,8.46,6.52,14.81c1.7,6.35,2.82,13.96,3.35,22.83C1243.4,230.76,1243.19,240.54,1242.25,251.24z M1182.67,334.62
			c4.58,0,9.28-2.35,14.1-7.05c4.82-4.7,9.28-11.08,13.4-19.13c4.11-8.05,7.64-17.42,10.58-28.12c2.94-10.69,4.94-22.03,5.99-34.02
			c0.23-3.17,0.41-6.81,0.53-10.93c0.12-4.11,0.12-8.28,0-12.52c-0.12-4.23-0.38-8.43-0.79-12.6c-0.41-4.17-0.97-7.84-1.67-11.02
			c-0.71-3.17-1.59-5.76-2.64-7.76c-1.06-2-2.29-3-3.7-3c-1.53,0.12-3.06,0.59-4.58,1.41c-1.29,0.71-2.79,1.85-4.49,3.44
			c-1.7,1.59-3.38,3.79-5.02,6.61c-0.35-0.23-0.62-0.59-0.79-1.06c-0.18-0.47-0.38-0.94-0.62-1.41c-0.24-0.47-0.41-1-0.53-1.59
			c-0.24-0.35-0.35-0.79-0.35-1.32c0-0.53-0.06-1.15-0.18-1.85c-2.35,2.59-5.14,6.26-8.37,11.02c-3.23,4.76-6.46,10.66-9.7,17.72
			c-3.23,7.05-6.17,15.37-8.81,24.94c-2.64,9.58-4.49,20.48-5.55,32.7c-0.94,10.81-1.18,19.8-0.71,26.97
			c0.47,7.17,1.38,12.87,2.73,17.1c1.35,4.23,3.02,7.2,5.02,8.9C1178.5,333.76,1180.56,334.62,1182.67,334.62z"/>
		<path d="M1255.83,292.13c-1.29-1.29-2.2-2.56-2.73-3.79c-0.53-1.23-0.91-2.44-1.15-3.61c-0.23-1.29-0.23-2.58,0-3.88
			c0.47-1.64,1.17-3.17,2.12-4.58c0.82-1.29,1.94-2.61,3.35-3.97c1.41-1.35,3.29-2.61,5.64-3.79c1.53-3.76,2.91-7.73,4.14-11.9
			c1.23-4.17,2.32-7.96,3.26-11.37c1.06-3.99,2-7.99,2.82-11.99c2.94-9.99,4.46-18.13,4.58-24.41c0.12-6.29,0-10.43-0.35-12.43
			c-0.12-0.82-0.24-1.64-0.35-2.47c-0.24-0.71-0.44-1.5-0.62-2.38c-0.18-0.88-0.38-1.73-0.62-2.56c1.29-0.71,2.44-1.29,3.44-1.76
			c1-0.47,1.85-0.82,2.56-1.06c0.82-0.35,1.59-0.59,2.29-0.71c2.7-0.59,5.26-0.91,7.67-0.97c2.41-0.06,3.73,0.38,3.97,1.32
			c0.12,0.59,0.26,1.65,0.44,3.17c0.18,1.53,0.26,3.41,0.26,5.64c0,2.23-0.18,4.73-0.53,7.49c-0.35,2.76-1,5.67-1.94,8.73
			c-0.82,2.7-1.94,6.46-3.35,11.28c-1.29,4.12-3,9.61-5.11,16.48c-2.12,6.87-4.88,15.66-8.29,26.35c3.53-1.17,7.4-2.29,11.63-3.35
			c4.23-1.06,8.55-1.94,12.96-2.64c4.41-0.71,8.81-1.23,13.22-1.59c4.41-0.35,8.49-0.41,12.25-0.18c0.71,0,1.2,0.33,1.5,0.97
			c0.29,0.65,0.29,1.32,0,2.03c-0.3,0.71-0.94,1.38-1.94,2.03c-1,0.65-2.44,1.03-4.32,1.15c-2.35,0.24-4.94,0.5-7.76,0.79
			c-2.82,0.29-5.73,0.71-8.72,1.23c-3,0.53-5.97,1.18-8.9,1.94c-2.94,0.77-5.7,1.67-8.29,2.73c-2,0.71-4,1.41-5.99,2.12
			c-1.65,0.59-3.38,1.26-5.2,2.03c-1.82,0.77-3.32,1.44-4.49,2.03l-4.05,12.87c6.81,4.82,12.07,9.76,15.78,14.81
			c3.7,5.05,6.37,9.69,8.02,13.93c2,4.94,3.11,9.75,3.35,14.45c0,5.17-0.77,10.37-2.29,15.6c-1.53,5.23-3.56,10.22-6.08,14.98
			c-2.53,4.76-5.46,9.19-8.81,13.31c-3.35,4.11-6.87,7.64-10.58,10.58c-3.7,2.94-7.46,5.17-11.28,6.7
			c-3.82,1.53-7.43,2.12-10.84,1.76c-2.47-0.24-4.52-1.03-6.17-2.38c-1.64-1.35-2.88-3.06-3.7-5.11c-0.82-2.06-1.29-4.35-1.41-6.87
			c-0.12-2.53,0.12-5.02,0.7-7.49c0.47-2.47,1.47-7.05,3-13.75c1.29-5.64,3.29-13.84,5.99-24.59
			C1247.6,324.3,1251.24,310,1255.83,292.13z M1266.23,300.42c-1.65,5.88-3.08,11.28-4.32,16.22c-1.23,4.94-2.26,9.28-3.08,13.04
			c-1.06,4.35-1.88,8.28-2.47,11.81c-1.06,4.46-2.15,8.87-3.26,13.22c-1.12,4.35-2,8.25-2.64,11.72c-0.65,3.46-0.91,6.26-0.79,8.37
			c0.12,2.12,0.88,3.17,2.29,3.17c3.41,0.23,6.96-1.09,10.66-3.97c3.7-2.88,7.08-6.52,10.14-10.93c3.05-4.41,5.58-9.17,7.58-14.28
			c2-5.11,3-9.84,3-14.19c0-4.82-0.77-9.58-2.29-14.28c-1.06-2.47-2.29-4.88-3.7-7.23c-1.29-2-2.85-4.14-4.67-6.43
			C1270.84,304.38,1268.69,302.3,1266.23,300.42z"/>
		<path d="M689.54,560.04c-4.58,0.12-8.37-0.71-11.37-2.47c-3-1.76-5.35-4.32-7.05-7.67c-1.7-3.35-2.79-7.4-3.26-12.16
			c-0.47-4.76-0.47-9.96,0-15.6c0.59-4.35,1.65-8.87,3.17-13.57c1.29-3.99,3.26-8.4,5.91-13.22c2.64-4.82,6.2-9.52,10.66-14.1
			c0.94,0.24,1.7,0.5,2.29,0.79c0.59,0.29,1.06,0.62,1.41,0.97c0.35,0.47,0.59,0.88,0.71,1.23c0.23,1.29-0.12,2.76-1.06,4.41
			c-0.94,1.65-1.88,3.41-2.82,5.29c-2.59,5.41-4.52,10.52-5.82,15.34c-1.29,4.82-2.12,9.28-2.47,13.4c-0.23,3.53-0.2,6.73,0.09,9.61
			c0.3,2.88,0.74,5.35,1.32,7.4c0.59,2.06,1.23,3.64,1.94,4.76c0.71,1.12,1.35,1.67,1.94,1.67c0.59,0,1.2-0.41,1.85-1.23
			c0.64-0.82,1.26-1.82,1.85-3c0.71-1.18,1.53-2.97,2.47-5.38c0.94-2.41,1.94-5.2,3-8.37c1.06-3.17,2.09-6.61,3.08-10.31
			c1-3.7,1.91-7.43,2.73-11.19c1.64-7.52,3.41-16.01,5.29-25.47c1.88-9.46,4.64-19.36,8.28-29.7c1.17-4.35,2.64-9.11,4.41-14.28
			c1.41-4.47,3.2-9.67,5.38-15.6c2.17-5.93,4.67-12.37,7.49-19.3c0-0.59,0.5-1.15,1.5-1.67c1-0.53,2.14-1.09,3.44-1.67
			c1.41-0.59,3-1.17,4.76-1.76c2.35-0.82,4.2-1.29,5.55-1.41c1.35-0.11,2.38,0.06,3.08,0.53c0.71,0.47,1.17,1.09,1.41,1.85
			c0.23,0.77,0.35,1.62,0.35,2.56c0.23,3.88,0.38,7.52,0.44,10.93c0.06,3.41,0.15,6.41,0.26,8.99c0.12,3.06,0.18,5.82,0.18,8.29
			c0.12,3.29-0.06,7.67-0.53,13.13c-0.47,5.47-0.97,11.19-1.5,17.19c-0.53,5.99-1,11.84-1.41,17.54c-0.41,5.7-0.5,10.43-0.26,14.19
			c0,2,0.09,3.85,0.26,5.55c0.18,1.71,0.38,3.38,0.62,5.02c1.53-4.23,3.23-8.67,5.11-13.31c1.88-4.64,3.76-9.11,5.64-13.4
			c1.88-4.29,3.64-8.29,5.29-11.99c1.64-3.7,2.94-6.79,3.88-9.25c1.41-3.29,3.29-7.46,5.64-12.52c2.35-5.05,4.73-10.11,7.14-15.16
			c2.41-5.05,4.64-9.69,6.7-13.93c2.05-4.23,3.55-7.17,4.49-8.81c0.71-1.17,1.91-2.23,3.61-3.17c1.7-0.94,3.53-1.76,5.46-2.47
			c1.94-0.71,3.76-1.2,5.47-1.5c1.7-0.29,2.85-0.32,3.44-0.09c1.53,0.35,2.61,0.82,3.26,1.41c0.64,0.59,1.03,1,1.15,1.23
			c0.23,0.47,0.41,1.26,0.53,2.38c0.12,1.12,0.06,2.85-0.18,5.2c-0.24,2.82-0.91,7.11-2.03,12.87c-1.12,5.76-2.47,12.31-4.05,19.65
			c-1.59,7.35-3.29,15.19-5.11,23.53c-1.82,8.34-3.56,16.54-5.2,24.59c-1.65,8.05-3.08,15.6-4.32,22.65
			c-1.23,7.05-2.03,12.99-2.38,17.8c-0.24,5.4,0.12,10.16,1.06,14.28c0.35,1.76,0.88,3.47,1.59,5.11c0.71,1.64,1.64,3.08,2.82,4.32
			c1.17,1.23,2.58,2.14,4.23,2.73c1.64,0.59,3.58,0.76,5.82,0.53c-2.94,2-5.82,3.47-8.64,4.41c-2.82,0.94-5.58,1.41-8.29,1.41
			c-2.94,0.12-5.52-0.33-7.76-1.32c-2.23-1-4.12-2.41-5.64-4.23c-1.53-1.82-2.64-4-3.35-6.52c-0.7-2.53-0.94-5.32-0.7-8.37
			c0.23-2.82,1-7.46,2.29-13.93c1.29-6.46,2.85-13.78,4.67-21.95c1.82-8.17,3.82-16.69,5.99-25.56c2.17-8.87,4.23-17.21,6.17-25.03
			c1.94-7.81,3.61-14.54,5.02-20.18c1.41-5.64,2.29-9.34,2.64-11.11c0.23-1.41,0.44-2.73,0.62-3.97c0.18-1.23,0.38-2.32,0.62-3.26
			c-1.18,2.35-2.62,5.17-4.32,8.46c-1.7,3.29-3.5,6.82-5.38,10.58c-1.88,3.76-3.79,7.67-5.73,11.72c-1.94,4.05-3.79,7.96-5.55,11.72
			c-2.94,6.11-5.82,12.37-8.64,18.77c-2.82,6.41-5.35,12.49-7.58,18.24c-2.23,5.76-4.08,10.93-5.55,15.51
			c-1.47,4.58-2.32,8.11-2.56,10.58v2.47c0,0.71,0.03,1.53,0.09,2.47c0.06,0.94,0.2,1.82,0.44,2.64l-7.05,5.46
			c-1.06,0.35-1.97,0.64-2.73,0.88c-0.76,0.23-1.5,0.35-2.2,0.35c-2.71,0-4.76-1.41-6.17-4.23c-1.41-2.59-2.7-7.64-3.88-15.16
			c-1.18-7.52-1.53-16.75-1.06-27.68c0.23-5.4,0.62-10.87,1.15-16.39c0.53-5.52,1.06-10.81,1.59-15.86
			c0.53-5.05,1.03-9.78,1.5-14.19c0.47-4.41,0.71-8.2,0.71-11.37c0.12-2.35,0.06-4.49-0.18-6.43c-0.24-1.94-0.47-3.73-0.7-5.38
			c-1.06,2.7-2.23,6.38-3.53,11.02c-1.29,4.64-2.64,9.78-4.05,15.42c-1.41,5.64-2.85,11.58-4.32,17.8
			c-1.47,6.23-2.88,12.22-4.23,17.98c-1.35,5.76-2.62,11.08-3.79,15.95c-1.18,4.88-2.12,8.79-2.82,11.72
			c-1.18,4.7-2.35,10.05-3.53,16.04c-1.18,5.99-2.64,11.66-4.41,17.01c-1.76,5.35-4.05,9.87-6.87,13.57
			C697.65,558.01,694,559.92,689.54,560.04z"/>
		<path d="M864.23,462.2c1.53-1.17,3.02-2.08,4.49-2.73c1.47-0.65,2.79-1.09,3.97-1.32c1.29-0.35,2.58-0.47,3.88-0.35
			c3.17,0.24,5.14,1.23,5.9,3c0.76,1.76,0.85,4.58,0.26,8.46c-0.35,2-1.06,4.53-2.11,7.58c-1.06,3.06-2.29,6.79-3.7,11.19
			c-1.41,4.41-2.91,9.43-4.49,15.07c-1.59,5.64-3.08,11.99-4.49,19.04c-1.41,5.76-2.94,12.4-4.58,19.92
			c-1.41,6.58-3.08,14.51-5.02,23.8c-1.94,9.28-4.03,19.92-6.26,31.91c-0.59,2.94-1.85,4.64-3.79,5.11
			c-1.94,0.47-3.97,0.23-6.08-0.71c-0.82-0.47-1.59-1-2.29-1.59c-0.59-0.59-1.23-1.26-1.94-2.03c-0.71-0.77-1.29-1.79-1.76-3.08
			c2.7-9.87,5.08-18.86,7.14-26.97c2.06-8.11,3.91-15.16,5.55-21.15c1.76-6.93,3.41-13.16,4.94-18.68c0.59-2.47,1.15-4.91,1.67-7.32
			c0.53-2.41,1.09-4.79,1.67-7.14c-1.53,2.47-3.17,4.82-4.94,7.05c-1.76,2.23-3.7,4.17-5.82,5.82s-4.38,2.91-6.79,3.79
			c-2.41,0.88-4.91,1.15-7.49,0.79c-6.35-0.82-10.84-3.17-13.48-7.05c-2.64-3.88-3.79-8.93-3.44-15.16
			c0.12-2.47,0.47-5.17,1.06-8.11c0.59-2.94,1.23-5.76,1.94-8.46c0.7-2.7,1.38-5.14,2.03-7.32c0.65-2.17,1.15-3.73,1.5-4.67
			c1.41-4.47,2.44-8.29,3.08-11.46c0.64-3.17,0.15-5.82-1.5-7.93c1.64-1.06,3.2-1.79,4.67-2.2c1.47-0.41,2.79-0.73,3.97-0.97
			c1.29-0.12,2.58-0.12,3.88,0c3.17,0.47,5.02,1.65,5.55,3.53c0.53,1.88,0.32,4.7-0.62,8.46c-0.47,2-1.23,4.56-2.29,7.67
			c-1.06,3.12-2.18,6.32-3.35,9.61c-1.18,3.29-2.23,6.32-3.17,9.08c-0.94,2.76-1.47,4.73-1.59,5.9c-1.06,5.29-1.12,9.37-0.18,12.25
			c0.94,2.88,3,4.32,6.17,4.32c1.53,0,3.23-0.67,5.11-2.03c1.88-1.35,3.79-3.14,5.73-5.38c1.94-2.23,3.85-4.79,5.73-7.67
			c1.88-2.88,3.61-5.79,5.2-8.73c1.59-2.94,3-5.82,4.23-8.64c1.23-2.82,2.14-5.35,2.73-7.58c0.82-4.35,1.35-7.76,1.59-10.22
			C866.93,466.43,866.11,464.2,864.23,462.2z"/>
		<path d="M970.87,467.14c-5.99,0-10.84-0.65-14.54-1.94c-3.7-1.29-6.2-2.94-7.49-4.94c-0.59-0.82-1.12-2.05-1.59-3.7
			c-0.47-1.64-0.29-3.47,0.53-5.46c1.65,1.29,3.44,2.26,5.38,2.91c1.94,0.65,3.73,1.09,5.38,1.32c2,0.35,3.94,0.53,5.82,0.53
			c3.52,0,6.96-0.29,10.31-0.88c3.35-0.59,6.67-1.41,9.96-2.47c1.41-7.05,2.79-13.4,4.14-19.04c1.35-5.64,2.91-10.22,4.67-13.75
			c1.88-3.88,3.85-7.37,5.9-10.49c2.06-3.11,4.35-5.76,6.87-7.93c2.53-2.17,5.32-3.85,8.37-5.02c3.05-1.17,6.58-1.76,10.58-1.76
			c2.94,0,5.26,0.59,6.96,1.76c1.7,1.18,3,2.64,3.88,4.41c0.88,1.76,1.41,3.67,1.59,5.73c0.18,2.06,0.26,3.97,0.26,5.73
			c0,3.88-0.94,8.11-2.82,12.69c-1.88,4.58-4.53,9.11-7.93,13.57c-3.41,4.47-7.49,8.7-12.25,12.69c-4.76,4-10.08,7.29-15.95,9.87
			c-2,7.76-3.97,15.42-5.91,23c-1.94,7.58-3.85,13.84-5.73,18.77c-1.65,4.58-3.73,9.7-6.26,15.34c-2.53,5.64-5.61,11.05-9.25,16.22
			c2.23,1.41,4.49,2.88,6.79,4.41c2.29,1.53,4.61,2.91,6.96,4.14c2.35,1.23,4.73,2.26,7.14,3.08c2.41,0.82,4.96,1.23,7.67,1.23
			c2.82-0.12,5.58-0.53,8.29-1.23c2.35-0.59,4.82-1.56,7.4-2.91c2.58-1.35,4.99-3.26,7.23-5.73c0.82,1.41,1.09,3.53,0.79,6.35
			c-0.29,2.82-1.21,5.64-2.73,8.46c-1.53,2.82-3.7,5.29-6.52,7.4c-2.82,2.11-6.35,3.17-10.58,3.17c-4.47,0-8.64-0.62-12.52-1.85
			c-3.88-1.23-7.52-2.73-10.93-4.49c-3.41-1.76-6.61-3.67-9.61-5.73c-3-2.06-5.79-3.97-8.37-5.73c-3.53,3.41-7.4,6.17-11.63,8.28
			c-4.23,2.12-8.93,3.17-14.1,3.17c-4.11,0-7.4-1.15-9.87-3.44c-2.47-2.29-3.58-5.38-3.35-9.25c0.12-1.41,0.53-3.08,1.23-5.02
			c0.71-1.94,2.03-3.79,3.97-5.55c1.94-1.76,4.61-3.26,8.02-4.49c3.41-1.23,7.81-1.85,13.22-1.85c2,0,3.91,0.21,5.73,0.62
			c1.82,0.41,3.61,0.91,5.38,1.5c1.29-2.35,2.58-5.05,3.88-8.11c1.29-3.06,2.7-6.52,4.23-10.4c2.7-7.4,5.05-14.83,7.05-22.3
			c2-7.46,3.7-14.72,5.11-21.77c-1.65,0.35-3.38,0.59-5.2,0.7C974.6,467.08,972.75,467.14,970.87,467.14z M941.61,546.82
			c1.53-0.59,3.29-1.18,5.29-1.76c2-0.59,4.29-2.23,6.88-4.94c-1.76-0.59-3.12-0.88-4.05-0.88c-4.23,0-7.32,0.62-9.25,1.85
			c-1.94,1.23-2.91,2.44-2.91,3.61c0,0.82,0.35,1.44,1.06,1.85C939.32,546.96,940.32,547.05,941.61,546.82z M1008.25,424.13
			c-0.59,1.76-1.35,4.35-2.29,7.76c-0.94,3.41-1.94,7.35-3,11.81c6.35-4.11,11.43-8.81,15.25-14.1c3.82-5.29,5.73-10.58,5.73-15.87
			c0-3.17-0.94-4.76-2.82-4.76c-1.65,0-3.76,1.26-6.35,3.79C1012.18,415.29,1010.01,419.08,1008.25,424.13z"/>
		<path d="M1045.09,460.79c0.59-0.7,1.7-1.29,3.35-1.76c1.64-0.47,3.35-0.85,5.11-1.15c1.76-0.29,3.38-0.47,4.85-0.53
			c1.47-0.06,2.32-0.03,2.56,0.09c0.12,0.12-0.18,1.35-0.88,3.7c-0.71,2.35-1.59,5.11-2.64,8.29s-2.18,6.43-3.35,9.78
			c-1.18,3.35-2.06,6.08-2.64,8.2c-0.59,2.12-1.29,4.49-2.12,7.14c-0.82,2.64-1.56,5.23-2.2,7.76c-0.65,2.53-1.09,4.91-1.32,7.14
			c-0.24,2.23-0.06,3.94,0.53,5.11c0.59,1.41,1.23,2.38,1.94,2.91c0.71,0.53,1.47,0.79,2.29,0.79c2.35,0,5.31-1.29,8.9-3.88
			c3.58-2.58,7.23-5.67,10.93-9.25c3.7-3.58,7.14-7.23,10.31-10.93c3.17-3.7,5.52-6.67,7.05-8.9c0.94-1.17,1.91-1.94,2.91-2.29
			c1-0.35,1.82-0.29,2.47,0.18c0.64,0.47,1,1.23,1.06,2.29c0.06,1.06-0.32,2.29-1.15,3.7c-1.88,3.29-4.64,7.2-8.29,11.72
			c-3.64,4.53-7.52,8.87-11.63,13.05c-4.11,4.17-8.14,7.73-12.07,10.66c-3.94,2.94-7.14,4.47-9.61,4.58c-2,0.12-3.97-0.21-5.91-0.97
			c-1.94-0.77-3.7-1.82-5.29-3.17c-1.59-1.35-2.91-2.94-3.97-4.76c-1.06-1.82-1.65-3.73-1.76-5.73c-0.35-2.94-0.35-6.96,0-12.07
			c0.35-5.11,1-10.34,1.94-15.69c0.94-5.35,2.14-10.43,3.61-15.25C1041.53,466.73,1043.21,463.15,1045.09,460.79z M1069.41,423.25
			c-0.35,1.29-1.03,2.56-2.03,3.79c-1,1.23-2.11,2.23-3.35,3c-1.23,0.76-2.5,1.26-3.79,1.5c-1.29,0.24-2.35,0-3.17-0.71
			c-2.47-1.88-3.76-3.9-3.88-6.08c-0.12-2.17,0.41-4.23,1.59-6.17c1.17-1.94,2.64-3.58,4.41-4.94c1.76-1.35,3.29-2.14,4.58-2.38
			c1.29-0.23,2.38,0.03,3.26,0.79c0.88,0.77,1.56,1.76,2.03,3c0.47,1.23,0.73,2.62,0.79,4.14
			C1069.91,420.72,1069.77,422.07,1069.41,423.25z"/>
		<path d="M1083.69,508.74c-1.29-1.29-2.2-2.56-2.73-3.79c-0.53-1.23-0.91-2.44-1.15-3.61c-0.23-1.29-0.23-2.58,0-3.88
			c0.47-1.65,1.17-3.17,2.12-4.58c0.82-1.29,1.94-2.61,3.35-3.97c1.41-1.35,3.29-2.61,5.64-3.79c1.53-3.76,2.91-7.73,4.14-11.9
			c1.23-4.17,2.32-7.96,3.26-11.37c1.06-3.99,2-7.99,2.82-11.99c2.94-9.99,4.46-18.13,4.58-24.41c0.12-6.29,0-10.43-0.35-12.43
			c-0.12-0.82-0.24-1.64-0.35-2.47c-0.24-0.71-0.44-1.5-0.62-2.38c-0.18-0.88-0.38-1.73-0.62-2.56c1.29-0.71,2.44-1.29,3.44-1.76
			c1-0.47,1.85-0.82,2.56-1.06c0.82-0.35,1.59-0.59,2.29-0.71c2.7-0.59,5.26-0.91,7.67-0.97c2.41-0.06,3.73,0.38,3.97,1.32
			c0.12,0.59,0.26,1.65,0.44,3.17c0.18,1.53,0.26,3.41,0.26,5.64c0,2.23-0.18,4.73-0.53,7.49c-0.35,2.76-1,5.67-1.94,8.73
			c-0.82,2.7-1.94,6.46-3.35,11.28c-1.29,4.11-3,9.61-5.11,16.48c-2.12,6.87-4.88,15.66-8.29,26.35c3.53-1.17,7.4-2.29,11.63-3.35
			c4.23-1.06,8.55-1.94,12.96-2.64c4.41-0.71,8.81-1.23,13.22-1.59c4.41-0.35,8.49-0.41,12.25-0.18c0.71,0,1.2,0.33,1.5,0.97
			c0.29,0.65,0.29,1.32,0,2.03c-0.3,0.71-0.94,1.38-1.94,2.03c-1,0.65-2.44,1.03-4.32,1.15c-2.35,0.24-4.94,0.5-7.76,0.79
			c-2.82,0.3-5.73,0.71-8.73,1.23c-3,0.53-5.97,1.18-8.9,1.94c-2.94,0.77-5.7,1.67-8.29,2.73c-2,0.7-4,1.41-5.99,2.11
			c-1.65,0.59-3.38,1.26-5.2,2.03c-1.82,0.77-3.32,1.44-4.49,2.03l-4.05,12.87c6.81,4.82,12.07,9.76,15.78,14.81
			c3.7,5.05,6.37,9.7,8.02,13.93c2,4.94,3.11,9.75,3.35,14.45c0,5.17-0.77,10.37-2.29,15.6c-1.53,5.23-3.56,10.22-6.08,14.98
			c-2.53,4.76-5.46,9.19-8.81,13.31c-3.35,4.11-6.87,7.64-10.58,10.58c-3.7,2.94-7.46,5.17-11.28,6.7
			c-3.82,1.53-7.43,2.12-10.84,1.76c-2.47-0.24-4.52-1.03-6.17-2.38c-1.64-1.35-2.88-3.06-3.7-5.11c-0.82-2.06-1.29-4.35-1.41-6.87
			c-0.12-2.53,0.12-5.02,0.7-7.49c0.47-2.47,1.47-7.05,3-13.75c1.29-5.64,3.29-13.84,5.99-24.59
			C1075.47,540.91,1079.11,526.61,1083.69,508.74z M1094.09,517.03c-1.65,5.88-3.08,11.28-4.32,16.22
			c-1.23,4.94-2.27,9.28-3.08,13.04c-1.06,4.35-1.88,8.29-2.47,11.81c-1.06,4.46-2.15,8.87-3.26,13.22c-1.12,4.35-2,8.25-2.64,11.72
			c-0.65,3.47-0.91,6.26-0.79,8.37c0.12,2.12,0.88,3.17,2.29,3.17c3.41,0.23,6.96-1.09,10.66-3.97c3.7-2.88,7.08-6.52,10.14-10.93
			c3.05-4.41,5.58-9.17,7.58-14.28c2-5.11,3-9.84,3-14.19c0-4.82-0.77-9.58-2.29-14.28c-1.06-2.47-2.29-4.88-3.7-7.23
			c-1.29-2-2.85-4.14-4.67-6.43C1098.7,520.99,1096.56,518.91,1094.09,517.03z"/>
		<path d="M1218.72,490.41c-3.53,5.17-7.52,10.2-11.99,15.07c-4.47,4.88-9.2,9.23-14.19,13.04c-5,3.82-10.11,6.91-15.34,9.25
			c-5.23,2.35-10.31,3.52-15.25,3.52c-2.59,0-5.38-0.62-8.37-1.85c-3-1.23-5.73-3.14-8.2-5.73c-2.47-2.58-4.44-5.93-5.91-10.05
			c-1.47-4.11-1.91-9.11-1.32-14.98c0.47-4.82,1.97-9.9,4.49-15.25c2.53-5.35,5.64-10.25,9.34-14.72c3.7-4.46,7.87-8.17,12.52-11.11
			c4.64-2.94,9.31-4.41,14.01-4.41c4.46,0,7.7,1.12,9.7,3.35c2,2.23,2.88,5,2.64,8.29c-0.35,3.64-1.38,6.99-3.08,10.05
			c-1.71,3.06-3.73,5.82-6.08,8.29c-2.35,2.47-4.85,4.7-7.49,6.7c-2.64,2-5.14,3.82-7.49,5.46c-2.59,1.76-5.05,3.44-7.4,5.02
			c-2.35,1.59-4.41,3.03-6.17,4.32c0.12,2.94,0.64,5.41,1.59,7.4c0.94,2,2.11,3.61,3.52,4.85c1.41,1.23,3.02,2.12,4.85,2.64
			c1.82,0.53,3.67,0.79,5.55,0.79c3.99,0,8.17-1.26,12.52-3.79c4.35-2.53,8.61-5.58,12.78-9.17c4.17-3.58,8.05-7.32,11.63-11.19
			c3.58-3.88,6.55-7.23,8.9-10.05c0.82-0.94,1.67-1.5,2.56-1.67c0.88-0.18,1.59-0.06,2.12,0.35c0.53,0.41,0.79,1.12,0.79,2.12
			C1219.95,487.97,1219.54,489.12,1218.72,490.41z M1173.59,463.26c-1.41,0-3.08,0.71-5.02,2.12c-1.94,1.41-3.85,3.44-5.73,6.08
			c-1.88,2.64-3.64,5.88-5.29,9.7c-1.65,3.82-2.88,8.2-3.7,13.13c1.41-1.06,2.94-2.14,4.58-3.26c1.64-1.12,3.29-2.32,4.94-3.61
			c5.05-3.88,8.58-7.29,10.58-10.22c2-2.94,3.11-5.46,3.35-7.58c0.23-2.23,0-3.85-0.7-4.85
			C1175.88,463.76,1174.88,463.26,1173.59,463.26z"/>
	</g>
	<g>
		<path class="st3" d="M626.34,265.87c-2.23-2.35-4.03-5.26-5.38-8.73c-1.35-3.46-2.38-6.9-3.08-10.31
			c-0.82-3.88-1.41-7.99-1.76-12.34c-0.59-8.46,0.35-16.16,2.82-23.09c2.47-6.93,5.82-12.87,10.05-17.8
			c4.23-4.94,8.96-8.75,14.19-11.46c5.23-2.7,10.31-4.05,15.25-4.05c2.23,0,4.02,0.53,5.38,1.59c1.35,1.06,2.38,2.35,3.08,3.88
			c0.71,1.53,1.15,3.12,1.32,4.76c0.18,1.65,0.26,3,0.26,4.05c0,3.76-0.09,7.46-0.26,11.1c-0.18,3.64-0.47,7.52-0.88,11.63
			c-0.41,4.11-1.03,8.52-1.85,13.22c-0.82,4.7-1.88,9.93-3.17,15.69c-0.71,3.17-1.71,7.23-3,12.16c-1.29,4.94-2.82,10.4-4.58,16.39
			c5.29,0.12,9.55,0.33,12.78,0.62c3.23,0.29,5.32,0.5,6.26,0.62c0.82,0.12,1.44,0.53,1.85,1.23c0.41,0.71,0.15,1.82-0.79,3.35
			c-0.94,1.41-2.26,2.23-3.97,2.47c-1.71,0.24-3.38,0.35-5.02,0.35c-0.94,0-2.67,0-5.2,0c-2.53,0-5.49,0.12-8.9,0.35
			c-2.47,7.29-5.26,14.6-8.37,21.95c-3.12,7.34-6.55,13.98-10.31,19.92c-3.76,5.93-7.87,10.75-12.34,14.45
			c-4.47,3.7-9.23,5.55-14.28,5.55c-7.29,0-13.43-1.38-18.42-4.14c-5-2.76-9.05-5.99-12.16-9.69c-3.11-3.7-5.38-7.4-6.79-11.11
			c-1.41-3.7-2.12-6.55-2.12-8.55c0-3.53,0.94-7.11,2.82-10.75c1.88-3.64,4.85-7.08,8.9-10.31c4.05-3.23,9.31-6.08,15.78-8.55
			c6.46-2.47,14.22-4.35,23.27-5.64c3.76-0.47,7.34-0.85,10.75-1.15c3.41-0.29,6.64-0.56,9.69-0.79c2.35-8.81,4.73-17.8,7.14-26.97
			c2.41-9.17,4.49-17.63,6.26-25.38c0.71-3.17,1.41-6.61,2.12-10.31c0.71-3.7,1.26-7.2,1.67-10.49c0.41-3.29,0.64-6.05,0.71-8.28
			c0.06-2.23-0.21-3.46-0.79-3.7c-0.35-0.12-1.23,0.33-2.64,1.32c-1.41,1-3.06,2.44-4.94,4.32c-1.88,1.88-3.73,4.14-5.55,6.79
			c-1.82,2.64-3.32,5.5-4.49,8.55c-2.12,5.99-3.76,11.87-4.94,17.63c-0.94,4.94-1.53,10.17-1.76,15.69
			c-0.24,5.53,0.64,10.52,2.64,14.98c-0.24,1.65-0.59,3-1.06,4.05c-0.35,0.59-0.65,1.12-0.88,1.59c-0.35,0.35-0.77,0.77-1.23,1.23
			c-0.47,0.35-1.03,0.74-1.67,1.15C628.08,265.31,627.28,265.63,626.34,265.87z M624.23,315.05c1.29-2.71,2.88-6.87,4.76-12.52
			c1.88-5.64,3.88-12.16,5.99-19.57c-5.76,0.71-11.58,1.67-17.45,2.91c-5.88,1.23-11.19,2.88-15.95,4.94
			c-4.76,2.06-8.64,4.56-11.63,7.49c-3,2.94-4.49,6.41-4.49,10.4c0,4.23,0.85,7.93,2.56,11.11c1.7,3.17,3.76,5.82,6.17,7.93
			c2.41,2.12,4.88,3.73,7.4,4.85c2.53,1.12,4.67,1.67,6.43,1.67s3.44-0.68,5.02-2.03c1.59-1.35,3.05-3,4.41-4.94
			c1.35-1.94,2.58-4.03,3.7-6.26C622.26,318.81,623.29,316.81,624.23,315.05z"/>
		<path class="st3" d="M759.61,302.36c0-2.47,0.26-5.29,0.79-8.46c0.53-3.17,1.2-6.43,2.03-9.78c0.82-3.35,1.65-6.61,2.47-9.78
			s1.53-5.99,2.12-8.46c0.7-3.05,0.64-5.4-0.18-7.05c-0.82-1.64-2.23-2.47-4.23-2.47c-0.94,0-2.79,0.82-5.55,2.47
			c-2.76,1.65-5.76,4.49-8.99,8.55c-3.23,4.05-6.41,9.52-9.52,16.39c-3.11,6.87-5.55,15.6-7.32,26.18
			c-2.23,1.17-4.35,1.94-6.35,2.29c-1.06,0.23-2,0.41-2.82,0.53c-2.35,0.12-3.88-0.26-4.58-1.15c-0.71-0.88-0.59-3.02,0.35-6.43
			c0.47-1.64,1.32-4.29,2.56-7.93c1.23-3.64,2.44-7.61,3.61-11.9c1.17-4.29,2.2-8.58,3.08-12.87c0.88-4.29,1.32-8.02,1.32-11.19
			c0-2.23-0.38-3.76-1.14-4.58c-0.77-0.82-1.85-1.23-3.26-1.23c-1.06,0-2.82,0.59-5.29,1.76c-2.47,1.18-5.23,3.47-8.28,6.87
			c-3.06,3.41-6.08,8.14-9.08,14.19c-3,6.05-5.55,13.9-7.67,23.53v-0.35c-0.24,0.94-0.47,1.88-0.71,2.82
			c-0.24,0.82-0.41,1.71-0.53,2.64c-0.12,0.94-0.29,1.82-0.53,2.64l-8.81,3.88c-0.59,0.23-1.32,0.41-2.2,0.53
			c-0.88,0.12-1.7-0.03-2.47-0.44c-0.77-0.41-1.32-1.26-1.67-2.56c-0.35-1.29-0.23-3.23,0.35-5.82l11.11-46.01
			c0.35-1.53,0.64-3,0.88-4.41c0.23-1.29,0.38-2.56,0.44-3.79c0.06-1.23-0.03-2.26-0.26-3.08c2-0.94,3.76-1.64,5.29-2.12
			c1.53-0.47,2.76-0.82,3.7-1.06c1.17-0.35,2.17-0.53,3-0.53c3.76,0,4.99,3.23,3.7,9.69c-0.47,1.88-1.18,4.64-2.11,8.29
			c2.23-2.82,4.61-5.49,7.14-8.02c2.53-2.53,5.08-4.79,7.67-6.79c2.58-2,5.2-3.58,7.85-4.76c2.64-1.17,5.26-1.76,7.84-1.76
			c2,0,3.67,0.59,5.02,1.76c1.35,1.18,2.41,2.73,3.17,4.67c0.76,1.94,1.2,4.23,1.32,6.87c0.11,2.64,0,5.38-0.35,8.2
			c1.88-2.47,3.97-4.96,6.26-7.49c2.29-2.53,4.7-4.79,7.23-6.79c2.53-2,5.14-3.64,7.84-4.94c2.7-1.29,5.4-1.94,8.11-1.94
			c3.17,0,5.61,0.94,7.32,2.82c1.7,1.88,2.88,4.29,3.53,7.23c0.64,2.94,0.82,6.11,0.53,9.52c-0.29,3.41-0.79,6.7-1.5,9.87
			l-5.99,23.8c-1.29,5.88-0.06,8.81,3.7,8.81c2.93,0,6.17-1.41,9.69-4.23c3.53-2.82,6.96-6.17,10.31-10.05
			c3.35-3.88,6.49-7.87,9.43-11.99c2.93-4.11,5.4-7.4,7.4-9.87c0.71-0.82,1.44-1.29,2.2-1.41c0.76-0.12,1.41,0.03,1.94,0.44
			c0.53,0.41,0.82,1.09,0.88,2.03c0.06,0.94-0.26,2.12-0.97,3.53c-2.35,4.12-5.23,8.67-8.64,13.66c-3.41,5-7.14,9.67-11.19,14.01
			c-4.06,4.35-8.37,7.99-12.96,10.93c-4.58,2.94-9.34,4.41-14.28,4.41c-1.65,0-3.26-0.18-4.85-0.53c-1.59-0.35-3.06-1-4.41-1.94
			c-1.35-0.94-2.44-2.2-3.26-3.79C760.02,306.85,759.61,304.82,759.61,302.36z"/>
		<path class="st3" d="M897.46,275.39c-1.65,2.35-3.76,5.26-6.35,8.73c-2.59,3.47-5.26,6.94-8.02,10.4
			c-2.76,3.47-5.46,6.64-8.11,9.52c-2.64,2.88-4.85,4.91-6.61,6.08c-1.18,0.71-2.53,1.29-4.05,1.76c-1.53,0.47-3.08,0.76-4.67,0.88
			c-1.59,0.12-3.08,0.03-4.49-0.26c-1.41-0.29-2.64-0.79-3.7-1.5c-1.06-0.82-1.94-2-2.64-3.53c-0.59-1.29-1.15-3-1.67-5.11
			c-0.53-2.12-0.74-4.76-0.62-7.93c-2.82,4.7-5.93,8.32-9.34,10.84c-3.41,2.53-6.64,4.38-9.7,5.55c-3.53,1.29-7.05,2.05-10.58,2.29
			c-1.65,0-3.41-0.56-5.29-1.67c-1.88-1.12-3.47-2.88-4.76-5.29c-1.29-2.41-2.12-5.52-2.47-9.34c-0.35-3.82,0.12-8.37,1.41-13.66
			c1.64-7.17,4.26-13.69,7.84-19.57c3.58-5.87,7.49-10.9,11.72-15.07c4.23-4.17,8.4-7.32,12.52-9.43c4.11-2.12,7.52-3.05,10.22-2.82
			c3.17,0.59,5.76,1.53,7.76,2.82c1.65,1.18,2.73,2.91,3.26,5.2c0.53,2.29-0.44,5.32-2.91,9.08c1.64-0.35,3.02-0.59,4.14-0.71
			c1.12-0.12,1.97-0.18,2.56-0.18c0.71,0,1.17,0.06,1.41,0.18c0.12,0.24,0.18,0.74,0.18,1.5c0,0.77-0.18,2.15-0.53,4.14
			c-0.35,2-0.88,4.7-1.59,8.11c-0.71,3.41-1.65,7.82-2.82,13.22c-0.24,1.06-0.44,2.03-0.62,2.91c-0.18,0.88-0.35,1.76-0.53,2.64
			c-0.18,0.88-0.38,1.91-0.62,3.08c-0.24,1.18-0.53,2.64-0.88,4.41c-0.12,1.06-0.15,2.2-0.09,3.44c0.06,1.23,0.26,2.38,0.62,3.44
			c0.35,1.06,0.91,1.91,1.67,2.56c0.76,0.65,1.85,0.97,3.26,0.97c1.17,0,2.7-0.73,4.58-2.2c1.88-1.47,3.88-3.35,5.99-5.64
			c2.11-2.29,4.32-4.82,6.61-7.58c2.29-2.76,4.43-5.43,6.43-8.02c2-2.58,3.79-4.88,5.38-6.87c1.59-2,2.73-3.46,3.44-4.41
			c0.94-1.06,1.88-1.67,2.82-1.85c0.94-0.18,1.64,0.09,2.12,0.79c0.47,0.71,0.56,1.76,0.26,3.17
			C899.72,271.86,898.87,273.51,897.46,275.39z M845.81,283.14c0.59-2.35,1.29-5.11,2.12-8.29c0.82-3.17,1.53-6.23,2.11-9.17
			c0.59-2.94,1.03-5.38,1.32-7.32c0.29-1.94,0.2-2.85-0.26-2.73c-0.59,0.12-1.23,0.3-1.94,0.53c-0.59,0.24-1.35,0.41-2.29,0.53
			c-0.94,0.12-1.88,0.29-2.82,0.53c0.94-1.88,1.5-3.44,1.67-4.67c0.18-1.23,0.2-2.2,0.09-2.91c-0.12-0.82-0.35-1.47-0.71-1.94
			c-1.29-1.06-3.56-0.2-6.79,2.56c-3.23,2.76-6.96,7.84-11.19,15.25c-1.76,3.06-3.17,6.32-4.23,9.78c-1.06,3.47-1.79,6.73-2.2,9.78
			c-0.41,3.06-0.5,5.73-0.26,8.02c0.23,2.29,0.71,3.79,1.41,4.49c1.29,1.29,2.76,1.91,4.41,1.85c1.64-0.06,3.32-0.53,5.02-1.41
			c1.7-0.88,3.41-2.03,5.11-3.44c1.7-1.41,3.23-2.88,4.58-4.41c1.35-1.53,2.47-2.94,3.35-4.23
			C845.19,284.67,845.69,283.73,845.81,283.14z"/>
		<path class="st4" d="M932.18,335.67c-0.59,2.82-1.32,6.35-2.2,10.58c-0.88,4.23-1.88,8.7-3,13.4c-1.12,4.7-2.41,9.37-3.88,14.01
			c-1.47,4.64-3.08,8.81-4.85,12.52c-1.76,3.7-3.7,6.73-5.82,9.08c-2.12,2.35-4.47,3.53-7.05,3.53c-3.88,0-7.2-1.15-9.96-3.44
			c-2.76-2.29-5.09-5.17-6.96-8.64c-1.88-3.47-3.26-7.2-4.14-11.19c-0.88-4-1.32-7.7-1.32-11.1c0-4.7,0.41-8.61,1.23-11.72
			c0.82-3.12,2.26-6.08,4.32-8.9c2.05-2.82,4.85-5.82,8.37-8.99s8.05-7.11,13.57-11.81c2.7-2.35,5.29-4.58,7.76-6.7
			c2.47-2.12,4.82-4.05,7.05-5.82c0.59-2.35,1.15-4.55,1.67-6.61c0.53-2.05,0.97-3.91,1.32-5.55c-3.06,4.12-6.73,7.58-11.02,10.4
			c-4.29,2.82-9.2,4.23-14.72,4.23c-5.05,0-9.14-2.26-12.25-6.79c-3.11-4.52-4.67-11.19-4.67-20.01c0-4.35,0.82-9.34,2.47-14.98
			c1.64-5.64,3.99-10.93,7.05-15.86c3.06-4.94,6.82-9.11,11.28-12.52c4.46-3.41,9.46-5.11,14.98-5.11c2.58,0,4.82,0.65,6.7,1.94
			c1.88,1.29,3.47,2.91,4.76,4.85c1.29,1.94,2.29,4,3,6.17c0.7,2.18,1.23,4.2,1.59,6.08c0.23-0.71,0.41-1.44,0.53-2.2
			c0.12-0.76,0.29-1.44,0.53-2.03c1.17-3.99,2.5-6.73,3.97-8.2c1.47-1.47,3.67-2.2,6.61-2.2c1.64,0,3.02,0.29,4.14,0.88
			c1.12,0.59,1.67,1.12,1.67,1.59c-0.59,1.29-1.06,2.29-1.41,3c-0.35,0.71-0.71,1.44-1.06,2.2c-0.35,0.77-0.71,1.74-1.06,2.91
			c-0.35,1.18-0.82,2.88-1.41,5.11c-0.24,0.82-0.68,2.73-1.32,5.73c-0.65,3-1.47,6.55-2.47,10.66c-1,4.12-2.06,8.64-3.17,13.57
			c-1.12,4.94-2.2,9.76-3.26,14.45c3.29-1.88,6.7-4.17,10.22-6.87c3.53-2.7,6.88-5.46,10.05-8.28c3.17-2.82,5.99-5.49,8.46-8.02
			c2.47-2.53,4.29-4.61,5.46-6.26c0.94-1.41,2-2.41,3.17-3c1.17-0.59,2.2-0.79,3.08-0.62s1.41,0.71,1.59,1.59
			c0.18,0.88-0.21,2.09-1.15,3.61c-2.7,4.35-5.99,8.55-9.87,12.6c-3.88,4.05-7.84,7.82-11.9,11.28c-4.05,3.47-7.99,6.52-11.81,9.17
			c-3.82,2.64-7.08,4.79-9.78,6.43c-1.18,5.29-2.18,9.58-3,12.87C933.47,329.97,932.77,332.97,932.18,335.67z M901.86,382.74
			c2.35,0,4.26-1.74,5.73-5.2c1.47-3.47,3.02-8.2,4.67-14.19c0.35-1.41,0.85-3.44,1.5-6.08c0.64-2.64,1.41-5.67,2.29-9.08
			c0.88-3.41,1.79-7.08,2.73-11.02c0.94-3.94,1.94-7.91,3-11.9c-0.94,0.82-1.91,1.67-2.91,2.56c-1,0.88-2.03,1.91-3.08,3.08
			c-2.59,2.47-5.09,4.85-7.49,7.14c-2.41,2.29-4.56,4.7-6.43,7.23c-1.88,2.53-3.38,5.26-4.49,8.2c-1.12,2.94-1.67,6.35-1.67,10.22
			c0,3.88,0.15,7.05,0.44,9.52c0.29,2.47,0.7,4.41,1.23,5.82c0.53,1.41,1.17,2.38,1.94,2.91
			C900.07,382.47,900.92,382.74,901.86,382.74z M909.97,300.95c2.47,0,4.79-0.64,6.96-1.94c2.17-1.29,4.14-2.79,5.91-4.49
			c1.76-1.7,3.23-3.44,4.41-5.2c1.17-1.76,2.06-3.17,2.64-4.23c0.47-1.06,1.03-2.47,1.67-4.23c0.64-1.76,1.15-3.46,1.5-5.11
			c0.35-1.64,0.5-3.11,0.44-4.41c-0.06-1.29-0.5-2-1.32-2.12c-0.7-0.12-1.26-0.59-1.67-1.41c-0.41-0.82-0.74-1.76-0.97-2.82
			c-0.24-1.06-0.38-2.12-0.44-3.17c-0.06-1.06-0.15-2-0.26-2.82c-0.59-4.11-1.59-7.11-3-8.99c-1.41-1.88-3-2.82-4.76-2.82
			c-2.94,0-5.73,1.18-8.37,3.53c-2.64,2.35-5,5.38-7.05,9.08c-2.06,3.7-3.67,7.76-4.85,12.16c-1.18,4.41-1.76,8.61-1.76,12.6
			c0,4.94,0.71,8.9,2.12,11.9C902.57,299.45,905.5,300.95,909.97,300.95z"/>
		<path class="st4" d="M1048.52,273.8c-3.53,5.17-7.52,10.2-11.99,15.07c-4.47,4.88-9.2,9.23-14.19,13.04
			c-5,3.82-10.11,6.91-15.34,9.25c-5.23,2.35-10.31,3.53-15.25,3.53c-2.59,0-5.38-0.62-8.37-1.85c-3-1.23-5.73-3.14-8.2-5.73
			c-2.47-2.58-4.44-5.93-5.91-10.05c-1.47-4.11-1.91-9.11-1.32-14.98c0.47-4.82,1.97-9.9,4.49-15.25
			c2.53-5.35,5.64-10.25,9.34-14.72c3.7-4.46,7.87-8.17,12.52-11.11c4.64-2.94,9.31-4.41,14.01-4.41c4.46,0,7.7,1.12,9.7,3.35
			c2,2.23,2.88,5,2.64,8.28c-0.35,3.64-1.38,6.99-3.08,10.05c-1.71,3.06-3.73,5.82-6.08,8.28c-2.35,2.47-4.85,4.7-7.49,6.7
			c-2.64,2-5.14,3.82-7.49,5.46c-2.59,1.76-5.05,3.44-7.4,5.02c-2.35,1.59-4.41,3.03-6.17,4.32c0.12,2.94,0.64,5.41,1.59,7.4
			c0.94,2,2.11,3.61,3.52,4.85c1.41,1.23,3.02,2.12,4.85,2.64c1.82,0.53,3.67,0.79,5.55,0.79c3.99,0,8.17-1.26,12.52-3.79
			c4.35-2.53,8.61-5.58,12.78-9.17c4.17-3.58,8.05-7.32,11.63-11.19c3.58-3.88,6.55-7.23,8.9-10.05c0.82-0.94,1.67-1.5,2.56-1.67
			c0.88-0.18,1.59-0.06,2.12,0.35c0.53,0.41,0.79,1.12,0.79,2.12C1049.76,271.36,1049.35,272.51,1048.52,273.8z M1003.4,246.65
			c-1.41,0-3.08,0.71-5.02,2.12c-1.94,1.41-3.85,3.44-5.73,6.08c-1.88,2.64-3.64,5.88-5.29,9.69c-1.65,3.82-2.88,8.2-3.7,13.13
			c1.41-1.06,2.94-2.14,4.58-3.26c1.64-1.11,3.29-2.32,4.94-3.61c5.05-3.88,8.58-7.28,10.58-10.22c2-2.94,3.11-5.46,3.35-7.58
			c0.23-2.23,0-3.85-0.7-4.85C1005.69,247.15,1004.69,246.65,1003.4,246.65z"/>
		<path class="st4" d="M1060.69,304.47c0.7,0.47,1.61,0.71,2.73,0.71c1.12,0,2.23-0.23,3.35-0.71c1.12-0.47,2.17-1.12,3.17-1.94
			c1-0.82,1.73-1.88,2.2-3.17c0.47-1.29,0.47-3.14,0-5.55c-0.47-2.41-1.21-4.99-2.2-7.76c-1-2.76-2.09-5.55-3.26-8.37
			c-1.18-2.82-2.18-5.4-3-7.76c-0.7-1.76-1.29-3.41-1.76-4.94c-0.47-1.29-0.91-2.56-1.32-3.79c-0.41-1.23-0.74-2.08-0.97-2.56
			c-0.59,0.94-1.62,2.47-3.08,4.58c-1.47,2.12-3.06,4.32-4.76,6.61c-1.71,2.29-3.32,4.41-4.85,6.35c-1.53,1.94-2.59,3.26-3.17,3.97
			c-0.94,1.06-1.85,1.67-2.73,1.85c-0.88,0.18-1.62,0-2.2-0.53c-0.59-0.53-0.91-1.29-0.97-2.29c-0.06-1,0.38-2.2,1.32-3.61
			c0.7-0.94,1.76-2.44,3.17-4.5c1.41-2.05,2.82-4.17,4.23-6.35c1.41-2.17,2.7-4.11,3.88-5.82c1.17-1.7,1.82-2.73,1.94-3.08
			c0.23-0.94-0.09-2.17-0.97-3.7c-0.88-1.53-1.03-3.29-0.44-5.29c0.47-1.64,1.53-3.55,3.17-5.73c1.64-2.17,3.58-4.14,5.82-5.9
			c2.23-1.76,4.52-3.08,6.88-3.97c2.35-0.88,4.46-0.85,6.35,0.09c1.53,0.94,2.76,1.97,3.7,3.08c0.94,1.12,1.29,2.26,1.06,3.44
			c-0.24,0.59-0.59,1.35-1.06,2.29c-0.47,0.94-1.18,2.09-2.12,3.44c-0.94,1.35-2.29,3.08-4.05,5.2c0.35,2.7,0.85,5.17,1.5,7.4
			c0.64,2.23,1.26,4.17,1.85,5.82c0.7,2,1.47,3.82,2.29,5.46c1.06,2.12,2.17,4.29,3.35,6.52c1.17,2.23,2.23,4.44,3.17,6.61
			c0.94,2.18,1.7,4.2,2.29,6.08c0.59,1.88,0.76,3.47,0.53,4.76c-0.35,2-1.38,4.41-3.08,7.23c-1.7,2.82-3.82,5.55-6.35,8.2
			c-2.53,2.64-5.41,4.91-8.64,6.79c-3.23,1.88-6.61,2.82-10.14,2.82c-2.47,0-4.85-0.77-7.14-2.29c-2.29-1.53-4.23-3.32-5.82-5.38
			c-1.59-2.05-2.76-4.08-3.53-6.08c-0.77-2-0.85-3.53-0.26-4.58c0.71-1.41,1.35-2.53,1.94-3.35c0.59-0.82,1.47-1.76,2.64-2.82
			c0.47-0.35,1.06-0.76,1.76-1.23c0.59-0.35,1.41-0.71,2.47-1.06c1.06-0.35,2.29-0.76,3.7-1.23c1.17,3.64,2.23,6.49,3.17,8.55
			c0.94,2.06,1.7,3.67,2.29,4.85C1059.45,303.12,1060.1,304,1060.69,304.47z"/>
		<path class="st4" d="M1242.25,251.24c-0.59,7.4-1.76,14.84-3.53,22.3c-1.76,7.46-3.97,14.66-6.61,21.59
			c-2.64,6.94-5.73,13.43-9.25,19.48c-3.53,6.05-7.43,11.31-11.72,15.78c-4.29,4.46-8.87,7.99-13.75,10.58
			c-4.88,2.58-9.96,3.88-15.25,3.88c-1.06,0-2.67-0.21-4.85-0.62c-2.18-0.41-4.49-1.35-6.96-2.82c-2.47-1.47-4.97-3.61-7.49-6.43
			c-2.53-2.82-4.73-6.61-6.61-11.37c-1.88-4.76-3.23-10.66-4.05-17.72c-0.82-7.05-0.82-15.57,0-25.56
			c1.41-15.75,4.32-30.06,8.73-42.92c4.41-12.87,9.46-23.89,15.16-33.05c5.7-9.17,11.6-16.24,17.72-21.24
			c6.11-4.99,11.52-7.49,16.22-7.49c1.88,0,3.44,0.38,4.67,1.15c1.23,0.77,2.2,1.74,2.91,2.91c0.82-0.23,1.76-0.41,2.82-0.53
			c1.06-0.12,2.23-0.18,3.53-0.18c3.41,0,6.43,1.76,9.08,5.29c2.64,3.53,4.82,8.46,6.52,14.81c1.7,6.35,2.82,13.96,3.35,22.83
			C1243.4,230.76,1243.19,240.54,1242.25,251.24z M1182.67,334.62c4.58,0,9.28-2.35,14.1-7.05c4.82-4.7,9.28-11.08,13.4-19.13
			c4.11-8.05,7.64-17.42,10.58-28.12c2.94-10.69,4.94-22.03,5.99-34.02c0.23-3.17,0.41-6.81,0.53-10.93c0.12-4.11,0.12-8.28,0-12.52
			c-0.12-4.23-0.38-8.43-0.79-12.6c-0.41-4.17-0.97-7.84-1.67-11.02c-0.71-3.17-1.59-5.76-2.64-7.76c-1.06-2-2.29-3-3.7-3
			c-1.53,0.12-3.06,0.59-4.58,1.41c-1.29,0.71-2.79,1.85-4.49,3.44c-1.7,1.59-3.38,3.79-5.02,6.61c-0.35-0.23-0.62-0.59-0.79-1.06
			c-0.18-0.47-0.38-0.94-0.62-1.41c-0.24-0.47-0.41-1-0.53-1.59c-0.24-0.35-0.35-0.79-0.35-1.32c0-0.53-0.06-1.15-0.18-1.85
			c-2.35,2.59-5.14,6.26-8.37,11.02c-3.23,4.76-6.46,10.66-9.7,17.72c-3.23,7.05-6.17,15.37-8.81,24.94
			c-2.64,9.58-4.49,20.48-5.55,32.7c-0.94,10.81-1.18,19.8-0.71,26.97c0.47,7.17,1.38,12.87,2.73,17.1c1.35,4.23,3.02,7.2,5.02,8.9
			C1178.5,333.76,1180.56,334.62,1182.67,334.62z"/>
		<path class="st4" d="M1255.83,292.13c-1.29-1.29-2.2-2.56-2.73-3.79c-0.53-1.23-0.91-2.44-1.15-3.61c-0.23-1.29-0.23-2.58,0-3.88
			c0.47-1.64,1.17-3.17,2.12-4.58c0.82-1.29,1.94-2.61,3.35-3.97c1.41-1.35,3.29-2.61,5.64-3.79c1.53-3.76,2.91-7.73,4.14-11.9
			c1.23-4.17,2.32-7.96,3.26-11.37c1.06-3.99,2-7.99,2.82-11.99c2.94-9.99,4.46-18.13,4.58-24.41c0.12-6.29,0-10.43-0.35-12.43
			c-0.12-0.82-0.24-1.64-0.35-2.47c-0.24-0.71-0.44-1.5-0.62-2.38c-0.18-0.88-0.38-1.73-0.62-2.56c1.29-0.71,2.44-1.29,3.44-1.76
			c1-0.47,1.85-0.82,2.56-1.06c0.82-0.35,1.59-0.59,2.29-0.71c2.7-0.59,5.26-0.91,7.67-0.97c2.41-0.06,3.73,0.38,3.97,1.32
			c0.12,0.59,0.26,1.65,0.44,3.17c0.18,1.53,0.26,3.41,0.26,5.64c0,2.23-0.18,4.73-0.53,7.49c-0.35,2.76-1,5.67-1.94,8.73
			c-0.82,2.7-1.94,6.46-3.35,11.28c-1.29,4.12-3,9.61-5.11,16.48c-2.12,6.87-4.88,15.66-8.29,26.35c3.53-1.17,7.4-2.29,11.63-3.35
			c4.23-1.06,8.55-1.94,12.96-2.64c4.41-0.71,8.81-1.23,13.22-1.59c4.41-0.35,8.49-0.41,12.25-0.18c0.71,0,1.2,0.33,1.5,0.97
			c0.29,0.65,0.29,1.32,0,2.03c-0.3,0.71-0.94,1.38-1.94,2.03c-1,0.65-2.44,1.03-4.32,1.15c-2.35,0.24-4.94,0.5-7.76,0.79
			c-2.82,0.29-5.73,0.71-8.72,1.23c-3,0.53-5.97,1.18-8.9,1.94c-2.94,0.77-5.7,1.67-8.29,2.73c-2,0.71-4,1.41-5.99,2.12
			c-1.65,0.59-3.38,1.26-5.2,2.03c-1.82,0.77-3.32,1.44-4.49,2.03l-4.05,12.87c6.81,4.82,12.07,9.76,15.78,14.81
			c3.7,5.05,6.37,9.69,8.02,13.93c2,4.94,3.11,9.75,3.35,14.45c0,5.17-0.77,10.37-2.29,15.6c-1.53,5.23-3.56,10.22-6.08,14.98
			c-2.53,4.76-5.46,9.19-8.81,13.31c-3.35,4.11-6.87,7.64-10.58,10.58c-3.7,2.94-7.46,5.17-11.28,6.7
			c-3.82,1.53-7.43,2.12-10.84,1.76c-2.47-0.24-4.52-1.03-6.17-2.38c-1.64-1.35-2.88-3.06-3.7-5.11c-0.82-2.06-1.29-4.35-1.41-6.87
			c-0.12-2.53,0.12-5.02,0.7-7.49c0.47-2.47,1.47-7.05,3-13.75c1.29-5.64,3.29-13.84,5.99-24.59
			C1247.6,324.3,1251.24,310,1255.83,292.13z M1266.23,300.42c-1.65,5.88-3.08,11.28-4.32,16.22c-1.23,4.94-2.26,9.28-3.08,13.04
			c-1.06,4.35-1.88,8.28-2.47,11.81c-1.06,4.46-2.15,8.87-3.26,13.22c-1.12,4.35-2,8.25-2.64,11.72c-0.65,3.46-0.91,6.26-0.79,8.37
			c0.12,2.12,0.88,3.17,2.29,3.17c3.41,0.23,6.96-1.09,10.66-3.97c3.7-2.88,7.08-6.52,10.14-10.93c3.05-4.41,5.58-9.17,7.58-14.28
			c2-5.11,3-9.84,3-14.19c0-4.82-0.77-9.58-2.29-14.28c-1.06-2.47-2.29-4.88-3.7-7.23c-1.29-2-2.85-4.14-4.67-6.43
			C1270.84,304.38,1268.69,302.3,1266.23,300.42z"/>
		<path class="st4" d="M689.54,560.04c-4.58,0.12-8.37-0.71-11.37-2.47c-3-1.76-5.35-4.32-7.05-7.67c-1.7-3.35-2.79-7.4-3.26-12.16
			c-0.47-4.76-0.47-9.96,0-15.6c0.59-4.35,1.65-8.87,3.17-13.57c1.29-3.99,3.26-8.4,5.91-13.22c2.64-4.82,6.2-9.52,10.66-14.1
			c0.94,0.24,1.7,0.5,2.29,0.79c0.59,0.29,1.06,0.62,1.41,0.97c0.35,0.47,0.59,0.88,0.71,1.23c0.23,1.29-0.12,2.76-1.06,4.41
			c-0.94,1.65-1.88,3.41-2.82,5.29c-2.59,5.41-4.52,10.52-5.82,15.34c-1.29,4.82-2.12,9.28-2.47,13.4c-0.23,3.53-0.2,6.73,0.09,9.61
			c0.3,2.88,0.74,5.35,1.32,7.4c0.59,2.06,1.23,3.64,1.94,4.76c0.71,1.12,1.35,1.67,1.94,1.67c0.59,0,1.2-0.41,1.85-1.23
			c0.64-0.82,1.26-1.82,1.85-3c0.71-1.18,1.53-2.97,2.47-5.38c0.94-2.41,1.94-5.2,3-8.37c1.06-3.17,2.09-6.61,3.08-10.31
			c1-3.7,1.91-7.43,2.73-11.19c1.64-7.52,3.41-16.01,5.29-25.47c1.88-9.46,4.64-19.36,8.28-29.7c1.17-4.35,2.64-9.11,4.41-14.28
			c1.41-4.47,3.2-9.67,5.38-15.6c2.17-5.93,4.67-12.37,7.49-19.3c0-0.59,0.5-1.15,1.5-1.67c1-0.53,2.14-1.09,3.44-1.67
			c1.41-0.59,3-1.17,4.76-1.76c2.35-0.82,4.2-1.29,5.55-1.41c1.35-0.11,2.38,0.06,3.08,0.53c0.71,0.47,1.17,1.09,1.41,1.85
			c0.23,0.77,0.35,1.62,0.35,2.56c0.23,3.88,0.38,7.52,0.44,10.93c0.06,3.41,0.15,6.41,0.26,8.99c0.12,3.06,0.18,5.82,0.18,8.29
			c0.12,3.29-0.06,7.67-0.53,13.13c-0.47,5.47-0.97,11.19-1.5,17.19c-0.53,5.99-1,11.84-1.41,17.54c-0.41,5.7-0.5,10.43-0.26,14.19
			c0,2,0.09,3.85,0.26,5.55c0.18,1.71,0.38,3.38,0.62,5.02c1.53-4.23,3.23-8.67,5.11-13.31c1.88-4.64,3.76-9.11,5.64-13.4
			c1.88-4.29,3.64-8.29,5.29-11.99c1.64-3.7,2.94-6.79,3.88-9.25c1.41-3.29,3.29-7.46,5.64-12.52c2.35-5.05,4.73-10.11,7.14-15.16
			c2.41-5.05,4.64-9.69,6.7-13.93c2.05-4.23,3.55-7.17,4.49-8.81c0.71-1.17,1.91-2.23,3.61-3.17c1.7-0.94,3.53-1.76,5.46-2.47
			c1.94-0.71,3.76-1.2,5.47-1.5c1.7-0.29,2.85-0.32,3.44-0.09c1.53,0.35,2.61,0.82,3.26,1.41c0.64,0.59,1.03,1,1.15,1.23
			c0.23,0.47,0.41,1.26,0.53,2.38c0.12,1.12,0.06,2.85-0.18,5.2c-0.24,2.82-0.91,7.11-2.03,12.87c-1.12,5.76-2.47,12.31-4.05,19.65
			c-1.59,7.35-3.29,15.19-5.11,23.53c-1.82,8.34-3.56,16.54-5.2,24.59c-1.65,8.05-3.08,15.6-4.32,22.65
			c-1.23,7.05-2.03,12.99-2.38,17.8c-0.24,5.4,0.12,10.16,1.06,14.28c0.35,1.76,0.88,3.47,1.59,5.11c0.71,1.64,1.64,3.08,2.82,4.32
			c1.17,1.23,2.58,2.14,4.23,2.73c1.64,0.59,3.58,0.76,5.82,0.53c-2.94,2-5.82,3.47-8.64,4.41c-2.82,0.94-5.58,1.41-8.29,1.41
			c-2.94,0.12-5.52-0.33-7.76-1.32c-2.23-1-4.12-2.41-5.64-4.23c-1.53-1.82-2.64-4-3.35-6.52c-0.7-2.53-0.94-5.32-0.7-8.37
			c0.23-2.82,1-7.46,2.29-13.93c1.29-6.46,2.85-13.78,4.67-21.95c1.82-8.17,3.82-16.69,5.99-25.56c2.17-8.87,4.23-17.21,6.17-25.03
			c1.94-7.81,3.61-14.54,5.02-20.18c1.41-5.64,2.29-9.34,2.64-11.11c0.23-1.41,0.44-2.73,0.62-3.97c0.18-1.23,0.38-2.32,0.62-3.26
			c-1.18,2.35-2.62,5.17-4.32,8.46c-1.7,3.29-3.5,6.82-5.38,10.58c-1.88,3.76-3.79,7.67-5.73,11.72c-1.94,4.05-3.79,7.96-5.55,11.72
			c-2.94,6.11-5.82,12.37-8.64,18.77c-2.82,6.41-5.35,12.49-7.58,18.24c-2.23,5.76-4.08,10.93-5.55,15.51
			c-1.47,4.58-2.32,8.11-2.56,10.58v2.47c0,0.71,0.03,1.53,0.09,2.47c0.06,0.94,0.2,1.82,0.44,2.64l-7.05,5.46
			c-1.06,0.35-1.97,0.64-2.73,0.88c-0.76,0.23-1.5,0.35-2.2,0.35c-2.71,0-4.76-1.41-6.17-4.23c-1.41-2.59-2.7-7.64-3.88-15.16
			c-1.18-7.52-1.53-16.75-1.06-27.68c0.23-5.4,0.62-10.87,1.15-16.39c0.53-5.52,1.06-10.81,1.59-15.86
			c0.53-5.05,1.03-9.78,1.5-14.19c0.47-4.41,0.71-8.2,0.71-11.37c0.12-2.35,0.06-4.49-0.18-6.43c-0.24-1.94-0.47-3.73-0.7-5.38
			c-1.06,2.7-2.23,6.38-3.53,11.02c-1.29,4.64-2.64,9.78-4.05,15.42c-1.41,5.64-2.85,11.58-4.32,17.8
			c-1.47,6.23-2.88,12.22-4.23,17.98c-1.35,5.76-2.62,11.08-3.79,15.95c-1.18,4.88-2.12,8.79-2.82,11.72
			c-1.18,4.7-2.35,10.05-3.53,16.04c-1.18,5.99-2.64,11.66-4.41,17.01c-1.76,5.35-4.05,9.87-6.87,13.57
			C697.65,558.01,694,559.92,689.54,560.04z"/>
		<path class="st4" d="M864.23,462.2c1.53-1.17,3.02-2.08,4.49-2.73c1.47-0.65,2.79-1.09,3.97-1.32c1.29-0.35,2.58-0.47,3.88-0.35
			c3.17,0.24,5.14,1.23,5.9,3c0.76,1.76,0.85,4.58,0.26,8.46c-0.35,2-1.06,4.53-2.11,7.58c-1.06,3.06-2.29,6.79-3.7,11.19
			c-1.41,4.41-2.91,9.43-4.49,15.07c-1.59,5.64-3.08,11.99-4.49,19.04c-1.41,5.76-2.94,12.4-4.58,19.92
			c-1.41,6.58-3.08,14.51-5.02,23.8c-1.94,9.28-4.03,19.92-6.26,31.91c-0.59,2.94-1.85,4.64-3.79,5.11
			c-1.94,0.47-3.97,0.23-6.08-0.71c-0.82-0.47-1.59-1-2.29-1.59c-0.59-0.59-1.23-1.26-1.94-2.03c-0.71-0.77-1.29-1.79-1.76-3.08
			c2.7-9.87,5.08-18.86,7.14-26.97c2.06-8.11,3.91-15.16,5.55-21.15c1.76-6.93,3.41-13.16,4.94-18.68c0.59-2.47,1.15-4.91,1.67-7.32
			c0.53-2.41,1.09-4.79,1.67-7.14c-1.53,2.47-3.17,4.82-4.94,7.05c-1.76,2.23-3.7,4.17-5.82,5.82s-4.38,2.91-6.79,3.79
			c-2.41,0.88-4.91,1.15-7.49,0.79c-6.35-0.82-10.84-3.17-13.48-7.05c-2.64-3.88-3.79-8.93-3.44-15.16
			c0.12-2.47,0.47-5.17,1.06-8.11c0.59-2.94,1.23-5.76,1.94-8.46c0.7-2.7,1.38-5.14,2.03-7.32c0.65-2.17,1.15-3.73,1.5-4.67
			c1.41-4.47,2.44-8.29,3.08-11.46c0.64-3.17,0.15-5.82-1.5-7.93c1.64-1.06,3.2-1.79,4.67-2.2c1.47-0.41,2.79-0.73,3.97-0.97
			c1.29-0.12,2.58-0.12,3.88,0c3.17,0.47,5.02,1.65,5.55,3.53c0.53,1.88,0.32,4.7-0.62,8.46c-0.47,2-1.23,4.56-2.29,7.67
			c-1.06,3.12-2.18,6.32-3.35,9.61c-1.18,3.29-2.23,6.32-3.17,9.08c-0.94,2.76-1.47,4.73-1.59,5.9c-1.06,5.29-1.12,9.37-0.18,12.25
			c0.94,2.88,3,4.32,6.17,4.32c1.53,0,3.23-0.67,5.11-2.03c1.88-1.35,3.79-3.14,5.73-5.38c1.94-2.23,3.85-4.79,5.73-7.67
			c1.88-2.88,3.61-5.79,5.2-8.73c1.59-2.94,3-5.82,4.23-8.64c1.23-2.82,2.14-5.35,2.73-7.58c0.82-4.35,1.35-7.76,1.59-10.22
			C866.93,466.43,866.11,464.2,864.23,462.2z"/>
		<path class="st4" d="M970.87,467.14c-5.99,0-10.84-0.65-14.54-1.94c-3.7-1.29-6.2-2.94-7.49-4.94c-0.59-0.82-1.12-2.05-1.59-3.7
			c-0.47-1.64-0.29-3.47,0.53-5.46c1.65,1.29,3.44,2.26,5.38,2.91c1.94,0.65,3.73,1.09,5.38,1.32c2,0.35,3.94,0.53,5.82,0.53
			c3.52,0,6.96-0.29,10.31-0.88c3.35-0.59,6.67-1.41,9.96-2.47c1.41-7.05,2.79-13.4,4.14-19.04c1.35-5.64,2.91-10.22,4.67-13.75
			c1.88-3.88,3.85-7.37,5.9-10.49c2.06-3.11,4.35-5.76,6.87-7.93c2.53-2.17,5.32-3.85,8.37-5.02c3.05-1.17,6.58-1.76,10.58-1.76
			c2.94,0,5.26,0.59,6.96,1.76c1.7,1.18,3,2.64,3.88,4.41c0.88,1.76,1.41,3.67,1.59,5.73c0.18,2.06,0.26,3.97,0.26,5.73
			c0,3.88-0.94,8.11-2.82,12.69c-1.88,4.58-4.53,9.11-7.93,13.57c-3.41,4.47-7.49,8.7-12.25,12.69c-4.76,4-10.08,7.29-15.95,9.87
			c-2,7.76-3.97,15.42-5.91,23c-1.94,7.58-3.85,13.84-5.73,18.77c-1.65,4.58-3.73,9.7-6.26,15.34c-2.53,5.64-5.61,11.05-9.25,16.22
			c2.23,1.41,4.49,2.88,6.79,4.41c2.29,1.53,4.61,2.91,6.96,4.14c2.35,1.23,4.73,2.26,7.14,3.08c2.41,0.82,4.96,1.23,7.67,1.23
			c2.82-0.12,5.58-0.53,8.29-1.23c2.35-0.59,4.82-1.56,7.4-2.91c2.58-1.35,4.99-3.26,7.23-5.73c0.82,1.41,1.09,3.53,0.79,6.35
			c-0.29,2.82-1.21,5.64-2.73,8.46c-1.53,2.82-3.7,5.29-6.52,7.4c-2.82,2.11-6.35,3.17-10.58,3.17c-4.47,0-8.64-0.62-12.52-1.85
			c-3.88-1.23-7.52-2.73-10.93-4.49c-3.41-1.76-6.61-3.67-9.61-5.73c-3-2.06-5.79-3.97-8.37-5.73c-3.53,3.41-7.4,6.17-11.63,8.28
			c-4.23,2.12-8.93,3.17-14.1,3.17c-4.11,0-7.4-1.15-9.87-3.44c-2.47-2.29-3.58-5.38-3.35-9.25c0.12-1.41,0.53-3.08,1.23-5.02
			c0.71-1.94,2.03-3.79,3.97-5.55c1.94-1.76,4.61-3.26,8.02-4.49c3.41-1.23,7.81-1.85,13.22-1.85c2,0,3.91,0.21,5.73,0.62
			c1.82,0.41,3.61,0.91,5.38,1.5c1.29-2.35,2.58-5.05,3.88-8.11c1.29-3.06,2.7-6.52,4.23-10.4c2.7-7.4,5.05-14.83,7.05-22.3
			c2-7.46,3.7-14.72,5.11-21.77c-1.65,0.35-3.38,0.59-5.2,0.7C974.6,467.08,972.75,467.14,970.87,467.14z M941.61,546.82
			c1.53-0.59,3.29-1.18,5.29-1.76c2-0.59,4.29-2.23,6.88-4.94c-1.76-0.59-3.12-0.88-4.05-0.88c-4.23,0-7.32,0.62-9.25,1.85
			c-1.94,1.23-2.91,2.44-2.91,3.61c0,0.82,0.35,1.44,1.06,1.85C939.32,546.96,940.32,547.05,941.61,546.82z M1008.25,424.13
			c-0.59,1.76-1.35,4.35-2.29,7.76c-0.94,3.41-1.94,7.35-3,11.81c6.35-4.11,11.43-8.81,15.25-14.1c3.82-5.29,5.73-10.58,5.73-15.87
			c0-3.17-0.94-4.76-2.82-4.76c-1.65,0-3.76,1.26-6.35,3.79C1012.18,415.29,1010.01,419.08,1008.25,424.13z"/>
		<path class="st4" d="M1045.09,460.79c0.59-0.7,1.7-1.29,3.35-1.76c1.64-0.47,3.35-0.85,5.11-1.15c1.76-0.29,3.38-0.47,4.85-0.53
			c1.47-0.06,2.32-0.03,2.56,0.09c0.12,0.12-0.18,1.35-0.88,3.7c-0.71,2.35-1.59,5.11-2.64,8.29s-2.18,6.43-3.35,9.78
			c-1.18,3.35-2.06,6.08-2.64,8.2c-0.59,2.12-1.29,4.49-2.12,7.14c-0.82,2.64-1.56,5.23-2.2,7.76c-0.65,2.53-1.09,4.91-1.32,7.14
			c-0.24,2.23-0.06,3.94,0.53,5.11c0.59,1.41,1.23,2.38,1.94,2.91c0.71,0.53,1.47,0.79,2.29,0.79c2.35,0,5.31-1.29,8.9-3.88
			c3.58-2.58,7.23-5.67,10.93-9.25c3.7-3.58,7.14-7.23,10.31-10.93c3.17-3.7,5.52-6.67,7.05-8.9c0.94-1.17,1.91-1.94,2.91-2.29
			c1-0.35,1.82-0.29,2.47,0.18c0.64,0.47,1,1.23,1.06,2.29c0.06,1.06-0.32,2.29-1.15,3.7c-1.88,3.29-4.64,7.2-8.29,11.72
			c-3.64,4.53-7.52,8.87-11.63,13.05c-4.11,4.17-8.14,7.73-12.07,10.66c-3.94,2.94-7.14,4.47-9.61,4.58c-2,0.12-3.97-0.21-5.91-0.97
			c-1.94-0.77-3.7-1.82-5.29-3.17c-1.59-1.35-2.91-2.94-3.97-4.76c-1.06-1.82-1.65-3.73-1.76-5.73c-0.35-2.94-0.35-6.96,0-12.07
			c0.35-5.11,1-10.34,1.94-15.69c0.94-5.35,2.14-10.43,3.61-15.25C1041.53,466.73,1043.21,463.15,1045.09,460.79z M1069.41,423.25
			c-0.35,1.29-1.03,2.56-2.03,3.79c-1,1.23-2.11,2.23-3.35,3c-1.23,0.76-2.5,1.26-3.79,1.5c-1.29,0.24-2.35,0-3.17-0.71
			c-2.47-1.88-3.76-3.9-3.88-6.08c-0.12-2.17,0.41-4.23,1.59-6.17c1.17-1.94,2.64-3.58,4.41-4.94c1.76-1.35,3.29-2.14,4.58-2.38
			c1.29-0.23,2.38,0.03,3.26,0.79c0.88,0.77,1.56,1.76,2.03,3c0.47,1.23,0.73,2.62,0.79,4.14
			C1069.91,420.72,1069.77,422.07,1069.41,423.25z"/>
		<path class="st4" d="M1083.69,508.74c-1.29-1.29-2.2-2.56-2.73-3.79c-0.53-1.23-0.91-2.44-1.15-3.61c-0.23-1.29-0.23-2.58,0-3.88
			c0.47-1.65,1.17-3.17,2.12-4.58c0.82-1.29,1.94-2.61,3.35-3.97c1.41-1.35,3.29-2.61,5.64-3.79c1.53-3.76,2.91-7.73,4.14-11.9
			c1.23-4.17,2.32-7.96,3.26-11.37c1.06-3.99,2-7.99,2.82-11.99c2.94-9.99,4.46-18.13,4.58-24.41c0.12-6.29,0-10.43-0.35-12.43
			c-0.12-0.82-0.24-1.64-0.35-2.47c-0.24-0.71-0.44-1.5-0.62-2.38c-0.18-0.88-0.38-1.73-0.62-2.56c1.29-0.71,2.44-1.29,3.44-1.76
			c1-0.47,1.85-0.82,2.56-1.06c0.82-0.35,1.59-0.59,2.29-0.71c2.7-0.59,5.26-0.91,7.67-0.97c2.41-0.06,3.73,0.38,3.97,1.32
			c0.12,0.59,0.26,1.65,0.44,3.17c0.18,1.53,0.26,3.41,0.26,5.64c0,2.23-0.18,4.73-0.53,7.49c-0.35,2.76-1,5.67-1.94,8.73
			c-0.82,2.7-1.94,6.46-3.35,11.28c-1.29,4.11-3,9.61-5.11,16.48c-2.12,6.87-4.88,15.66-8.29,26.35c3.53-1.17,7.4-2.29,11.63-3.35
			c4.23-1.06,8.55-1.94,12.96-2.64c4.41-0.71,8.81-1.23,13.22-1.59c4.41-0.35,8.49-0.41,12.25-0.18c0.71,0,1.2,0.33,1.5,0.97
			c0.29,0.65,0.29,1.32,0,2.03c-0.3,0.71-0.94,1.38-1.94,2.03c-1,0.65-2.44,1.03-4.32,1.15c-2.35,0.24-4.94,0.5-7.76,0.79
			c-2.82,0.3-5.73,0.71-8.73,1.23c-3,0.53-5.97,1.18-8.9,1.94c-2.94,0.77-5.7,1.67-8.29,2.73c-2,0.7-4,1.41-5.99,2.11
			c-1.65,0.59-3.38,1.26-5.2,2.03c-1.82,0.77-3.32,1.44-4.49,2.03l-4.05,12.87c6.81,4.82,12.07,9.76,15.78,14.81
			c3.7,5.05,6.37,9.7,8.02,13.93c2,4.94,3.11,9.75,3.35,14.45c0,5.17-0.77,10.37-2.29,15.6c-1.53,5.23-3.56,10.22-6.08,14.98
			c-2.53,4.76-5.46,9.19-8.81,13.31c-3.35,4.11-6.87,7.64-10.58,10.58c-3.7,2.94-7.46,5.17-11.28,6.7
			c-3.82,1.53-7.43,2.12-10.84,1.76c-2.47-0.24-4.52-1.03-6.17-2.38c-1.64-1.35-2.88-3.06-3.7-5.11c-0.82-2.06-1.29-4.35-1.41-6.87
			c-0.12-2.53,0.12-5.02,0.7-7.49c0.47-2.47,1.47-7.05,3-13.75c1.29-5.64,3.29-13.84,5.99-24.59
			C1075.47,540.91,1079.11,526.61,1083.69,508.74z M1094.09,517.03c-1.65,5.88-3.08,11.28-4.32,16.22
			c-1.23,4.94-2.27,9.28-3.08,13.04c-1.06,4.35-1.88,8.29-2.47,11.81c-1.06,4.46-2.15,8.87-3.26,13.22c-1.12,4.35-2,8.25-2.64,11.72
			c-0.65,3.47-0.91,6.26-0.79,8.37c0.12,2.12,0.88,3.17,2.29,3.17c3.41,0.23,6.96-1.09,10.66-3.97c3.7-2.88,7.08-6.52,10.14-10.93
			c3.05-4.41,5.58-9.17,7.58-14.28c2-5.11,3-9.84,3-14.19c0-4.82-0.77-9.58-2.29-14.28c-1.06-2.47-2.29-4.88-3.7-7.23
			c-1.29-2-2.85-4.14-4.67-6.43C1098.7,520.99,1096.56,518.91,1094.09,517.03z"/>
		<path class="st4" d="M1218.72,490.41c-3.53,5.17-7.52,10.2-11.99,15.07c-4.47,4.88-9.2,9.23-14.19,13.04
			c-5,3.82-10.11,6.91-15.34,9.25c-5.23,2.35-10.31,3.52-15.25,3.52c-2.59,0-5.38-0.62-8.37-1.85c-3-1.23-5.73-3.14-8.2-5.73
			c-2.47-2.58-4.44-5.93-5.91-10.05c-1.47-4.11-1.91-9.11-1.32-14.98c0.47-4.82,1.97-9.9,4.49-15.25
			c2.53-5.35,5.64-10.25,9.34-14.72c3.7-4.46,7.87-8.17,12.52-11.11c4.64-2.94,9.31-4.41,14.01-4.41c4.46,0,7.7,1.12,9.7,3.35
			c2,2.23,2.88,5,2.64,8.29c-0.35,3.64-1.38,6.99-3.08,10.05c-1.71,3.06-3.73,5.82-6.08,8.29c-2.35,2.47-4.85,4.7-7.49,6.7
			c-2.64,2-5.14,3.82-7.49,5.46c-2.59,1.76-5.05,3.44-7.4,5.02c-2.35,1.59-4.41,3.03-6.17,4.32c0.12,2.94,0.64,5.41,1.59,7.4
			c0.94,2,2.11,3.61,3.52,4.85c1.41,1.23,3.02,2.12,4.85,2.64c1.82,0.53,3.67,0.79,5.55,0.79c3.99,0,8.17-1.26,12.52-3.79
			c4.35-2.53,8.61-5.58,12.78-9.17c4.17-3.58,8.05-7.32,11.63-11.19c3.58-3.88,6.55-7.23,8.9-10.05c0.82-0.94,1.67-1.5,2.56-1.67
			c0.88-0.18,1.59-0.06,2.12,0.35c0.53,0.41,0.79,1.12,0.79,2.12C1219.95,487.97,1219.54,489.12,1218.72,490.41z M1173.59,463.26
			c-1.41,0-3.08,0.71-5.02,2.12c-1.94,1.41-3.85,3.44-5.73,6.08c-1.88,2.64-3.64,5.88-5.29,9.7c-1.65,3.82-2.88,8.2-3.7,13.13
			c1.41-1.06,2.94-2.14,4.58-3.26c1.64-1.12,3.29-2.32,4.94-3.61c5.05-3.88,8.58-7.29,10.58-10.22c2-2.94,3.11-5.46,3.35-7.58
			c0.23-2.23,0-3.85-0.7-4.85C1175.88,463.76,1174.88,463.26,1173.59,463.26z"/>
	</g>
</g>
</svg>
