<?xml version="1.0" encoding="utf-8"?>
<svg version="1.1" id="Capa_1" xmlns="http://www.w3.org/2000/svg" xmlns:xlink="http://www.w3.org/1999/xlink" x="0px" y="0px"
	 viewBox="0 0 1366 768" style="enable-background:new 0 0 1366 768;" xml:space="preserve">
<style type="text/css">
	.st0{fill:url(#SVGID_1_);}
	.st1{fill:url(#SVGID_00000101095372755228915430000006479691393818124734_);}
	.st2{fill:url(#SVGID_00000054258688075836251990000015820326227565551015_);}
	.st3{fill:#F0F0F0;}
</style>
<g id="Shopicon">
	
		<radialGradient id="SVGID_1_" cx="102.2924" cy="231.858" r="331.7205" gradientTransform="matrix(0.6534 -0.757 -0.7596 -0.6557 424.5325 613.4601)" gradientUnits="userSpaceOnUse">
		<stop  offset="0" style="stop-color:#F9ED32"/>
		<stop  offset="0.5" style="stop-color:#EE2A7B"/>
		<stop  offset="1" style="stop-color:#002AFF"/>
	</radialGradient>
	<path class="st0" d="M147.1,414.9l168.1,185.3l168.2-185.3c29.2-25.1,48-64.9,48-109.8c0-75.8-53.8-137.3-120.1-137.3
		c-39.3,0-74.2,21.7-96.1,55.1c-21.9-33.4-56.8-55.1-96.1-55.1c-66.3,0-120.1,61.5-120.1,137.3C99.1,350,117.9,389.8,147.1,414.9z
		 M219.2,217.2c24.4,0,46.8,12.9,61.5,35.2l34.6,52.8l34.6-52.8c14.7-22.4,37.1-35.2,61.5-35.2c42.4,0,76.9,39.4,76.9,87.9
		c0,27.9-11.2,53.5-30.8,70.3l-2.1,1.8l-1.9,2.1L315.3,531.5L177.1,379.3l-1.9-2.1l-2.1-1.8c-19.6-16.9-30.8-42.5-30.8-70.3
		C142.3,256.6,176.8,217.2,219.2,217.2z"/>
</g>
<radialGradient id="SVGID_00000091716579144984650350000012620420523907488136_" cx="102.286" cy="146.8817" r="137.7472" gradientTransform="matrix(0.6534 -0.757 -0.6147 -0.5306 338.7245 551.4759)" gradientUnits="userSpaceOnUse">
	<stop  offset="0" style="stop-color:#F9ED32"/>
	<stop  offset="0.5" style="stop-color:#EE2A7B"/>
	<stop  offset="1" style="stop-color:#002AFF"/>
</radialGradient>
<circle style="fill:url(#SVGID_00000091716579144984650350000012620420523907488136_);" cx="315.3" cy="396.1" r="56.7"/>
<radialGradient id="SVGID_00000042717053428240150040000005379933731553308317_" cx="68.5443" cy="319.6757" r="200.0078" gradientTransform="matrix(0.6534 -0.757 -0.8475 -0.7316 507.6509 614.0267)" gradientUnits="userSpaceOnUse">
	<stop  offset="0" style="stop-color:#F9ED32"/>
	<stop  offset="0.5" style="stop-color:#EE2A7B"/>
	<stop  offset="1" style="stop-color:#002AFF"/>
</radialGradient>
<path style="fill:url(#SVGID_00000042717053428240150040000005379933731553308317_);" d="M247.9,292h-61.7
	c-6.5,0-11.8-5.3-11.8-11.8v-9.6c0-6.5,5.3-11.8,11.8-11.8h61.7c6.5,0,11.8,5.3,11.8,11.8v9.6C259.6,286.8,254.4,292,247.9,292z"/>
<g>
	<path class="st3" d="M698.7,378.3c1.2-1.4,3.5-2.5,6.9-3.4c3.4-0.9,6.9-1.6,10.6-2.2c3.7-0.6,7-0.9,10-1c3-0.1,4.8,0,5.3,0.2
		c0.2,0.2-0.4,2.6-1.8,7.1c-1.5,4.5-3.3,9.8-5.5,15.8c-2.2,6.1-4.5,12.3-6.9,18.7c-2.4,6.4-4.3,11.6-5.5,15.6
		c-1.2,4-2.7,8.6-4.4,13.6c-1.7,5-3.2,10-4.6,14.8c-1.3,4.8-2.2,9.4-2.7,13.6s-0.1,7.5,1.1,9.8c1.2,2.7,2.5,4.5,4,5.5
		c1.5,1,3,1.5,4.7,1.5c4.9,0,11-2.5,18.4-7.4c7.4-4.9,15-10.8,22.6-17.7c7.7-6.8,14.8-13.8,21.3-20.9c6.6-7.1,11.4-12.7,14.6-17
		c1.9-2.2,4-3.7,6-4.4c2.1-0.7,3.8-0.6,5.1,0.3c1.3,0.9,2.1,2.4,2.2,4.4c0.1,2-0.7,4.4-2.4,7.1c-3.9,6.3-9.6,13.7-17.1,22.4
		c-7.5,8.6-15.6,16.9-24.1,24.9c-8.5,8-16.8,14.8-25,20.4c-8.2,5.6-14.8,8.5-19.9,8.8c-4.1,0.2-8.2-0.4-12.2-1.9
		c-4-1.5-7.7-3.5-10.9-6.1s-6-5.6-8.2-9.1c-2.2-3.5-3.4-7.1-3.7-10.9c-0.7-5.6-0.7-13.3,0-23s2.1-19.7,4-30
		c1.9-10.2,4.4-19.9,7.5-29.1C691.3,389.6,694.8,382.8,698.7,378.3z M749,306.6c-0.7,2.5-2.1,4.9-4.2,7.2c-2.1,2.4-4.4,4.3-6.9,5.7
		s-5.2,2.4-7.8,2.9c-2.7,0.5-4.9,0-6.6-1.4c-5.1-3.6-7.8-7.5-8-11.6c-0.2-4.1,0.8-8.1,3.3-11.8c2.4-3.7,5.5-6.8,9.1-9.4
		c3.7-2.6,6.8-4.1,9.5-4.5c2.7-0.5,4.9,0.1,6.8,1.5c1.8,1.5,3.2,3.4,4.2,5.7c1,2.4,1.5,5,1.6,7.9C750.1,301.8,749.8,304.4,749,306.6
		z"/>
	<path class="st3" d="M879.2,451.3c-2.4,8.5-5.7,16.5-9.8,23.9c-4.1,7.4-9.1,13.8-14.8,19.2c-5.7,5.4-12.2,9.6-19.3,12.6
		c-7.2,3-15,4.5-23.5,4.5c-10,0-17.8-2-23.5-5.9c-5.7-3.9-10-8.8-12.8-14.6c-2.8-5.8-4.5-12.2-5.1-19.2c-0.6-7-0.9-13.5-0.9-19.5
		c0-4.3,0.5-9,1.6-14.1s2.6-10.4,4.6-15.8c1.9-5.4,4.4-10.8,7.5-16.1c3-5.4,6.6-10.3,10.8-14.8c1.5-3.8,3.7-7.2,6.8-10.1
		c3-2.9,6.6-5.3,10.6-7.2c4-1.9,8.3-3.4,13-4.4c4.6-1,9.1-1.5,13.5-1.5c0.7,0,1.4,0.1,2,0.3c0.6,0.2,1.3,0.5,2,0.7
		c3.2,0.2,7.1,1.4,11.8,3.4s9.4,5,13.9,9.1s8.3,9.1,11.5,15.3c3.2,6.2,4.7,13.6,4.7,22.4c0,1.8-0.1,4-0.4,6.6
		c-0.2,2.6-0.5,4.8-0.7,6.6c5.6-2,11.4-4.5,17.5-7.4s12-6,17.7-9.2c5.7-3.2,11-6.6,15.9-9.9c4.9-3.4,8.8-6.4,11.7-9.1
		c2.4-2,4.5-3.1,6.2-3.4c1.7-0.2,2.9,0.2,3.7,1.4c0.7,1.1,0.8,2.7,0.4,4.7s-1.8,4.3-4,6.7c-1.2,1.4-4.3,4-9.3,8.1
		c-5,4-10.9,8.4-17.7,13.1s-14.2,9.3-22.2,13.8C894.2,445.7,886.5,449.1,879.2,451.3z M794.3,459.4c0,4,0.2,8,0.7,12
		c0.5,3.9,1.5,7.4,2.9,10.4c1.5,3,3.4,5.5,5.8,7.4c2.4,1.9,5.6,2.9,9.5,2.9c4.4,0,8.4-1,12-2.9c3.7-1.9,6.9-4.4,9.8-7.4
		s5.5-6.5,7.8-10.4c2.3-3.9,4.3-8,6-12.3c-1.7,0.2-3.3,0.4-4.9,0.5c-1.6,0.1-3.3,0.2-5.3,0.2c-9.2,0-17.2-2.5-23.9-7.6
		c-6.7-5-11.8-11.5-15.5-19.4c-1.5,4.7-2.7,9.3-3.7,13.8C794.8,451.1,794.3,455.3,794.3,459.4z M817.6,400.2c-0.7,2-1.1,4.1-1.1,6.4
		c0,3.6,0.2,7.4,0.7,11.3c0.5,3.9,1.7,7.5,3.7,10.6c1.9,3.1,5,5.8,9.3,7.9c4.2,2.1,10.2,3.2,17.7,3.2c1.2,0,2.4,0,3.7-0.2
		c1.2-0.1,2.4-0.3,3.7-0.5c0.7-2.9,1.4-5.5,2-7.9c0.6-2.4,0.9-4.4,0.9-6.2c0.5-4.3,0.5-8.6,0-13.1c-0.5-4.5-1.4-8.6-2.7-12.3
		c-1.3-3.7-3-6.7-5.1-9.1s-4.6-3.5-7.5-3.5c-4.6,0-9.1,1.2-13.3,3.5C825.2,392.6,821.2,395.9,817.6,400.2z"/>
	<path class="st3" d="M1088.2,489.3c0-4.7,0.6-10.1,1.6-16.1c1.1-6.1,2.5-12.3,4.2-18.7c1.7-6.4,3.4-12.6,5.1-18.7
		c1.7-6.1,3.2-11.4,4.4-16.1c1.5-5.8,1.3-10.3-0.4-13.5c-1.7-3.1-4.6-4.7-8.8-4.7c-1.9,0-5.8,1.6-11.5,4.7
		c-5.7,3.1-11.9,8.6-18.6,16.3c-6.7,7.7-13.3,18.2-19.7,31.3c-6.4,13.1-11.5,29.8-15.1,50c-4.6,2.2-9,3.7-13.1,4.4
		c-2.2,0.5-4.1,0.8-5.8,1c-4.9,0.2-8-0.5-9.5-2.2c-1.5-1.7-1.2-5.8,0.7-12.3c1-3.1,2.7-8.2,5.3-15.1c2.5-7,5-14.5,7.5-22.7
		c2.4-8.2,4.6-16.4,6.4-24.6c1.8-8.2,2.7-15.3,2.7-21.4c0-4.3-0.8-7.2-2.4-8.8c-1.6-1.6-3.8-2.4-6.8-2.4c-2.2,0-5.8,1.1-10.9,3.4
		c-5.1,2.2-10.8,6.6-17.1,13.1c-6.3,6.5-12.6,15.5-18.8,27.1c-6.2,11.6-11.5,26.5-15.9,44.9v-0.7c-0.5,1.8-1,3.6-1.5,5.4
		c-0.5,1.6-0.8,3.3-1.1,5c-0.2,1.8-0.6,3.5-1.1,5l-18.2,7.4c-1.2,0.5-2.7,0.8-4.6,1c-1.8,0.2-3.5-0.1-5.1-0.8
		c-1.6-0.8-2.7-2.4-3.5-4.9s-0.5-6.2,0.7-11.1l23-87.8c0.7-2.9,1.3-5.7,1.8-8.4c0.5-2.5,0.8-4.9,0.9-7.2c0.1-2.4-0.1-4.3-0.5-5.9
		c4.1-1.8,7.8-3.1,10.9-4c3.2-0.9,5.7-1.6,7.7-2c2.4-0.7,4.5-1,6.2-1c7.8,0,10.3,6.2,7.7,18.5c-1,3.6-2.4,8.9-4.4,15.8
		c4.6-5.4,9.5-10.5,14.8-15.3c5.2-4.8,10.5-9.1,15.9-13c5.3-3.8,10.8-6.8,16.2-9.1c5.5-2.2,10.9-3.4,16.2-3.4
		c4.1,0,7.6,1.1,10.4,3.4c2.8,2.2,5,5.2,6.6,8.9c1.6,3.7,2.5,8.1,2.7,13.1c0.2,5,0,10.3-0.7,15.6c3.9-4.7,8.2-9.5,12.9-14.3
		c4.7-4.8,9.7-9.1,14.9-13c5.2-3.8,10.6-7,16.2-9.4c5.6-2.5,11.2-3.7,16.8-3.7c6.6,0,11.6,1.8,15.1,5.4c3.5,3.6,6,8.2,7.3,13.8
		c1.3,5.6,1.7,11.7,1.1,18.2c-0.6,6.5-1.6,12.8-3.1,18.8l-12.4,45.4c-2.7,11.2-0.1,16.8,7.7,16.8c6.1,0,12.8-2.7,20.1-8.1
		c7.3-5.4,14.4-11.8,21.3-19.2c6.9-7.4,13.4-15,19.5-22.9s11.2-14.1,15.3-18.8c1.5-1.6,3-2.5,4.6-2.7c1.6-0.2,2.9,0.1,4,0.8
		c1.1,0.8,1.7,2.1,1.8,3.9c0.1,1.8-0.6,4-2,6.7c-4.9,7.9-10.8,16.5-17.9,26.1c-7.1,9.5-14.8,18.5-23.2,26.8
		c-8.4,8.3-17.3,15.3-26.8,20.9c-9.5,5.6-19.3,8.4-29.5,8.4c-3.4,0-6.8-0.3-10-1c-3.3-0.7-6.3-1.9-9.1-3.7c-2.8-1.8-5.1-4.2-6.8-7.2
		C1089.1,497.9,1088.2,494,1088.2,489.3z"/>
	<path class="st3" d="M1180.9,499.4c10.7-41.5,19.3-74.8,25.7-100c6.4-25.1,11.4-44.3,14.8-57.5c3.9-15.7,6.6-26.6,8-32.6
		c0.7-4.3,1.3-8.4,1.8-12.5c0.5-3.6,0.7-7.3,0.7-11.1c0-3.8-0.4-7.3-1.1-10.4c1.9-1.1,4.1-2,6.4-2.7s4.6-1.2,6.8-1.7
		c2.7-0.7,5.3-1.2,8-1.7c2.7-0.5,5.1-0.7,7.3-0.7c1.9,0,3.8,0.2,5.5,0.5s2.8,1.1,3.3,2.2c1.5,1.1,2.1,3.4,2,6.7
		c-0.1,3.4-0.4,6.9-0.9,10.4c-1,4.3-2.1,8.9-3.3,13.8c-2.9,9.6-6.9,23.6-12,41.7c-4.4,15.5-10.3,36.6-17.7,63.3
		c-7.4,26.7-16.7,60.4-27.9,101c-1.2,1.1-2.7,1.9-4.4,2.4c-1.7,0.5-3.3,0.7-4.7,0.7c-1.7,0-3.5-0.1-5.5-0.3c-1.7-0.5-3.4-1.1-5.1-2
		c-1.5-0.9-2.9-2.1-4.4-3.5C1182.7,503.9,1181.6,501.9,1180.9,499.4z"/>
</g>
</svg>
