<?xml version="1.0" encoding="utf-8"?>
<svg version="1.1" id="Capa_1" xmlns="http://www.w3.org/2000/svg" xmlns:xlink="http://www.w3.org/1999/xlink" x="0px" y="0px"
	 viewBox="0 0 1366 768" style="enable-background:new 0 0 1366 768;" xml:space="preserve">
<style type="text/css">
	.st0{fill:url(#SVGID_1_);}
	.st1{fill:url(#SVGID_00000110468905042389022660000016671820233464366750_);}
	.st2{fill:url(#SVGID_00000182522298217374736990000004780092611906474154_);}
	.st3{fill:#F0F0F0;}
</style>
<g id="Shopicon">
	
		<radialGradient id="SVGID_1_" cx="55.2953" cy="231.858" r="355.0291" gradientTransform="matrix(0.6534 -0.757 -0.7596 -0.6557 408.2443 577.8836)" gradientUnits="userSpaceOnUse">
		<stop  offset="0" style="stop-color:#F9ED32"/>
		<stop  offset="0.5" style="stop-color:#EE2A7B"/>
		<stop  offset="1" style="stop-color:#002AFF"/>
	</radialGradient>
	<path class="st0" d="M88.3,417.1l180,198.3l180-198.3c31.2-26.9,51.4-69.5,51.4-117.5c0-81.1-57.6-146.9-128.5-146.9
		c-42,0-79.5,23.2-102.8,58.9c-23.4-35.7-60.8-58.9-102.8-58.9c-71,0-128.6,65.8-128.6,146.9C36.9,347.6,57.1,390.2,88.3,417.1z
		 M165.4,205.5c26.1,0,50.1,13.8,65.8,37.7l37.1,56.5l37-56.5c15.7-24,39.7-37.7,65.8-37.7c45.4,0,82.3,42.2,82.3,94
		c0,29.8-12,57.2-33,75.3l-2.3,1.9l-2,2.2L268.3,541.9L120.4,379l-2-2.2l-2.3-1.9c-21-18-33-45.5-33-75.3
		C83.2,247.7,120.1,205.5,165.4,205.5z"/>
</g>
<radialGradient id="SVGID_00000129908930713916179580000011369220966034470563_" cx="55.2936" cy="146.0261" r="147.428" gradientTransform="matrix(0.6534 -0.757 -0.6147 -0.5306 321.9134 516.2987)" gradientUnits="userSpaceOnUse">
	<stop  offset="0" style="stop-color:#F9ED32"/>
	<stop  offset="0.5" style="stop-color:#EE2A7B"/>
	<stop  offset="1" style="stop-color:#002AFF"/>
</radialGradient>
<circle style="fill:url(#SVGID_00000129908930713916179580000011369220966034470563_);" cx="268.3" cy="397" r="60.7"/>
<radialGradient id="SVGID_00000050634613891482232910000005700375900408752281_" cx="19.1755" cy="323.5931" r="214.0616" gradientTransform="matrix(0.6534 -0.757 -0.8475 -0.7316 493.8608 575.6032)" gradientUnits="userSpaceOnUse">
	<stop  offset="0" style="stop-color:#F9ED32"/>
	<stop  offset="0.5" style="stop-color:#EE2A7B"/>
	<stop  offset="1" style="stop-color:#002AFF"/>
</radialGradient>
<path style="fill:url(#SVGID_00000050634613891482232910000005700375900408752281_);" d="M192.4,285.6h-58.6
	c-9,0-16.4-7.3-16.4-16.4v-2.8c0-9,7.3-16.4,16.4-16.4h58.6c9,0,16.4,7.3,16.4,16.4v2.8C208.7,278.2,201.4,285.6,192.4,285.6z"/>
<g>
	<g>
		<path class="st3" d="M626.3,265.9c-2.2-2.4-4-5.3-5.4-8.7c-1.3-3.5-2.4-6.9-3.1-10.3c-0.8-3.9-1.4-8-1.8-12.3
			c-0.6-8.5,0.3-16.2,2.8-23.1c2.5-6.9,5.8-12.9,10-17.8c4.2-4.9,9-8.8,14.2-11.5c5.2-2.7,10.3-4.1,15.2-4.1c2.2,0,4,0.5,5.4,1.6
			c1.3,1.1,2.4,2.4,3.1,3.9c0.7,1.5,1.2,3.1,1.3,4.8c0.2,1.6,0.3,3,0.3,4.1c0,3.8-0.1,7.5-0.3,11.1c-0.2,3.6-0.5,7.5-0.9,11.6
			c-0.4,4.1-1,8.5-1.8,13.2c-0.8,4.7-1.9,9.9-3.2,15.7c-0.7,3.2-1.7,7.2-3,12.2c-1.3,4.9-2.8,10.4-4.6,16.4
			c5.3,0.1,9.5,0.3,12.8,0.6c3.2,0.3,5.3,0.5,6.3,0.6c0.8,0.1,1.4,0.5,1.8,1.2c0.4,0.7,0.2,1.8-0.8,3.4c-0.9,1.4-2.3,2.2-4,2.5
			c-1.7,0.2-3.4,0.4-5,0.4c-0.9,0-2.7,0-5.2,0s-5.5,0.1-8.9,0.4c-2.5,7.3-5.3,14.6-8.4,22c-3.1,7.3-6.5,14-10.3,19.9
			c-3.8,5.9-7.9,10.8-12.3,14.5c-4.5,3.7-9.2,5.5-14.3,5.5c-7.3,0-13.4-1.4-18.4-4.1c-5-2.8-9-6-12.2-9.7s-5.4-7.4-6.8-11.1
			c-1.4-3.7-2.1-6.5-2.1-8.5c0-3.5,0.9-7.1,2.8-10.8s4.8-7.1,8.9-10.3c4-3.2,9.3-6.1,15.8-8.5c6.5-2.5,14.2-4.4,23.3-5.6
			c3.8-0.5,7.3-0.9,10.8-1.1c3.4-0.3,6.6-0.6,9.7-0.8c2.3-8.8,4.7-17.8,7.1-27c2.4-9.2,4.5-17.6,6.3-25.4c0.7-3.2,1.4-6.6,2.1-10.3
			s1.3-7.2,1.7-10.5c0.4-3.3,0.6-6.1,0.7-8.3c0.1-2.2-0.2-3.5-0.8-3.7c-0.3-0.1-1.2,0.3-2.6,1.3c-1.4,1-3.1,2.4-4.9,4.3
			s-3.7,4.1-5.5,6.8c-1.8,2.6-3.3,5.5-4.5,8.6c-2.1,6-3.8,11.9-4.9,17.6c-0.9,4.9-1.5,10.2-1.8,15.7c-0.2,5.5,0.6,10.5,2.6,15
			c-0.2,1.6-0.6,3-1.1,4c-0.3,0.6-0.7,1.1-0.9,1.6c-0.3,0.4-0.8,0.8-1.2,1.2c-0.5,0.4-1,0.7-1.7,1.1
			C628.1,265.3,627.3,265.6,626.3,265.9z M624.2,315c1.3-2.7,2.9-6.9,4.8-12.5c1.9-5.6,3.9-12.2,6-19.6c-5.8,0.7-11.6,1.7-17.5,2.9
			c-5.9,1.2-11.2,2.9-16,4.9s-8.6,4.6-11.6,7.5c-3,2.9-4.5,6.4-4.5,10.4c0,4.2,0.8,7.9,2.6,11.1c1.7,3.2,3.8,5.8,6.2,7.9
			c2.4,2.1,4.9,3.7,7.4,4.9c2.5,1.1,4.7,1.7,6.4,1.7s3.4-0.7,5-2c1.6-1.4,3-3,4.4-4.9c1.3-1.9,2.6-4,3.7-6.3
			C622.3,318.8,623.3,316.8,624.2,315z"/>
		<path class="st3" d="M759.6,302.4c0-2.5,0.3-5.3,0.8-8.5c0.5-3.2,1.2-6.4,2-9.8c0.8-3.4,1.7-6.6,2.5-9.8s1.5-6,2.1-8.5
			c0.7-3,0.6-5.4-0.2-7c-0.8-1.6-2.2-2.5-4.2-2.5c-0.9,0-2.8,0.8-5.5,2.5s-5.8,4.5-9,8.5c-3.2,4-6.4,9.5-9.5,16.4
			c-3.1,6.9-5.5,15.6-7.3,26.2c-2.2,1.2-4.3,1.9-6.3,2.3c-1.1,0.2-2,0.4-2.8,0.5c-2.3,0.1-3.9-0.3-4.6-1.1c-0.7-0.9-0.6-3,0.3-6.4
			c0.5-1.6,1.3-4.3,2.6-7.9c1.2-3.6,2.4-7.6,3.6-11.9s2.2-8.6,3.1-12.9s1.3-8,1.3-11.2c0-2.2-0.4-3.8-1.1-4.6
			c-0.8-0.8-1.8-1.2-3.3-1.2c-1.1,0-2.8,0.6-5.3,1.8c-2.5,1.2-5.2,3.5-8.3,6.9c-3.1,3.4-6.1,8.1-9.1,14.2s-5.5,13.9-7.7,23.5v-0.4
			c-0.2,0.9-0.5,1.9-0.7,2.8c-0.2,0.8-0.4,1.7-0.5,2.6c-0.1,0.9-0.3,1.8-0.5,2.6l-8.8,3.9c-0.6,0.2-1.3,0.4-2.2,0.5s-1.7,0-2.5-0.4
			c-0.8-0.4-1.3-1.3-1.7-2.6c-0.3-1.3-0.2-3.2,0.3-5.8l11.1-46c0.3-1.5,0.6-3,0.9-4.4c0.2-1.3,0.4-2.6,0.4-3.8s0-2.3-0.3-3.1
			c2-0.9,3.8-1.6,5.3-2.1c1.5-0.5,2.8-0.8,3.7-1.1c1.2-0.4,2.2-0.5,3-0.5c3.8,0,5,3.2,3.7,9.7c-0.5,1.9-1.2,4.6-2.1,8.3
			c2.2-2.8,4.6-5.5,7.1-8c2.5-2.5,5.1-4.8,7.7-6.8c2.6-2,5.2-3.6,7.8-4.8c2.6-1.2,5.3-1.8,7.8-1.8c2,0,3.7,0.6,5,1.8
			c1.3,1.2,2.4,2.7,3.2,4.7s1.2,4.2,1.3,6.9c0.1,2.6,0,5.4-0.3,8.2c1.9-2.5,4-5,6.3-7.5c2.3-2.5,4.7-4.8,7.2-6.8
			c2.5-2,5.1-3.6,7.8-4.9c2.7-1.3,5.4-1.9,8.1-1.9c3.2,0,5.6,0.9,7.3,2.8c1.7,1.9,2.9,4.3,3.5,7.2c0.6,2.9,0.8,6.1,0.5,9.5
			s-0.8,6.7-1.5,9.9l-6,23.8c-1.3,5.9-0.1,8.8,3.7,8.8c2.9,0,6.2-1.4,9.7-4.2c3.5-2.8,7-6.2,10.3-10c3.3-3.9,6.5-7.9,9.4-12
			c2.9-4.1,5.4-7.4,7.4-9.9c0.7-0.8,1.4-1.3,2.2-1.4s1.4,0,1.9,0.4s0.8,1.1,0.9,2s-0.3,2.1-1,3.5c-2.3,4.1-5.2,8.7-8.6,13.7
			c-3.4,5-7.1,9.7-11.2,14c-4.1,4.4-8.4,8-13,10.9c-4.6,2.9-9.3,4.4-14.3,4.4c-1.7,0-3.3-0.2-4.8-0.5c-1.6-0.4-3.1-1-4.4-1.9
			s-2.4-2.2-3.3-3.8C760,306.9,759.6,304.8,759.6,302.4z"/>
		<path class="st3" d="M897.5,275.4c-1.7,2.4-3.8,5.3-6.3,8.7c-2.6,3.5-5.3,6.9-8,10.4c-2.8,3.5-5.5,6.6-8.1,9.5
			c-2.6,2.9-4.8,4.9-6.6,6.1c-1.2,0.7-2.5,1.3-4,1.8c-1.5,0.5-3.1,0.8-4.7,0.9c-1.6,0.1-3.1,0-4.5-0.3s-2.6-0.8-3.7-1.5
			c-1.1-0.8-1.9-2-2.6-3.5c-0.6-1.3-1.2-3-1.7-5.1c-0.5-2.1-0.7-4.8-0.6-7.9c-2.8,4.7-5.9,8.3-9.3,10.8c-3.4,2.5-6.6,4.4-9.7,5.5
			c-3.5,1.3-7,2-10.6,2.3c-1.7,0-3.4-0.6-5.3-1.7c-1.9-1.1-3.5-2.9-4.8-5.3c-1.3-2.4-2.1-5.5-2.5-9.3s0.1-8.4,1.4-13.7
			c1.6-7.2,4.3-13.7,7.8-19.6c3.6-5.9,7.5-10.9,11.7-15.1c4.2-4.2,8.4-7.3,12.5-9.4c4.1-2.1,7.5-3.1,10.2-2.8
			c3.2,0.6,5.8,1.5,7.8,2.8c1.7,1.2,2.7,2.9,3.3,5.2s-0.4,5.3-2.9,9.1c1.6-0.4,3-0.6,4.1-0.7c1.1-0.1,2-0.2,2.6-0.2
			c0.7,0,1.2,0.1,1.4,0.2c0.1,0.2,0.2,0.7,0.2,1.5c0,0.8-0.2,2.2-0.5,4.1c-0.3,2-0.9,4.7-1.6,8.1c-0.7,3.4-1.7,7.8-2.8,13.2
			c-0.2,1.1-0.4,2-0.6,2.9s-0.3,1.8-0.5,2.6c-0.2,0.9-0.4,1.9-0.6,3.1c-0.2,1.2-0.5,2.6-0.9,4.4c-0.1,1.1-0.2,2.2-0.1,3.4
			c0.1,1.2,0.3,2.4,0.6,3.4c0.3,1.1,0.9,1.9,1.7,2.6s1.8,1,3.3,1c1.2,0,2.7-0.7,4.6-2.2s3.9-3.4,6-5.6s4.3-4.8,6.6-7.6
			c2.3-2.8,4.4-5.4,6.4-8c2-2.6,3.8-4.9,5.4-6.9c1.6-2,2.7-3.5,3.4-4.4c0.9-1.1,1.9-1.7,2.8-1.9s1.6,0.1,2.1,0.8
			c0.5,0.7,0.6,1.8,0.3,3.2C899.7,271.9,898.9,273.5,897.5,275.4z M845.8,283.1c0.6-2.4,1.3-5.1,2.1-8.3c0.8-3.2,1.5-6.2,2.1-9.2
			c0.6-2.9,1-5.4,1.3-7.3s0.2-2.9-0.3-2.7c-0.6,0.1-1.2,0.3-1.9,0.5c-0.6,0.2-1.3,0.4-2.3,0.5s-1.9,0.3-2.8,0.5
			c0.9-1.9,1.5-3.4,1.7-4.7c0.2-1.2,0.2-2.2,0.1-2.9c-0.1-0.8-0.3-1.5-0.7-1.9c-1.3-1.1-3.6-0.2-6.8,2.6s-7,7.8-11.2,15.3
			c-1.8,3.1-3.2,6.3-4.2,9.8c-1.1,3.5-1.8,6.7-2.2,9.8c-0.4,3.1-0.5,5.7-0.3,8c0.2,2.3,0.7,3.8,1.4,4.5c1.3,1.3,2.8,1.9,4.4,1.9
			c1.6-0.1,3.3-0.5,5-1.4s3.4-2,5.1-3.4s3.2-2.9,4.6-4.4c1.3-1.5,2.5-2.9,3.3-4.2C845.2,284.7,845.7,283.7,845.8,283.1z"/>
		<path class="st3" d="M932.2,335.7c-0.6,2.8-1.3,6.4-2.2,10.6c-0.9,4.2-1.9,8.7-3,13.4c-1.1,4.7-2.4,9.4-3.9,14
			c-1.5,4.6-3.1,8.8-4.8,12.5c-1.8,3.7-3.7,6.7-5.8,9.1c-2.1,2.4-4.5,3.5-7,3.5c-3.9,0-7.2-1.1-10-3.4s-5.1-5.2-7-8.6
			c-1.9-3.5-3.3-7.2-4.1-11.2c-0.9-4-1.3-7.7-1.3-11.1c0-4.7,0.4-8.6,1.2-11.7c0.8-3.1,2.3-6.1,4.3-8.9c2-2.8,4.8-5.8,8.4-9
			s8-7.1,13.6-11.8c2.7-2.4,5.3-4.6,7.8-6.7c2.5-2.1,4.8-4,7-5.8c0.6-2.4,1.2-4.5,1.7-6.6c0.5-2,1-3.9,1.3-5.5
			c-3.1,4.1-6.7,7.6-11,10.4c-4.3,2.8-9.2,4.2-14.7,4.2c-5,0-9.1-2.3-12.2-6.8c-3.1-4.5-4.7-11.2-4.7-20c0-4.4,0.8-9.3,2.5-15
			c1.6-5.6,4-10.9,7-15.9c3.1-4.9,6.8-9.1,11.3-12.5s9.5-5.1,15-5.1c2.6,0,4.8,0.6,6.7,1.9c1.9,1.3,3.5,2.9,4.8,4.9
			c1.3,1.9,2.3,4,3,6.2c0.7,2.2,1.2,4.2,1.6,6.1c0.2-0.7,0.4-1.4,0.5-2.2c0.1-0.8,0.3-1.4,0.5-2c1.2-4,2.5-6.7,4-8.2
			s3.7-2.2,6.6-2.2c1.6,0,3,0.3,4.1,0.9c1.1,0.6,1.7,1.1,1.7,1.6c-0.6,1.3-1.1,2.3-1.4,3s-0.7,1.4-1.1,2.2c-0.3,0.8-0.7,1.7-1.1,2.9
			c-0.3,1.2-0.8,2.9-1.4,5.1c-0.2,0.8-0.7,2.7-1.3,5.7c-0.7,3-1.5,6.5-2.5,10.7c-1,4.1-2.1,8.6-3.2,13.6c-1.1,4.9-2.2,9.8-3.3,14.5
			c3.3-1.9,6.7-4.2,10.2-6.9c3.5-2.7,6.9-5.5,10-8.3s6-5.5,8.5-8c2.5-2.5,4.3-4.6,5.5-6.3c0.9-1.4,2-2.4,3.2-3s2.2-0.8,3.1-0.6
			s1.4,0.7,1.6,1.6c0.2,0.9-0.2,2.1-1.2,3.6c-2.7,4.4-6,8.5-9.9,12.6c-3.9,4-7.8,7.8-11.9,11.3c-4,3.5-8,6.5-11.8,9.2
			c-3.8,2.6-7.1,4.8-9.8,6.4c-1.2,5.3-2.2,9.6-3,12.9C933.5,330,932.8,333,932.2,335.7z M901.9,382.7c2.3,0,4.3-1.7,5.7-5.2
			c1.5-3.5,3-8.2,4.7-14.2c0.3-1.4,0.8-3.4,1.5-6.1c0.6-2.6,1.4-5.7,2.3-9.1c0.9-3.4,1.8-7.1,2.7-11s1.9-7.9,3-11.9
			c-0.9,0.8-1.9,1.7-2.9,2.6c-1,0.9-2,1.9-3.1,3.1c-2.6,2.5-5.1,4.9-7.5,7.1c-2.4,2.3-4.6,4.7-6.4,7.2c-1.9,2.5-3.4,5.3-4.5,8.2
			c-1.1,2.9-1.7,6.4-1.7,10.2c0,3.9,0.2,7,0.4,9.5s0.7,4.4,1.2,5.8c0.5,1.4,1.2,2.4,1.9,2.9C900.1,382.5,900.9,382.7,901.9,382.7z
			 M910,301c2.5,0,4.8-0.6,7-1.9c2.2-1.3,4.1-2.8,5.9-4.5c1.8-1.7,3.2-3.4,4.4-5.2c1.2-1.8,2.1-3.2,2.6-4.2c0.5-1.1,1-2.5,1.7-4.2
			c0.6-1.8,1.2-3.5,1.5-5.1c0.3-1.6,0.5-3.1,0.4-4.4c-0.1-1.3-0.5-2-1.3-2.1c-0.7-0.1-1.3-0.6-1.7-1.4s-0.7-1.8-1-2.8
			c-0.2-1.1-0.4-2.1-0.4-3.2c-0.1-1.1-0.2-2-0.3-2.8c-0.6-4.1-1.6-7.1-3-9s-3-2.8-4.8-2.8c-2.9,0-5.7,1.2-8.4,3.5s-5,5.4-7,9.1
			c-2.1,3.7-3.7,7.8-4.8,12.2c-1.2,4.4-1.8,8.6-1.8,12.6c0,4.9,0.7,8.9,2.1,11.9C902.6,299.5,905.5,301,910,301z"/>
		<path class="st3" d="M1048.5,273.8c-3.5,5.2-7.5,10.2-12,15.1c-4.5,4.9-9.2,9.2-14.2,13c-5,3.8-10.1,6.9-15.3,9.2
			c-5.2,2.4-10.3,3.5-15.2,3.5c-2.6,0-5.4-0.6-8.4-1.9c-3-1.2-5.7-3.1-8.2-5.7c-2.5-2.6-4.4-5.9-5.9-10c-1.5-4.1-1.9-9.1-1.3-15
			c0.5-4.8,2-9.9,4.5-15.2c2.5-5.4,5.6-10.2,9.3-14.7c3.7-4.5,7.9-8.2,12.5-11.1c4.6-2.9,9.3-4.4,14-4.4c4.5,0,7.7,1.1,9.7,3.4
			c2,2.2,2.9,5,2.6,8.3c-0.3,3.6-1.4,7-3.1,10.1c-1.7,3.1-3.7,5.8-6.1,8.3c-2.3,2.5-4.8,4.7-7.5,6.7s-5.1,3.8-7.5,5.5
			c-2.6,1.8-5,3.4-7.4,5c-2.3,1.6-4.4,3-6.2,4.3c0.1,2.9,0.6,5.4,1.6,7.4c0.9,2,2.1,3.6,3.5,4.9c1.4,1.2,3,2.1,4.8,2.6
			c1.8,0.5,3.7,0.8,5.5,0.8c4,0,8.2-1.3,12.5-3.8c4.3-2.5,8.6-5.6,12.8-9.2c4.2-3.6,8.1-7.3,11.6-11.2c3.6-3.9,6.6-7.2,8.9-10
			c0.8-0.9,1.7-1.5,2.6-1.7c0.9-0.2,1.6-0.1,2.1,0.4s0.8,1.1,0.8,2.1C1049.8,271.4,1049.3,272.5,1048.5,273.8z M1003.4,246.6
			c-1.4,0-3.1,0.7-5,2.1c-1.9,1.4-3.8,3.4-5.7,6.1s-3.6,5.9-5.3,9.7c-1.7,3.8-2.9,8.2-3.7,13.1c1.4-1.1,2.9-2.1,4.6-3.3
			c1.6-1.1,3.3-2.3,4.9-3.6c5-3.9,8.6-7.3,10.6-10.2s3.1-5.5,3.3-7.6c0.2-2.2,0-3.9-0.7-4.9C1005.7,247.1,1004.7,246.6,1003.4,246.6
			z"/>
		<path class="st3" d="M1060.7,304.5c0.7,0.5,1.6,0.7,2.7,0.7s2.2-0.2,3.3-0.7c1.1-0.5,2.2-1.1,3.2-1.9s1.7-1.9,2.2-3.2
			s0.5-3.1,0-5.5c-0.5-2.4-1.2-5-2.2-7.8c-1-2.8-2.1-5.5-3.3-8.4c-1.2-2.8-2.2-5.4-3-7.8c-0.7-1.8-1.3-3.4-1.8-4.9
			c-0.5-1.3-0.9-2.6-1.3-3.8c-0.4-1.2-0.7-2.1-1-2.6c-0.6,0.9-1.6,2.5-3.1,4.6c-1.5,2.1-3.1,4.3-4.8,6.6c-1.7,2.3-3.3,4.4-4.8,6.4
			s-2.6,3.3-3.2,4c-0.9,1.1-1.8,1.7-2.7,1.9s-1.6,0-2.2-0.5c-0.6-0.5-0.9-1.3-1-2.3c-0.1-1,0.4-2.2,1.3-3.6c0.7-0.9,1.8-2.4,3.2-4.5
			c1.4-2,2.8-4.2,4.2-6.4c1.4-2.2,2.7-4.1,3.9-5.8c1.2-1.7,1.8-2.7,1.9-3.1c0.2-0.9-0.1-2.2-1-3.7s-1-3.3-0.4-5.3
			c0.5-1.6,1.5-3.6,3.2-5.7c1.6-2.2,3.6-4.1,5.8-5.9c2.2-1.8,4.5-3.1,6.9-4c2.3-0.9,4.5-0.9,6.3,0.1c1.5,0.9,2.8,2,3.7,3.1
			c0.9,1.1,1.3,2.3,1.1,3.4c-0.2,0.6-0.6,1.4-1.1,2.3c-0.5,0.9-1.2,2.1-2.1,3.4s-2.3,3.1-4.1,5.2c0.3,2.7,0.8,5.2,1.5,7.4
			c0.6,2.2,1.3,4.2,1.8,5.8c0.7,2,1.5,3.8,2.3,5.5c1.1,2.1,2.2,4.3,3.3,6.5c1.2,2.2,2.2,4.4,3.2,6.6c0.9,2.2,1.7,4.2,2.3,6.1
			c0.6,1.9,0.8,3.5,0.5,4.8c-0.3,2-1.4,4.4-3.1,7.2s-3.8,5.5-6.3,8.2c-2.5,2.6-5.4,4.9-8.6,6.8s-6.6,2.8-10.1,2.8
			c-2.5,0-4.8-0.8-7.1-2.3c-2.3-1.5-4.2-3.3-5.8-5.4c-1.6-2-2.8-4.1-3.5-6.1s-0.8-3.5-0.3-4.6c0.7-1.4,1.3-2.5,1.9-3.4
			s1.5-1.8,2.6-2.8c0.5-0.4,1.1-0.8,1.8-1.2c0.6-0.4,1.4-0.7,2.5-1.1c1.1-0.4,2.3-0.8,3.7-1.2c1.2,3.6,2.2,6.5,3.2,8.5
			c0.9,2.1,1.7,3.7,2.3,4.9C1059.4,303.1,1060.1,304,1060.7,304.5z"/>
		<path class="st3" d="M1242.2,251.2c-0.6,7.4-1.8,14.8-3.5,22.3c-1.8,7.5-4,14.7-6.6,21.6c-2.6,6.9-5.7,13.4-9.2,19.5
			c-3.5,6-7.4,11.3-11.7,15.8c-4.3,4.5-8.9,8-13.8,10.6c-4.9,2.6-10,3.9-15.2,3.9c-1.1,0-2.7-0.2-4.8-0.6c-2.2-0.4-4.5-1.4-7-2.8
			s-5-3.6-7.5-6.4c-2.5-2.8-4.7-6.6-6.6-11.4s-3.2-10.7-4.1-17.7c-0.8-7-0.8-15.6,0-25.6c1.4-15.8,4.3-30.1,8.7-42.9
			c4.4-12.9,9.5-23.9,15.2-33.1c5.7-9.2,11.6-16.2,17.7-21.2c6.1-5,11.5-7.5,16.2-7.5c1.9,0,3.4,0.4,4.7,1.1
			c1.2,0.8,2.2,1.7,2.9,2.9c0.8-0.2,1.8-0.4,2.8-0.5c1.1-0.1,2.2-0.2,3.5-0.2c3.4,0,6.4,1.8,9.1,5.3c2.6,3.5,4.8,8.5,6.5,14.8
			c1.7,6.4,2.8,14,3.3,22.8C1243.4,230.8,1243.2,240.5,1242.2,251.2z M1182.7,334.6c4.6,0,9.3-2.4,14.1-7
			c4.8-4.7,9.3-11.1,13.4-19.1c4.1-8,7.6-17.4,10.6-28.1c2.9-10.7,4.9-22,6-34c0.2-3.2,0.4-6.8,0.5-10.9c0.1-4.1,0.1-8.3,0-12.5
			c-0.1-4.2-0.4-8.4-0.8-12.6s-1-7.8-1.7-11c-0.7-3.2-1.6-5.8-2.6-7.8c-1.1-2-2.3-3-3.7-3c-1.5,0.1-3.1,0.6-4.6,1.4
			c-1.3,0.7-2.8,1.9-4.5,3.4s-3.4,3.8-5,6.6c-0.3-0.2-0.6-0.6-0.8-1.1c-0.2-0.5-0.4-0.9-0.6-1.4s-0.4-1-0.5-1.6
			c-0.2-0.4-0.3-0.8-0.3-1.3c0-0.5-0.1-1.1-0.2-1.9c-2.3,2.6-5.1,6.3-8.4,11c-3.2,4.8-6.5,10.7-9.7,17.7c-3.2,7.1-6.2,15.4-8.8,24.9
			c-2.6,9.6-4.5,20.5-5.6,32.7c-0.9,10.8-1.2,19.8-0.7,27c0.5,7.2,1.4,12.9,2.7,17.1s3,7.2,5,8.9
			C1178.5,333.8,1180.6,334.6,1182.7,334.6z"/>
		<path class="st3" d="M1255.8,292.1c-1.3-1.3-2.2-2.6-2.7-3.8s-0.9-2.4-1.2-3.6c-0.2-1.3-0.2-2.6,0-3.9c0.5-1.6,1.2-3.2,2.1-4.6
			c0.8-1.3,1.9-2.6,3.3-4c1.4-1.4,3.3-2.6,5.6-3.8c1.5-3.8,2.9-7.7,4.1-11.9c1.2-4.2,2.3-8,3.3-11.4c1.1-4,2-8,2.8-12
			c2.9-10,4.5-18.1,4.6-24.4c0.1-6.3,0-10.4-0.3-12.4c-0.1-0.8-0.2-1.6-0.3-2.5c-0.2-0.7-0.4-1.5-0.6-2.4s-0.4-1.7-0.6-2.6
			c1.3-0.7,2.4-1.3,3.4-1.8s1.8-0.8,2.6-1.1c0.8-0.4,1.6-0.6,2.3-0.7c2.7-0.6,5.3-0.9,7.7-1s3.7,0.4,4,1.3c0.1,0.6,0.3,1.6,0.4,3.2
			c0.2,1.5,0.3,3.4,0.3,5.6s-0.2,4.7-0.5,7.5c-0.3,2.8-1,5.7-1.9,8.7c-0.8,2.7-1.9,6.5-3.3,11.3c-1.3,4.1-3,9.6-5.1,16.5
			c-2.1,6.9-4.9,15.7-8.3,26.3c3.5-1.2,7.4-2.3,11.6-3.4s8.6-1.9,13-2.6c4.4-0.7,8.8-1.2,13.2-1.6c4.4-0.4,8.5-0.4,12.2-0.2
			c0.7,0,1.2,0.3,1.5,1c0.3,0.6,0.3,1.3,0,2c-0.3,0.7-0.9,1.4-1.9,2s-2.4,1-4.3,1.1c-2.3,0.2-4.9,0.5-7.8,0.8
			c-2.8,0.3-5.7,0.7-8.7,1.2c-3,0.5-6,1.2-8.9,1.9c-2.9,0.8-5.7,1.7-8.3,2.7c-2,0.7-4,1.4-6,2.1c-1.7,0.6-3.4,1.3-5.2,2
			s-3.3,1.4-4.5,2l-4.1,12.9c6.8,4.8,12.1,9.8,15.8,14.8c3.7,5,6.4,9.7,8,13.9c2,4.9,3.1,9.8,3.3,14.5c0,5.2-0.8,10.4-2.3,15.6
			c-1.5,5.2-3.6,10.2-6.1,15c-2.5,4.8-5.5,9.2-8.8,13.3c-3.3,4.1-6.9,7.6-10.6,10.6c-3.7,2.9-7.5,5.2-11.3,6.7
			c-3.8,1.5-7.4,2.1-10.8,1.8c-2.5-0.2-4.5-1-6.2-2.4c-1.6-1.4-2.9-3.1-3.7-5.1c-0.8-2.1-1.3-4.4-1.4-6.9c-0.1-2.5,0.1-5,0.7-7.5
			c0.5-2.5,1.5-7,3-13.8c1.3-5.6,3.3-13.8,6-24.6C1247.6,324.3,1251.2,310,1255.8,292.1z M1266.2,300.4c-1.7,5.9-3.1,11.3-4.3,16.2
			c-1.2,4.9-2.3,9.3-3.1,13c-1.1,4.4-1.9,8.3-2.5,11.8c-1.1,4.5-2.2,8.9-3.3,13.2c-1.1,4.4-2,8.2-2.6,11.7c-0.7,3.5-0.9,6.3-0.8,8.4
			c0.1,2.1,0.9,3.2,2.3,3.2c3.4,0.2,7-1.1,10.7-4c3.7-2.9,7.1-6.5,10.1-10.9c3.1-4.4,5.6-9.2,7.6-14.3s3-9.8,3-14.2
			c0-4.8-0.8-9.6-2.3-14.3c-1.1-2.5-2.3-4.9-3.7-7.2c-1.3-2-2.8-4.1-4.7-6.4C1270.8,304.4,1268.7,302.3,1266.2,300.4z"/>
		<path class="st3" d="M689.5,560c-4.6,0.1-8.4-0.7-11.4-2.5c-3-1.8-5.3-4.3-7-7.7s-2.8-7.4-3.3-12.2c-0.5-4.8-0.5-10,0-15.6
			c0.6-4.3,1.7-8.9,3.2-13.6c1.3-4,3.3-8.4,5.9-13.2c2.6-4.8,6.2-9.5,10.7-14.1c0.9,0.2,1.7,0.5,2.3,0.8c0.6,0.3,1.1,0.6,1.4,1
			c0.3,0.5,0.6,0.9,0.7,1.2c0.2,1.3-0.1,2.8-1.1,4.4s-1.9,3.4-2.8,5.3c-2.6,5.4-4.5,10.5-5.8,15.3c-1.3,4.8-2.1,9.3-2.5,13.4
			c-0.2,3.5-0.2,6.7,0.1,9.6c0.3,2.9,0.7,5.3,1.3,7.4c0.6,2.1,1.2,3.6,1.9,4.8s1.3,1.7,1.9,1.7s1.2-0.4,1.8-1.2
			c0.6-0.8,1.3-1.8,1.8-3c0.7-1.2,1.5-3,2.5-5.4c0.9-2.4,1.9-5.2,3-8.4s2.1-6.6,3.1-10.3c1-3.7,1.9-7.4,2.7-11.2
			c1.6-7.5,3.4-16,5.3-25.5s4.6-19.4,8.3-29.7c1.2-4.4,2.6-9.1,4.4-14.3c1.4-4.5,3.2-9.7,5.4-15.6c2.2-5.9,4.7-12.4,7.5-19.3
			c0-0.6,0.5-1.1,1.5-1.7c1-0.5,2.1-1.1,3.4-1.7c1.4-0.6,3-1.2,4.8-1.8c2.3-0.8,4.2-1.3,5.5-1.4c1.3-0.1,2.4,0.1,3.1,0.5
			c0.7,0.5,1.2,1.1,1.4,1.9c0.2,0.8,0.3,1.6,0.3,2.6c0.2,3.9,0.4,7.5,0.4,10.9s0.2,6.4,0.3,9c0.1,3.1,0.2,5.8,0.2,8.3
			c0.1,3.3-0.1,7.7-0.5,13.1c-0.5,5.5-1,11.2-1.5,17.2c-0.5,6-1,11.8-1.4,17.5s-0.5,10.4-0.3,14.2c0,2,0.1,3.9,0.3,5.5
			c0.2,1.7,0.4,3.4,0.6,5c1.5-4.2,3.2-8.7,5.1-13.3c1.9-4.6,3.8-9.1,5.6-13.4s3.6-8.3,5.3-12c1.6-3.7,2.9-6.8,3.9-9.2
			c1.4-3.3,3.3-7.5,5.6-12.5c2.3-5,4.7-10.1,7.1-15.2c2.4-5,4.6-9.7,6.7-13.9c2-4.2,3.5-7.2,4.5-8.8c0.7-1.2,1.9-2.2,3.6-3.2
			s3.5-1.8,5.5-2.5c1.9-0.7,3.8-1.2,5.5-1.5c1.7-0.3,2.8-0.3,3.4-0.1c1.5,0.4,2.6,0.8,3.3,1.4c0.6,0.6,1,1,1.2,1.2
			c0.2,0.5,0.4,1.3,0.5,2.4c0.1,1.1,0.1,2.9-0.2,5.2c-0.2,2.8-0.9,7.1-2,12.9c-1.1,5.8-2.5,12.3-4,19.6c-1.6,7.4-3.3,15.2-5.1,23.5
			s-3.6,16.5-5.2,24.6c-1.7,8-3.1,15.6-4.3,22.6c-1.2,7.1-2,13-2.4,17.8c-0.2,5.4,0.1,10.2,1.1,14.3c0.3,1.8,0.9,3.5,1.6,5.1
			s1.6,3.1,2.8,4.3c1.2,1.2,2.6,2.1,4.2,2.7c1.6,0.6,3.6,0.8,5.8,0.5c-2.9,2-5.8,3.5-8.6,4.4s-5.6,1.4-8.3,1.4
			c-2.9,0.1-5.5-0.3-7.8-1.3c-2.2-1-4.1-2.4-5.6-4.2c-1.5-1.8-2.6-4-3.3-6.5c-0.7-2.5-0.9-5.3-0.7-8.4c0.2-2.8,1-7.5,2.3-13.9
			c1.3-6.5,2.8-13.8,4.7-22s3.8-16.7,6-25.6s4.2-17.2,6.2-25c1.9-7.8,3.6-14.5,5-20.2c1.4-5.6,2.3-9.3,2.6-11.1
			c0.2-1.4,0.4-2.7,0.6-4c0.2-1.2,0.4-2.3,0.6-3.3c-1.2,2.4-2.6,5.2-4.3,8.5c-1.7,3.3-3.5,6.8-5.4,10.6c-1.9,3.8-3.8,7.7-5.7,11.7
			s-3.8,8-5.5,11.7c-2.9,6.1-5.8,12.4-8.6,18.8c-2.8,6.4-5.3,12.5-7.6,18.2c-2.2,5.8-4.1,10.9-5.5,15.5c-1.5,4.6-2.3,8.1-2.6,10.6
			v2.5c0,0.7,0,1.5,0.1,2.5c0.1,0.9,0.2,1.8,0.4,2.6l-7,5.5c-1.1,0.3-2,0.6-2.7,0.9c-0.8,0.2-1.5,0.3-2.2,0.3
			c-2.7,0-4.8-1.4-6.2-4.2c-1.4-2.6-2.7-7.6-3.9-15.2c-1.2-7.5-1.5-16.8-1.1-27.7c0.2-5.4,0.6-10.9,1.2-16.4
			c0.5-5.5,1.1-10.8,1.6-15.9s1-9.8,1.5-14.2s0.7-8.2,0.7-11.4c0.1-2.4,0.1-4.5-0.2-6.4s-0.5-3.7-0.7-5.4c-1.1,2.7-2.2,6.4-3.5,11
			c-1.3,4.6-2.6,9.8-4,15.4s-2.8,11.6-4.3,17.8c-1.5,6.2-2.9,12.2-4.2,18s-2.6,11.1-3.8,16c-1.2,4.9-2.1,8.8-2.8,11.7
			c-1.2,4.7-2.3,10-3.5,16c-1.2,6-2.6,11.7-4.4,17c-1.8,5.3-4,9.9-6.9,13.6C697.7,558,694,559.9,689.5,560z"/>
		<path class="st3" d="M864.2,462.2c1.5-1.2,3-2.1,4.5-2.7c1.5-0.6,2.8-1.1,4-1.3c1.3-0.4,2.6-0.5,3.9-0.4c3.2,0.2,5.1,1.2,5.9,3
			c0.8,1.8,0.8,4.6,0.3,8.5c-0.3,2-1.1,4.5-2.1,7.6c-1.1,3.1-2.3,6.8-3.7,11.2c-1.4,4.4-2.9,9.4-4.5,15.1c-1.6,5.6-3.1,12-4.5,19
			c-1.4,5.8-2.9,12.4-4.6,19.9c-1.4,6.6-3.1,14.5-5,23.8c-1.9,9.3-4,19.9-6.3,31.9c-0.6,2.9-1.8,4.6-3.8,5.1s-4,0.2-6.1-0.7
			c-0.8-0.5-1.6-1-2.3-1.6c-0.6-0.6-1.2-1.3-1.9-2s-1.3-1.8-1.8-3.1c2.7-9.9,5.1-18.9,7.1-27s3.9-15.2,5.5-21.2
			c1.8-6.9,3.4-13.2,4.9-18.7c0.6-2.5,1.2-4.9,1.7-7.3c0.5-2.4,1.1-4.8,1.7-7.1c-1.5,2.5-3.2,4.8-4.9,7c-1.8,2.2-3.7,4.2-5.8,5.8
			s-4.4,2.9-6.8,3.8s-4.9,1.2-7.5,0.8c-6.3-0.8-10.8-3.2-13.5-7c-2.6-3.9-3.8-8.9-3.4-15.2c0.1-2.5,0.5-5.2,1.1-8.1
			c0.6-2.9,1.2-5.8,1.9-8.5c0.7-2.7,1.4-5.1,2-7.3c0.7-2.2,1.2-3.7,1.5-4.7c1.4-4.5,2.4-8.3,3.1-11.5c0.6-3.2,0.2-5.8-1.5-7.9
			c1.6-1.1,3.2-1.8,4.7-2.2s2.8-0.7,4-1c1.3-0.1,2.6-0.1,3.9,0c3.2,0.5,5,1.6,5.5,3.5c0.5,1.9,0.3,4.7-0.6,8.5
			c-0.5,2-1.2,4.6-2.3,7.7c-1.1,3.1-2.2,6.3-3.3,9.6c-1.2,3.3-2.2,6.3-3.2,9.1c-0.9,2.8-1.5,4.7-1.6,5.9c-1.1,5.3-1.1,9.4-0.2,12.2
			s3,4.3,6.2,4.3c1.5,0,3.2-0.7,5.1-2c1.9-1.3,3.8-3.1,5.7-5.4c1.9-2.2,3.8-4.8,5.7-7.7s3.6-5.8,5.2-8.7s3-5.8,4.2-8.6
			s2.1-5.4,2.7-7.6c0.8-4.4,1.3-7.8,1.6-10.2C866.9,466.4,866.1,464.2,864.2,462.2z"/>
		<path class="st3" d="M970.9,467.1c-6,0-10.8-0.6-14.5-1.9c-3.7-1.3-6.2-2.9-7.5-4.9c-0.6-0.8-1.1-2-1.6-3.7
			c-0.5-1.6-0.3-3.5,0.5-5.5c1.7,1.3,3.4,2.3,5.4,2.9s3.7,1.1,5.4,1.3c2,0.4,3.9,0.5,5.8,0.5c3.5,0,7-0.3,10.3-0.9s6.7-1.4,10-2.5
			c1.4-7,2.8-13.4,4.1-19c1.3-5.6,2.9-10.2,4.7-13.8c1.9-3.9,3.8-7.4,5.9-10.5c2.1-3.1,4.3-5.8,6.9-7.9c2.5-2.2,5.3-3.9,8.4-5
			c3-1.2,6.6-1.8,10.6-1.8c2.9,0,5.3,0.6,7,1.8c1.7,1.2,3,2.6,3.9,4.4c0.9,1.8,1.4,3.7,1.6,5.7c0.2,2.1,0.3,4,0.3,5.7
			c0,3.9-0.9,8.1-2.8,12.7c-1.9,4.6-4.5,9.1-7.9,13.6c-3.4,4.5-7.5,8.7-12.2,12.7c-4.8,4-10.1,7.3-16,9.9c-2,7.8-4,15.4-5.9,23
			s-3.8,13.8-5.7,18.8c-1.7,4.6-3.7,9.7-6.3,15.3s-5.6,11-9.2,16.2c2.2,1.4,4.5,2.9,6.8,4.4c2.3,1.5,4.6,2.9,7,4.1
			c2.3,1.2,4.7,2.3,7.1,3.1c2.4,0.8,5,1.2,7.7,1.2c2.8-0.1,5.6-0.5,8.3-1.2c2.3-0.6,4.8-1.6,7.4-2.9s5-3.3,7.2-5.7
			c0.8,1.4,1.1,3.5,0.8,6.3c-0.3,2.8-1.2,5.6-2.7,8.5c-1.5,2.8-3.7,5.3-6.5,7.4c-2.8,2.1-6.3,3.2-10.6,3.2c-4.5,0-8.6-0.6-12.5-1.8
			s-7.5-2.7-10.9-4.5s-6.6-3.7-9.6-5.7s-5.8-4-8.4-5.7c-3.5,3.4-7.4,6.2-11.6,8.3c-4.2,2.1-8.9,3.2-14.1,3.2c-4.1,0-7.4-1.2-9.9-3.4
			s-3.6-5.4-3.3-9.2c0.1-1.4,0.5-3.1,1.2-5c0.7-1.9,2-3.8,4-5.5c1.9-1.8,4.6-3.3,8-4.5c3.4-1.2,7.8-1.8,13.2-1.8
			c2,0,3.9,0.2,5.7,0.6s3.6,0.9,5.4,1.5c1.3-2.3,2.6-5,3.9-8.1c1.3-3.1,2.7-6.5,4.2-10.4c2.7-7.4,5-14.8,7-22.3
			c2-7.5,3.7-14.7,5.1-21.8c-1.7,0.4-3.4,0.6-5.2,0.7C974.6,467.1,972.8,467.1,970.9,467.1z M941.6,546.8c1.5-0.6,3.3-1.2,5.3-1.8
			c2-0.6,4.3-2.2,6.9-4.9c-1.8-0.6-3.1-0.9-4-0.9c-4.2,0-7.3,0.6-9.2,1.8c-1.9,1.2-2.9,2.4-2.9,3.6c0,0.8,0.3,1.4,1.1,1.8
			C939.3,547,940.3,547,941.6,546.8z M1008.2,424.1c-0.6,1.8-1.3,4.4-2.3,7.8s-1.9,7.4-3,11.8c6.3-4.1,11.4-8.8,15.2-14.1
			s5.7-10.6,5.7-15.9c0-3.2-0.9-4.8-2.8-4.8c-1.7,0-3.8,1.3-6.3,3.8C1012.2,415.3,1010,419.1,1008.2,424.1z"/>
		<path class="st3" d="M1045.1,460.8c0.6-0.7,1.7-1.3,3.3-1.8c1.6-0.5,3.3-0.9,5.1-1.1c1.8-0.3,3.4-0.5,4.8-0.5s2.3,0,2.6,0.1
			c0.1,0.1-0.2,1.4-0.9,3.7c-0.7,2.4-1.6,5.1-2.6,8.3s-2.2,6.4-3.3,9.8c-1.2,3.4-2.1,6.1-2.6,8.2c-0.6,2.1-1.3,4.5-2.1,7.1
			c-0.8,2.6-1.6,5.2-2.2,7.8c-0.7,2.5-1.1,4.9-1.3,7.1c-0.2,2.2-0.1,3.9,0.5,5.1c0.6,1.4,1.2,2.4,1.9,2.9c0.7,0.5,1.5,0.8,2.3,0.8
			c2.3,0,5.3-1.3,8.9-3.9c3.6-2.6,7.2-5.7,10.9-9.2c3.7-3.6,7.1-7.2,10.3-10.9c3.2-3.7,5.5-6.7,7.1-8.9c0.9-1.2,1.9-1.9,2.9-2.3
			s1.8-0.3,2.5,0.2c0.6,0.5,1,1.2,1.1,2.3s-0.3,2.3-1.2,3.7c-1.9,3.3-4.6,7.2-8.3,11.7c-3.6,4.5-7.5,8.9-11.6,13
			c-4.1,4.2-8.1,7.7-12.1,10.7c-3.9,2.9-7.1,4.5-9.6,4.6c-2,0.1-4-0.2-5.9-1c-1.9-0.8-3.7-1.8-5.3-3.2c-1.6-1.3-2.9-2.9-4-4.8
			c-1.1-1.8-1.7-3.7-1.8-5.7c-0.3-2.9-0.3-7,0-12.1c0.3-5.1,1-10.3,1.9-15.7s2.1-10.4,3.6-15.2
			C1041.5,466.7,1043.2,463.1,1045.1,460.8z M1069.4,423.2c-0.3,1.3-1,2.6-2,3.8s-2.1,2.2-3.3,3c-1.2,0.8-2.5,1.3-3.8,1.5
			s-2.3,0-3.2-0.7c-2.5-1.9-3.8-3.9-3.9-6.1c-0.1-2.2,0.4-4.2,1.6-6.2c1.2-1.9,2.6-3.6,4.4-4.9c1.8-1.4,3.3-2.1,4.6-2.4
			c1.3-0.2,2.4,0,3.3,0.8c0.9,0.8,1.6,1.8,2,3c0.5,1.2,0.7,2.6,0.8,4.1C1069.9,420.7,1069.8,422.1,1069.4,423.2z"/>
		<path class="st3" d="M1083.7,508.7c-1.3-1.3-2.2-2.6-2.7-3.8s-0.9-2.4-1.2-3.6c-0.2-1.3-0.2-2.6,0-3.9c0.5-1.6,1.2-3.2,2.1-4.6
			c0.8-1.3,1.9-2.6,3.3-4c1.4-1.4,3.3-2.6,5.6-3.8c1.5-3.8,2.9-7.7,4.1-11.9c1.2-4.2,2.3-8,3.3-11.4c1.1-4,2-8,2.8-12
			c2.9-10,4.5-18.1,4.6-24.4c0.1-6.3,0-10.4-0.3-12.4c-0.1-0.8-0.2-1.6-0.3-2.5c-0.2-0.7-0.4-1.5-0.6-2.4s-0.4-1.7-0.6-2.6
			c1.3-0.7,2.4-1.3,3.4-1.8s1.8-0.8,2.6-1.1c0.8-0.4,1.6-0.6,2.3-0.7c2.7-0.6,5.3-0.9,7.7-1s3.7,0.4,4,1.3c0.1,0.6,0.3,1.6,0.4,3.2
			c0.2,1.5,0.3,3.4,0.3,5.6s-0.2,4.7-0.5,7.5c-0.3,2.8-1,5.7-1.9,8.7c-0.8,2.7-1.9,6.5-3.3,11.3c-1.3,4.1-3,9.6-5.1,16.5
			c-2.1,6.9-4.9,15.7-8.3,26.4c3.5-1.2,7.4-2.3,11.6-3.4s8.6-1.9,13-2.6c4.4-0.7,8.8-1.2,13.2-1.6c4.4-0.4,8.5-0.4,12.2-0.2
			c0.7,0,1.2,0.3,1.5,1c0.3,0.6,0.3,1.3,0,2c-0.3,0.7-0.9,1.4-1.9,2s-2.4,1-4.3,1.1c-2.3,0.2-4.9,0.5-7.8,0.8
			c-2.8,0.3-5.7,0.7-8.7,1.2c-3,0.5-6,1.2-8.9,1.9c-2.9,0.8-5.7,1.7-8.3,2.7c-2,0.7-4,1.4-6,2.1c-1.7,0.6-3.4,1.3-5.2,2
			s-3.3,1.4-4.5,2l-4.1,12.9c6.8,4.8,12.1,9.8,15.8,14.8c3.7,5,6.4,9.7,8,13.9c2,4.9,3.1,9.8,3.3,14.5c0,5.2-0.8,10.4-2.3,15.6
			c-1.5,5.2-3.6,10.2-6.1,15c-2.5,4.8-5.5,9.2-8.8,13.3c-3.3,4.1-6.9,7.6-10.6,10.6c-3.7,2.9-7.5,5.2-11.3,6.7
			c-3.8,1.5-7.4,2.1-10.8,1.8c-2.5-0.2-4.5-1-6.2-2.4c-1.6-1.3-2.9-3.1-3.7-5.1c-0.8-2.1-1.3-4.3-1.4-6.9c-0.1-2.5,0.1-5,0.7-7.5
			c0.5-2.5,1.5-7,3-13.8c1.3-5.6,3.3-13.8,6-24.6C1075.5,540.9,1079.1,526.6,1083.7,508.7z M1094.1,517c-1.7,5.9-3.1,11.3-4.3,16.2
			c-1.2,4.9-2.3,9.3-3.1,13c-1.1,4.3-1.9,8.3-2.5,11.8c-1.1,4.5-2.2,8.9-3.3,13.2c-1.1,4.3-2,8.2-2.6,11.7c-0.7,3.5-0.9,6.3-0.8,8.4
			c0.1,2.1,0.9,3.2,2.3,3.2c3.4,0.2,7-1.1,10.7-4c3.7-2.9,7.1-6.5,10.1-10.9c3.1-4.4,5.6-9.2,7.6-14.3c2-5.1,3-9.8,3-14.2
			c0-4.8-0.8-9.6-2.3-14.3c-1.1-2.5-2.3-4.9-3.7-7.2c-1.3-2-2.8-4.1-4.7-6.4C1098.7,521,1096.6,518.9,1094.1,517z"/>
		<path class="st3" d="M1218.7,490.4c-3.5,5.2-7.5,10.2-12,15.1c-4.5,4.9-9.2,9.2-14.2,13c-5,3.8-10.1,6.9-15.3,9.2
			c-5.2,2.3-10.3,3.5-15.2,3.5c-2.6,0-5.4-0.6-8.4-1.8c-3-1.2-5.7-3.1-8.2-5.7c-2.5-2.6-4.4-5.9-5.9-10c-1.5-4.1-1.9-9.1-1.3-15
			c0.5-4.8,2-9.9,4.5-15.2c2.5-5.4,5.6-10.2,9.3-14.7c3.7-4.5,7.9-8.2,12.5-11.1c4.6-2.9,9.3-4.4,14-4.4c4.5,0,7.7,1.1,9.7,3.4
			s2.9,5,2.6,8.3c-0.3,3.6-1.4,7-3.1,10c-1.7,3.1-3.7,5.8-6.1,8.3s-4.8,4.7-7.5,6.7s-5.1,3.8-7.5,5.5c-2.6,1.8-5.1,3.4-7.4,5
			c-2.3,1.6-4.4,3-6.2,4.3c0.1,2.9,0.6,5.4,1.6,7.4c0.9,2,2.1,3.6,3.5,4.8c1.4,1.2,3,2.1,4.8,2.6c1.8,0.5,3.7,0.8,5.6,0.8
			c4,0,8.2-1.3,12.5-3.8c4.3-2.5,8.6-5.6,12.8-9.2c4.2-3.6,8.1-7.3,11.6-11.2c3.6-3.9,6.6-7.2,8.9-10c0.8-0.9,1.7-1.5,2.6-1.7
			c0.9-0.2,1.6-0.1,2.1,0.4s0.8,1.1,0.8,2.1C1219.9,488,1219.5,489.1,1218.7,490.4z M1173.6,463.3c-1.4,0-3.1,0.7-5,2.1
			c-1.9,1.4-3.8,3.4-5.7,6.1c-1.9,2.6-3.6,5.9-5.3,9.7s-2.9,8.2-3.7,13.1c1.4-1.1,2.9-2.1,4.6-3.3s3.3-2.3,4.9-3.6
			c5.1-3.9,8.6-7.3,10.6-10.2c2-2.9,3.1-5.5,3.3-7.6c0.2-2.2,0-3.9-0.7-4.9C1175.9,463.8,1174.9,463.3,1173.6,463.3z"/>
	</g>
	<g>
		<path class="st3" d="M626.3,265.9c-2.2-2.4-4-5.3-5.4-8.7c-1.3-3.5-2.4-6.9-3.1-10.3c-0.8-3.9-1.4-8-1.8-12.3
			c-0.6-8.5,0.3-16.2,2.8-23.1c2.5-6.9,5.8-12.9,10-17.8c4.2-4.9,9-8.8,14.2-11.5c5.2-2.7,10.3-4.1,15.2-4.1c2.2,0,4,0.5,5.4,1.6
			c1.3,1.1,2.4,2.4,3.1,3.9c0.7,1.5,1.2,3.1,1.3,4.8c0.2,1.6,0.3,3,0.3,4.1c0,3.8-0.1,7.5-0.3,11.1c-0.2,3.6-0.5,7.5-0.9,11.6
			c-0.4,4.1-1,8.5-1.8,13.2c-0.8,4.7-1.9,9.9-3.2,15.7c-0.7,3.2-1.7,7.2-3,12.2c-1.3,4.9-2.8,10.4-4.6,16.4
			c5.3,0.1,9.5,0.3,12.8,0.6c3.2,0.3,5.3,0.5,6.3,0.6c0.8,0.1,1.4,0.5,1.8,1.2c0.4,0.7,0.2,1.8-0.8,3.4c-0.9,1.4-2.3,2.2-4,2.5
			c-1.7,0.2-3.4,0.4-5,0.4c-0.9,0-2.7,0-5.2,0s-5.5,0.1-8.9,0.4c-2.5,7.3-5.3,14.6-8.4,22c-3.1,7.3-6.5,14-10.3,19.9
			c-3.8,5.9-7.9,10.8-12.3,14.5c-4.5,3.7-9.2,5.5-14.3,5.5c-7.3,0-13.4-1.4-18.4-4.1c-5-2.8-9-6-12.2-9.7s-5.4-7.4-6.8-11.1
			c-1.4-3.7-2.1-6.5-2.1-8.5c0-3.5,0.9-7.1,2.8-10.8s4.8-7.1,8.9-10.3c4-3.2,9.3-6.1,15.8-8.5c6.5-2.5,14.2-4.4,23.3-5.6
			c3.8-0.5,7.3-0.9,10.8-1.1c3.4-0.3,6.6-0.6,9.7-0.8c2.3-8.8,4.7-17.8,7.1-27c2.4-9.2,4.5-17.6,6.3-25.4c0.7-3.2,1.4-6.6,2.1-10.3
			s1.3-7.2,1.7-10.5c0.4-3.3,0.6-6.1,0.7-8.3c0.1-2.2-0.2-3.5-0.8-3.7c-0.3-0.1-1.2,0.3-2.6,1.3c-1.4,1-3.1,2.4-4.9,4.3
			s-3.7,4.1-5.5,6.8c-1.8,2.6-3.3,5.5-4.5,8.6c-2.1,6-3.8,11.9-4.9,17.6c-0.9,4.9-1.5,10.2-1.8,15.7c-0.2,5.5,0.6,10.5,2.6,15
			c-0.2,1.6-0.6,3-1.1,4c-0.3,0.6-0.7,1.1-0.9,1.6c-0.3,0.4-0.8,0.8-1.2,1.2c-0.5,0.4-1,0.7-1.7,1.1
			C628.1,265.3,627.3,265.6,626.3,265.9z M624.2,315c1.3-2.7,2.9-6.9,4.8-12.5c1.9-5.6,3.9-12.2,6-19.6c-5.8,0.7-11.6,1.7-17.5,2.9
			c-5.9,1.2-11.2,2.9-16,4.9s-8.6,4.6-11.6,7.5c-3,2.9-4.5,6.4-4.5,10.4c0,4.2,0.8,7.9,2.6,11.1c1.7,3.2,3.8,5.8,6.2,7.9
			c2.4,2.1,4.9,3.7,7.4,4.9c2.5,1.1,4.7,1.7,6.4,1.7s3.4-0.7,5-2c1.6-1.4,3-3,4.4-4.9c1.3-1.9,2.6-4,3.7-6.3
			C622.3,318.8,623.3,316.8,624.2,315z"/>
		<path class="st3" d="M759.6,302.4c0-2.5,0.3-5.3,0.8-8.5c0.5-3.2,1.2-6.4,2-9.8c0.8-3.4,1.7-6.6,2.5-9.8s1.5-6,2.1-8.5
			c0.7-3,0.6-5.4-0.2-7c-0.8-1.6-2.2-2.5-4.2-2.5c-0.9,0-2.8,0.8-5.5,2.5s-5.8,4.5-9,8.5c-3.2,4-6.4,9.5-9.5,16.4
			c-3.1,6.9-5.5,15.6-7.3,26.2c-2.2,1.2-4.3,1.9-6.3,2.3c-1.1,0.2-2,0.4-2.8,0.5c-2.3,0.1-3.9-0.3-4.6-1.1c-0.7-0.9-0.6-3,0.3-6.4
			c0.5-1.6,1.3-4.3,2.6-7.9c1.2-3.6,2.4-7.6,3.6-11.9s2.2-8.6,3.1-12.9s1.3-8,1.3-11.2c0-2.2-0.4-3.8-1.1-4.6
			c-0.8-0.8-1.8-1.2-3.3-1.2c-1.1,0-2.8,0.6-5.3,1.8c-2.5,1.2-5.2,3.5-8.3,6.9c-3.1,3.4-6.1,8.1-9.1,14.2s-5.5,13.9-7.7,23.5v-0.4
			c-0.2,0.9-0.5,1.9-0.7,2.8c-0.2,0.8-0.4,1.7-0.5,2.6c-0.1,0.9-0.3,1.8-0.5,2.6l-8.8,3.9c-0.6,0.2-1.3,0.4-2.2,0.5s-1.7,0-2.5-0.4
			c-0.8-0.4-1.3-1.3-1.7-2.6c-0.3-1.3-0.2-3.2,0.3-5.8l11.1-46c0.3-1.5,0.6-3,0.9-4.4c0.2-1.3,0.4-2.6,0.4-3.8s0-2.3-0.3-3.1
			c2-0.9,3.8-1.6,5.3-2.1c1.5-0.5,2.8-0.8,3.7-1.1c1.2-0.4,2.2-0.5,3-0.5c3.8,0,5,3.2,3.7,9.7c-0.5,1.9-1.2,4.6-2.1,8.3
			c2.2-2.8,4.6-5.5,7.1-8c2.5-2.5,5.1-4.8,7.7-6.8c2.6-2,5.2-3.6,7.8-4.8c2.6-1.2,5.3-1.8,7.8-1.8c2,0,3.7,0.6,5,1.8
			c1.3,1.2,2.4,2.7,3.2,4.7s1.2,4.2,1.3,6.9c0.1,2.6,0,5.4-0.3,8.2c1.9-2.5,4-5,6.3-7.5c2.3-2.5,4.7-4.8,7.2-6.8
			c2.5-2,5.1-3.6,7.8-4.9c2.7-1.3,5.4-1.9,8.1-1.9c3.2,0,5.6,0.9,7.3,2.8c1.7,1.9,2.9,4.3,3.5,7.2c0.6,2.9,0.8,6.1,0.5,9.5
			s-0.8,6.7-1.5,9.9l-6,23.8c-1.3,5.9-0.1,8.8,3.7,8.8c2.9,0,6.2-1.4,9.7-4.2c3.5-2.8,7-6.2,10.3-10c3.3-3.9,6.5-7.9,9.4-12
			c2.9-4.1,5.4-7.4,7.4-9.9c0.7-0.8,1.4-1.3,2.2-1.4s1.4,0,1.9,0.4s0.8,1.1,0.9,2s-0.3,2.1-1,3.5c-2.3,4.1-5.2,8.7-8.6,13.7
			c-3.4,5-7.1,9.7-11.2,14c-4.1,4.4-8.4,8-13,10.9c-4.6,2.9-9.3,4.4-14.3,4.4c-1.7,0-3.3-0.2-4.8-0.5c-1.6-0.4-3.1-1-4.4-1.9
			s-2.4-2.2-3.3-3.8C760,306.9,759.6,304.8,759.6,302.4z"/>
		<path class="st3" d="M897.5,275.4c-1.7,2.4-3.8,5.3-6.3,8.7c-2.6,3.5-5.3,6.9-8,10.4c-2.8,3.5-5.5,6.6-8.1,9.5
			c-2.6,2.9-4.8,4.9-6.6,6.1c-1.2,0.7-2.5,1.3-4,1.8c-1.5,0.5-3.1,0.8-4.7,0.9c-1.6,0.1-3.1,0-4.5-0.3s-2.6-0.8-3.7-1.5
			c-1.1-0.8-1.9-2-2.6-3.5c-0.6-1.3-1.2-3-1.7-5.1c-0.5-2.1-0.7-4.8-0.6-7.9c-2.8,4.7-5.9,8.3-9.3,10.8c-3.4,2.5-6.6,4.4-9.7,5.5
			c-3.5,1.3-7,2-10.6,2.3c-1.7,0-3.4-0.6-5.3-1.7c-1.9-1.1-3.5-2.9-4.8-5.3c-1.3-2.4-2.1-5.5-2.5-9.3s0.1-8.4,1.4-13.7
			c1.6-7.2,4.3-13.7,7.8-19.6c3.6-5.9,7.5-10.9,11.7-15.1c4.2-4.2,8.4-7.3,12.5-9.4c4.1-2.1,7.5-3.1,10.2-2.8
			c3.2,0.6,5.8,1.5,7.8,2.8c1.7,1.2,2.7,2.9,3.3,5.2s-0.4,5.3-2.9,9.1c1.6-0.4,3-0.6,4.1-0.7c1.1-0.1,2-0.2,2.6-0.2
			c0.7,0,1.2,0.1,1.4,0.2c0.1,0.2,0.2,0.7,0.2,1.5c0,0.8-0.2,2.2-0.5,4.1c-0.3,2-0.9,4.7-1.6,8.1c-0.7,3.4-1.7,7.8-2.8,13.2
			c-0.2,1.1-0.4,2-0.6,2.9s-0.3,1.8-0.5,2.6c-0.2,0.9-0.4,1.9-0.6,3.1c-0.2,1.2-0.5,2.6-0.9,4.4c-0.1,1.1-0.2,2.2-0.1,3.4
			c0.1,1.2,0.3,2.4,0.6,3.4c0.3,1.1,0.9,1.9,1.7,2.6s1.8,1,3.3,1c1.2,0,2.7-0.7,4.6-2.2s3.9-3.4,6-5.6s4.3-4.8,6.6-7.6
			c2.3-2.8,4.4-5.4,6.4-8c2-2.6,3.8-4.9,5.4-6.9c1.6-2,2.7-3.5,3.4-4.4c0.9-1.1,1.9-1.7,2.8-1.9s1.6,0.1,2.1,0.8
			c0.5,0.7,0.6,1.8,0.3,3.2C899.7,271.9,898.9,273.5,897.5,275.4z M845.8,283.1c0.6-2.4,1.3-5.1,2.1-8.3c0.8-3.2,1.5-6.2,2.1-9.2
			c0.6-2.9,1-5.4,1.3-7.3s0.2-2.9-0.3-2.7c-0.6,0.1-1.2,0.3-1.9,0.5c-0.6,0.2-1.3,0.4-2.3,0.5s-1.9,0.3-2.8,0.5
			c0.9-1.9,1.5-3.4,1.7-4.7c0.2-1.2,0.2-2.2,0.1-2.9c-0.1-0.8-0.3-1.5-0.7-1.9c-1.3-1.1-3.6-0.2-6.8,2.6s-7,7.8-11.2,15.3
			c-1.8,3.1-3.2,6.3-4.2,9.8c-1.1,3.5-1.8,6.7-2.2,9.8c-0.4,3.1-0.5,5.7-0.3,8c0.2,2.3,0.7,3.8,1.4,4.5c1.3,1.3,2.8,1.9,4.4,1.9
			c1.6-0.1,3.3-0.5,5-1.4s3.4-2,5.1-3.4s3.2-2.9,4.6-4.4c1.3-1.5,2.5-2.9,3.3-4.2C845.2,284.7,845.7,283.7,845.8,283.1z"/>
		<path class="st3" d="M932.2,335.7c-0.6,2.8-1.3,6.4-2.2,10.6c-0.9,4.2-1.9,8.7-3,13.4c-1.1,4.7-2.4,9.4-3.9,14
			c-1.5,4.6-3.1,8.8-4.8,12.5c-1.8,3.7-3.7,6.7-5.8,9.1c-2.1,2.4-4.5,3.5-7,3.5c-3.9,0-7.2-1.1-10-3.4s-5.1-5.2-7-8.6
			c-1.9-3.5-3.3-7.2-4.1-11.2c-0.9-4-1.3-7.7-1.3-11.1c0-4.7,0.4-8.6,1.2-11.7c0.8-3.1,2.3-6.1,4.3-8.9c2-2.8,4.8-5.8,8.4-9
			s8-7.1,13.6-11.8c2.7-2.4,5.3-4.6,7.8-6.7c2.5-2.1,4.8-4,7-5.8c0.6-2.4,1.2-4.5,1.7-6.6c0.5-2,1-3.9,1.3-5.5
			c-3.1,4.1-6.7,7.6-11,10.4c-4.3,2.8-9.2,4.2-14.7,4.2c-5,0-9.1-2.3-12.2-6.8c-3.1-4.5-4.7-11.2-4.7-20c0-4.4,0.8-9.3,2.5-15
			c1.6-5.6,4-10.9,7-15.9c3.1-4.9,6.8-9.1,11.3-12.5s9.5-5.1,15-5.1c2.6,0,4.8,0.6,6.7,1.9c1.9,1.3,3.5,2.9,4.8,4.9
			c1.3,1.9,2.3,4,3,6.2c0.7,2.2,1.2,4.2,1.6,6.1c0.2-0.7,0.4-1.4,0.5-2.2c0.1-0.8,0.3-1.4,0.5-2c1.2-4,2.5-6.7,4-8.2
			s3.7-2.2,6.6-2.2c1.6,0,3,0.3,4.1,0.9c1.1,0.6,1.7,1.1,1.7,1.6c-0.6,1.3-1.1,2.3-1.4,3s-0.7,1.4-1.1,2.2c-0.3,0.8-0.7,1.7-1.1,2.9
			c-0.3,1.2-0.8,2.9-1.4,5.1c-0.2,0.8-0.7,2.7-1.3,5.7c-0.7,3-1.5,6.5-2.5,10.7c-1,4.1-2.1,8.6-3.2,13.6c-1.1,4.9-2.2,9.8-3.3,14.5
			c3.3-1.9,6.7-4.2,10.2-6.9c3.5-2.7,6.9-5.5,10-8.3s6-5.5,8.5-8c2.5-2.5,4.3-4.6,5.5-6.3c0.9-1.4,2-2.4,3.2-3s2.2-0.8,3.1-0.6
			s1.4,0.7,1.6,1.6c0.2,0.9-0.2,2.1-1.2,3.6c-2.7,4.4-6,8.5-9.9,12.6c-3.9,4-7.8,7.8-11.9,11.3c-4,3.5-8,6.5-11.8,9.2
			c-3.8,2.6-7.1,4.8-9.8,6.4c-1.2,5.3-2.2,9.6-3,12.9C933.5,330,932.8,333,932.2,335.7z M901.9,382.7c2.3,0,4.3-1.7,5.7-5.2
			c1.5-3.5,3-8.2,4.7-14.2c0.3-1.4,0.8-3.4,1.5-6.1c0.6-2.6,1.4-5.7,2.3-9.1c0.9-3.4,1.8-7.1,2.7-11s1.9-7.9,3-11.9
			c-0.9,0.8-1.9,1.7-2.9,2.6c-1,0.9-2,1.9-3.1,3.1c-2.6,2.5-5.1,4.9-7.5,7.1c-2.4,2.3-4.6,4.7-6.4,7.2c-1.9,2.5-3.4,5.3-4.5,8.2
			c-1.1,2.9-1.7,6.4-1.7,10.2c0,3.9,0.2,7,0.4,9.5s0.7,4.4,1.2,5.8c0.5,1.4,1.2,2.4,1.9,2.9C900.1,382.5,900.9,382.7,901.9,382.7z
			 M910,301c2.5,0,4.8-0.6,7-1.9c2.2-1.3,4.1-2.8,5.9-4.5c1.8-1.7,3.2-3.4,4.4-5.2c1.2-1.8,2.1-3.2,2.6-4.2c0.5-1.1,1-2.5,1.7-4.2
			c0.6-1.8,1.2-3.5,1.5-5.1c0.3-1.6,0.5-3.1,0.4-4.4c-0.1-1.3-0.5-2-1.3-2.1c-0.7-0.1-1.3-0.6-1.7-1.4s-0.7-1.8-1-2.8
			c-0.2-1.1-0.4-2.1-0.4-3.2c-0.1-1.1-0.2-2-0.3-2.8c-0.6-4.1-1.6-7.1-3-9s-3-2.8-4.8-2.8c-2.9,0-5.7,1.2-8.4,3.5s-5,5.4-7,9.1
			c-2.1,3.7-3.7,7.8-4.8,12.2c-1.2,4.4-1.8,8.6-1.8,12.6c0,4.9,0.7,8.9,2.1,11.9C902.6,299.5,905.5,301,910,301z"/>
		<path class="st3" d="M1048.5,273.8c-3.5,5.2-7.5,10.2-12,15.1c-4.5,4.9-9.2,9.2-14.2,13c-5,3.8-10.1,6.9-15.3,9.2
			c-5.2,2.4-10.3,3.5-15.2,3.5c-2.6,0-5.4-0.6-8.4-1.9c-3-1.2-5.7-3.1-8.2-5.7c-2.5-2.6-4.4-5.9-5.9-10c-1.5-4.1-1.9-9.1-1.3-15
			c0.5-4.8,2-9.9,4.5-15.2c2.5-5.4,5.6-10.2,9.3-14.7c3.7-4.5,7.9-8.2,12.5-11.1c4.6-2.9,9.3-4.4,14-4.4c4.5,0,7.7,1.1,9.7,3.4
			c2,2.2,2.9,5,2.6,8.3c-0.3,3.6-1.4,7-3.1,10.1c-1.7,3.1-3.7,5.8-6.1,8.3c-2.3,2.5-4.8,4.7-7.5,6.7s-5.1,3.8-7.5,5.5
			c-2.6,1.8-5,3.4-7.4,5c-2.3,1.6-4.4,3-6.2,4.3c0.1,2.9,0.6,5.4,1.6,7.4c0.9,2,2.1,3.6,3.5,4.9c1.4,1.2,3,2.1,4.8,2.6
			c1.8,0.5,3.7,0.8,5.5,0.8c4,0,8.2-1.3,12.5-3.8c4.3-2.5,8.6-5.6,12.8-9.2c4.2-3.6,8.1-7.3,11.6-11.2c3.6-3.9,6.6-7.2,8.9-10
			c0.8-0.9,1.7-1.5,2.6-1.7c0.9-0.2,1.6-0.1,2.1,0.4s0.8,1.1,0.8,2.1C1049.8,271.4,1049.3,272.5,1048.5,273.8z M1003.4,246.6
			c-1.4,0-3.1,0.7-5,2.1c-1.9,1.4-3.8,3.4-5.7,6.1s-3.6,5.9-5.3,9.7c-1.7,3.8-2.9,8.2-3.7,13.1c1.4-1.1,2.9-2.1,4.6-3.3
			c1.6-1.1,3.3-2.3,4.9-3.6c5-3.9,8.6-7.3,10.6-10.2s3.1-5.5,3.3-7.6c0.2-2.2,0-3.9-0.7-4.9C1005.7,247.1,1004.7,246.6,1003.4,246.6
			z"/>
		<path class="st3" d="M1060.7,304.5c0.7,0.5,1.6,0.7,2.7,0.7s2.2-0.2,3.3-0.7c1.1-0.5,2.2-1.1,3.2-1.9s1.7-1.9,2.2-3.2
			s0.5-3.1,0-5.5c-0.5-2.4-1.2-5-2.2-7.8c-1-2.8-2.1-5.5-3.3-8.4c-1.2-2.8-2.2-5.4-3-7.8c-0.7-1.8-1.3-3.4-1.8-4.9
			c-0.5-1.3-0.9-2.6-1.3-3.8c-0.4-1.2-0.7-2.1-1-2.6c-0.6,0.9-1.6,2.5-3.1,4.6c-1.5,2.1-3.1,4.3-4.8,6.6c-1.7,2.3-3.3,4.4-4.8,6.4
			s-2.6,3.3-3.2,4c-0.9,1.1-1.8,1.7-2.7,1.9s-1.6,0-2.2-0.5c-0.6-0.5-0.9-1.3-1-2.3c-0.1-1,0.4-2.2,1.3-3.6c0.7-0.9,1.8-2.4,3.2-4.5
			c1.4-2,2.8-4.2,4.2-6.4c1.4-2.2,2.7-4.1,3.9-5.8c1.2-1.7,1.8-2.7,1.9-3.1c0.2-0.9-0.1-2.2-1-3.7s-1-3.3-0.4-5.3
			c0.5-1.6,1.5-3.6,3.2-5.7c1.6-2.2,3.6-4.1,5.8-5.9c2.2-1.8,4.5-3.1,6.9-4c2.3-0.9,4.5-0.9,6.3,0.1c1.5,0.9,2.8,2,3.7,3.1
			c0.9,1.1,1.3,2.3,1.1,3.4c-0.2,0.6-0.6,1.4-1.1,2.3c-0.5,0.9-1.2,2.1-2.1,3.4s-2.3,3.1-4.1,5.2c0.3,2.7,0.8,5.2,1.5,7.4
			c0.6,2.2,1.3,4.2,1.8,5.8c0.7,2,1.5,3.8,2.3,5.5c1.1,2.1,2.2,4.3,3.3,6.5c1.2,2.2,2.2,4.4,3.2,6.6c0.9,2.2,1.7,4.2,2.3,6.1
			c0.6,1.9,0.8,3.5,0.5,4.8c-0.3,2-1.4,4.4-3.1,7.2s-3.8,5.5-6.3,8.2c-2.5,2.6-5.4,4.9-8.6,6.8s-6.6,2.8-10.1,2.8
			c-2.5,0-4.8-0.8-7.1-2.3c-2.3-1.5-4.2-3.3-5.8-5.4c-1.6-2-2.8-4.1-3.5-6.1s-0.8-3.5-0.3-4.6c0.7-1.4,1.3-2.5,1.9-3.4
			s1.5-1.8,2.6-2.8c0.5-0.4,1.1-0.8,1.8-1.2c0.6-0.4,1.4-0.7,2.5-1.1c1.1-0.4,2.3-0.8,3.7-1.2c1.2,3.6,2.2,6.5,3.2,8.5
			c0.9,2.1,1.7,3.7,2.3,4.9C1059.4,303.1,1060.1,304,1060.7,304.5z"/>
		<path class="st3" d="M1242.2,251.2c-0.6,7.4-1.8,14.8-3.5,22.3c-1.8,7.5-4,14.7-6.6,21.6c-2.6,6.9-5.7,13.4-9.2,19.5
			c-3.5,6-7.4,11.3-11.7,15.8c-4.3,4.5-8.9,8-13.8,10.6c-4.9,2.6-10,3.9-15.2,3.9c-1.1,0-2.7-0.2-4.8-0.6c-2.2-0.4-4.5-1.4-7-2.8
			s-5-3.6-7.5-6.4c-2.5-2.8-4.7-6.6-6.6-11.4s-3.2-10.7-4.1-17.7c-0.8-7-0.8-15.6,0-25.6c1.4-15.8,4.3-30.1,8.7-42.9
			c4.4-12.9,9.5-23.9,15.2-33.1c5.7-9.2,11.6-16.2,17.7-21.2c6.1-5,11.5-7.5,16.2-7.5c1.9,0,3.4,0.4,4.7,1.1
			c1.2,0.8,2.2,1.7,2.9,2.9c0.8-0.2,1.8-0.4,2.8-0.5c1.1-0.1,2.2-0.2,3.5-0.2c3.4,0,6.4,1.8,9.1,5.3c2.6,3.5,4.8,8.5,6.5,14.8
			c1.7,6.4,2.8,14,3.3,22.8C1243.4,230.8,1243.2,240.5,1242.2,251.2z M1182.7,334.6c4.6,0,9.3-2.4,14.1-7
			c4.8-4.7,9.3-11.1,13.4-19.1c4.1-8,7.6-17.4,10.6-28.1c2.9-10.7,4.9-22,6-34c0.2-3.2,0.4-6.8,0.5-10.9c0.1-4.1,0.1-8.3,0-12.5
			c-0.1-4.2-0.4-8.4-0.8-12.6s-1-7.8-1.7-11c-0.7-3.2-1.6-5.8-2.6-7.8c-1.1-2-2.3-3-3.7-3c-1.5,0.1-3.1,0.6-4.6,1.4
			c-1.3,0.7-2.8,1.9-4.5,3.4s-3.4,3.8-5,6.6c-0.3-0.2-0.6-0.6-0.8-1.1c-0.2-0.5-0.4-0.9-0.6-1.4s-0.4-1-0.5-1.6
			c-0.2-0.4-0.3-0.8-0.3-1.3c0-0.5-0.1-1.1-0.2-1.9c-2.3,2.6-5.1,6.3-8.4,11c-3.2,4.8-6.5,10.7-9.7,17.7c-3.2,7.1-6.2,15.4-8.8,24.9
			c-2.6,9.6-4.5,20.5-5.6,32.7c-0.9,10.8-1.2,19.8-0.7,27c0.5,7.2,1.4,12.9,2.7,17.1s3,7.2,5,8.9
			C1178.5,333.8,1180.6,334.6,1182.7,334.6z"/>
		<path class="st3" d="M1255.8,292.1c-1.3-1.3-2.2-2.6-2.7-3.8s-0.9-2.4-1.2-3.6c-0.2-1.3-0.2-2.6,0-3.9c0.5-1.6,1.2-3.2,2.1-4.6
			c0.8-1.3,1.9-2.6,3.3-4c1.4-1.4,3.3-2.6,5.6-3.8c1.5-3.8,2.9-7.7,4.1-11.9c1.2-4.2,2.3-8,3.3-11.4c1.1-4,2-8,2.8-12
			c2.9-10,4.5-18.1,4.6-24.4c0.1-6.3,0-10.4-0.3-12.4c-0.1-0.8-0.2-1.6-0.3-2.5c-0.2-0.7-0.4-1.5-0.6-2.4s-0.4-1.7-0.6-2.6
			c1.3-0.7,2.4-1.3,3.4-1.8s1.8-0.8,2.6-1.1c0.8-0.4,1.6-0.6,2.3-0.7c2.7-0.6,5.3-0.9,7.7-1s3.7,0.4,4,1.3c0.1,0.6,0.3,1.6,0.4,3.2
			c0.2,1.5,0.3,3.4,0.3,5.6s-0.2,4.7-0.5,7.5c-0.3,2.8-1,5.7-1.9,8.7c-0.8,2.7-1.9,6.5-3.3,11.3c-1.3,4.1-3,9.6-5.1,16.5
			c-2.1,6.9-4.9,15.7-8.3,26.3c3.5-1.2,7.4-2.3,11.6-3.4s8.6-1.9,13-2.6c4.4-0.7,8.8-1.2,13.2-1.6c4.4-0.4,8.5-0.4,12.2-0.2
			c0.7,0,1.2,0.3,1.5,1c0.3,0.6,0.3,1.3,0,2c-0.3,0.7-0.9,1.4-1.9,2s-2.4,1-4.3,1.1c-2.3,0.2-4.9,0.5-7.8,0.8
			c-2.8,0.3-5.7,0.7-8.7,1.2c-3,0.5-6,1.2-8.9,1.9c-2.9,0.8-5.7,1.7-8.3,2.7c-2,0.7-4,1.4-6,2.1c-1.7,0.6-3.4,1.3-5.2,2
			s-3.3,1.4-4.5,2l-4.1,12.9c6.8,4.8,12.1,9.8,15.8,14.8c3.7,5,6.4,9.7,8,13.9c2,4.9,3.1,9.8,3.3,14.5c0,5.2-0.8,10.4-2.3,15.6
			c-1.5,5.2-3.6,10.2-6.1,15c-2.5,4.8-5.5,9.2-8.8,13.3c-3.3,4.1-6.9,7.6-10.6,10.6c-3.7,2.9-7.5,5.2-11.3,6.7
			c-3.8,1.5-7.4,2.1-10.8,1.8c-2.5-0.2-4.5-1-6.2-2.4c-1.6-1.4-2.9-3.1-3.7-5.1c-0.8-2.1-1.3-4.4-1.4-6.9c-0.1-2.5,0.1-5,0.7-7.5
			c0.5-2.5,1.5-7,3-13.8c1.3-5.6,3.3-13.8,6-24.6C1247.6,324.3,1251.2,310,1255.8,292.1z M1266.2,300.4c-1.7,5.9-3.1,11.3-4.3,16.2
			c-1.2,4.9-2.3,9.3-3.1,13c-1.1,4.4-1.9,8.3-2.5,11.8c-1.1,4.5-2.2,8.9-3.3,13.2c-1.1,4.4-2,8.2-2.6,11.7c-0.7,3.5-0.9,6.3-0.8,8.4
			c0.1,2.1,0.9,3.2,2.3,3.2c3.4,0.2,7-1.1,10.7-4c3.7-2.9,7.1-6.5,10.1-10.9c3.1-4.4,5.6-9.2,7.6-14.3s3-9.8,3-14.2
			c0-4.8-0.8-9.6-2.3-14.3c-1.1-2.5-2.3-4.9-3.7-7.2c-1.3-2-2.8-4.1-4.7-6.4C1270.8,304.4,1268.7,302.3,1266.2,300.4z"/>
		<path class="st3" d="M689.5,560c-4.6,0.1-8.4-0.7-11.4-2.5c-3-1.8-5.3-4.3-7-7.7s-2.8-7.4-3.3-12.2c-0.5-4.8-0.5-10,0-15.6
			c0.6-4.3,1.7-8.9,3.2-13.6c1.3-4,3.3-8.4,5.9-13.2c2.6-4.8,6.2-9.5,10.7-14.1c0.9,0.2,1.7,0.5,2.3,0.8c0.6,0.3,1.1,0.6,1.4,1
			c0.3,0.5,0.6,0.9,0.7,1.2c0.2,1.3-0.1,2.8-1.1,4.4s-1.9,3.4-2.8,5.3c-2.6,5.4-4.5,10.5-5.8,15.3c-1.3,4.8-2.1,9.3-2.5,13.4
			c-0.2,3.5-0.2,6.7,0.1,9.6c0.3,2.9,0.7,5.3,1.3,7.4c0.6,2.1,1.2,3.6,1.9,4.8s1.3,1.7,1.9,1.7s1.2-0.4,1.8-1.2
			c0.6-0.8,1.3-1.8,1.8-3c0.7-1.2,1.5-3,2.5-5.4c0.9-2.4,1.9-5.2,3-8.4s2.1-6.6,3.1-10.3c1-3.7,1.9-7.4,2.7-11.2
			c1.6-7.5,3.4-16,5.3-25.5s4.6-19.4,8.3-29.7c1.2-4.4,2.6-9.1,4.4-14.3c1.4-4.5,3.2-9.7,5.4-15.6c2.2-5.9,4.7-12.4,7.5-19.3
			c0-0.6,0.5-1.1,1.5-1.7c1-0.5,2.1-1.1,3.4-1.7c1.4-0.6,3-1.2,4.8-1.8c2.3-0.8,4.2-1.3,5.5-1.4c1.3-0.1,2.4,0.1,3.1,0.5
			c0.7,0.5,1.2,1.1,1.4,1.9c0.2,0.8,0.3,1.6,0.3,2.6c0.2,3.9,0.4,7.5,0.4,10.9s0.2,6.4,0.3,9c0.1,3.1,0.2,5.8,0.2,8.3
			c0.1,3.3-0.1,7.7-0.5,13.1c-0.5,5.5-1,11.2-1.5,17.2c-0.5,6-1,11.8-1.4,17.5s-0.5,10.4-0.3,14.2c0,2,0.1,3.9,0.3,5.5
			c0.2,1.7,0.4,3.4,0.6,5c1.5-4.2,3.2-8.7,5.1-13.3c1.9-4.6,3.8-9.1,5.6-13.4s3.6-8.3,5.3-12c1.6-3.7,2.9-6.8,3.9-9.2
			c1.4-3.3,3.3-7.5,5.6-12.5c2.3-5,4.7-10.1,7.1-15.2c2.4-5,4.6-9.7,6.7-13.9c2-4.2,3.5-7.2,4.5-8.8c0.7-1.2,1.9-2.2,3.6-3.2
			s3.5-1.8,5.5-2.5c1.9-0.7,3.8-1.2,5.5-1.5c1.7-0.3,2.8-0.3,3.4-0.1c1.5,0.4,2.6,0.8,3.3,1.4c0.6,0.6,1,1,1.2,1.2
			c0.2,0.5,0.4,1.3,0.5,2.4c0.1,1.1,0.1,2.9-0.2,5.2c-0.2,2.8-0.9,7.1-2,12.9c-1.1,5.8-2.5,12.3-4,19.6c-1.6,7.4-3.3,15.2-5.1,23.5
			s-3.6,16.5-5.2,24.6c-1.7,8-3.1,15.6-4.3,22.6c-1.2,7.1-2,13-2.4,17.8c-0.2,5.4,0.1,10.2,1.1,14.3c0.3,1.8,0.9,3.5,1.6,5.1
			s1.6,3.1,2.8,4.3c1.2,1.2,2.6,2.1,4.2,2.7c1.6,0.6,3.6,0.8,5.8,0.5c-2.9,2-5.8,3.5-8.6,4.4s-5.6,1.4-8.3,1.4
			c-2.9,0.1-5.5-0.3-7.8-1.3c-2.2-1-4.1-2.4-5.6-4.2c-1.5-1.8-2.6-4-3.3-6.5c-0.7-2.5-0.9-5.3-0.7-8.4c0.2-2.8,1-7.5,2.3-13.9
			c1.3-6.5,2.8-13.8,4.7-22s3.8-16.7,6-25.6s4.2-17.2,6.2-25c1.9-7.8,3.6-14.5,5-20.2c1.4-5.6,2.3-9.3,2.6-11.1
			c0.2-1.4,0.4-2.7,0.6-4c0.2-1.2,0.4-2.3,0.6-3.3c-1.2,2.4-2.6,5.2-4.3,8.5c-1.7,3.3-3.5,6.8-5.4,10.6c-1.9,3.8-3.8,7.7-5.7,11.7
			s-3.8,8-5.5,11.7c-2.9,6.1-5.8,12.4-8.6,18.8c-2.8,6.4-5.3,12.5-7.6,18.2c-2.2,5.8-4.1,10.9-5.5,15.5c-1.5,4.6-2.3,8.1-2.6,10.6
			v2.5c0,0.7,0,1.5,0.1,2.5c0.1,0.9,0.2,1.8,0.4,2.6l-7,5.5c-1.1,0.3-2,0.6-2.7,0.9c-0.8,0.2-1.5,0.3-2.2,0.3
			c-2.7,0-4.8-1.4-6.2-4.2c-1.4-2.6-2.7-7.6-3.9-15.2c-1.2-7.5-1.5-16.8-1.1-27.7c0.2-5.4,0.6-10.9,1.2-16.4
			c0.5-5.5,1.1-10.8,1.6-15.9s1-9.8,1.5-14.2s0.7-8.2,0.7-11.4c0.1-2.4,0.1-4.5-0.2-6.4s-0.5-3.7-0.7-5.4c-1.1,2.7-2.2,6.4-3.5,11
			c-1.3,4.6-2.6,9.8-4,15.4s-2.8,11.6-4.3,17.8c-1.5,6.2-2.9,12.2-4.2,18s-2.6,11.1-3.8,16c-1.2,4.9-2.1,8.8-2.8,11.7
			c-1.2,4.7-2.3,10-3.5,16c-1.2,6-2.6,11.7-4.4,17c-1.8,5.3-4,9.9-6.9,13.6C697.7,558,694,559.9,689.5,560z"/>
		<path class="st3" d="M864.2,462.2c1.5-1.2,3-2.1,4.5-2.7c1.5-0.6,2.8-1.1,4-1.3c1.3-0.4,2.6-0.5,3.9-0.4c3.2,0.2,5.1,1.2,5.9,3
			c0.8,1.8,0.8,4.6,0.3,8.5c-0.3,2-1.1,4.5-2.1,7.6c-1.1,3.1-2.3,6.8-3.7,11.2c-1.4,4.4-2.9,9.4-4.5,15.1c-1.6,5.6-3.1,12-4.5,19
			c-1.4,5.8-2.9,12.4-4.6,19.9c-1.4,6.6-3.1,14.5-5,23.8c-1.9,9.3-4,19.9-6.3,31.9c-0.6,2.9-1.8,4.6-3.8,5.1s-4,0.2-6.1-0.7
			c-0.8-0.5-1.6-1-2.3-1.6c-0.6-0.6-1.2-1.3-1.9-2s-1.3-1.8-1.8-3.1c2.7-9.9,5.1-18.9,7.1-27s3.9-15.2,5.5-21.2
			c1.8-6.9,3.4-13.2,4.9-18.7c0.6-2.5,1.2-4.9,1.7-7.3c0.5-2.4,1.1-4.8,1.7-7.1c-1.5,2.5-3.2,4.8-4.9,7c-1.8,2.2-3.7,4.2-5.8,5.8
			s-4.4,2.9-6.8,3.8s-4.9,1.2-7.5,0.8c-6.3-0.8-10.8-3.2-13.5-7c-2.6-3.9-3.8-8.9-3.4-15.2c0.1-2.5,0.5-5.2,1.1-8.1
			c0.6-2.9,1.2-5.8,1.9-8.5c0.7-2.7,1.4-5.1,2-7.3c0.7-2.2,1.2-3.7,1.5-4.7c1.4-4.5,2.4-8.3,3.1-11.5c0.6-3.2,0.2-5.8-1.5-7.9
			c1.6-1.1,3.2-1.8,4.7-2.2s2.8-0.7,4-1c1.3-0.1,2.6-0.1,3.9,0c3.2,0.5,5,1.6,5.5,3.5c0.5,1.9,0.3,4.7-0.6,8.5
			c-0.5,2-1.2,4.6-2.3,7.7c-1.1,3.1-2.2,6.3-3.3,9.6c-1.2,3.3-2.2,6.3-3.2,9.1c-0.9,2.8-1.5,4.7-1.6,5.9c-1.1,5.3-1.1,9.4-0.2,12.2
			s3,4.3,6.2,4.3c1.5,0,3.2-0.7,5.1-2c1.9-1.3,3.8-3.1,5.7-5.4c1.9-2.2,3.8-4.8,5.7-7.7s3.6-5.8,5.2-8.7s3-5.8,4.2-8.6
			s2.1-5.4,2.7-7.6c0.8-4.4,1.3-7.8,1.6-10.2C866.9,466.4,866.1,464.2,864.2,462.2z"/>
		<path class="st3" d="M970.9,467.1c-6,0-10.8-0.6-14.5-1.9c-3.7-1.3-6.2-2.9-7.5-4.9c-0.6-0.8-1.1-2-1.6-3.7
			c-0.5-1.6-0.3-3.5,0.5-5.5c1.7,1.3,3.4,2.3,5.4,2.9s3.7,1.1,5.4,1.3c2,0.4,3.9,0.5,5.8,0.5c3.5,0,7-0.3,10.3-0.9s6.7-1.4,10-2.5
			c1.4-7,2.8-13.4,4.1-19c1.3-5.6,2.9-10.2,4.7-13.8c1.9-3.9,3.8-7.4,5.9-10.5c2.1-3.1,4.3-5.8,6.9-7.9c2.5-2.2,5.3-3.9,8.4-5
			c3-1.2,6.6-1.8,10.6-1.8c2.9,0,5.3,0.6,7,1.8c1.7,1.2,3,2.6,3.9,4.4c0.9,1.8,1.4,3.7,1.6,5.7c0.2,2.1,0.3,4,0.3,5.7
			c0,3.9-0.9,8.1-2.8,12.7c-1.9,4.6-4.5,9.1-7.9,13.6c-3.4,4.5-7.5,8.7-12.2,12.7c-4.8,4-10.1,7.3-16,9.9c-2,7.8-4,15.4-5.9,23
			s-3.8,13.8-5.7,18.8c-1.7,4.6-3.7,9.7-6.3,15.3s-5.6,11-9.2,16.2c2.2,1.4,4.5,2.9,6.8,4.4c2.3,1.5,4.6,2.9,7,4.1
			c2.3,1.2,4.7,2.3,7.1,3.1c2.4,0.8,5,1.2,7.7,1.2c2.8-0.1,5.6-0.5,8.3-1.2c2.3-0.6,4.8-1.6,7.4-2.9s5-3.3,7.2-5.7
			c0.8,1.4,1.1,3.5,0.8,6.3c-0.3,2.8-1.2,5.6-2.7,8.5c-1.5,2.8-3.7,5.3-6.5,7.4c-2.8,2.1-6.3,3.2-10.6,3.2c-4.5,0-8.6-0.6-12.5-1.8
			s-7.5-2.7-10.9-4.5s-6.6-3.7-9.6-5.7s-5.8-4-8.4-5.7c-3.5,3.4-7.4,6.2-11.6,8.3c-4.2,2.1-8.9,3.2-14.1,3.2c-4.1,0-7.4-1.2-9.9-3.4
			s-3.6-5.4-3.3-9.2c0.1-1.4,0.5-3.1,1.2-5c0.7-1.9,2-3.8,4-5.5c1.9-1.8,4.6-3.3,8-4.5c3.4-1.2,7.8-1.8,13.2-1.8
			c2,0,3.9,0.2,5.7,0.6s3.6,0.9,5.4,1.5c1.3-2.3,2.6-5,3.9-8.1c1.3-3.1,2.7-6.5,4.2-10.4c2.7-7.4,5-14.8,7-22.3
			c2-7.5,3.7-14.7,5.1-21.8c-1.7,0.4-3.4,0.6-5.2,0.7C974.6,467.1,972.8,467.1,970.9,467.1z M941.6,546.8c1.5-0.6,3.3-1.2,5.3-1.8
			c2-0.6,4.3-2.2,6.9-4.9c-1.8-0.6-3.1-0.9-4-0.9c-4.2,0-7.3,0.6-9.2,1.8c-1.9,1.2-2.9,2.4-2.9,3.6c0,0.8,0.3,1.4,1.1,1.8
			C939.3,547,940.3,547,941.6,546.8z M1008.2,424.1c-0.6,1.8-1.3,4.4-2.3,7.8s-1.9,7.4-3,11.8c6.3-4.1,11.4-8.8,15.2-14.1
			s5.7-10.6,5.7-15.9c0-3.2-0.9-4.8-2.8-4.8c-1.7,0-3.8,1.3-6.3,3.8C1012.2,415.3,1010,419.1,1008.2,424.1z"/>
		<path class="st3" d="M1045.1,460.8c0.6-0.7,1.7-1.3,3.3-1.8c1.6-0.5,3.3-0.9,5.1-1.1c1.8-0.3,3.4-0.5,4.8-0.5s2.3,0,2.6,0.1
			c0.1,0.1-0.2,1.4-0.9,3.7c-0.7,2.4-1.6,5.1-2.6,8.3s-2.2,6.4-3.3,9.8c-1.2,3.4-2.1,6.1-2.6,8.2c-0.6,2.1-1.3,4.5-2.1,7.1
			c-0.8,2.6-1.6,5.2-2.2,7.8c-0.7,2.5-1.1,4.9-1.3,7.1c-0.2,2.2-0.1,3.9,0.5,5.1c0.6,1.4,1.2,2.4,1.9,2.9c0.7,0.5,1.5,0.8,2.3,0.8
			c2.3,0,5.3-1.3,8.9-3.9c3.6-2.6,7.2-5.7,10.9-9.2c3.7-3.6,7.1-7.2,10.3-10.9c3.2-3.7,5.5-6.7,7.1-8.9c0.9-1.2,1.9-1.9,2.9-2.3
			s1.8-0.3,2.5,0.2c0.6,0.5,1,1.2,1.1,2.3s-0.3,2.3-1.2,3.7c-1.9,3.3-4.6,7.2-8.3,11.7c-3.6,4.5-7.5,8.9-11.6,13
			c-4.1,4.2-8.1,7.7-12.1,10.7c-3.9,2.9-7.1,4.5-9.6,4.6c-2,0.1-4-0.2-5.9-1c-1.9-0.8-3.7-1.8-5.3-3.2c-1.6-1.3-2.9-2.9-4-4.8
			c-1.1-1.8-1.7-3.7-1.8-5.7c-0.3-2.9-0.3-7,0-12.1c0.3-5.1,1-10.3,1.9-15.7s2.1-10.4,3.6-15.2
			C1041.5,466.7,1043.2,463.1,1045.1,460.8z M1069.4,423.2c-0.3,1.3-1,2.6-2,3.8s-2.1,2.2-3.3,3c-1.2,0.8-2.5,1.3-3.8,1.5
			s-2.3,0-3.2-0.7c-2.5-1.9-3.8-3.9-3.9-6.1c-0.1-2.2,0.4-4.2,1.6-6.2c1.2-1.9,2.6-3.6,4.4-4.9c1.8-1.4,3.3-2.1,4.6-2.4
			c1.3-0.2,2.4,0,3.3,0.8c0.9,0.8,1.6,1.8,2,3c0.5,1.2,0.7,2.6,0.8,4.1C1069.9,420.7,1069.8,422.1,1069.4,423.2z"/>
		<path class="st3" d="M1083.7,508.7c-1.3-1.3-2.2-2.6-2.7-3.8s-0.9-2.4-1.2-3.6c-0.2-1.3-0.2-2.6,0-3.9c0.5-1.6,1.2-3.2,2.1-4.6
			c0.8-1.3,1.9-2.6,3.3-4c1.4-1.4,3.3-2.6,5.6-3.8c1.5-3.8,2.9-7.7,4.1-11.9c1.2-4.2,2.3-8,3.3-11.4c1.1-4,2-8,2.8-12
			c2.9-10,4.5-18.1,4.6-24.4c0.1-6.3,0-10.4-0.3-12.4c-0.1-0.8-0.2-1.6-0.3-2.5c-0.2-0.7-0.4-1.5-0.6-2.4s-0.4-1.7-0.6-2.6
			c1.3-0.7,2.4-1.3,3.4-1.8s1.8-0.8,2.6-1.1c0.8-0.4,1.6-0.6,2.3-0.7c2.7-0.6,5.3-0.9,7.7-1s3.7,0.4,4,1.3c0.1,0.6,0.3,1.6,0.4,3.2
			c0.2,1.5,0.3,3.4,0.3,5.6s-0.2,4.7-0.5,7.5c-0.3,2.8-1,5.7-1.9,8.7c-0.8,2.7-1.9,6.5-3.3,11.3c-1.3,4.1-3,9.6-5.1,16.5
			c-2.1,6.9-4.9,15.7-8.3,26.4c3.5-1.2,7.4-2.3,11.6-3.4s8.6-1.9,13-2.6c4.4-0.7,8.8-1.2,13.2-1.6c4.4-0.4,8.5-0.4,12.2-0.2
			c0.7,0,1.2,0.3,1.5,1c0.3,0.6,0.3,1.3,0,2c-0.3,0.7-0.9,1.4-1.9,2s-2.4,1-4.3,1.1c-2.3,0.2-4.9,0.5-7.8,0.8
			c-2.8,0.3-5.7,0.7-8.7,1.2c-3,0.5-6,1.2-8.9,1.9c-2.9,0.8-5.7,1.7-8.3,2.7c-2,0.7-4,1.4-6,2.1c-1.7,0.6-3.4,1.3-5.2,2
			s-3.3,1.4-4.5,2l-4.1,12.9c6.8,4.8,12.1,9.8,15.8,14.8c3.7,5,6.4,9.7,8,13.9c2,4.9,3.1,9.8,3.3,14.5c0,5.2-0.8,10.4-2.3,15.6
			c-1.5,5.2-3.6,10.2-6.1,15c-2.5,4.8-5.5,9.2-8.8,13.3c-3.3,4.1-6.9,7.6-10.6,10.6c-3.7,2.9-7.5,5.2-11.3,6.7
			c-3.8,1.5-7.4,2.1-10.8,1.8c-2.5-0.2-4.5-1-6.2-2.4c-1.6-1.3-2.9-3.1-3.7-5.1c-0.8-2.1-1.3-4.3-1.4-6.9c-0.1-2.5,0.1-5,0.7-7.5
			c0.5-2.5,1.5-7,3-13.8c1.3-5.6,3.3-13.8,6-24.6C1075.5,540.9,1079.1,526.6,1083.7,508.7z M1094.1,517c-1.7,5.9-3.1,11.3-4.3,16.2
			c-1.2,4.9-2.3,9.3-3.1,13c-1.1,4.3-1.9,8.3-2.5,11.8c-1.1,4.5-2.2,8.9-3.3,13.2c-1.1,4.3-2,8.2-2.6,11.7c-0.7,3.5-0.9,6.3-0.8,8.4
			c0.1,2.1,0.9,3.2,2.3,3.2c3.4,0.2,7-1.1,10.7-4c3.7-2.9,7.1-6.5,10.1-10.9c3.1-4.4,5.6-9.2,7.6-14.3c2-5.1,3-9.8,3-14.2
			c0-4.8-0.8-9.6-2.3-14.3c-1.1-2.5-2.3-4.9-3.7-7.2c-1.3-2-2.8-4.1-4.7-6.4C1098.7,521,1096.6,518.9,1094.1,517z"/>
		<path class="st3" d="M1218.7,490.4c-3.5,5.2-7.5,10.2-12,15.1c-4.5,4.9-9.2,9.2-14.2,13c-5,3.8-10.1,6.9-15.3,9.2
			c-5.2,2.3-10.3,3.5-15.2,3.5c-2.6,0-5.4-0.6-8.4-1.8c-3-1.2-5.7-3.1-8.2-5.7c-2.5-2.6-4.4-5.9-5.9-10c-1.5-4.1-1.9-9.1-1.3-15
			c0.5-4.8,2-9.9,4.5-15.2c2.5-5.4,5.6-10.2,9.3-14.7c3.7-4.5,7.9-8.2,12.5-11.1c4.6-2.9,9.3-4.4,14-4.4c4.5,0,7.7,1.1,9.7,3.4
			s2.9,5,2.6,8.3c-0.3,3.6-1.4,7-3.1,10c-1.7,3.1-3.7,5.8-6.1,8.3s-4.8,4.7-7.5,6.7s-5.1,3.8-7.5,5.5c-2.6,1.8-5.1,3.4-7.4,5
			c-2.3,1.6-4.4,3-6.2,4.3c0.1,2.9,0.6,5.4,1.6,7.4c0.9,2,2.1,3.6,3.5,4.8c1.4,1.2,3,2.1,4.8,2.6c1.8,0.5,3.7,0.8,5.6,0.8
			c4,0,8.2-1.3,12.5-3.8c4.3-2.5,8.6-5.6,12.8-9.2c4.2-3.6,8.1-7.3,11.6-11.2c3.6-3.9,6.6-7.2,8.9-10c0.8-0.9,1.7-1.5,2.6-1.7
			c0.9-0.2,1.6-0.1,2.1,0.4s0.8,1.1,0.8,2.1C1219.9,488,1219.5,489.1,1218.7,490.4z M1173.6,463.3c-1.4,0-3.1,0.7-5,2.1
			c-1.9,1.4-3.8,3.4-5.7,6.1c-1.9,2.6-3.6,5.9-5.3,9.7s-2.9,8.2-3.7,13.1c1.4-1.1,2.9-2.1,4.6-3.3s3.3-2.3,4.9-3.6
			c5.1-3.9,8.6-7.3,10.6-10.2c2-2.9,3.1-5.5,3.3-7.6c0.2-2.2,0-3.9-0.7-4.9C1175.9,463.8,1174.9,463.3,1173.6,463.3z"/>
	</g>
</g>
</svg>
