<?xml version="1.0" encoding="utf-8"?>
<!-- Generator: Adobe Illustrator 26.0.0, SVG Export Plug-In . SVG Version: 6.00 Build 0)  -->
<svg version="1.1" id="Capa_1" xmlns="http://www.w3.org/2000/svg" xmlns:xlink="http://www.w3.org/1999/xlink" x="0px" y="0px"
	 viewBox="0 0 1366 768" style="enable-background:new 0 0 1366 768;" xml:space="preserve">
<style type="text/css">
	.st0{fill:url(#SVGID_1_);}
	.st1{fill:url(#SVGID_00000170237800350021401010000002178817284546794905_);}
	.st2{fill:url(#SVGID_00000155852494316265848070000007552244157045024433_);}
	.st3{fill:#191919;}
</style>
<g id="Shopicon">
	
		<radialGradient id="SVGID_1_" cx="315.2747" cy="384" r="331.7205" gradientTransform="matrix(0.6534 -0.757 0.7596 0.6557 -182.4359 370.8696)" gradientUnits="userSpaceOnUse">
		<stop  offset="0" style="stop-color:#F9ED32"/>
		<stop  offset="0.5" style="stop-color:#EE2A7B"/>
		<stop  offset="1" style="stop-color:#002AFF"/>
	</radialGradient>
	<path class="st0" d="M147.12,414.89L315.27,600.2l168.16-185.31c29.19-25.12,48.04-64.93,48.04-109.82
		c0-75.77-53.81-137.27-120.11-137.27c-39.27,0-74.23,21.69-96.09,55.05c-21.86-33.36-56.82-55.05-96.09-55.05
		c-66.3,0-120.11,61.5-120.11,137.27C99.08,349.95,117.93,389.77,147.12,414.89z M219.19,217.22c24.39,0,46.8,12.85,61.48,35.25
		l34.61,52.81l34.61-52.81c14.68-22.4,37.09-35.25,61.48-35.25c42.39,0,76.87,39.41,76.87,87.85c0,27.85-11.23,53.48-30.82,70.34
		l-2.11,1.82l-1.9,2.09L315.27,531.55L177.14,379.32l-1.9-2.09l-2.11-1.82c-19.58-16.86-30.81-42.5-30.81-70.34
		C142.32,256.63,176.8,217.22,219.19,217.22z"/>
</g>
<radialGradient id="SVGID_00000054950791496622971690000002435566734989281441_" cx="315.2747" cy="396.1071" r="137.7575" gradientTransform="matrix(0.6534 -0.757 0.6147 0.5306 -134.2114 424.6029)" gradientUnits="userSpaceOnUse">
	<stop  offset="0" style="stop-color:#F9ED32"/>
	<stop  offset="0.5" style="stop-color:#EE2A7B"/>
	<stop  offset="1" style="stop-color:#002AFF"/>
</radialGradient>
<circle style="fill:url(#SVGID_00000054950791496622971690000002435566734989281441_);" cx="315.27" cy="396.11" r="56.68"/>
<radialGradient id="SVGID_00000147930246397162617020000012763393755391035051_" cx="281.5218" cy="328.2493" r="200.0078" gradientTransform="matrix(0.6534 -0.757 0.8475 0.7316 -180.625 301.2287)" gradientUnits="userSpaceOnUse">
	<stop  offset="0" style="stop-color:#F9ED32"/>
	<stop  offset="0.5" style="stop-color:#EE2A7B"/>
	<stop  offset="1" style="stop-color:#002AFF"/>
</radialGradient>
<path style="fill:url(#SVGID_00000147930246397162617020000012763393755391035051_);" d="M247.86,292.03h-61.74
	c-6.5,0-11.77-5.27-11.77-11.77v-9.62c0-6.5,5.27-11.77,11.77-11.77h61.74c6.5,0,11.77,5.27,11.77,11.77v9.62
	C259.63,286.76,254.36,292.03,247.86,292.03z"/>
<g>
	<path class="st3" d="M698.7,378.28c1.21-1.35,3.52-2.47,6.93-3.37c3.4-0.89,6.93-1.62,10.58-2.19c3.65-0.56,6.99-0.89,10.03-1.01
		c3.04-0.11,4.8-0.05,5.29,0.17c0.24,0.23-0.36,2.58-1.82,7.07c-1.46,4.49-3.28,9.76-5.47,15.82c-2.19,6.06-4.5,12.28-6.93,18.68
		c-2.43,6.39-4.26,11.61-5.47,15.65c-1.22,4.04-2.68,8.58-4.38,13.63c-1.7,5.05-3.23,9.98-4.56,14.81
		c-1.34,4.83-2.25,9.37-2.74,13.63c-0.49,4.26-0.13,7.52,1.09,9.76c1.21,2.69,2.55,4.54,4.01,5.55c1.46,1.01,3.04,1.51,4.74,1.51
		c4.86,0,11-2.47,18.42-7.4c7.41-4.93,14.95-10.82,22.61-17.67c7.66-6.84,14.77-13.8,21.34-20.86c6.57-7.07,11.43-12.73,14.59-16.99
		c1.94-2.24,3.95-3.7,6.02-4.37c2.06-0.67,3.77-0.56,5.11,0.34c1.33,0.9,2.06,2.36,2.19,4.37c0.12,2.02-0.67,4.38-2.37,7.07
		c-3.89,6.28-9.61,13.74-17.14,22.38c-7.54,8.64-15.56,16.94-24.07,24.9c-8.51,7.97-16.84,14.75-24.98,20.36
		c-8.15,5.6-14.77,8.52-19.88,8.75c-4.14,0.22-8.21-0.4-12.22-1.85c-4.01-1.46-7.66-3.48-10.94-6.06c-3.28-2.58-6.02-5.6-8.21-9.09
		c-2.19-3.48-3.41-7.12-3.65-10.94c-0.73-5.6-0.73-13.29,0-23.05s2.06-19.74,4.01-29.95c1.94-10.21,4.43-19.91,7.48-29.11
		C691.34,389.61,694.81,382.77,698.7,378.28z M749.04,306.61c-0.73,2.47-2.13,4.88-4.19,7.23c-2.07,2.36-4.38,4.26-6.93,5.72
		c-2.55,1.46-5.17,2.41-7.84,2.86c-2.68,0.45-4.87,0-6.57-1.35c-5.11-3.59-7.79-7.46-8.02-11.61c-0.24-4.15,0.85-8.08,3.28-11.78
		c2.43-3.7,5.47-6.84,9.12-9.42c3.65-2.58,6.8-4.09,9.48-4.54c2.67-0.45,4.92,0.06,6.75,1.51c1.82,1.46,3.22,3.37,4.19,5.72
		c0.97,2.36,1.52,5,1.64,7.91C750.07,301.78,749.76,304.36,749.04,306.61z"/>
	<path class="st3" d="M879.25,451.31c-2.43,8.53-5.72,16.49-9.85,23.89c-4.14,7.4-9.06,13.8-14.77,19.18
		c-5.72,5.38-12.16,9.59-19.33,12.62c-7.18,3.03-15.02,4.54-23.53,4.54c-9.97,0-17.82-1.97-23.53-5.89
		c-5.72-3.92-9.97-8.8-12.77-14.64c-2.8-5.83-4.5-12.22-5.11-19.18c-0.6-6.95-0.91-13.46-0.91-19.52c0-4.26,0.55-8.97,1.64-14.13
		c1.09-5.16,2.61-10.43,4.56-15.82c1.94-5.38,4.43-10.77,7.48-16.15c3.04-5.38,6.62-10.32,10.76-14.81c1.46-3.81,3.7-7.18,6.75-10.1
		c3.04-2.91,6.57-5.33,10.58-7.23c4.01-1.9,8.33-3.37,12.95-4.37c4.62-1.01,9.12-1.51,13.5-1.51c0.73,0,1.4,0.12,2.01,0.34
		c0.6,0.23,1.28,0.45,2.01,0.67c3.16,0.23,7.11,1.35,11.85,3.37c4.74,2.02,9.36,5.05,13.86,9.09c4.5,4.04,8.33,9.14,11.49,15.31
		c3.16,6.17,4.74,13.63,4.74,22.38c0,1.8-0.13,3.98-0.36,6.56c-0.24,2.58-0.49,4.77-0.73,6.56c5.59-2.02,11.43-4.49,17.51-7.4
		c6.08-2.91,11.97-6,17.69-9.25c5.71-3.25,11-6.56,15.87-9.93c4.86-3.37,8.75-6.39,11.67-9.09c2.43-2.02,4.5-3.14,6.2-3.37
		c1.7-0.22,2.92,0.23,3.65,1.35c0.73,1.12,0.85,2.69,0.36,4.71c-0.49,2.02-1.82,4.26-4.01,6.73c-1.22,1.35-4.32,4.04-9.3,8.08
		c-4.99,4.04-10.88,8.41-17.69,13.12c-6.81,4.71-14.22,9.31-22.25,13.8C894.2,445.7,886.54,449.07,879.25,451.31z M794.26,459.38
		c0,4.04,0.24,8.02,0.73,11.95c0.48,3.93,1.46,7.4,2.92,10.43c1.46,3.03,3.4,5.5,5.84,7.4c2.43,1.91,5.59,2.86,9.48,2.86
		c4.38,0,8.39-0.95,12.04-2.86c3.65-1.9,6.93-4.38,9.85-7.4s5.53-6.5,7.84-10.43c2.31-3.92,4.31-8.02,6.02-12.28
		c-1.7,0.23-3.35,0.39-4.92,0.5c-1.58,0.12-3.35,0.17-5.29,0.17c-9.24,0-17.2-2.52-23.89-7.57c-6.69-5.05-11.85-11.49-15.5-19.35
		c-1.46,4.71-2.68,9.31-3.65,13.8C794.75,451.09,794.26,455.34,794.26,459.38z M817.61,400.16c-0.73,2.02-1.09,4.15-1.09,6.39
		c0,3.59,0.24,7.35,0.73,11.27c0.48,3.93,1.7,7.46,3.65,10.6c1.94,3.14,5.04,5.78,9.3,7.91c4.25,2.13,10.15,3.2,17.69,3.2
		c1.21,0,2.43-0.05,3.65-0.17c1.21-0.11,2.43-0.28,3.65-0.5c0.73-2.91,1.4-5.55,2.01-7.91c0.6-2.36,0.91-4.43,0.91-6.23
		c0.48-4.26,0.48-8.63,0-13.12c-0.49-4.49-1.4-8.58-2.74-12.28c-1.34-3.7-3.04-6.73-5.11-9.09c-2.07-2.36-4.56-3.53-7.48-3.53
		c-4.62,0-9.06,1.18-13.31,3.53C825.2,392.58,821.25,395.9,817.61,400.16z"/>
	<path class="st3" d="M1088.24,489.33c0-4.71,0.55-10.1,1.64-16.15c1.1-6.06,2.49-12.28,4.2-18.68c1.7-6.39,3.4-12.62,5.11-18.68
		c1.7-6.06,3.16-11.44,4.38-16.15c1.46-5.83,1.33-10.32-0.37-13.46c-1.7-3.14-4.62-4.71-8.75-4.71c-1.95,0-5.78,1.57-11.49,4.71
		c-5.71,3.14-11.92,8.58-18.6,16.32c-6.69,7.74-13.26,18.17-19.7,31.3c-6.44,13.12-11.49,29.78-15.14,49.97
		c-4.62,2.24-9,3.7-13.13,4.37c-2.19,0.45-4.14,0.78-5.84,1.01c-4.87,0.22-8.02-0.5-9.48-2.19c-1.46-1.68-1.22-5.77,0.73-12.28
		c0.97-3.14,2.73-8.19,5.29-15.14c2.55-6.95,5.04-14.52,7.48-22.72c2.43-8.19,4.56-16.37,6.38-24.57
		c1.83-8.19,2.74-15.31,2.74-21.37c0-4.26-0.79-7.18-2.37-8.75c-1.59-1.57-3.83-2.36-6.75-2.36c-2.19,0-5.84,1.12-10.94,3.37
		c-5.11,2.24-10.82,6.62-17.14,13.12c-6.33,6.51-12.58,15.54-18.78,27.09c-6.2,11.56-11.49,26.53-15.87,44.92v-0.67
		c-0.49,1.8-0.97,3.59-1.46,5.38c-0.49,1.57-0.85,3.26-1.09,5.05c-0.24,1.8-0.61,3.48-1.09,5.05l-18.24,7.4
		c-1.22,0.45-2.74,0.78-4.56,1.01c-1.82,0.22-3.53-0.06-5.11-0.84c-1.58-0.79-2.74-2.41-3.47-4.88c-0.73-2.47-0.48-6.17,0.73-11.1
		l22.98-87.83c0.73-2.91,1.33-5.72,1.82-8.41c0.48-2.47,0.79-4.88,0.91-7.23c0.12-2.36-0.06-4.32-0.55-5.89
		c4.13-1.79,7.78-3.14,10.94-4.04c3.16-0.89,5.71-1.57,7.66-2.02c2.43-0.67,4.5-1.01,6.2-1.01c7.78,0,10.33,6.17,7.66,18.51
		c-0.97,3.59-2.43,8.86-4.38,15.82c4.62-5.38,9.54-10.48,14.77-15.31c5.22-4.82,10.51-9.14,15.86-12.96
		c5.35-3.81,10.76-6.84,16.23-9.09c5.47-2.24,10.88-3.37,16.23-3.37c4.13,0,7.6,1.12,10.4,3.37c2.79,2.24,4.98,5.22,6.57,8.92
		c1.58,3.7,2.49,8.08,2.73,13.12c0.24,5.05,0,10.26-0.73,15.65c3.89-4.71,8.21-9.48,12.95-14.3c4.74-4.82,9.72-9.14,14.95-12.96
		c5.23-3.81,10.63-6.95,16.23-9.42c5.59-2.47,11.18-3.7,16.78-3.7c6.57,0,11.61,1.8,15.14,5.38c3.52,3.59,5.96,8.19,7.3,13.8
		c1.33,5.61,1.7,11.67,1.1,18.17c-0.61,6.51-1.64,12.79-3.1,18.84l-12.4,45.43c-2.68,11.22-0.13,16.83,7.66,16.83
		c6.08,0,12.77-2.69,20.06-8.08c7.3-5.38,14.41-11.78,21.34-19.18c6.93-7.4,13.43-15.03,19.51-22.88
		c6.08-7.85,11.18-14.13,15.32-18.84c1.46-1.57,2.98-2.47,4.56-2.69c1.58-0.22,2.92,0.06,4.01,0.84c1.1,0.79,1.7,2.08,1.83,3.87
		c0.12,1.8-0.55,4.04-2.01,6.73c-4.87,7.86-10.82,16.55-17.87,26.08c-7.06,9.54-14.77,18.46-23.16,26.75
		c-8.39,8.3-17.33,15.26-26.81,20.86c-9.48,5.6-19.33,8.41-29.54,8.41c-3.41,0-6.75-0.34-10.03-1.01c-3.28-0.67-6.33-1.91-9.12-3.7
		c-2.8-1.8-5.05-4.21-6.75-7.24C1089.09,497.91,1088.24,494.04,1088.24,489.33z"/>
	<path class="st3" d="M1180.89,499.43c10.7-41.5,19.27-74.82,25.71-99.95c6.44-25.12,11.36-44.3,14.77-57.54
		c3.89-15.7,6.56-26.58,8.02-32.64c0.73-4.26,1.33-8.41,1.82-12.45c0.48-3.59,0.73-7.29,0.73-11.11c0-3.81-0.36-7.29-1.09-10.43
		c1.94-1.12,4.07-2.02,6.38-2.69c2.31-0.67,4.56-1.23,6.75-1.68c2.67-0.67,5.34-1.23,8.02-1.68c2.67-0.45,5.11-0.67,7.3-0.67
		c1.94,0,3.77,0.17,5.47,0.51c1.7,0.34,2.79,1.07,3.28,2.19c1.46,1.12,2.13,3.37,2.01,6.73c-0.13,3.36-0.43,6.85-0.91,10.43
		c-0.97,4.26-2.07,8.86-3.28,13.8c-2.92,9.65-6.93,23.56-12.04,41.73c-4.38,15.48-10.28,36.57-17.69,63.26
		c-7.42,26.7-16.72,60.35-27.9,100.96c-1.22,1.12-2.68,1.9-4.38,2.36c-1.7,0.45-3.28,0.67-4.74,0.67c-1.7,0-3.53-0.12-5.47-0.34
		c-1.7-0.45-3.41-1.13-5.11-2.02c-1.46-0.9-2.92-2.08-4.38-3.53C1182.71,503.86,1181.61,501.9,1180.89,499.43z"/>
</g>
</svg>
