<?xml version="1.0" encoding="utf-8"?>
<svg version="1.1" id="Capa_1" xmlns="http://www.w3.org/2000/svg" xmlns:xlink="http://www.w3.org/1999/xlink" x="0px" y="0px"
	 viewBox="0 0 500 500" style="enable-background:new 0 0 500 500;" xml:space="preserve">
<style type="text/css">
	.st0{fill:url(#SVGID_1_);}
	.st1{fill:url(#SVGID_00000045588708167728797570000001208130620896018839_);}
	.st2{fill:url(#SVGID_00000124139025114160949150000001807722891739793820_);}
	.st3{fill:#F0F0F0;}
</style>
<g id="Shopicon">
	
		<radialGradient id="SVGID_1_" cx="-214.4774" cy="-121.6573" r="235.4567" gradientTransform="matrix(0.6534 -0.757 -0.7596 -0.6557 297.7147 -52.5254)" gradientUnits="userSpaceOnUse">
		<stop  offset="0" style="stop-color:#F9ED32"/>
		<stop  offset="0.5" style="stop-color:#EE2A7B"/>
		<stop  offset="1" style="stop-color:#002AFF"/>
	</radialGradient>
	<path class="st0" d="M130.6,211.5L250,343.1l119.4-131.5c20.7-17.8,34.1-46.1,34.1-77.9c0-53.8-38.2-97.4-85.2-97.4
		c-27.9,0-52.7,15.4-68.2,39.1c-15.5-23.7-40.3-39.1-68.2-39.1c-47.1,0-85.2,43.7-85.2,97.4C96.5,165.4,109.9,193.7,130.6,211.5z
		 M181.8,71.2c17.3,0,33.2,9.1,43.6,25l24.6,37.5l24.6-37.5c10.4-15.9,26.3-25,43.6-25c30.1,0,54.6,28,54.6,62.4
		c0,19.8-8,38-21.9,49.9l-1.5,1.3l-1.4,1.5l-98,108.1l-98.1-108.1l-1.4-1.5l-1.5-1.3c-13.9-12-21.9-30.2-21.9-49.9
		C127.2,99.2,151.7,71.2,181.8,71.2z"/>
</g>
<radialGradient id="SVGID_00000070834805693650758580000003659559831708102834_" cx="-214.4867" cy="-300.7039" r="97.7745" gradientTransform="matrix(0.6534 -0.757 -0.6147 -0.5306 205.3029 -123.7199)" gradientUnits="userSpaceOnUse">
	<stop  offset="0" style="stop-color:#F9ED32"/>
	<stop  offset="0.5" style="stop-color:#EE2A7B"/>
	<stop  offset="1" style="stop-color:#002AFF"/>
</radialGradient>
<circle style="fill:url(#SVGID_00000070834805693650758580000003659559831708102834_);" cx="250" cy="198.2" r="40.2"/>
<radialGradient id="SVGID_00000130612869822152806180000011436093971369786790_" cx="-238.424" cy="-7.084" r="141.9664" gradientTransform="matrix(0.6534 -0.757 -0.8475 -0.7316 375.8181 -35.6281)" gradientUnits="userSpaceOnUse">
	<stop  offset="0" style="stop-color:#F9ED32"/>
	<stop  offset="0.5" style="stop-color:#EE2A7B"/>
	<stop  offset="1" style="stop-color:#002AFF"/>
</radialGradient>
<path style="fill:url(#SVGID_00000130612869822152806180000011436093971369786790_);" d="M198.7,124.3h-37
	c-6.5,0-11.8-5.3-11.8-11.8l0,0c0-6.5,5.3-11.8,11.8-11.8h37c6.5,0,11.8,5.3,11.8,11.8l0,0C210.5,119.1,205.2,124.3,198.7,124.3z"/>
<g>
	<path class="st3" d="M111.8,395.1c0.6-0.7,1.8-1.3,3.5-1.7s3.5-0.8,5.4-1.1c1.9-0.3,3.6-0.5,5.1-0.5c1.6-0.1,2.5,0,2.7,0.1
		c0.1,0.1-0.2,1.3-0.9,3.6c-0.7,2.3-1.7,5-2.8,8.1c-1.1,3.1-2.3,6.3-3.5,9.5s-2.2,5.9-2.8,8s-1.4,4.4-2.2,7
		c-0.9,2.6-1.7,5.1-2.3,7.6s-1.2,4.8-1.4,7s-0.1,3.8,0.6,5c0.6,1.4,1.3,2.3,2.1,2.8c0.7,0.5,1.6,0.8,2.4,0.8c2.5,0,5.6-1.3,9.4-3.8
		c3.8-2.5,7.6-5.5,11.5-9c3.9-3.5,7.5-7,10.9-10.6s5.8-6.5,7.4-8.7c1-1.1,2-1.9,3.1-2.2s1.9-0.3,2.6,0.2c0.7,0.5,1.1,1.2,1.1,2.2
		c0.1,1-0.3,2.2-1.2,3.6c-2,3.2-4.9,7-8.8,11.4c-3.9,4.4-7.9,8.6-12.3,12.7c-4.4,4.1-8.6,7.5-12.8,10.4c-4.2,2.9-7.5,4.4-10.2,4.5
		c-2.1,0.1-4.2-0.2-6.2-0.9c-2.1-0.8-3.9-1.8-5.6-3.1c-1.7-1.3-3.1-2.9-4.2-4.6c-1.1-1.8-1.7-3.6-1.9-5.6c-0.4-2.9-0.4-6.8,0-11.8
		c0.4-5,1.1-10.1,2.1-15.3c1-5.2,2.3-10.2,3.8-14.9C108.1,400.9,109.8,397.4,111.8,395.1z M137.5,358.6c-0.4,1.3-1.1,2.5-2.1,3.7
		c-1.1,1.2-2.2,2.2-3.5,2.9c-1.3,0.8-2.6,1.2-4,1.5c-1.4,0.2-2.5,0-3.3-0.7c-2.6-1.8-4-3.8-4.1-5.9s0.4-4.1,1.7-6
		c1.2-1.9,2.8-3.5,4.7-4.8s3.5-2.1,4.8-2.3c1.4-0.2,2.5,0,3.4,0.8c0.9,0.8,1.6,1.7,2.1,2.9c0.5,1.2,0.8,2.5,0.8,4
		C138,356.1,137.9,357.4,137.5,358.6z"/>
	<path class="st3" d="M204,432.4c-1.2,4.4-2.9,8.4-5,12.2s-4.6,7-7.5,9.8c-2.9,2.8-6.2,4.9-9.9,6.4c-3.7,1.5-7.7,2.3-12,2.3
		c-5.1,0-9.1-1-12-3c-2.9-2-5.1-4.5-6.5-7.5c-1.4-3-2.3-6.2-2.6-9.8c-0.3-3.5-0.5-6.9-0.5-10c0-2.2,0.3-4.6,0.8-7.2s1.3-5.3,2.3-8.1
		c1-2.8,2.3-5.5,3.8-8.2c1.6-2.8,3.4-5.3,5.5-7.6c0.7-2,1.9-3.7,3.4-5.1s3.4-2.7,5.4-3.7c2.1-1,4.2-1.7,6.6-2.2
		c2.4-0.5,4.6-0.8,6.9-0.8c0.4,0,0.7,0.1,1,0.2c0.3,0.1,0.6,0.2,1,0.3c1.6,0.1,3.6,0.7,6.1,1.7s4.8,2.6,7.1,4.6
		c2.3,2.1,4.2,4.7,5.9,7.8s2.4,7,2.4,11.4c0,0.9-0.1,2-0.2,3.4s-0.2,2.4-0.4,3.4c2.9-1,5.8-2.3,8.9-3.8c3.1-1.5,6.1-3.1,9-4.7
		c2.9-1.7,5.6-3.4,8.1-5.1c2.5-1.7,4.5-3.3,6-4.6c1.2-1,2.3-1.6,3.2-1.7c0.9-0.1,1.5,0.1,1.9,0.7s0.4,1.4,0.2,2.4
		c-0.2,1-0.9,2.2-2.1,3.4c-0.6,0.7-2.2,2.1-4.8,4.1c-2.6,2.1-5.6,4.3-9,6.7c-3.5,2.4-7.3,4.8-11.4,7
		C211.6,429.6,207.7,431.3,204,432.4z M160.6,436.5c0,2.1,0.1,4.1,0.4,6.1c0.2,2,0.7,3.8,1.5,5.3c0.7,1.5,1.7,2.8,3,3.8
		c1.2,1,2.9,1.5,4.8,1.5c2.2,0,4.3-0.5,6.1-1.5s3.5-2.2,5-3.8s2.8-3.3,4-5.3s2.2-4.1,3.1-6.3c-0.9,0.1-1.7,0.2-2.5,0.3
		c-0.8,0.1-1.7,0.1-2.7,0.1c-4.7,0-8.8-1.3-12.2-3.9c-3.4-2.6-6.1-5.9-7.9-9.9c-0.7,2.4-1.4,4.8-1.9,7
		C160.8,432.3,160.6,434.5,160.6,436.5z M172.5,406.3c-0.4,1-0.6,2.1-0.6,3.3c0,1.8,0.1,3.8,0.4,5.8s0.9,3.8,1.9,5.4s2.6,3,4.8,4
		c2.2,1.1,5.2,1.6,9,1.6c0.6,0,1.2,0,1.9-0.1s1.2-0.1,1.9-0.3c0.4-1.5,0.7-2.8,1-4c0.3-1.2,0.5-2.3,0.5-3.2c0.2-2.2,0.2-4.4,0-6.7
		s-0.7-4.4-1.4-6.3c-0.7-1.9-1.6-3.4-2.6-4.6s-2.3-1.8-3.8-1.8c-2.4,0-4.6,0.6-6.8,1.8C176.4,402.4,174.4,404.1,172.5,406.3z"/>
	<path class="st3" d="M310.6,451.8c0-2.4,0.3-5.1,0.8-8.2s1.3-6.3,2.1-9.5c0.9-3.3,1.7-6.4,2.6-9.5s1.6-5.8,2.2-8.2
		c0.7-3,0.7-5.3-0.2-6.9s-2.4-2.4-4.5-2.4c-1,0-3,0.8-5.9,2.4c-2.9,1.6-6.1,4.4-9.5,8.3c-3.4,4-6.8,9.3-10,16
		c-3.3,6.7-5.9,15.2-7.7,25.5c-2.4,1.1-4.6,1.9-6.7,2.2c-1.1,0.2-2.1,0.4-3,0.5c-2.5,0.1-4.1-0.3-4.8-1.1c-0.7-0.9-0.6-3,0.4-6.3
		c0.5-1.6,1.4-4.2,2.7-7.7c1.3-3.5,2.6-7.4,3.8-11.6c1.2-4.2,2.3-8.4,3.3-12.5c0.9-4.2,1.4-7.8,1.4-10.9c0-2.2-0.4-3.7-1.2-4.5
		c-0.8-0.8-2-1.2-3.4-1.2c-1.1,0-3,0.6-5.6,1.7s-5.5,3.4-8.8,6.7c-3.2,3.3-6.4,7.9-9.6,13.8s-5.9,13.5-8.1,22.9V451
		c-0.2,0.9-0.5,1.8-0.7,2.8c-0.2,0.8-0.4,1.7-0.6,2.6c-0.1,0.9-0.3,1.8-0.6,2.6l-9.3,3.8c-0.6,0.2-1.4,0.4-2.3,0.5
		c-0.9,0.1-1.8,0-2.6-0.4s-1.4-1.2-1.8-2.5c-0.4-1.3-0.2-3.1,0.4-5.7l11.7-44.8c0.4-1.5,0.7-2.9,0.9-4.3c0.2-1.3,0.4-2.5,0.5-3.7
		c0.1-1.2,0-2.2-0.3-3c2.1-0.9,4-1.6,5.6-2.1c1.6-0.5,2.9-0.8,3.9-1c1.2-0.3,2.3-0.5,3.2-0.5c4,0,5.3,3.1,3.9,9.5
		c-0.5,1.8-1.2,4.5-2.2,8.1c2.4-2.8,4.9-5.4,7.5-7.8c2.7-2.5,5.4-4.7,8.1-6.6c2.7-2,5.5-3.5,8.3-4.6c2.8-1.1,5.5-1.7,8.3-1.7
		c2.1,0,3.9,0.6,5.3,1.7c1.4,1.1,2.5,2.7,3.4,4.5c0.8,1.9,1.3,4.1,1.4,6.7c0.1,2.6,0,5.2-0.4,8c2-2.4,4.2-4.8,6.6-7.3
		c2.4-2.5,5-4.7,7.6-6.6c2.7-2,5.4-3.5,8.3-4.8s5.7-1.9,8.6-1.9c3.4,0,5.9,0.9,7.7,2.8c1.8,1.8,3,4.2,3.7,7c0.7,2.9,0.9,6,0.6,9.3
		s-0.8,6.5-1.6,9.6l-6.3,23.2c-1.4,5.7-0.1,8.6,3.9,8.6c3.1,0,6.5-1.4,10.2-4.1s7.4-6,10.9-9.8s6.9-7.7,10-11.7
		c3.1-4,5.7-7.2,7.8-9.6c0.7-0.8,1.5-1.3,2.3-1.4s1.5,0,2,0.4s0.9,1.1,0.9,2c0.1,0.9-0.3,2.1-1,3.4c-2.5,4-5.5,8.5-9.1,13.3
		c-3.6,4.9-7.5,9.4-11.8,13.7s-8.8,7.8-13.7,10.6s-9.9,4.3-15.1,4.3c-1.7,0-3.4-0.2-5.1-0.5c-1.7-0.3-3.2-1-4.6-1.9
		c-1.4-0.9-2.6-2.1-3.4-3.7C311.1,456.2,310.6,454.2,310.6,451.8z"/>
	<path class="st3" d="M357.9,457c5.5-21.2,9.8-38.2,13.1-51c3.3-12.8,5.8-22.6,7.5-29.4c2-8,3.4-13.6,4.1-16.7
		c0.4-2.2,0.7-4.3,0.9-6.4c0.2-1.8,0.4-3.7,0.4-5.7s-0.2-3.7-0.6-5.3c1-0.6,2.1-1,3.3-1.4c1.2-0.3,2.3-0.6,3.4-0.9
		c1.4-0.3,2.7-0.6,4.1-0.9c1.4-0.2,2.6-0.3,3.7-0.3c1,0,1.9,0.1,2.8,0.3s1.4,0.5,1.7,1.1c0.7,0.6,1.1,1.7,1,3.4s-0.2,3.5-0.5,5.3
		c-0.5,2.2-1.1,4.5-1.7,7c-1.5,4.9-3.5,12-6.1,21.3c-2.2,7.9-5.2,18.7-9,32.3c-3.8,13.6-8.5,30.8-14.2,51.5c-0.6,0.6-1.4,1-2.2,1.2
		c-0.9,0.2-1.7,0.3-2.4,0.3c-0.9,0-1.8-0.1-2.8-0.2c-0.9-0.2-1.7-0.6-2.6-1c-0.7-0.5-1.5-1.1-2.2-1.8
		C358.9,459.2,358.3,458.2,357.9,457z"/>
</g>
</svg>
