<?xml version="1.0" encoding="utf-8"?>
<!-- Generator: Adobe Illustrator 26.3.1, SVG Export Plug-In . SVG Version: 6.00 Build 0)  -->
<svg version="1.1" id="Capa_1" xmlns="http://www.w3.org/2000/svg" xmlns:xlink="http://www.w3.org/1999/xlink" x="0px" y="0px"
	 viewBox="0 0 800 800" style="enable-background:new 0 0 800 800;" xml:space="preserve">
<style type="text/css">
	.st0{fill:none;stroke:#000000;stroke-width:50;stroke-linecap:round;stroke-linejoin:round;stroke-miterlimit:133.3333;}
</style>
<path class="st0" d="M400,166.7c-125.2,0-218.8,81.3-274.4,148c-41.7,50-41.7,120.7,0,170.7c55.6,66.6,149.2,148,274.4,148
	c125.2,0,218.8-81.3,274.4-148c41.7-50,41.7-120.7,0-170.7C618.8,248,525.2,166.7,400,166.7z"/>
<path class="st0" d="M400,500c55.2,0,100-44.8,100-100s-44.8-100-100-100s-100,44.8-100,100S344.8,500,400,500z"/>
</svg>
