<?xml version="1.0" encoding="utf-8"?>
<!-- Generator: Adobe Illustrator 26.0.0, SVG Export Plug-In . SVG Version: 6.00 Build 0)  -->
<svg version="1.1" xmlns="http://www.w3.org/2000/svg" xmlns:xlink="http://www.w3.org/1999/xlink" x="0px" y="0px"
	 viewBox="0 0 1920 1080" style="enable-background:new 0 0 1920 1080;" xml:space="preserve">
<style type="text/css">
	.st0{fill:none;}
	.st1{fill-rule:evenodd;clip-rule:evenodd;fill:#97F930;}
	.st2{fill-rule:evenodd;clip-rule:evenodd;fill:#507E20;}
	.st3{fill-rule:evenodd;clip-rule:evenodd;fill:url(#Nueva_muestra_de_motivo_25);}
</style>
<pattern  width="100" height="100" patternUnits="userSpaceOnUse" id="Nueva_muestra_de_motivo_25" viewBox="0 -100 100 100" style="overflow:visible;">
	<g>
		<rect y="-100" class="st0" width="100" height="100"/>
		<g id="Page-1_00000115509578188041302210000017238241883351133861_">
			<g id="Artboard-5_00000109015399345346108280000008998499058620713654_">
				<path id="Combined-Shape_00000127030617644552116980000000830278772188235660_" class="st1" d="M0,0h3.52l7.07-7.07L7.07-10.6
					L0-3.52V0z M0-96.47V-100h3.52l7.07,7.05l-3.52,3.52L0-96.5V-96.47z M100,0v-3.52l-7.07-7.08L89.4-7.08L96.47,0H100z M100-100
					h-3.53l-7.08,7.07l3.53,3.53l7.08-7.07V-100z M50-53.53l-7.08-7.07l-3.52,3.52L46.47-50l-7.07,7.08l3.52,3.52L50-46.47
					l7.08,7.07l3.52-3.52L53.53-50l7.07-7.05l-3.52-3.52L50-53.5V-53.53z"/>
			</g>
		</g>
	</g>
</pattern>
<g id="Capa_1">
</g>
<g id="Patron">
	<rect class="st2" width="1920" height="1080"/>
	<rect class="st3" width="1920" height="1080"/>
</g>
</svg>
