<?xml version="1.0" encoding="utf-8"?>
<!-- Generator: Adobe Illustrator 26.0.0, SVG Export Plug-In . SVG Version: 6.00 Build 0)  -->
<svg version="1.1" id="Capa_1" xmlns="http://www.w3.org/2000/svg" xmlns:xlink="http://www.w3.org/1999/xlink" x="0px" y="0px"
	 viewBox="0 0 250 250" style="enable-background:new 0 0 250 250;" xml:space="preserve">
<style type="text/css">
	.st0{fill:none;}
	.st1{fill-rule:evenodd;clip-rule:evenodd;fill:#30A2F9;}
	.st2{fill-rule:evenodd;clip-rule:evenodd;fill:#20557A;}
	.st3{fill-rule:evenodd;clip-rule:evenodd;fill:url(#SVGID_1_);}
	.st4{opacity:0.33;fill-rule:evenodd;clip-rule:evenodd;}
</style>
<pattern  width="150" height="40" patternUnits="userSpaceOnUse" id="Nueva_muestra_de_motivo_79" viewBox="0 -40 150 40" style="overflow:visible;">
	<g>
		<rect y="-40" class="st0" width="150" height="40"/>
		<g>
			<rect y="-40" class="st0" width="150" height="40"/>
			<g id="Page-1_00000064313542780022008270000011724415598178936996_">
				<g id="bank-note_00000061436182515822618530000010934147590875638163_">
					<path id="Combined-Shape_00000129188062549472337190000008480181590659470001_" class="st1" d="M31.78-40h-9.5
						c3.09,1.2,6.37,2.7,10.09,4.55c0.54,0.27,2.39,1.19,2.65,1.32C49.72-26.79,59.06-24,75-24c15.84,0,23.83-2.56,38.06-10.14
						c4.64-2.47,8.58-4.4,12.35-5.86h-9.34c-1.32,0.66-2.69,1.38-4.13,2.14C98.04-30.44,90.41-28,75-28
						c-15.53,0-24.54-2.7-38.94-9.87c-0.25-0.13-2.11-1.06-2.65-1.33C32.86-39.47,32.31-39.74,31.78-40L31.78-40z M31.78,0h-9.5
						C14.93-2.85,8.62-4,0-4v-4l0,0C12.12-8,19.89-5.78,31.78,0L31.78,0z M116.07,0h9.34c7.52-2.92,14.33-4,24.59-4v-4
						C135.75-8,127.86-5.93,116.07,0L116.07,0z M0-28L0-28v4c12.25,0,19.84,2.32,32.36,8.55c0.54,0.27,2.39,1.19,2.65,1.32
						C49.72-6.79,59.06-4,75-4c15.84,0,23.83-2.56,38.06-10.14C126.96-21.56,134.59-24,150-24v-4c-15.84,0-23.83,2.56-38.06,10.14
						C98.04-10.44,90.41-8,75-8c-15.53,0-24.54-2.7-38.94-9.87c-0.25-0.13-2.11-1.05-2.65-1.32C20.58-25.58,12.66-28,0-28L0-28z"/>
				</g>
			</g>
		</g>
	</g>
</pattern>
<g id="Patron">
	<rect class="st2" width="250" height="250"/>
	<pattern  id="SVGID_1_" xlink:href="#Nueva_muestra_de_motivo_79" patternTransform="matrix(1 0 0 -1 -84 -14698)">
	</pattern>
	<rect class="st3" width="250" height="250"/>
</g>
<rect class="st4" width="250" height="250"/>
</svg>
