<?xml version="1.0" encoding="utf-8"?>
<!-- Generator: Adobe Illustrator 26.0.0, SVG Export Plug-In . SVG Version: 6.00 Build 0)  -->
<svg version="1.1" xmlns="http://www.w3.org/2000/svg" xmlns:xlink="http://www.w3.org/1999/xlink" x="0px" y="0px"
	 viewBox="0 0 1920 1080" style="enable-background:new 0 0 1920 1080;" xml:space="preserve">
<style type="text/css">
	.st0{fill:none;}
	.st1{fill-rule:evenodd;clip-rule:evenodd;fill:#30A2F9;}
	.st2{fill-rule:evenodd;clip-rule:evenodd;fill:#20557A;}
	.st3{fill-rule:evenodd;clip-rule:evenodd;fill:url(#Nueva_muestra_de_motivo_79);}
</style>
<pattern  width="150" height="40" patternUnits="userSpaceOnUse" id="Nueva_muestra_de_motivo_79" viewBox="0 -40 150 40" style="overflow:visible;">
	<g>
		<rect y="-40" class="st0" width="150" height="40"/>
		<g id="Page-1_00000175286322595853977000000008545336767578013333_">
			<g id="bank-note_00000106118218877728010580000003799079747790696577_">
				<path id="Combined-Shape_00000107550042761645296150000002265923292101195942_" class="st1" d="M31.78,0h-9.5
					c3.09-1.2,6.37-2.7,10.09-4.55c0.54-0.27,2.39-1.19,2.65-1.32C49.72-13.21,59.06-16,75-16c15.84,0,23.83,2.56,38.06,10.14
					c4.64,2.47,8.58,4.4,12.35,5.86h-9.34c-1.32-0.66-2.69-1.38-4.13-2.14C98.04-9.56,90.41-12,75-12c-15.53,0-24.54,2.7-38.94,9.87
					C35.81-2,33.95-1.07,33.41-0.8C32.86-0.53,32.31-0.26,31.78,0L31.78,0z M31.78-40h-9.5C14.93-37.15,8.62-36,0-36v4l0,0
					C12.12-32,19.89-34.22,31.78-40L31.78-40z M116.07-40h9.34c7.52,2.92,14.33,4,24.59,4v4C135.75-32,127.86-34.07,116.07-40
					L116.07-40z M0-12L0-12v-4c12.25,0,19.84-2.32,32.36-8.55c0.54-0.27,2.39-1.19,2.65-1.32C49.72-33.21,59.06-36,75-36
					c15.84,0,23.83,2.56,38.06,10.14C126.96-18.44,134.59-16,150-16v4c-15.84,0-23.83-2.56-38.06-10.14C98.04-29.56,90.41-32,75-32
					c-15.53,0-24.54,2.7-38.94,9.87c-0.25,0.13-2.11,1.05-2.65,1.32C20.58-14.42,12.66-12,0-12L0-12z"/>
			</g>
		</g>
	</g>
</pattern>
<g id="Capa_1">
</g>
<g id="Patron">
	<rect class="st2" width="1920" height="1080"/>
	<rect class="st3" width="1920" height="1080"/>
</g>
</svg>
