<?xml version="1.0" encoding="utf-8"?>
<!-- Generator: Adobe Illustrator 26.0.0, SVG Export Plug-In . SVG Version: 6.00 Build 0)  -->
<svg version="1.1" id="Capa_1" xmlns="http://www.w3.org/2000/svg" xmlns:xlink="http://www.w3.org/1999/xlink" x="0px" y="0px"
	 viewBox="0 0 250 250" style="enable-background:new 0 0 250 250;" xml:space="preserve">
<style type="text/css">
	.st0{fill:none;}
	.st1{fill-rule:evenodd;clip-rule:evenodd;fill:#F9B330;}
	.st2{fill-rule:evenodd;clip-rule:evenodd;fill:#7E5D20;}
	.st3{fill-rule:evenodd;clip-rule:evenodd;fill:url(#SVGID_1_);}
	.st4{opacity:0.33;fill-rule:evenodd;clip-rule:evenodd;}
</style>
<pattern  width="100" height="100" patternUnits="userSpaceOnUse" id="Nueva_muestra_de_motivo_4" viewBox="0 -100 100 100" style="overflow:visible;">
	<g>
		<rect y="-100" class="st0" width="100" height="100"/>
		<g>
			<rect y="-100" class="st0" width="100" height="100"/>
			<g id="Page-1_00000035522234914493009980000013655496641130265771_">
				<g id="Artboard-5_00000048474956505650328650000013239645624317528204_">
					<path id="Combined-Shape_00000037685005243537250350000004437111317034879660_" class="st1" d="M0-100h3.52l7.07,7.07
						L7.07-89.4L0-96.48V-100z M0-3.53V0h3.52l7.07-7.05l-3.52-3.52L0-3.5V-3.53z M100-100v3.52l-7.07,7.08l-3.53-3.52l7.07-7.08
						H100z M100,0h-3.53l-7.08-7.07l3.53-3.53L100-3.53V0z M50-46.47l-7.08,7.07l-3.52-3.52L46.47-50l-7.07-7.08l3.52-3.52L50-53.53
						l7.08-7.07l3.52,3.52L53.53-50l7.07,7.05l-3.52,3.52L50-46.5V-46.47z"/>
				</g>
			</g>
		</g>
	</g>
</pattern>
<g id="Patron">
	<rect class="st2" width="250" height="250"/>
	<pattern  id="SVGID_1_" xlink:href="#Nueva_muestra_de_motivo_4" patternTransform="matrix(1 0 0 -1 -69 -15763)">
	</pattern>
	<rect class="st3" width="250" height="250"/>
</g>
<rect class="st4" width="250" height="250"/>
</svg>
