<?xml version="1.0" encoding="utf-8"?>
<!-- Generator: Adobe Illustrator 26.0.0, SVG Export Plug-In . SVG Version: 6.00 Build 0)  -->
<svg version="1.1" id="Capa_1" xmlns="http://www.w3.org/2000/svg" xmlns:xlink="http://www.w3.org/1999/xlink" x="0px" y="0px"
	 viewBox="0 0 16 16" style="enable-background:new 0 0 16 16;" xml:space="preserve">
<style type="text/css">
	.st0{fill:none;}
	.st1{fill-rule:evenodd;clip-rule:evenodd;fill:#006100;}
	.st2{fill-rule:evenodd;clip-rule:evenodd;fill:none;}
	.st3{fill-rule:evenodd;clip-rule:evenodd;fill:#D9EFDB;}
	.st4{fill-rule:evenodd;clip-rule:evenodd;fill:url(#Nueva_muestra_de_motivo_15);}
</style>
<pattern  width="1.2" height="1" patternUnits="userSpaceOnUse" id="Nueva_muestra_de_motivo_15" viewBox="0 -1 1.2 1" style="overflow:visible;">
	<g>
		<rect y="-1" class="st0" width="1.2" height="1"/>
		<g id="Page-1_00000093162854055055924510000008777834105042032817_">
			<g id="cage_00000059309619939864703620000016362764493829299605_">
				<path id="Combined-Shape_00000020387765743010952830000005836508310956419975_" class="st1" d="M0.4-1v0.15
					c0,0.11-0.07,0.19-0.17,0.19c-0.09,0-0.17-0.09-0.17-0.19V-1H0v0.15C0-0.7,0.1-0.58,0.23-0.58c0.13,0,0.23-0.12,0.23-0.27V-1
					H0.4z M0.47,0H0.4v-0.23c0-0.11-0.07-0.19-0.17-0.19c-0.09,0-0.17,0.09-0.17,0.19V0H0v-0.23C0-0.38,0.1-0.5,0.23-0.5
					c0.13,0,0.23,0.12,0.23,0.27V0L0.47,0z M0.53-0.35c0,0.15,0.1,0.27,0.23,0.27C0.9-0.08,1-0.2,1-0.35v-0.38C1-0.88,0.9-1,0.77-1
					C0.64-1,0.53-0.88,0.53-0.73V-0.35z M0.6-0.35c0,0.11,0.07,0.19,0.17,0.19c0.09,0,0.17-0.09,0.17-0.19v-0.38
					c0-0.11-0.07-0.19-0.17-0.19c-0.09,0-0.17,0.09-0.17,0.19V-0.35z"/>
			</g>
		</g>
		<rect y="-1" class="st2" width="1.2" height="1"/>
	</g>
</pattern>
<rect class="st3" width="16" height="16"/>
<rect class="st4" width="16" height="16"/>
</svg>
