<?xml version="1.0" encoding="utf-8"?>
<!-- Generator: Adobe Illustrator 26.0.0, SVG Export Plug-In . SVG Version: 6.00 Build 0)  -->
<svg version="1.1" id="Capa_1" xmlns="http://www.w3.org/2000/svg" xmlns:xlink="http://www.w3.org/1999/xlink" x="0px" y="0px"
	 viewBox="0 0 250 250" style="enable-background:new 0 0 250 250;" xml:space="preserve">
<style type="text/css">
	.st0{fill:none;}
	.st1{fill:#97F930;}
	.st2{fill-rule:evenodd;clip-rule:evenodd;fill:#507E20;}
	.st3{fill-rule:evenodd;clip-rule:evenodd;fill:url(#SVGID_1_);}
	.st4{opacity:0.33;fill-rule:evenodd;clip-rule:evenodd;}
</style>
<pattern  width="60" height="105" patternUnits="userSpaceOnUse" id="Nueva_muestra_de_motivo_37" viewBox="0 -105 60 105" style="overflow:visible;">
	<g>
		<rect y="-105" class="st0" width="60" height="105"/>
		<g>
			<rect y="-105" class="st0" width="60" height="105"/>
			<g>
				<g id="hexagons_00000013184299157654352940000001383620435792578974_">
					<path class="st1" d="M2.14-35.89v-32.14L29.98-84.1l27.86,16.07v32.14L29.98-19.82L2.14-35.89z M29.98-24.77l23.57-13.59
						v-27.19L29.98-79.16L6.43-65.57v27.21L29.98-24.77z M0-32.12v4.93L23.53-13.6V0h4.29v-16.07L0-32.14V-32.12z M0-71.81v-4.93
						l23.53-13.59V-105h4.29v17.14L0-71.79V-71.81z M36.43,0v-13.61L59.98-27.2H60v-4.95h-0.02L32.14-16.07V0H36.43z M36.43-105
						v14.68l23.55,13.59H60v4.95h-0.02L32.14-87.86V-105H36.43z"/>
				</g>
			</g>
		</g>
	</g>
</pattern>
<g id="Patron">
	<rect class="st2" width="250" height="250"/>
	<pattern  id="SVGID_1_" xlink:href="#Nueva_muestra_de_motivo_37" patternTransform="matrix(1 0 0 -1 -109 -15833)">
	</pattern>
	<rect class="st3" width="250" height="250"/>
</g>
<rect class="st4" width="250" height="250"/>
</svg>
