<?xml version="1.0" encoding="utf-8"?>
<!-- Generator: Adobe Illustrator 26.0.0, SVG Export Plug-In . SVG Version: 6.00 Build 0)  -->
<svg version="1.1" xmlns="http://www.w3.org/2000/svg" xmlns:xlink="http://www.w3.org/1999/xlink" x="0px" y="0px"
	 viewBox="0 0 1920 1080" style="enable-background:new 0 0 1920 1080;" xml:space="preserve">
<style type="text/css">
	.st0{fill:none;}
	.st1{fill:#F4FF35;}
	.st2{fill-rule:evenodd;clip-rule:evenodd;fill:#797E20;}
	.st3{fill-rule:evenodd;clip-rule:evenodd;fill:url(#Nueva_muestra_de_motivo_12);}
</style>
<pattern  width="100" height="100" patternUnits="userSpaceOnUse" id="Nueva_muestra_de_motivo_12" viewBox="0 -100 100 100" style="overflow:visible;">
	<g>
		<rect y="-100" class="st0" width="100" height="100"/>
		<path class="st1" d="M7.37-69.22c1.06-3.01-0.51-6.3-3.52-7.36v-12.06c3.78-0.77,6.73-3.72,7.5-7.5H23.4
			c1.06,3.01,4.36,4.58,7.37,3.52s4.58-4.36,3.52-7.36H0v34.28C3.01-64.64,6.3-66.21,7.37-69.22z M0,0h34.29
			c-0.58-1.65-1.88-2.95-3.53-3.53C27.75-4.58,24.46-3.01,23.4,0H11.35c-0.77-3.78-3.72-6.73-7.5-7.5v-12.06
			c3.01-1.06,4.58-4.36,3.52-7.36C6.3-29.92,3.01-31.5,0-30.44V0z M100,0v-30.44c-1.65,0.58-2.95,1.88-3.53,3.53
			c-1.06,3.01,0.52,6.3,3.53,7.36V-7.5c-3.78,0.77-6.73,3.72-7.5,7.5H80.44c-0.58-1.65-1.88-2.95-3.53-3.53
			c-3.01-1.06-6.3,0.52-7.36,3.53H100z M0-38.61c2.52,0.54,5.16,0.04,7.31-1.38l8.5,8.56c-0.75,1.57-0.75,3.39,0,4.96
			c1.37,2.88,4.81,4.1,7.69,2.73c2.88-1.37,4.1-4.81,2.73-7.69s-4.81-4.1-7.69-2.73L10-42.68c2.13-3.22,2.13-7.4,0-10.61l8.56-8.52
			c1.57,0.74,3.4,0.74,4.97-0.02c2.87-1.38,4.08-4.83,2.69-7.7c-1.38-2.87-4.83-4.08-7.7-2.69c-2.87,1.38-4.08,4.83-2.69,7.7
			l-8.52,8.52C5.16-57.43,2.52-57.93,0-57.39v18.8V-38.61z M100-99.98H69.56c-1.06,3.01,0.51,6.3,3.52,7.36s6.3-0.51,7.37-3.52H92.5
			c0.77,3.78,3.72,6.73,7.5,7.5v12.06c-1.65,0.58-2.95,1.88-3.53,3.53c-1.06,3.01,0.52,6.3,3.53,7.36V-99.98z M100-57.39
			c-1.15,0.23-2.29,0.71-3.31,1.38l-8.52-8.52c0.75-1.58,0.75-3.41,0-4.98c-1.38-2.87-4.82-4.09-7.7-2.71
			c-2.87,1.38-4.09,4.82-2.71,7.69c1.38,2.87,4.82,4.09,7.7,2.71l8.52,8.52c-2.13,3.22-2.13,7.4,0,10.61l-8.52,8.52
			c-1.57-0.76-3.4-0.76-4.97-0.02c-2.88,1.36-4.11,4.8-2.75,7.68c1.36,2.88,4.8,4.11,7.68,2.75c2.88-1.36,4.11-4.8,2.75-7.68
			l8.52-8.54c1.01,0.67,2.13,1.14,3.31,1.38C100-38.59,100-57.39,100-57.39z M42.6-100c-0.54,2.52-0.04,5.16,1.38,7.31l-8.52,8.52
			c-1.57-0.76-3.4-0.76-4.97-0.02c-2.88,1.36-4.11,4.8-2.75,7.68s4.8,4.11,7.68,2.75c2.88-1.36,4.11-4.8,2.75-7.68l8.52-8.54
			c3.22,2.13,7.4,2.13,10.62,0l8.52,8.56c-0.75,1.57-0.75,3.39,0,4.96c1.37,2.88,4.81,4.1,7.69,2.73c2.88-1.37,4.1-4.81,2.73-7.69
			s-4.81-4.1-7.69-2.73l-8.54-8.52c1.42-2.15,1.92-4.78,1.38-7.31H42.6V-100z M61.4,0c-0.23-1.15-0.69-2.29-1.38-3.31l8.54-8.52
			c1.57,0.74,3.4,0.74,4.97-0.02c2.87-1.38,4.08-4.83,2.69-7.7c-1.38-2.87-4.83-4.08-7.7-2.69c-2.87,1.38-4.08,4.83-2.69,7.7
			l-8.52,8.52c-3.22-2.13-7.4-2.13-10.62,0l-8.52-8.52c0.75-1.58,0.75-3.41,0-4.98c-1.38-2.87-4.82-4.09-7.7-2.71
			c-2.87,1.38-4.09,4.82-2.71,7.69c1.38,2.87,4.82,4.09,7.7,2.71l8.52,8.52C43.31-2.29,42.85-1.15,42.6,0C42.6,0,61.4,0,61.4,0z
			 M73.4-46.14c0.58,1.64,1.87,2.93,3.52,3.52c3,1.06,6.3-0.51,7.36-3.52c1.06-3-0.51-6.3-3.52-7.36c-3-1.06-6.3,0.51-7.36,3.52
			H61.35c-0.77-3.78-3.72-6.73-7.5-7.5v-12.06c1.64-0.58,2.94-1.87,3.52-3.52c1.06-3-0.51-6.3-3.52-7.36c-3-1.06-6.3,0.51-7.36,3.52
			c-1.06,3,0.51,6.3,3.52,7.36v12.06c-3.78,0.77-6.73,3.72-7.5,7.5H30.44c-0.58-1.64-1.87-2.93-3.52-3.52
			c-3-1.06-6.3,0.51-7.36,3.52s0.51,6.3,3.52,7.36c3,1.06,6.3-0.51,7.36-3.52H42.5c0.77,3.78,3.72,6.73,7.5,7.5v12.06
			c-1.64,0.58-2.94,1.87-3.52,3.52c-1.06,3,0.51,6.3,3.52,7.36c3,1.06,6.3-0.51,7.36-3.52c1.06-3-0.51-6.3-3.52-7.36v-12.06
			c3.78-0.77,6.73-3.72,7.5-7.5H73.4z"/>
	</g>
</pattern>
<g id="Capa_1">
</g>
<g id="Patron">
	<rect class="st2" width="1920" height="1080"/>
	<rect class="st3" width="1920" height="1080"/>
</g>
</svg>
