<?xml version="1.0" encoding="utf-8"?>
<!-- Generator: Adobe Illustrator 26.0.0, SVG Export Plug-In . SVG Version: 6.00 Build 0)  -->
<svg version="1.1" id="Capa_1" xmlns="http://www.w3.org/2000/svg" xmlns:xlink="http://www.w3.org/1999/xlink" x="0px" y="0px"
	 viewBox="0 0 16 16" style="enable-background:new 0 0 16 16;" xml:space="preserve">
<style type="text/css">
	.st0{fill:none;}
	.st1{fill-rule:evenodd;clip-rule:evenodd;fill:#303030;}
	.st2{fill-rule:evenodd;clip-rule:evenodd;fill:#808080;}
	.st3{fill-rule:evenodd;clip-rule:evenodd;fill:url(#Nueva_muestra_de_motivo_2);}
</style>
<pattern  width="4" height="1" patternUnits="userSpaceOnUse" id="Nueva_muestra_de_motivo_2" viewBox="0 -1 4 1" style="overflow:visible;">
	<g>
		<rect y="-1" class="st0" width="4" height="1"/>
		<g>
			<g id="autumn_00000049942919202440842190000004062964088470534018_">
				<path class="st1" d="M0.59-1l1.22,0.53v-0.44c0-0.03,0-0.06-0.01-0.09h0.1C1.9-0.97,1.9-0.94,1.9-0.91v0.58l-0.1-0.04L0.38-1
					H0.59z M1.8,0c-0.03-0.09-0.1-0.17-0.2-0.21L0.1-0.87v0.44c0,0.13,0.08,0.24,0.21,0.3L0.59,0H0.38L0.26-0.05
					C0.1-0.12,0-0.27,0-0.42V-1l0.1,0.04l1.55,0.68C1.77-0.23,1.86-0.12,1.89,0H1.8z M3.41,0l0.29-0.13C3.82-0.18,3.9-0.3,3.9-0.42
					v-0.44L2.4-0.21C2.31-0.17,2.23-0.09,2.2,0h-0.1c0.03-0.12,0.12-0.23,0.25-0.28L3.9-0.96L4-1v0.58c0,0.16-0.1,0.3-0.26,0.37
					L3.62,0H3.41z M3.41-1L2.19-0.47v-0.44c0-0.03,0-0.06,0.01-0.09h-0.1C2.1-0.97,2.1-0.94,2.1-0.91v0.58l0.1-0.04L3.62-1H3.41z"/>
			</g>
		</g>
	</g>
</pattern>
<g>
	<g id="autumn_00000132060523482163473470000018162617907879422107_">
		<path class="st1" d="M22.53,2.58l1.43,0.62l0.1,0.04V2.67c0-0.03,0-0.06-0.01-0.09h-0.1c0.01,0.03,0.01,0.06,0.01,0.09v0.44
			l-1.22-0.53H22.53z M24.05,3.58c-0.03-0.12-0.12-0.23-0.25-0.28l-1.55-0.68l-0.1-0.04v0.58c0,0.16,0.1,0.3,0.26,0.37l0.12,0.05
			h0.21l-0.29-0.13c-0.13-0.06-0.21-0.17-0.21-0.3V2.72l1.5,0.66c0.1,0.04,0.17,0.12,0.2,0.21H24.05z M25.77,3.58l0.12-0.05
			c0.16-0.07,0.26-0.21,0.26-0.37V2.58l-0.1,0.04L24.51,3.3c-0.13,0.06-0.22,0.16-0.25,0.28h0.1c0.03-0.09,0.1-0.17,0.2-0.21
			l1.5-0.66v0.44c0,0.13-0.08,0.24-0.21,0.3l-0.29,0.13H25.77z M25.77,2.58l-1.43,0.62l-0.1,0.04V2.67c0-0.03,0-0.06,0.01-0.09h0.1
			c-0.01,0.03-0.01,0.06-0.01,0.09v0.44l1.22-0.53H25.77z"/>
	</g>
</g>
<rect class="st2" width="16" height="16"/>
<rect class="st3" width="16" height="16"/>
</svg>
