<?xml version="1.0" encoding="utf-8"?>
<!-- Generator: Adobe Illustrator 26.0.0, SVG Export Plug-In . SVG Version: 6.00 Build 0)  -->
<svg version="1.1" id="Capa_1" xmlns="http://www.w3.org/2000/svg" xmlns:xlink="http://www.w3.org/1999/xlink" x="0px" y="0px"
	 viewBox="0 0 16 16" style="enable-background:new 0 0 16 16;" xml:space="preserve">
<style type="text/css">
	.st0{fill:none;}
	.st1{fill-rule:evenodd;clip-rule:evenodd;fill:#6E6FB0;}
	.st2{fill-rule:evenodd;clip-rule:evenodd;fill:#DED9E6;}
	.st3{fill-rule:evenodd;clip-rule:evenodd;fill:url(#Nueva_muestra_de_motivo_6);}
</style>
<pattern  width="4" height="1" patternUnits="userSpaceOnUse" id="Nueva_muestra_de_motivo_6" viewBox="0 -1 4 1" style="overflow:visible;">
	<g>
		<rect y="-1" class="st0" width="4" height="1"/>
		<g>
			<g id="autumn_00000145770107450820576130000014601729024035834810_">
				<path class="st1" d="M0.59-1l1.22,0.53v-0.44c0-0.03,0-0.06-0.01-0.09h0.1C1.9-0.97,1.9-0.94,1.9-0.91v0.58l-0.1-0.04L0.38-1
					H0.59z M1.8,0c-0.03-0.09-0.1-0.17-0.2-0.21L0.1-0.87v0.44c0,0.13,0.08,0.24,0.21,0.3L0.59,0H0.38L0.26-0.05
					C0.1-0.12,0-0.27,0-0.42V-1l0.1,0.04l1.55,0.68C1.77-0.23,1.86-0.12,1.89,0H1.8z M3.41,0l0.29-0.13C3.82-0.18,3.9-0.3,3.9-0.42
					v-0.44L2.4-0.21C2.31-0.17,2.23-0.09,2.2,0h-0.1c0.03-0.12,0.12-0.23,0.25-0.28L3.9-0.96L4-1v0.58c0,0.16-0.1,0.3-0.26,0.37
					L3.62,0H3.41z M3.41-1L2.19-0.47v-0.44c0-0.03,0-0.06,0.01-0.09h-0.1C2.1-0.97,2.1-0.94,2.1-0.91v0.58l0.1-0.04L3.62-1H3.41z"/>
			</g>
		</g>
	</g>
</pattern>
<rect class="st2" width="16" height="16"/>
<rect class="st3" width="16" height="16"/>
</svg>
