<?xml version="1.0" encoding="utf-8"?>
<svg version="1.1" id="Capa_1" xmlns="http://www.w3.org/2000/svg" xmlns:xlink="http://www.w3.org/1999/xlink" x="0px" y="0px"
	 viewBox="0 0 16 16" style="enable-background:new 0 0 16 16;" xml:space="preserve">
<style type="text/css">
	.st0{fill:none;}
	.st1{fill-rule:evenodd;clip-rule:evenodd;fill:#57BFC0;}
	.st2{fill-rule:evenodd;clip-rule:evenodd;fill:#E9FDFF;}
	.st3{fill-rule:evenodd;clip-rule:evenodd;fill:url(#Nueva_muestra_de_motivo_11);}
</style>
<pattern  width="8" height="2" patternUnits="userSpaceOnUse" id="Nueva_muestra_de_motivo_11" viewBox="0 -2 8 2" style="overflow:visible;">
	<g>
		<rect y="-2" class="st0" width="8" height="2"/>
		<desc>Created with Sketch.</desc>
		<desc>Created with Sketch.</desc>
		<desc>Created with Sketch.</desc>
		<desc>Created with Sketch.</desc>
		<desc>Created with Sketch.</desc>
		<desc>Created with Sketch.</desc>
		<desc>Created with Sketch.</desc>
		<desc>Created with Sketch.</desc>
		<desc>Created with Sketch.</desc>
		<g id="Page-1_00000138556963253336562410000004283229362603596961_">
			<g id="bank-note_00000108279481156137462750000011762968879703532683_">
				<path id="Combined-Shape_00000047036789711291292120000001692644135732833409_" class="st1" d="M1.69,0H1.19
					c0.17-0.06,0.34-0.14,0.54-0.23c0.03-0.01,0.13-0.06,0.14-0.07C2.65-0.66,3.15-0.8,4-0.8c0.84,0,1.27,0.13,2.03,0.51
					C6.28-0.17,6.49-0.07,6.69,0h-0.5C6.12-0.03,6.05-0.07,5.97-0.11C5.23-0.48,4.82-0.6,4-0.6c-0.83,0-1.31,0.13-2.08,0.49
					C1.91-0.1,1.81-0.05,1.78-0.04C1.75-0.03,1.72-0.01,1.69,0L1.69,0z M1.69-2H1.19C0.8-1.86,0.46-1.8,0-1.8v0.2l0,0
					C0.65-1.6,1.06-1.71,1.69-2L1.69-2z M6.19-2h0.5C7.09-1.85,7.45-1.8,8-1.8v0.2C7.24-1.6,6.82-1.7,6.19-2L6.19-2z M0-0.6L0-0.6
					v-0.2c0.65,0,1.06-0.12,1.73-0.43c0.03-0.01,0.13-0.06,0.14-0.07C2.65-1.66,3.15-1.8,4-1.8c0.84,0,1.27,0.13,2.03,0.51
					C6.77-0.92,7.18-0.8,8-0.8v0.2c-0.84,0-1.27-0.13-2.03-0.51C5.23-1.48,4.82-1.6,4-1.6c-0.83,0-1.31,0.13-2.08,0.49
					C1.91-1.1,1.81-1.05,1.78-1.04C1.1-0.72,0.68-0.6,0-0.6L0-0.6z"/>
			</g>
		</g>
	</g>
</pattern>
<desc>Created with Sketch.</desc>
<desc>Created with Sketch.</desc>
<desc>Created with Sketch.</desc>
<desc>Created with Sketch.</desc>
<desc>Created with Sketch.</desc>
<desc>Created with Sketch.</desc>
<desc>Created with Sketch.</desc>
<desc>Created with Sketch.</desc>
<desc>Created with Sketch.</desc>
<rect class="st2" width="16" height="16"/>
<rect class="st3" width="16" height="16"/>
</svg>
