<?xml version="1.0" encoding="utf-8"?>
<!-- Generator: Adobe Illustrator 26.0.0, SVG Export Plug-In . SVG Version: 6.00 Build 0)  -->
<svg version="1.1" id="Capa_1" xmlns="http://www.w3.org/2000/svg" xmlns:xlink="http://www.w3.org/1999/xlink" x="0px" y="0px"
	 viewBox="0 0 250 250" style="enable-background:new 0 0 250 250;" xml:space="preserve">
<style type="text/css">
	.st0{fill:none;}
	.st1{fill-rule:evenodd;clip-rule:evenodd;fill:#F93030;}
	.st2{fill-rule:evenodd;clip-rule:evenodd;fill:#7E2020;}
	.st3{fill-rule:evenodd;clip-rule:evenodd;fill:url(#SVGID_1_);}
	.st4{opacity:0.33;fill-rule:evenodd;clip-rule:evenodd;}
</style>
<pattern  width="75" height="75" patternUnits="userSpaceOnUse" id="Nueva_muestra_de_motivo_85" viewBox="0 -75 75 75" style="overflow:visible;">
	<g>
		<rect y="-75" class="st0" width="75" height="75"/>
		<g>
			<rect y="-75" class="st0" width="75" height="75"/>
			<g id="Page-1_00000080208063006084422540000014852783849067119527_">
				<g id="melt_00000160895635695190734300000006837423675986264448_">
					<path id="Combined-Shape_00000091694581937928628670000003414683555021034880_" class="st1" d="M62.5-75H75v22.5v-0.02
						C74.99-56.64,72.19-60,68.74-60c-3.47,0-6.24-3.36-6.24-7.5V-75z M0-75h25v7.5c0,4.17-2.8,7.5-6.25,7.5
						c-3.48,0-6.25,3.36-6.25,7.5c0,4.17-2.8,7.5-6.25,7.5C2.77-45,0-48.35,0-52.49V-75z M50-52.49c0,4.17,2.8,7.49,6.25,7.49
						c3.48,0,6.25,3.36,6.25,7.5c0,4.17,2.8,7.5,6.25,7.5c3.48,0,6.25,3.35,6.25,7.49V0H62.5v-7.5c0-4.17-2.8-7.5-6.25-7.5
						C52.77-15,50-18.36,50-22.5c0-4.17-2.8-7.5-6.25-7.5c-3.48,0-6.25,3.36-6.25,7.5c0,4.17-2.8,7.5-6.25,7.5
						C27.77-15,25-11.64,25-7.5V0H0v-7.5C0-3.36,2.8,0,6.25,0c3.48,0,6.25-3.35,6.25-7.49V-22.5c0-4.17,2.8-7.49,6.25-7.49
						c3.48,0,6.25-3.36,6.25-7.5c0-4.17,2.8-7.5,6.25-7.5c3.48,0,6.25-3.35,6.25-7.49v-15.01c0-4.18,2.8-7.51,6.25-7.51
						c3.48,0,6.25,3.35,6.25,7.49V-52.49z"/>
				</g>
			</g>
		</g>
	</g>
</pattern>
<g id="Patron">
	<rect y="0" class="st2" width="250" height="250"/>
	<pattern  id="SVGID_1_" xlink:href="#Nueva_muestra_de_motivo_85" patternTransform="matrix(1 0 0 -1 -19 -15713)">
	</pattern>
	<rect y="0" class="st3" width="250" height="250"/>
</g>
<rect y="0" class="st4" width="250" height="250"/>
</svg>
