<?xml version="1.0" encoding="utf-8"?>
<!-- Generator: Adobe Illustrator 26.0.0, SVG Export Plug-In . SVG Version: 6.00 Build 0)  -->
<svg version="1.1" xmlns="http://www.w3.org/2000/svg" xmlns:xlink="http://www.w3.org/1999/xlink" x="0px" y="0px"
	 viewBox="0 0 1920 1080" style="enable-background:new 0 0 1920 1080;" xml:space="preserve">
<style type="text/css">
	.st0{fill:none;}
	.st1{fill-rule:evenodd;clip-rule:evenodd;fill:#F4FF35;}
	.st2{fill-rule:evenodd;clip-rule:evenodd;fill:#797E20;}
	.st3{fill-rule:evenodd;clip-rule:evenodd;fill:url(#Nueva_muestra_de_motivo_84);}
</style>
<pattern  width="75" height="75" patternUnits="userSpaceOnUse" id="Nueva_muestra_de_motivo_84" viewBox="0 -75 75 75" style="overflow:visible;">
	<g>
		<rect y="-75" class="st0" width="75" height="75"/>
		<g id="Page-1_00000083782063106566503880000008213484677938337676_">
			<g id="melt_00000042011762303893744280000016600186293475655303_">
				<path id="Combined-Shape_00000097485489901091540770000011430131026063000966_" class="st1" d="M62.5,0H75v-22.5l0,0.02
					C74.99-18.36,72.19-15,68.74-15c-3.47,0-6.24,3.36-6.24,7.5V0z M0,0h25v-7.5c0-4.17-2.8-7.5-6.25-7.5
					c-3.48,0-6.25-3.36-6.25-7.5c0-4.17-2.8-7.5-6.25-7.5C2.77-30,0-26.65,0-22.51V0z M50-22.51c0-4.17,2.8-7.49,6.25-7.49
					c3.48,0,6.25-3.36,6.25-7.5c0-4.17,2.8-7.5,6.25-7.5c3.48,0,6.25-3.35,6.25-7.49V-75H62.5v7.5c0,4.17-2.8,7.5-6.25,7.5
					C52.77-60,50-56.64,50-52.5c0,4.17-2.8,7.5-6.25,7.5c-3.48,0-6.25-3.36-6.25-7.5c0-4.17-2.8-7.5-6.25-7.5
					C27.77-60,25-63.36,25-67.5V-75H0v7.5C0-71.64,2.8-75,6.25-75c3.48,0,6.25,3.35,6.25,7.49v15.01c0,4.17,2.8,7.49,6.25,7.49
					c3.48,0,6.25,3.36,6.25,7.5c0,4.17,2.8,7.5,6.25,7.5c3.48,0,6.25,3.35,6.25,7.49v15.01C37.5-3.33,40.3,0,43.75,0
					C47.23,0,50-3.35,50-7.49V-22.51z"/>
			</g>
		</g>
	</g>
</pattern>
<g id="Capa_1">
</g>
<g id="Patron">
	<rect class="st2" width="1920" height="1080"/>
	<rect class="st3" width="1920" height="1080"/>
</g>
</svg>
